<svg width="65" height="71" viewBox="0 0 65 71" fill="none" xmlns="http://www.w3.org/2000/svg">
<path d="M18.9689 65.673C16.022 63.0897 13.92 59.68 12.9359 55.8867C11.9518 52.0934 12.1312 48.0918 13.4506 44.4017L20.2844 25.3763C20.4415 24.9367 20.7207 24.551 21.0893 24.2645C21.4579 23.978 21.9006 23.8026 22.3654 23.7588C22.8302 23.715 23.2978 23.8047 23.7134 24.0173C24.129 24.2299 24.4754 24.5567 24.7118 24.9592L25.7064 26.7238C26.4764 27.9751 26.6369 29.5151 26.1556 30.8947L23.0114 39.6855L24.391 40.9047L43.5127 19.2484C44.6356 17.9651 46.5606 17.8367 47.876 18.9597C49.1273 20.0826 49.2556 22.0397 48.1648 23.2909L33.8877 39.4288L35.7485 41.0651L53.2339 21.2376C54.3569 19.9542 56.3139 19.8259 57.5652 20.9488C58.8485 22.0717 58.9769 24.0609 57.7898 25.3122L40.3364 45.1397L42.1973 46.7759L57.2444 29.7076C58.3673 28.4242 60.3244 28.2959 61.5756 29.4188C62.8269 30.5417 62.9873 32.4988 61.8644 33.6859L46.8173 50.8184L48.646 52.4547L58.8164 40.9367C59.9394 39.6534 61.8964 39.5251 63.1798 40.648C64.4631 41.7709 64.5594 43.728 63.4364 44.9151L46.7531 63.9084C45.046 65.8508 42.9727 67.4374 40.6517 68.5775C38.3307 69.7177 35.8077 70.3889 33.227 70.5528C30.6463 70.7167 28.0586 70.3701 25.612 69.5327C23.1654 68.6954 20.908 67.3838 18.9689 65.673ZM30.8077 26.3709L39.9194 16.0401C40.6894 15.1738 41.6518 14.4359 42.7106 14.0188L43.9298 11.5163C44.1111 11.1548 44.2185 10.7607 44.2456 10.3571C44.2726 9.95359 44.2188 9.54869 44.0874 9.16619C43.9559 8.78369 43.7493 8.43129 43.4799 8.12967C43.2104 7.82804 42.8834 7.58325 42.5181 7.40965C41.7854 7.05829 40.9438 7.0094 40.1754 7.27356C39.4069 7.53772 38.7732 8.09371 38.4114 8.82132L30.3585 25.3122C30.5189 25.6651 30.7114 26.018 30.8077 26.3709ZM28.9148 22.4567V22.6172L37.8339 4.42591C38.1822 3.68915 38.2259 2.8448 37.9556 2.07601C37.6853 1.30721 37.1229 0.675985 36.3902 0.319239C36.0284 0.139197 35.6345 0.0328906 35.2312 0.0065047C34.828 -0.0198812 34.4235 0.0341798 34.0414 0.165543C33.6592 0.296906 33.307 0.502948 33.0052 0.771684C32.7035 1.04042 32.4581 1.36648 32.2835 1.73091L23.8135 19.088C25.8989 19.4409 27.7277 20.628 28.9148 22.4567ZM8.92685 42.7655L15.7606 23.7401C16.6269 21.3338 18.6481 19.6976 21.0544 19.1522L27.9202 5.06757C28.275 4.33539 28.3257 3.49256 28.0612 2.72313C27.7967 1.95369 27.2385 1.32017 26.5085 0.960905C26.1467 0.780863 25.7528 0.674557 25.3496 0.648171C24.9463 0.621786 24.5419 0.675847 24.1597 0.80721C23.7776 0.938573 23.4254 1.14462 23.1236 1.41335C22.8218 1.68209 22.5765 2.00815 22.4019 2.37257L9.66477 28.3601L8.0606 27.558L8.73435 18.2217C8.86268 16.778 8.28518 15.3342 7.25852 14.3076L5.78268 12.8317C4.27477 11.4522 1.80435 12.3826 1.64393 14.4359L0.039768 34.6163C-0.377315 41.1613 2.51018 47.4176 7.57935 51.3317C7.51518 48.5084 7.93227 45.5888 8.92685 42.7655Z" />
</svg>
