<svg width="80" height="80" viewBox="0 0 80 80" fill="none" xmlns="http://www.w3.org/2000/svg">
<g clip-path="url(#clip0_94_676)">
<path d="M20.9505 68.6421C21.4062 67.9215 22.3568 67.7072 23.0794 68.1617C23.8021 68.6162 24.0169 69.564 23.5612 70.2847L20.4297 75.2707C19.974 75.9913 19.0234 76.2056 18.3008 75.7511C17.5781 75.2966 17.3633 74.3488 17.819 73.6281L20.9505 68.6421ZM4.27734 48.8993C4.49219 49.7238 4.00391 50.5678 3.17708 50.7821C2.35026 50.9963 1.50391 50.5094 1.28906 49.6849C1.03516 48.711 0.813802 47.7307 0.625 46.7374C0.442708 45.7506 0.299479 44.7703 0.195313 43.7899C0.130208 43.1537 0.078125 42.5045 0.0520833 41.8488C0.0130208 41.1411 0 40.4854 0 39.8881C0 28.8709 4.47917 18.8988 11.7188 11.686C18.9518 4.46664 28.9518 0 40 0C51.0482 0 61.0547 4.43418 68.3008 11.6275C75.5339 18.8079 80 28.741 80 39.7388C80 40.5893 79.3034 41.284 78.4505 41.284C77.5977 41.284 76.901 40.5893 76.901 39.7388C76.901 29.585 72.7799 20.431 66.1198 13.8154C59.4401 7.18038 50.2083 3.09029 40 3.09029C29.8112 3.09029 20.5859 7.20635 13.9063 13.8674C7.23307 20.5284 3.09896 29.7278 3.09896 39.8881C3.09896 40.5633 3.11198 41.1671 3.13802 41.7059C3.16406 42.2967 3.20964 42.8875 3.26823 43.4783C3.36589 44.3872 3.49609 45.2896 3.66536 46.1856C3.83464 47.075 4.03646 47.9774 4.27734 48.8993ZM8.44401 62.89C7.79948 63.4484 6.82292 63.3769 6.26302 62.7342C5.70312 62.0915 5.77474 61.1177 6.41927 60.5593C6.8099 60.2217 7.15495 59.8192 7.44792 59.3518C7.75391 58.8713 8.00781 58.3065 8.20964 57.6638C9.24479 54.3787 8.61979 50.9509 7.98828 47.4775C7.55859 45.1144 7.1224 42.7317 7.14193 40.2452C7.22005 27.5205 15.2018 17.1459 25.6445 11.8288C30.026 9.59548 34.8568 8.25809 39.7266 8.00489C44.6159 7.7517 49.5443 8.60867 54.0951 10.7641C64.2578 15.5813 72.513 26.8583 74.2318 46.8283C74.3034 47.6788 73.6654 48.4254 72.8125 48.4968C71.9596 48.5682 71.2109 47.932 71.1393 47.0815C69.5312 28.3904 62.0117 17.938 52.7734 13.5557C48.6979 11.6211 44.2773 10.8615 39.8828 11.0822C35.4622 11.3094 31.0612 12.5365 27.0508 14.575C17.5521 19.4052 10.2995 28.7865 10.2279 40.2517C10.2148 42.459 10.625 44.7053 11.0286 46.9322C11.7318 50.7886 12.4219 54.593 11.1654 58.5857C10.8854 59.4816 10.5143 60.2867 10.0651 61.0008C9.60938 61.7214 9.0625 62.3512 8.44401 62.89ZM71.1068 53.2426C71.1068 52.3856 71.8034 51.6975 72.6562 51.6975C73.5091 51.6975 74.2057 52.3921 74.2057 53.2426V59.7218C74.2057 60.5788 73.5091 61.267 72.6562 61.267C71.8034 61.267 71.1068 60.5723 71.1068 59.7218V53.2426ZM13.0273 69.181C12.3893 69.7458 11.4128 69.6874 10.8464 69.0511C10.2799 68.4149 10.3385 67.4411 10.9766 66.8762C12.8971 65.1883 14.2969 63.0069 15.1042 60.2737C15.9375 57.456 16.1458 54.0347 15.6576 49.9381C14.7591 45.5364 14.5964 41.4722 15.1237 37.8041C15.6706 33.9672 16.9727 30.5653 18.9583 27.6568C19.4401 26.9557 20.4036 26.7739 21.1068 27.2543C21.8099 27.7347 21.9922 28.6956 21.5104 29.3967C19.7917 31.9092 18.6654 34.8761 18.1836 38.2391C17.7083 41.5696 17.8581 45.2767 18.6849 49.3213C18.7044 49.3992 18.724 49.4771 18.7305 49.555C19.2773 54.0801 19.0234 57.917 18.0729 61.1436C17.0964 64.4547 15.3841 67.1035 13.0273 69.181ZM28.763 22.7033C28.0208 23.1317 27.0768 22.8785 26.6471 22.1384C26.2174 21.3983 26.4714 20.457 27.2135 20.0285C28.9453 19.0287 30.7943 18.2366 32.7018 17.6588C37.9362 16.0747 43.6198 16.1202 48.7891 17.925C53.9844 19.7428 58.6523 23.3265 61.8294 28.8124C62.8906 30.6367 63.7826 32.6818 64.4727 34.9476C65.4557 38.1807 66.1263 41.7904 66.4714 45.7571C66.8099 49.6589 66.8294 53.9438 66.53 58.6052C66.53 58.6506 66.5234 58.6896 66.5169 58.735L65.4362 69.3692C65.3516 70.2132 64.5964 70.8365 63.7435 70.7521C62.8971 70.6677 62.2721 69.9146 62.3568 69.0641L63.4375 58.4169V58.4104C63.724 53.9243 63.7044 49.7823 63.3789 46.0103C63.0534 42.2318 62.4284 38.8364 61.5169 35.8435C60.9049 33.8244 60.1042 32.0001 59.1536 30.3576C56.3737 25.5533 52.2982 22.4176 47.7734 20.8335C43.2227 19.2429 38.2161 19.204 33.6003 20.5998C31.9271 21.1192 30.306 21.8138 28.763 22.7033ZM25.3581 63.721C25.2083 64.5585 24.4076 65.1233 23.5677 64.974C22.7279 64.8247 22.1615 64.0262 22.3112 63.1887C22.6693 61.1891 22.8711 58.9493 22.9427 56.5082C23.0143 54.0347 22.9557 51.3274 22.7865 48.4319C22.7539 47.8086 22.6953 47.0361 22.6432 46.283C22.2917 41.3554 22.0117 37.3821 24.9023 32.2598C25.5404 31.1301 26.3021 30.0784 27.2135 29.1176C28.125 28.1567 29.1732 27.2868 30.3646 26.5272C30.4427 26.4752 30.5208 26.4363 30.6055 26.4038C32.3698 25.5598 34.1211 24.9041 35.8724 24.4756C37.6758 24.0342 39.4661 23.8394 41.2305 23.9368C42.0833 23.9822 42.7409 24.7029 42.6953 25.5533C42.6497 26.4038 41.9271 27.0595 41.0742 27.0141C39.6094 26.9362 38.1185 27.0985 36.6016 27.4685C35.0911 27.8386 33.5417 28.4164 31.9661 29.1695C31.0091 29.7863 30.1758 30.4744 29.4661 31.2275C28.737 32.0001 28.1185 32.8441 27.6042 33.766C25.1693 38.0898 25.4167 41.6475 25.7292 46.0622C25.7747 46.7114 25.8203 47.3866 25.8724 48.2566C26.0417 51.2041 26.1003 53.9957 26.0286 56.5861C25.944 59.2219 25.7357 61.6111 25.3581 63.721ZM47.1615 28.8968C46.4323 28.4554 46.2044 27.501 46.6471 26.7804C47.0898 26.0532 48.0404 25.826 48.7695 26.2675C49.2448 26.5596 49.707 26.8713 50.1563 27.2088C50.599 27.5399 51.0352 27.9035 51.4714 28.2995C57.3698 33.6426 59.3685 42.2318 59.4987 51.217C59.6224 59.9685 57.9753 69.0966 56.4648 75.829C56.2826 76.66 55.4557 77.1859 54.6224 76.9976C53.7891 76.8158 53.2617 75.9913 53.4505 75.1603C54.9219 68.5902 56.5365 59.7024 56.4128 51.2495C56.2956 43.0304 54.5378 35.2462 49.388 30.5783C49.0299 30.2537 48.6589 29.9486 48.2878 29.6694C47.9167 29.3772 47.5391 29.124 47.1615 28.8968ZM28.0924 77.7052C27.5977 78.3999 26.6341 78.5687 25.9375 78.0753C25.2409 77.5819 25.0716 76.621 25.5664 75.9264C26.6602 74.3877 27.5846 72.6998 28.3398 70.869C29.0951 69.0252 29.681 67.0191 30.0846 64.8507C30.8398 60.806 30.4818 55.6512 30.1367 50.7821C30.0195 49.1395 29.9089 47.536 29.8372 45.8869C29.7331 43.4783 29.6875 41.1152 30.1367 38.9662C30.625 36.6226 31.6797 34.5905 33.7956 33.1103C34.2708 32.7792 34.7852 32.4805 35.3385 32.2273C35.8919 31.9741 36.4909 31.7469 37.1354 31.5651C37.6172 31.4288 38.0924 31.3184 38.5547 31.2405C41.7253 30.7017 44.2383 31.5197 46.1784 33.2076C48.0208 34.8112 49.2708 37.1744 50.0391 39.8557C50.2669 40.6607 50.4557 41.4982 50.6055 42.3552C50.6836 42.8226 50.7552 43.2965 50.8073 43.7705C50.8594 44.2379 50.9049 44.7183 50.9375 45.2117C51.263 50.1069 51.0482 56.216 50.3841 62.1954C49.7461 67.928 48.6914 73.5762 47.2917 77.9714C47.0312 78.783 46.1654 79.2309 45.3516 78.9777C44.5378 78.718 44.0885 77.8546 44.3424 77.043C45.6706 72.8686 46.6797 67.4281 47.2982 61.8643C47.9427 56.0537 48.151 50.1393 47.8385 45.413C47.8125 45.004 47.7734 44.5755 47.7214 44.134C47.6758 43.7185 47.6107 43.303 47.5391 42.894C47.4089 42.1539 47.2461 41.4268 47.0508 40.7191C46.4388 38.5702 45.4883 36.7264 44.1341 35.5513C42.8841 34.4671 41.224 33.9478 39.0755 34.3113C38.7305 34.3698 38.3659 34.4542 37.9818 34.5645C37.4805 34.7073 37.0312 34.8697 36.6341 35.0579C36.2305 35.2462 35.8724 35.4475 35.5664 35.6617C34.2057 36.6096 33.5091 37.9924 33.1706 39.6155C32.793 41.4268 32.8385 43.5757 32.9297 45.7766C32.9948 47.2373 33.112 48.8993 33.2292 50.6003C33.5807 55.6512 33.9583 60.9943 33.125 65.435C32.6823 67.8046 32.0378 70.0055 31.1979 72.057C30.3646 74.0826 29.3229 75.9718 28.0924 77.7052ZM38.6979 40.3491C38.5417 39.5116 39.1016 38.7066 39.9414 38.5572C40.7812 38.4014 41.5885 38.9597 41.7383 39.7972C42.526 44.0302 42.9036 48.3085 42.9167 52.6064C42.9297 56.8847 42.5781 61.1826 41.9141 65.4869C41.7839 66.3244 40.9961 66.9022 40.1497 66.7724C39.3099 66.6425 38.7305 65.857 38.8607 65.013C39.5052 60.8709 39.8438 56.7289 39.8307 52.6064C39.8177 48.4968 39.4531 44.4067 38.6979 40.3491ZM36.9271 70.3171C37.1094 69.4861 37.9362 68.9602 38.7695 69.1485C39.6029 69.3303 40.1302 70.1548 39.9414 70.9858L38.5872 77.069C38.4049 77.9 37.5781 78.4259 36.7448 78.2376C35.9115 78.0558 35.3841 77.2313 35.5729 76.4003L36.9271 70.3171Z" />
</g>
<defs>
<clipPath id="clip0_94_676">
<rect width="80" height="79.0361" />
</clipPath>
</defs>
</svg>
