<svg width="50" height="66" viewBox="0 0 50 66" fill="none" xmlns="http://www.w3.org/2000/svg">
<path d="M1.2518 33.4509L1.11271 33.5953L0 33.1513V16.7335C0 15.9738 0.224682 15.257 0.609851 14.6525C0.684745 14.5348 0.764989 14.4171 0.855931 14.3101C0.946874 14.1924 1.04317 14.0854 1.13946 13.9891L1.15016 13.9784C1.43903 13.6896 1.78141 13.4381 2.16123 13.2509L2.17728 13.2455L2.36451 13.1546L2.38591 13.1439C2.84597 12.946 3.35953 12.8336 3.88914 12.8336H3.91054C4.9858 12.8336 5.96477 13.2723 6.67092 13.9784C6.95979 14.2673 7.21122 14.6097 7.39846 14.9841L7.40916 15.0055L7.49475 15.1928L7.5001 15.2088C7.69803 15.6689 7.81037 16.1825 7.81037 16.7121V16.7174V16.7388V30.0913V30.6958L7.20587 30.7333C5.55821 30.8349 4.03893 31.3645 2.75503 32.2151C2.49825 32.3863 2.25217 32.5682 2.01679 32.7608C1.79746 32.9427 1.56742 33.1459 1.34274 33.376L1.2518 33.4509ZM35.1039 44.594L35.7619 44.8401L36.0454 45.0487C36.0936 45.1129 36.1524 45.1664 36.2219 45.2146L36.3075 45.2627V45.2681C36.3985 45.3109 36.4948 45.3323 36.5964 45.3323H36.6125C36.7088 45.3323 36.7944 45.3162 36.8746 45.2841L36.9388 45.252L37.003 45.2146L37.0244 45.2039L37.0458 45.1932C37.3347 45.0273 37.7198 44.7385 38.1424 44.3907C38.5704 44.0323 39.0572 43.5937 39.5387 43.1443C40.4802 42.2563 41.5501 41.1864 41.9781 40.7637L41.9995 40.7423C43.3529 39.3889 44.7331 38.763 45.9475 38.6828C46.1936 38.6667 46.4396 38.6721 46.6697 38.6988C46.905 38.7255 47.1351 38.7737 47.3544 38.8432H47.3598L47.3865 38.8539H47.3919C47.8252 38.993 48.2264 39.2124 48.5795 39.4959L48.5955 39.5119L48.7613 39.6564L48.7934 39.6831L48.9486 39.8383L48.9753 39.8704L48.9807 39.8757L48.986 39.8864C49.2856 40.2181 49.5263 40.6086 49.7029 41.0419L49.7136 41.058L49.7938 41.2826L49.8045 41.3308L49.8687 41.5608L49.8741 41.5876L49.8794 41.6197C50.1843 42.8929 49.9329 44.4389 48.8737 45.9903C48.6758 46.2845 48.4404 46.5841 48.1836 46.8729C47.9268 47.1618 47.6379 47.456 47.317 47.7396L47.2742 47.777L47.2207 47.8252L47.1832 47.8626L47.1618 47.884L34.0447 61.151L33.59 61.6485L33.5579 61.6164C32.8357 62.2744 32.1295 62.8414 31.4127 63.3282C30.5568 63.906 29.6901 64.3714 28.7914 64.7245C27.8873 65.0829 26.9404 65.3397 25.9401 65.5055C24.9397 65.666 23.8858 65.7462 22.7624 65.7462H14.2566C11.4213 65.7462 8.784 64.9117 6.57462 63.4834C6.15201 63.2105 5.73474 62.9056 5.33352 62.5793C4.92696 62.2476 4.54714 61.9052 4.19941 61.5522L4.18871 61.5415C3.11345 60.4502 2.20402 59.177 1.51393 57.7807C1.38019 57.5025 1.2518 57.2244 1.13411 56.9462C0.406567 55.2129 0.00534957 53.3138 0 51.3238V51.3077V40.0897C0 39.0572 0.192585 38.0622 0.534957 37.1528V37.1474C0.599152 36.9816 0.674046 36.805 0.75429 36.6285C0.834533 36.4573 0.920126 36.2861 1.01107 36.1203L1.01642 36.1096L1.03247 36.0829L1.04317 36.0615C1.37484 35.5426 1.77071 35.0557 2.21472 34.6224L2.22542 34.6117L2.4715 34.3817L2.4929 34.3656L2.74968 34.1463L2.77108 34.1249L2.78178 34.1142C3.34883 33.6595 3.98008 33.2743 4.65948 32.9855C4.81461 32.9213 4.9644 32.8571 5.06604 32.825C5.90058 32.52 6.80465 32.3542 7.74618 32.3542H7.76758H8.10995L8.26509 32.3756L8.40953 32.4131L8.52187 32.4237H17.7606H17.8194H17.8622H17.9211H27.1598H27.1865H27.224H27.2507H27.9355C29.2943 32.4237 30.5782 32.7715 31.7069 33.3813C31.9316 33.5044 32.1456 33.6328 32.3435 33.7665H32.3489C32.5414 33.8949 32.7447 34.0447 32.9427 34.2052L32.948 34.2105L32.9587 34.2212C33.9323 35.0183 34.7241 36.0454 35.2323 37.217C35.3393 37.4577 35.4302 37.6931 35.4998 37.9178C35.58 38.1585 35.6442 38.4046 35.703 38.6507V38.656L35.7084 38.6934L35.7191 38.7523C35.7244 38.7951 35.7298 38.8379 35.7405 38.87L35.7458 38.886L35.7672 38.9449L35.7779 38.977L35.8421 39.1696L35.8742 39.5173V39.5387L35.8849 39.6778V39.6992L35.8956 39.9453V39.9613V40.095V40.1004V42.4702V43.3583L35.0504 43.0801C33.7344 42.6468 32.4773 42.3526 31.2896 42.1921C31.0222 42.1546 30.7654 42.1279 30.53 42.1011C30.2893 42.0797 30.0378 42.0583 29.7864 42.0476L29.2408 42.0316C27.7161 42.0102 26.3092 42.2295 25.0627 42.6575C24.7899 42.7538 24.5331 42.8501 24.3031 42.9517C24.0624 43.0587 23.8216 43.171 23.597 43.2941L23.2171 43.5134C22.0242 44.2303 21.0345 45.1932 20.2802 46.3701C20.1251 46.6162 19.9807 46.8515 19.863 47.0816C19.7346 47.3223 19.6169 47.5844 19.4992 47.8519L19.4938 47.868C19.1301 48.7346 18.8679 49.6868 18.7182 50.7193C18.6861 50.9547 18.654 51.1847 18.6379 51.404C18.6219 51.5859 18.6005 51.7785 18.5951 51.9711L20.0181 51.9871C20.0609 51.2649 20.1679 50.5748 20.323 49.9329C20.3712 49.735 20.4193 49.5477 20.4675 49.3819C20.5156 49.2214 20.5745 49.0395 20.644 48.8576L20.8152 48.419C21.2913 47.2795 21.9814 46.3112 22.848 45.5409C23.0192 45.3911 23.2011 45.2467 23.3776 45.1129C23.5756 44.9685 23.7628 44.8401 23.9447 44.7331L23.9554 44.7278L23.9714 44.7171C24.8809 44.1714 25.9401 43.7916 27.1277 43.599C27.3684 43.5616 27.6305 43.5241 27.898 43.5027C28.1601 43.476 28.433 43.4653 28.6951 43.4546H28.7112H29.2354H29.2461C30.4765 43.4706 31.8086 43.6632 33.2262 44.027C33.5525 44.1072 33.8574 44.1982 34.1463 44.2891C34.478 44.3907 34.7936 44.4977 35.0932 44.5994L35.1039 44.594ZM25.8063 30.7119H19.2852H18.6433V30.0699V3.91054C18.6433 2.83527 19.0819 1.8563 19.7881 1.15016C20.0769 0.861281 20.4193 0.609851 20.7938 0.422616L20.8098 0.417267L20.9971 0.326324L21.0185 0.315625C21.4785 0.117691 21.9867 0.00534957 22.5217 0.00534957V0H22.5431V0.00534957C23.6184 0.00534957 24.5973 0.444014 25.3035 1.15016C25.5924 1.43903 25.8384 1.78141 26.031 2.15588L26.0417 2.17193L26.1273 2.35916L26.138 2.38056C26.3359 2.84062 26.4483 3.34883 26.4483 3.88379V3.88914V3.91054V30.0646V30.7065H25.8063V30.7119ZM28.6898 30.7386L28.5721 30.7279L27.9729 30.6798V30.086V10.1749C27.9729 9.09962 28.4116 8.12065 29.1177 7.41451C29.4066 7.12563 29.749 6.87955 30.1288 6.68696L30.1502 6.67627L30.3374 6.59067L30.3535 6.57997C30.8135 6.38204 31.3217 6.2697 31.8567 6.2697H31.8781C32.6377 6.2697 33.3546 6.49438 33.9591 6.87955L33.9644 6.8849C34.0821 6.95444 34.1945 7.04004 34.3015 7.12563L34.3068 7.13098C34.4191 7.21657 34.5261 7.31286 34.6224 7.40916L34.6331 7.41986C34.922 7.70873 35.1734 8.0511 35.3607 8.42557L35.366 8.44162L35.457 8.62886L35.4677 8.65026C35.6656 9.11032 35.7779 9.62388 35.7779 10.1535V10.1749V33.1245L34.6706 33.5739L34.5636 33.4669C33.4616 32.3649 32.0867 31.5304 30.5568 31.0864C30.2518 30.9954 29.9362 30.9205 29.6313 30.867C29.3371 30.8082 29.0161 30.7654 28.6898 30.7386ZM16.4125 30.7119H9.89136H9.24406V30.0699V16.7335V10.1107C9.24406 9.35105 9.46874 8.62886 9.85391 8.02436C9.92881 7.90132 10.0144 7.78363 10.1 7.67663C10.1909 7.55894 10.2872 7.45195 10.3782 7.36101L10.3889 7.35031C10.6777 7.06143 11.0201 6.81535 11.3999 6.62277L11.416 6.61742L11.6032 6.53183L11.6246 6.52113C12.0847 6.32319 12.5929 6.21085 13.1278 6.21085H13.1492C14.2245 6.21085 15.2035 6.64952 15.9096 7.35566C16.1985 7.64454 16.4446 7.98691 16.6372 8.36138L16.6425 8.37743L16.7335 8.56466L16.7442 8.58606C16.9421 9.04613 17.0544 9.55968 17.0544 10.0893V10.1107V30.0646V30.7065H16.4125V30.7119Z" />
</svg>
