<svg width="50" height="58" viewBox="0 0 50 58" fill="none" xmlns="http://www.w3.org/2000/svg">
<path d="M14.2857 0C16.2612 0 17.8571 1.59598 17.8571 3.57143V7.14286H32.1429V3.57143C32.1429 1.59598 33.7388 0 35.7143 0C37.6897 0 39.2857 1.59598 39.2857 3.57143V7.14286H44.6429C47.6004 7.14286 50 9.54241 50 12.5V17.8571H0V12.5C0 9.54241 2.39955 7.14286 5.35714 7.14286H10.7143V3.57143C10.7143 1.59598 12.3103 0 14.2857 0ZM0 21.4286H50V51.7857C50 54.7433 47.6004 57.1429 44.6429 57.1429H5.35714C2.39955 57.1429 0 54.7433 0 51.7857V21.4286ZM36.7187 34.0402C37.7679 32.9911 37.7679 31.2946 36.7187 30.2567C35.6696 29.2188 33.9732 29.2076 32.9353 30.2567L22.3326 40.8594L17.0871 35.6138C16.0379 34.5647 14.3415 34.5647 13.3036 35.6138C12.2656 36.6629 12.2545 38.3594 13.3036 39.3973L20.4464 46.5402C21.4955 47.5893 23.192 47.5893 24.2299 46.5402L36.7187 34.0402Z" fill="white"/>
</svg>
