<svg width="212" height="189" viewBox="0 0 212 189" fill="none" xmlns="http://www.w3.org/2000/svg">
<path d="M54.5801 80.9789C51.6504 76.246 46.0547 69.8082 46.0547 64.2523C46.1207 62.4494 46.7281 60.7087 47.7972 59.2583C48.8663 57.8078 50.3473 56.7154 52.0459 56.1241C51.7676 51.4207 51.5772 46.6584 51.5772 41.9403C51.5772 39.1476 51.5772 36.3403 51.7383 33.5623C51.9193 32.1437 52.2533 30.749 52.7344 29.4027C54.8699 22.3022 59.5717 16.2581 65.918 12.4556C68.187 11.0524 70.598 9.89456 73.1104 9.00152C77.6367 7.35531 75.4981 0.109072 80.5664 0.00618467C92.2852 -0.28778 111.445 9.9569 118.931 18.085C123.672 23.0095 126.401 29.5393 126.577 36.3844L126.094 56.9619C127.201 57.194 128.232 57.702 129.093 58.4393C129.953 59.1765 130.614 60.1191 131.016 61.1803C132.539 67.6182 125.83 75.6581 122.725 80.8466C119.795 85.6088 108.882 98.5727 108.867 98.6903C108.952 99.5579 109.299 100.379 109.863 101.042C110.932 102.502 112.145 103.851 113.481 105.069C107.109 111.829 102.97 120.396 101.628 129.602C100.286 138.808 101.806 148.206 105.981 156.513H0C0 109.67 50.083 124.53 67.1045 101.042C67.9541 99.7926 68.335 99.1312 68.3203 98.5874C68.3203 98.2934 55.708 82.7867 54.5801 80.9495V80.9789Z" />
<path fill-rule="evenodd" clip-rule="evenodd" d="M162 89C189.617 89 212 111.383 212 139C212 166.617 189.617 189 162 189C134.383 189 112 166.617 112 139C112 111.383 134.383 89 162 89ZM144.117 135.21C147.86 137.366 150.299 139.166 153.189 142.363C160.697 130.26 168.869 123.557 179.48 114.012L180.522 113.609H192.152C176.567 130.9 164.487 145.182 153.686 166.025C148.049 153.993 143.028 145.679 131.825 137.982L144.117 135.21Z" />
</svg>
