<svg width="15" height="18" viewBox="0 0 15 18" fill="none" xmlns="http://www.w3.org/2000/svg">
<g clip-path="url(#clip0_450_454)">
<path d="M4.28571 0C4.87835 0 5.35714 0.478795 5.35714 1.07143V2.14286H9.64286V1.07143C9.64286 0.478795 10.1217 0 10.7143 0C11.3069 0 11.7857 0.478795 11.7857 1.07143V2.14286H13.3929C14.2801 2.14286 15 2.86272 15 3.75V5.35714H0V3.75C0 2.86272 0.719866 2.14286 1.60714 2.14286H3.21429V1.07143C3.21429 0.478795 3.69308 0 4.28571 0ZM0 6.42857H15V15.5357C15 16.423 14.2801 17.1429 13.3929 17.1429H1.60714C0.719866 17.1429 0 16.423 0 15.5357V6.42857ZM2.67857 8.57143C2.38393 8.57143 2.14286 8.8125 2.14286 9.10714V12.3214C2.14286 12.6161 2.38393 12.8571 2.67857 12.8571H5.89286C6.1875 12.8571 6.42857 12.6161 6.42857 12.3214V9.10714C6.42857 8.8125 6.1875 8.57143 5.89286 8.57143H2.67857Z" fill="white"/>
</g>
<defs>
<clipPath id="clip0_450_454">
<rect width="15" height="17.1429" fill="white"/>
</clipPath>
</defs>
</svg>
