<svg width="110" height="126" viewBox="0 0 110 126" fill="none" xmlns="http://www.w3.org/2000/svg">
<path d="M31.4286 0C34.6942 0 37.3214 2.62723 37.3214 5.89286V15.7143H72.6786V5.89286C72.6786 2.62723 75.3058 0 78.5714 0C81.8371 0 84.4643 2.62723 84.4643 5.89286V15.7143H94.2857C102.953 15.7143 110 22.7612 110 31.4286V35.3571V47.1429V110C110 118.667 102.953 125.714 94.2857 125.714H15.7143C7.04688 125.714 0 118.667 0 110V47.1429V35.3571V31.4286C0 22.7612 7.04688 15.7143 15.7143 15.7143H25.5357V5.89286C25.5357 2.62723 28.1629 0 31.4286 0ZM98.2143 47.1429H11.7857V110C11.7857 112.161 13.5536 113.929 15.7143 113.929H94.2857C96.4464 113.929 98.2143 112.161 98.2143 110V47.1429ZM80.7813 72.9241L53.2813 100.424C50.9732 102.732 47.2411 102.732 44.9576 100.424L29.2433 84.7098C26.9353 82.4018 26.9353 78.6696 29.2433 76.3862C31.5513 74.1027 35.2835 74.0781 37.567 76.3862L49.1071 87.9263L72.433 64.6004C74.7411 62.2924 78.4732 62.2924 80.7567 64.6004C83.0402 66.9085 83.0647 70.6406 80.7567 72.9241H80.7813Z" />
</svg>
