<svg width="58" height="52" viewBox="0 0 58 52" fill="none" xmlns="http://www.w3.org/2000/svg">
<path fill-rule="evenodd" clip-rule="evenodd" d="M21.4623 4.93947C25.3433 -1.64256 32.6953 -1.65491 36.5559 4.95294L36.6658 5.15603L56.5205 39.3117C60.3392 45.6401 56.3846 52.0763 49.0247 51.9865V52H8.32968C8.22773 52 8.12804 51.9955 8.02835 51.9877C1.41955 51.899 -1.7863 45.9038 1.01627 39.9995C1.06045 39.9041 1.10916 39.8121 1.16127 39.7235L1.15674 39.7201L21.468 4.94284L21.4623 4.93947ZM27.1626 38.8707C27.6452 38.4073 28.2218 38.1762 28.7995 38.1346C29.1847 38.1077 29.5698 38.1672 29.9255 38.3007C30.2801 38.4342 30.6064 38.6407 30.876 38.9077C31.6599 39.6831 31.8638 40.8579 31.4016 41.8431C31.0969 42.4939 30.5996 42.9315 30.0298 43.1649C29.6865 43.3074 29.3161 43.3713 28.9468 43.3623C28.5764 43.3534 28.2116 43.2703 27.8808 43.1177C27.3122 42.8563 26.8273 42.3962 26.5554 41.7488C26.2552 41.0352 26.2983 40.2946 26.6268 39.6001C26.7571 39.324 26.9383 39.0603 27.1626 38.8707ZM30.9983 33.5892C30.9077 35.8232 27.089 35.8254 27.0018 33.588C26.6155 29.7618 25.6277 21.1858 25.6594 17.5896C25.6911 16.4822 26.6189 15.8257 27.8049 15.5755C28.1708 15.4981 28.573 15.46 28.9774 15.4611C29.3852 15.4622 29.7885 15.5015 30.1544 15.5789C31.3801 15.837 32.3418 16.5203 32.3418 17.6491L32.3362 17.7613L30.9983 33.5892Z" fill="#FBBC04"/>
</svg>
