<svg width="18" height="25" viewBox="0 0 18 25" fill="none" xmlns="http://www.w3.org/2000/svg">
<path fill-rule="evenodd" clip-rule="evenodd" d="M11.3586 0.406425C10.5269 0.1437 9.64228 0 8.72358 0C6.04316 0 3.64445 1.21162 2.04526 3.11505L6.16602 6.58169L11.3586 0.40635L11.3586 0.406425Z" fill="#1A73E8"/>
<path fill-rule="evenodd" clip-rule="evenodd" d="M2.04335 3.11475C0.769295 4.63072 0 6.58709 0 8.72114C0 10.3618 0.327009 11.6907 0.863798 12.8815L6.16411 6.58139L2.04335 3.11475Z" fill="#EA4335"/>
<path fill-rule="evenodd" clip-rule="evenodd" d="M8.72353 5.38699C10.5666 5.38699 12.0598 6.88024 12.0598 8.72322C12.0598 9.54357 11.7631 10.2959 11.2717 10.8762C11.2717 10.8762 13.9067 7.74222 16.4642 4.7027C15.4075 2.67072 13.5759 1.1075 11.3605 0.40625L6.16409 6.58159C6.77656 5.85012 7.69526 5.38699 8.72353 5.38699Z" fill="#4285F4"/>
<path fill-rule="evenodd" clip-rule="evenodd" d="M8.72354 12.0579C6.88052 12.0579 5.38723 10.5647 5.38723 8.7217C5.38723 7.90698 5.68019 7.16035 6.1641 6.58008L0.863785 12.8821C1.76921 14.8914 3.27577 16.5038 4.82771 18.5357L11.2697 10.8765C10.6591 11.5986 9.74424 12.0579 8.72354 12.0579Z" fill="#FBBC04"/>
<path fill-rule="evenodd" clip-rule="evenodd" d="M11.1431 20.6263C14.0522 16.0766 17.4452 14.0105 17.4452 8.7217C17.4452 7.27187 17.0899 5.9053 16.4642 4.70312L4.82961 18.5357C5.32297 19.1822 5.82008 19.8702 6.30587 20.6282C8.07516 23.3615 7.58368 25.0003 8.72543 25.0003C9.86336 25.0003 9.37375 23.3596 11.1431 20.6263Z" fill="#34A853"/>
</svg>
