<svg width="56" height="88" viewBox="0 0 56 88" fill="none" xmlns="http://www.w3.org/2000/svg">
<path d="M55.22 29.19C55.1767 32.65 55.0036 39.18 50.4048 45.74C48.9874 47.76 41.1533 58.35 27.606 58.38C12.533 58.41 4.48259 45.32 3.62777 43.87C0.143561 37.96 0.0353558 32.45 0.00289422 29.19C-0.0187468 25.49 -0.170233 11.92 10.7368 4.55C17.4672 0 25.1065 0 27.6168 0C30.3761 0 37.7448 0 44.4211 4.48C55.4688 11.91 55.2741 25.67 55.2308 29.18L55.22 29.19Z" fill="#B8191A"/>
<path d="M51.9007 25.9299L51.7616 24.1211L51.5927 22.9733L51.3543 21.2931L51.1854 20.5493L50.778 18.9333L50.639 18.5018L50.172 17.097L49.9037 16.4726L49.6355 15.8207L49.1685 14.8566L48.5923 13.8283L48.1552 13.1121L47.8472 12.6438L47.5094 12.1755L47.1418 11.6797L46.7344 11.1839L46.3271 10.7156L46.0191 10.3759L45.721 10.0637L45.4826 9.81581L44.8467 9.22818L44.5785 9.00782L44.1712 8.63136L43.9029 8.411L43.5651 8.09882L43.2969 7.87845L42.9591 7.59382L42.4226 7.18982L41.7867 6.75828L41.1509 6.35428L40.3064 5.886L39.899 5.70237L39.3228 5.42691L38.7167 5.17901L37.7729 4.80255L36.5608 4.39855L35.7859 4.17819L35.4481 4.15064L35.1798 4.05883L35.0805 4.08637V4.0221L34.9414 3.99455L34.6731 3.96701L34.6433 3.93946L34.3453 3.84764L33.2325 3.66401L30.4407 3.35183L29.1591 3.26001H26.1289L25.4533 3.28756L24.6485 3.35183L22.4926 3.59974L21.5786 3.72828L20.903 3.85683L19.055 4.28837L18.3099 4.50873L17.7734 4.69237L17.1375 4.91273L16.0943 5.34428L15.3194 5.72073L14.7829 5.96864L14.5445 6.12473L14.1769 6.30837L13.4715 6.77664L12.9648 7.08882V7.15309H12.8952L12.7263 7.28164L12.319 7.56627L11.852 7.97027L11.5838 8.19064L9.45764 10.1555L9.3881 10.2841H9.31855L9.2192 10.4126L9.14965 10.5412H9.08011L8.84166 10.8258L8.57341 11.138L8.13626 11.6705L7.76866 12.1664L7.43087 12.5979L7.09307 13.0662L6.72547 13.6905L6.45722 14.1864L6.14923 14.7189L5.88098 15.1872L5.57299 15.8391L5.23519 16.5828L4.96694 17.299L4.65895 18.0794L4.32115 19.2914L4.15226 19.8515L3.98336 20.4392L3.81446 21.4308L3.47666 23.2947L3.37731 24.2588L3.30777 25.379L3.23822 26.9307V29.2996L3.26803 30.2361L3.36738 31.8889L3.46673 32.7887L3.60582 33.5691L3.77472 34.5057L4.01316 35.7819L4.15226 36.2502L4.46025 37.3429L4.65895 37.9948L5.06629 39.1149L5.265 39.6108L5.67234 40.5106L6.01013 41.1625L6.17903 41.5022L6.44728 41.9705L6.98378 42.8703L7.39112 43.4947L8.06672 44.4312L8.40451 44.8352L8.7125 45.2117L9.11985 45.6432L9.4179 45.9829L9.72589 46.2951L10.2326 46.7909L10.471 46.9746L10.6697 46.442L10.9777 45.5973L11.1466 45.1657L11.5838 44.2659L11.852 43.7977L12.319 43.0539L12.6568 42.5581L13.0244 42.0623L13.4615 41.5022L13.7695 41.1625L14.0378 40.8228L14.1073 40.6942L14.2762 40.5106L14.9121 39.9229L15.3194 39.5832L15.4585 39.5189L15.9254 39.1425L16.2632 38.8946L16.6308 38.6191L16.9984 38.3712L17.5747 37.9948L18.5881 37.4347L19.8002 36.8746L20.7142 36.5349L21.4891 36.2227V36.3145L21.6282 36.8746L21.8965 37.6826L22.1647 38.7385L22.4032 39.4822L22.7012 40.6024L23.0092 41.5665L23.3768 42.9346L23.7146 44.0272L24.0226 45.1749L24.2611 45.8636L24.5989 47.1674L24.8373 47.856L25.1354 49.0405L25.4731 50.0321L25.6719 50.9044L25.7712 51.0329L25.8408 51.1247L25.9103 50.9686L25.9798 50.5004L26.1487 49.068L26.3474 47.452L26.5163 46.4237L26.7548 44.9637L26.9932 42.9438L27.1323 42.099L26.8939 41.7226L26.5263 41.3186L26.2878 41.0707L25.8507 40.6391L25.5526 40.2994L25.3142 40.079L25.1155 39.8587L25.5526 39.5189L26.1289 39.0874L26.4269 38.867L26.8939 38.4906L27.2615 38.2151L27.7682 37.8111L28.0364 37.6275L28.5034 37.9397L28.9405 38.2794L29.2783 38.5273L29.6459 38.8028L30.1129 39.1792L30.5798 39.5189L30.9176 39.8036L30.9872 39.9321L30.8183 40.0882L30.3116 40.584L29.7055 41.2084L29.4671 41.4563L29.1293 41.796L28.9902 42.0439V42.5122L29.0896 43.5681L29.1889 44.2843L29.4969 46.0564L29.636 47.149L29.8049 48.3977L30.0433 49.7658L30.2122 50.8585L30.2818 51.0146L30.3811 50.9227L30.5202 50.4545L30.7189 49.8668L30.9176 49.0864L31.2554 47.9386L31.623 46.5706L31.8615 45.8268L32.1695 44.7067L32.4377 43.7701L32.7457 42.6499L33.0835 41.5298L33.3219 40.5932L33.4908 40.0607L33.6895 39.4088L33.928 38.564L34.1267 37.8479L34.3254 37.1592L34.4943 36.4706L34.5638 36.1859L35.0308 36.3696L35.8355 36.6818L36.68 37.0582L37.2165 37.3061L37.6537 37.554L38.1604 37.8295L38.6671 38.1417L39.2036 38.4814L39.7401 38.8578L40.207 39.2343L40.5746 39.5189L40.8131 39.7393L41.0813 39.9597L41.5483 40.4279L41.8463 40.7401L42.2835 41.2084L42.5915 41.5848L43.0286 42.1449L43.4956 42.7968L43.7936 43.2651L44.2606 44.1098L44.7971 45.2025L45.0653 45.9462L45.2342 46.442H45.3336L45.3634 46.3777L45.8303 45.9095L46.2377 45.4779L46.7046 44.9178L47.112 44.422L47.6882 43.6416L48.026 43.1458L48.493 42.3653L48.9003 41.6767L49.3672 40.7401L49.705 39.9597L50.0726 39.1149L50.48 37.9672L50.7482 37.0949L51.1854 35.3504L51.3543 34.5699L51.4934 33.5416L51.7318 31.9531L51.8312 30.5483L51.9305 28.8038V27.3071L51.861 25.9666L51.9007 25.9299ZM37.5543 25.8381L37.4848 26.7379L37.455 27.8305L37.3854 28.2988L37.2861 28.4824L37.0178 28.6661L36.8489 28.7303L36.0044 28.7579L35.766 29.0058L35.1898 29.5383L34.9513 29.7862L34.4844 30.2178L34.2161 30.4381L33.6101 30.8697L32.9742 31.2461L32.4377 31.494L31.7621 31.742L30.9872 31.9623L30.3116 32.1184L29.7353 32.2745L29.5664 32.4581L29.5366 32.6785L29.7353 32.7703L30.0036 32.7979L30.4705 32.7336L31.0766 32.5775L32.2589 32.201L33.1034 31.8246L33.4412 31.6685L33.5803 31.696L33.8485 31.9164L34.3155 32.348L34.3453 32.5316L33.9379 32.9631L33.6697 33.2753L33.3021 33.6518V33.7436L32.9941 34.0282L32.6265 34.3037L32.1893 34.6434L31.6826 34.9831L31.0766 35.3229L30.5003 35.5983L29.5565 35.938L29.1194 36.0299L28.4438 36.0941H27.9768L27.0628 36.0299L26.4567 35.9013L25.5427 35.5616L24.9068 35.2769L24.271 34.9005L23.804 34.5883L23.4662 34.3037L23.198 34.0833L22.5621 33.4957L22.2641 33.156L21.9263 32.752L21.4891 32.1276L21.0818 31.5032L20.5751 30.5667L19.9691 29.07L19.8002 28.7854L19.1643 28.5375L18.8961 28.3539L18.6576 28.1702L18.6278 28.0784L18.598 27.6101V25.1219L18.6278 24.4057L18.7967 24.1578L19.1345 23.8731L19.5418 23.6252L19.6412 23.4049L19.7803 22.6612L19.9492 22.0735L20.1479 21.5777L20.4559 20.9258L20.8235 20.3014L21.0917 19.925L21.3997 19.5485L21.7077 19.2088L22.1151 18.8048L22.3833 18.5844L22.7211 18.2998L23.2576 17.9233L23.7246 17.6387L24.2313 17.3908L24.4002 17.3265L24.5392 17.198L25.1453 17.0143L26.3574 16.7022L26.725 16.6379L27.3012 16.6103H29.2187L29.8943 16.7022L30.6692 16.9225L31.5833 17.198L32.2589 17.5102L32.8649 17.8499L33.4014 18.2263L33.769 18.511L34.1068 18.7864L34.4446 19.0986L34.8122 19.5302L35.0805 19.8699L35.4878 20.4575L35.8256 21.1094L36.064 21.642L36.2628 22.2939L36.531 23.3865L36.6701 23.6069L37.0079 23.763L37.3457 24.0109L37.4152 24.2312L37.445 24.3231L37.5841 24.3873V25.7554L37.5543 25.8381ZM41.9655 26.6461L41.896 27.0225L41.588 27.7662L41.4489 28.0141L41.4191 28.1978L41.1509 28.5375L40.8528 28.8497L40.515 29.1619L40.0083 29.474L39.5016 29.6944L38.9254 29.823L38.7267 29.8505H38.2895L38.1206 29.7587L38.0908 29.6669V23.8456L37.9517 22.4408L37.8126 21.7246L37.4748 20.8523L37.137 20.1362L36.7297 19.4475L36.4317 19.016L36.0243 18.5202L35.617 18.0886L34.7725 17.3082L34.3055 16.9684L33.7293 16.592L33.1928 16.2798L32.7258 16.0319L31.9211 15.6922L30.709 15.3157L29.8645 15.1321L28.9505 15.0678L27.2019 15.0403L26.5263 15.0678L25.95 15.1596L25.036 15.38L24.122 15.6554L23.5855 15.8758L22.8403 16.2523L22.3038 16.5644L21.668 16.996L21.3004 17.2714L20.9626 17.5561L20.3863 18.0886L20.0783 18.4283L19.671 18.9242L19.3332 19.3924L19.0252 19.8882L18.7172 20.4208L18.4192 21.137L18.1112 21.8807L17.9721 22.5693L17.9025 23.3498V29.9515L17.4654 29.924L16.6209 29.7403L15.9851 29.4924L15.379 29.0609L15.1108 28.8405L14.8425 28.5283L14.6041 28.2161L14.3358 27.6836L14.1669 27.1511L14.0974 26.7746V25.783L14.2365 25.3147L14.4352 24.7821L14.6339 24.4424L15.071 23.9741L15.3095 23.7538L15.8162 23.4141L16.3527 23.0743L16.452 22.854L16.76 21.5502L16.9587 20.9258L17.366 19.9892L17.7038 19.3373L18.0416 18.8048L18.3794 18.3365L18.7172 17.905L19.1544 17.4092L19.4624 17.097L19.83 16.7205L20.0684 16.5002L20.436 16.2155L20.903 15.8391L21.4792 15.4626L22.0853 15.1229L22.6218 14.8474L23.4265 14.471L24.8075 14.0027L25.6818 13.8466L26.6952 13.6905L27.7384 13.5987H28.3444L29.5565 13.7273L30.7984 13.9476L31.4343 14.1037L32.1794 14.3516L32.8152 14.5995L33.3517 14.8474L33.928 15.1229L34.2956 15.3433L34.8321 15.683L35.4083 16.1145L35.7461 16.39L36.1833 16.7664L36.5211 17.0786L36.8191 17.4183L37.1271 17.7305L37.5643 18.2906L38.0014 18.9425L38.4386 19.6862L38.7763 20.43L38.9751 20.9258L39.3128 22.1378L39.5513 22.854L39.75 23.1937L40.0481 23.4416L40.5846 23.7538L41.0217 24.1578L41.29 24.4975L41.5582 24.9933L41.7966 25.581L41.896 26.0768V26.6093L41.9655 26.6461Z" fill="white"/>
<path d="M27.3355 32.02H27.9198L28.5474 32.16L29.0992 32.33L29.3157 32.47L29.4239 32.57L29.4996 32.81V33.66L29.3914 33.9L29.2399 34.07L28.8396 34.24L28.147 34.41L27.7791 34.44H27.4112L26.6754 34.3L26.2751 34.16L26.0154 33.96L25.8315 33.62L25.799 33.48V33.04L25.8747 32.73L26.0262 32.53L26.3184 32.29L26.7945 32.12L27.3463 32.02H27.3355Z" fill="white"/>
<path d="M27.6168 58.3801C22.9748 58.3801 18.6142 56.7701 14.8054 54.8901C24.1651 71.5501 26.5564 90.4501 27.6168 86.5501C28.6881 82.6601 31.1443 70.6401 40.4283 54.8701C36.6195 56.7501 32.248 58.3701 27.6168 58.3701V58.3801Z" fill="#B8191A"/>
</svg>
