<svg width="10" height="13" viewBox="0 0 10 13" fill="none" xmlns="http://www.w3.org/2000/svg">
<path d="M0.5 4.52921C0.5 3.96243 0.500772 3.58036 0.533388 3.29513C0.565174 3.01715 0.620516 2.90769 0.67397 2.8448C0.717475 2.79362 0.780636 2.74491 0.980911 2.71321C1.20509 2.67773 1.51194 2.67627 2 2.67627H8C8.48806 2.67627 8.79491 2.67773 9.01909 2.71321C9.21936 2.74491 9.28253 2.79362 9.32603 2.8448C9.37948 2.90769 9.43483 3.01715 9.46661 3.29513C9.49923 3.58036 9.5 3.96243 9.5 4.52921C9.5 4.56174 9.49999 4.59089 9.49989 4.61745H0.500108C0.500005 4.59089 0.5 4.56174 0.5 4.52921ZM0.507417 4.80596C0.507635 4.80693 0.507726 4.80744 0.507717 4.80746L0.507417 4.80596Z" fill="white" stroke="white"/>
<path d="M2.19312 7.23144L2.19312 7.23143L2.19094 7.234C2.06218 7.38653 2.02624 7.55756 2.01233 7.67969C1.99992 7.78875 1.99996 7.91808 2 8.03904C2 8.04568 2 8.0523 2 8.0589C2 8.06546 2 8.07205 2 8.07867C1.99996 8.19942 1.99992 8.32872 2.01233 8.43783C2.02619 8.55968 2.06202 8.73107 2.19094 8.88379L2.19093 8.8838L2.19312 8.88635C2.33302 9.04982 2.5084 9.10832 2.64792 9.1303C2.75613 9.14735 2.88071 9.14724 2.97919 9.14714C2.98627 9.14714 2.99321 9.14713 3 9.14713H4C4.00677 9.14713 4.01368 9.14714 4.02073 9.14714C4.11905 9.14724 4.24359 9.14735 4.35182 9.13031C4.49099 9.1084 4.66676 9.05008 4.80688 8.88635L4.80688 8.88636L4.80906 8.88379C4.93782 8.73126 4.97376 8.56023 4.98767 8.4381C5.00008 8.32904 5.00004 8.1997 5 8.07875C5 8.07211 5 8.06549 5 8.0589C5 8.06546 5 8.07205 5 8.07867C4.99996 8.19942 4.99992 8.32872 5.01233 8.43783C5.02619 8.55968 5.06202 8.73107 5.19094 8.88379L5.19093 8.8838L5.19312 8.88635C5.33302 9.04982 5.5084 9.10832 5.64792 9.1303C5.75613 9.14735 5.88071 9.14724 5.97919 9.14714C5.98627 9.14714 5.99321 9.14713 6 9.14713H7C7.00677 9.14713 7.01368 9.14714 7.02073 9.14714C7.11905 9.14724 7.24359 9.14735 7.35182 9.13031C7.49099 9.1084 7.66676 9.05008 7.80688 8.88635L7.80688 8.88636L7.80906 8.88379C7.93782 8.73126 7.97376 8.56023 7.98767 8.4381C8.00008 8.32904 8.00004 8.1997 8 8.07875C8 8.07211 8 8.06549 8 8.0589C8 8.0523 8 8.04568 8 8.03904C8.00004 7.91809 8.00008 7.78875 7.98767 7.67969C7.97376 7.55756 7.93782 7.38653 7.80906 7.234L7.80907 7.234L7.80688 7.23144C7.66698 7.06797 7.4916 7.00947 7.35208 6.98749C7.24387 6.97044 7.11929 6.97055 7.02081 6.97065C7.01373 6.97065 7.00679 6.97066 7 6.97066H6C5.99323 6.97066 5.98632 6.97065 5.97927 6.97065C5.88095 6.97056 5.75641 6.97044 5.64818 6.98748C5.50901 7.00939 5.33324 7.06771 5.19312 7.23144L5.19312 7.23143L5.19094 7.234C5.06218 7.38653 5.02624 7.55756 5.01233 7.67969C5.00122 7.77727 5.00009 7.89109 5 8.0006C4.99991 7.89109 4.99878 7.77727 4.98767 7.67969C4.97376 7.55756 4.93782 7.38653 4.80906 7.234L4.80907 7.234L4.80688 7.23144C4.66698 7.06797 4.4916 7.00947 4.35208 6.98749C4.24387 6.97044 4.11929 6.97055 4.02081 6.97065C4.01373 6.97065 4.00679 6.97066 4 6.97066H3C2.99323 6.97066 2.98632 6.97065 2.97927 6.97065C2.88095 6.97056 2.75641 6.97044 2.64818 6.98748C2.50901 7.00939 2.33324 7.06771 2.19312 7.23144ZM2.19312 9.58438L2.19312 9.58437L2.19094 9.58694C2.06202 9.73966 2.02619 9.91105 2.01233 10.0329C1.99992 10.142 1.99996 10.2713 2 10.3921C2 10.3987 2 10.4053 2 10.4118C2 10.4184 2 10.425 2 10.4316C1.99996 10.5524 1.99992 10.6817 2.01233 10.7908C2.02619 10.9126 2.06202 11.084 2.19094 11.2367L2.19093 11.2367L2.19312 11.2393C2.33324 11.403 2.50901 11.4613 2.64818 11.4833C2.75641 11.5003 2.88095 11.5002 2.97927 11.5001C2.98632 11.5001 2.99323 11.5001 3 11.5001H4C4.00679 11.5001 4.01373 11.5001 4.02081 11.5001C4.11929 11.5002 4.24387 11.5003 4.35208 11.4832C4.4916 11.4613 4.66698 11.4028 4.80688 11.2393L4.80688 11.2393L4.80906 11.2367C4.93798 11.084 4.97381 10.9126 4.98767 10.7908C4.99878 10.6931 4.99991 10.5792 5 10.4698C5.00009 10.5792 5.00122 10.6931 5.01233 10.7908C5.02619 10.9126 5.06202 11.084 5.19094 11.2367L5.19093 11.2367L5.19312 11.2393C5.33302 11.4028 5.5084 11.4613 5.64792 11.4832C5.75613 11.5003 5.88071 11.5002 5.97919 11.5001C5.98627 11.5001 5.99321 11.5001 6 11.5001H7C7.00679 11.5001 7.01373 11.5001 7.02081 11.5001C7.11929 11.5002 7.24387 11.5003 7.35208 11.4832C7.4916 11.4613 7.66698 11.4028 7.80688 11.2393L7.80688 11.2393L7.80906 11.2367C7.93798 11.084 7.97381 10.9126 7.98767 10.7908C8.00008 10.6817 8.00004 10.5524 8 10.4316C8 10.425 8 10.4184 8 10.4118C8 10.4053 8 10.3987 8 10.3921C8.00004 10.2713 8.00008 10.142 7.98767 10.0329C7.97381 9.91105 7.93798 9.73966 7.80906 9.58694L7.80907 9.58694L7.80688 9.58438C7.66676 9.42065 7.49099 9.36233 7.35182 9.34042C7.24359 9.32338 7.11905 9.3235 7.02073 9.32359C7.01368 9.32359 7.00677 9.3236 7 9.3236H6C5.99321 9.3236 5.98627 9.32359 5.97919 9.32359C5.88071 9.3235 5.75613 9.32338 5.64792 9.34043C5.5084 9.36242 5.33302 9.42091 5.19312 9.58438L5.19312 9.58437L5.19094 9.58694C5.06202 9.73966 5.02619 9.91105 5.01233 10.0329C5.00122 10.1306 5.00009 10.2444 5 10.3539C4.99991 10.2444 4.99878 10.1306 4.98767 10.0329C4.97381 9.91105 4.93798 9.73966 4.80906 9.58694L4.80907 9.58694L4.80688 9.58438C4.66676 9.42065 4.49099 9.36233 4.35182 9.34042C4.24359 9.32338 4.11905 9.3235 4.02073 9.32359C4.01368 9.32359 4.00677 9.3236 4 9.3236H3C2.99321 9.3236 2.98627 9.32359 2.97919 9.32359C2.88071 9.3235 2.75613 9.32338 2.64792 9.34043C2.5084 9.36242 2.33302 9.42091 2.19312 9.58438ZM0.67397 11.508C0.620516 11.4451 0.565174 11.3357 0.533388 11.0577C0.500772 10.7724 0.5 10.3904 0.5 9.8236V6.88242C0.5 6.8499 0.500005 6.82075 0.500108 6.79419H9.49989C9.49999 6.82074 9.5 6.84989 9.5 6.88242V9.8236C9.5 10.3904 9.49923 10.7724 9.46661 11.0577C9.43483 11.3357 9.37948 11.4451 9.32603 11.508C9.28253 11.5592 9.21936 11.6079 9.01909 11.6396C8.79491 11.6751 8.48806 11.6765 8 11.6765H2C1.51194 11.6765 1.20509 11.6751 0.980911 11.6396C0.780636 11.6079 0.717475 11.5592 0.67397 11.508ZM6 8.64713C5.7645 8.64713 5.6465 8.64713 5.573 8.56125H7.427C7.3535 8.64713 7.235 8.64713 7 8.64713H6Z" fill="white" stroke="white"/>
<path d="M2.5 1V2.76471ZM7.5 1V2.76471Z" fill="white"/>
<path d="M2.5 1V2.76471M7.5 1V2.76471" stroke="white" stroke-width="2" stroke-linecap="round"/>
</svg>
