<svg width="10" height="13" viewBox="0 0 10 13" fill="none" xmlns="http://www.w3.org/2000/svg">
<path fill-rule="evenodd" clip-rule="evenodd" d="M5 12.2222C5 12.2222 0 8.88889 0 5C1.97602e-08 3.67392 0.526784 2.40215 1.46447 1.46447C2.40215 0.526784 3.67392 0 5 0C6.32608 0 7.59785 0.526784 8.53553 1.46447C9.47322 2.40215 10 3.67392 10 5C10 8.88889 5 12.2222 5 12.2222ZM4.99975 6.66626C4.07927 6.66626 3.33308 5.92007 3.33308 4.99959C3.33308 4.07912 4.07927 3.33293 4.99975 3.33293C5.92022 3.33293 6.66641 4.07912 6.66641 4.99959C6.66641 5.92007 5.92022 6.66626 4.99975 6.66626Z" />
</svg>
