<svg width="16" height="19" viewBox="0 0 16 19" fill="none" xmlns="http://www.w3.org/2000/svg">
<path fill-rule="evenodd" clip-rule="evenodd" d="M8 18.6263C8 18.6263 0.5 13.6263 0.5 7.79297C0.5 5.80385 1.29018 3.89619 2.6967 2.48967C4.10322 1.08315 6.01088 0.292969 8 0.292969C9.98912 0.292969 11.8968 1.08315 13.3033 2.48967C14.7098 3.89619 15.5 5.80385 15.5 7.79297C15.5 13.6263 8 18.6263 8 18.6263ZM7.99959 10.2925C6.61888 10.2925 5.49959 9.1732 5.49959 7.79249C5.49959 6.41177 6.61888 5.29249 7.99959 5.29249C9.38031 5.29249 10.4996 6.41177 10.4996 7.79249C10.4996 9.1732 9.38031 10.2925 7.99959 10.2925Z" fill="white"/>
</svg>
