<svg width="50" height="38" viewBox="0 0 50 38" fill="none" xmlns="http://www.w3.org/2000/svg">
<path d="M50 13.2473C50 15.5544 47.9834 17.5271 45.625 17.5271H35.8739C37.4696 19.192 37.6655 22.3871 35.2588 24.4553C36.6541 26.6847 35.4685 29.6327 33.6523 30.5407C34.5287 35.3396 31.5092 37.5 26.5625 37.5C26.2943 37.5 25.266 37.4802 25 37.481C18.9481 37.4974 17.4908 34.4473 12.9169 33.7393C11.777 33.5628 10.9375 32.578 10.9375 31.4244V14.6739L10.9377 14.6738C10.9388 12.8803 11.9735 11.169 13.7174 10.3921C16.5383 9.12314 23.0351 5.60322 24.2188 2.84102C24.9802 1.06426 26.307 0.000781659 28.125 4.08715e-07C31.467 -0.00136678 33.7648 3.42754 32.4335 6.53399C32.0836 7.35029 31.6218 8.16192 31.0514 8.96738H45.625C47.915 8.96738 50 10.9735 50 13.2473ZM9.375 13.2812V32.0312C9.375 33.3257 8.32568 34.375 7.03125 34.375H2.34375C1.04932 34.375 0 33.3257 0 32.0312V13.2812C0 11.9868 1.04932 10.9375 2.34375 10.9375H7.03125C8.32568 10.9375 9.375 11.9868 9.375 13.2812ZM6.64062 29.6875C6.64062 28.6088 5.76621 27.7344 4.6875 27.7344C3.60879 27.7344 2.73438 28.6088 2.73438 29.6875C2.73438 30.7662 3.60879 31.6406 4.6875 31.6406C5.76621 31.6406 6.64062 30.7662 6.64062 29.6875Z" fill="white"/>
</svg>
