<svg width="212" height="190" viewBox="0 0 212 190" fill="none" xmlns="http://www.w3.org/2000/svg">
<path d="M54.5801 80.9789C51.6504 76.246 46.0547 69.8082 46.0547 64.2523C46.1207 62.4494 46.7281 60.7087 47.7972 59.2583C48.8663 57.8078 50.3473 56.7154 52.0459 56.1241C51.7676 51.4207 51.5772 46.6584 51.5772 41.9403C51.5772 39.1476 51.5772 36.3403 51.7383 33.5623C51.9193 32.1437 52.2533 30.749 52.7344 29.4027C54.8699 22.3022 59.5717 16.2581 65.918 12.4556C68.187 11.0524 70.598 9.89456 73.1104 9.00152C77.6367 7.35531 75.4981 0.109072 80.5664 0.00618467C92.2852 -0.28778 111.445 9.9569 118.931 18.085C123.672 23.0095 126.401 29.5393 126.577 36.3844L126.094 56.9619C127.201 57.194 128.232 57.702 129.093 58.4393C129.953 59.1765 130.614 60.1191 131.016 61.1803C132.539 67.6182 125.83 75.6581 122.725 80.8466C119.795 85.6088 108.882 98.5727 108.867 98.6903C108.952 99.5579 109.299 100.379 109.863 101.042C110.932 102.502 112.145 103.851 113.481 105.069C107.109 111.829 102.97 120.396 101.628 129.602C100.286 138.808 101.806 148.206 105.981 156.513H0C0 109.67 50.083 124.53 67.1045 101.042C67.9541 99.7926 68.335 99.1312 68.3203 98.5874C68.3203 98.2934 55.708 82.7867 54.5801 80.9495V80.9789Z" />
<path d="M161.996 89C173.565 88.9991 184.775 93.0234 193.718 100.387C202.661 107.751 208.782 117.998 211.039 129.383C213.296 140.767 211.549 152.585 206.095 162.822C200.641 173.059 191.818 181.082 181.13 185.523C170.442 189.964 158.549 190.549 147.48 187.178C136.41 183.807 126.847 176.688 120.422 167.036C113.996 157.383 111.106 145.794 112.242 134.242C113.378 122.69 118.471 111.891 126.654 103.686C131.292 99.0242 136.801 95.3274 142.866 92.8073C148.931 90.2873 155.432 88.9934 161.996 89ZM190.574 123.549L146.537 167.714C148.518 168.813 150.612 169.696 152.781 170.347C158.395 172.025 164.356 172.15 170.035 170.71C175.713 169.271 180.899 166.319 185.045 162.166C189.988 157.186 193.197 150.736 194.194 143.778C195.19 136.82 193.92 129.725 190.574 123.549ZM133.549 154.791L177.564 110.604C172.798 107.966 167.439 106.595 161.996 106.623C156.948 106.641 151.973 107.839 147.465 110.121C142.958 112.403 139.042 115.706 136.027 119.77C133.013 123.833 130.982 128.545 130.097 133.532C129.211 138.52 129.495 143.645 130.925 148.503C131.57 150.688 132.45 152.797 133.549 154.791Z" />
</svg>
