<svg width="90" height="101" viewBox="0 0 90 101" fill="none" xmlns="http://www.w3.org/2000/svg">
<g clip-path="url(#clip0_343_1854)">
<path fill-rule="evenodd" clip-rule="evenodd" d="M1.52986 12.018H20.0682L20.0436 11.6989V3.37878C20.0436 1.52168 21.9744 0 24.3469 0C26.7112 0 28.6501 1.52986 28.6501 3.37878V11.6989L28.6256 12.018H60.1963L60.1718 11.6989V3.37878C60.1718 1.52168 62.1025 0 64.4669 0C66.8312 0 68.7701 1.52986 68.7701 3.37878V11.6989L68.7456 12.018H88.4701C89.3128 12.018 90 12.7052 90 13.5479V29.4682C90 30.3109 89.3128 30.9981 88.4701 30.9981H1.52986C0.68721 30.9899 0 30.3027 0 29.46V13.5397C0 12.697 0.68721 12.018 1.52986 12.018ZM52.5552 50.5263C54.2814 48.7756 57.0957 48.7592 58.8383 50.51C60.5727 52.2607 60.5809 55.0995 58.8546 56.8503L51.2708 64.5487L58.871 72.2552C60.5809 73.9978 60.5645 76.8203 58.8219 78.5629C57.0794 80.3054 54.2732 80.2972 52.5634 78.5547L45.0205 70.9054L37.4611 78.571C35.7349 80.33 32.9206 80.3382 31.1781 78.5874C29.4437 76.8448 29.4355 73.9978 31.1617 72.2471L38.7537 64.5487L31.1535 56.8421C29.4437 55.0995 29.46 52.2771 31.2026 50.5345C32.9452 48.7919 35.7513 48.8001 37.4611 50.5427L44.9959 58.192L52.5552 50.5263ZM0.38451 34.516H89.6237C89.8364 34.516 90 34.6878 90 34.8923V100.145C90 100.349 89.8282 100.521 89.6237 100.521H0.38451C0.179984 100.521 0.00818107 100.349 0.00818107 100.145V34.9005C0 34.6878 0.171803 34.516 0.38451 34.516ZM7.23207 41.3799H84.0033C84.4287 41.3799 84.7723 41.748 84.7723 42.1489V93.5669C84.7723 93.9678 84.4041 94.336 84.0033 94.336H6.86392C6.46305 94.336 6.0949 93.9924 6.0949 93.5669V42.517C6.0949 41.6744 6.78211 40.9954 7.61658 40.9954L7.23207 41.3799ZM64.0905 24.4369C66.4549 24.4369 68.3938 22.907 68.3938 21.0581V12.3616L68.3692 12.0262H59.8118L59.7873 12.3616V20.6736C59.7873 22.5307 61.718 24.0524 64.0824 24.0524V24.4369H64.0905ZM23.9624 24.4369C26.3267 24.4369 28.2656 22.907 28.2656 21.0581V12.3616L28.2411 12.0262H19.6918L19.6673 12.3616V20.6736C19.6673 22.5307 21.598 24.0524 23.9624 24.0524V24.4369Z" fill="#B8191A"/>
</g>
<defs>
<clipPath id="clip0_343_1854">
<rect width="90" height="100.529" fill="white"/>
</clipPath>
</defs>
</svg>
