<svg width="172" height="151" viewBox="0 0 172 151" fill="none" xmlns="http://www.w3.org/2000/svg">
<path d="M105.283 0.31578C114.017 2.06266 119.695 10.5619 117.948 19.2962L117.175 23.1259C115.395 32.0955 112.102 40.6283 107.5 48.3884H155.875C164.777 48.3884 172 55.6111 172 64.5134C172 70.7283 168.473 76.1369 163.299 78.8244C166.961 81.7806 169.312 86.3158 169.312 91.3884C169.312 99.2494 163.669 105.8 156.245 107.211C157.723 109.663 158.562 112.519 158.562 115.576C158.562 122.731 153.893 128.812 147.443 130.895C147.678 132.003 147.812 133.179 147.812 134.388C147.812 143.291 140.59 150.513 131.688 150.513H98.9336C92.5508 150.513 86.3359 148.632 81.0281 145.105L68.0945 136.471C59.125 130.492 53.75 120.413 53.75 109.63V96.7634V80.6384V72.2736C53.75 62.4642 58.218 53.2259 65.8438 47.0783L68.3297 45.0962C77.232 37.9744 83.3125 27.9634 85.5297 16.8103L86.3023 12.9806C88.0492 4.24625 96.5484 -1.43109 105.283 0.31578ZM10.75 53.7634H32.25C38.1961 53.7634 43 58.5673 43 64.5134V139.763C43 145.71 38.1961 150.513 32.25 150.513H10.75C4.80391 150.513 0 145.71 0 139.763V64.5134C0 58.5673 4.80391 53.7634 10.75 53.7634Z" />
</svg>
