<svg width="80" height="80" viewBox="0 0 80 80" fill="none" xmlns="http://www.w3.org/2000/svg">
<path fill-rule="evenodd" clip-rule="evenodd" d="M40 0C62.0898 0 80 17.9102 80 40C80 62.0898 62.0898 80 40 80C17.9102 80 0 62.0898 0 40C0 17.9102 17.9102 0 40 0ZM54.2383 42.474C56.276 41.1589 56.2695 39.694 54.2383 38.5286L33.1901 26.4323C31.5299 25.3906 29.7982 26.0026 29.8438 28.1706L29.9089 52.6172C30.0521 54.9674 31.3932 55.612 33.3724 54.5247L54.2383 42.474ZM40 8.125C57.6042 8.125 71.875 22.3958 71.875 40C71.875 57.6042 57.6042 71.875 40 71.875C22.3958 71.875 8.125 57.6042 8.125 40C8.125 22.3958 22.3958 8.125 40 8.125Z" fill="white"/>
</svg>
