<svg width="50" height="59" viewBox="0 0 50 59" fill="none" xmlns="http://www.w3.org/2000/svg">
<path d="M40.7857 53.263C40.8775 43.8748 37.5009 37.5993 32.899 34.393C31.1153 33.1505 29.1575 32.3676 27.1629 32.0438C25.1603 31.7199 23.1051 31.8509 21.1365 32.4348C14.6421 34.3646 9.10079 41.2925 9.21615 53.263H40.7857ZM0.429747 53.263H4.9532C4.83217 40.2411 10.7073 32.162 17.977 29.0582C10.7021 25.9545 4.8246 17.865 4.9532 4.82838L0.429747 4.82886C0.19289 4.82886 0 4.61138 0 4.3438V0.484115C0 0.217474 0.19289 0 0.429747 0H49.5703C49.8057 0 50 0.217474 50 0.484115V4.3438C50 4.61044 49.8057 4.82838 49.5703 4.82838H45.0459C45.1522 15.8028 40.989 23.2838 35.3324 27.2263C34.2979 27.9458 33.1841 28.5651 32.0258 29.0573C33.1827 29.5528 34.2989 30.1702 35.3314 30.8912C40.9834 34.8303 45.1447 42.3033 45.0449 53.263L49.5703 53.2635C49.8057 53.2635 50 53.4824 50 53.7491V57.6078C50 57.8744 49.8057 58.0933 49.5703 58.0933H0.429747C0.19289 58.0933 0 57.8744 0 57.6078V53.7495C0 53.4819 0.19289 53.263 0.429747 53.263ZM40.7857 4.82886H9.2171C9.09418 16.8154 14.6374 23.7514 21.1365 25.6822C23.1047 26.2665 25.1603 26.3975 27.1629 26.0727C29.1575 25.7498 31.1148 24.9674 32.899 23.7249C37.5047 20.5163 40.8841 14.2322 40.7857 4.82886Z" fill="white"/>
</svg>
