<svg width="20" height="21" viewBox="0 0 20 21" fill="none" xmlns="http://www.w3.org/2000/svg">
<path d="M9.99585 0.303711C15.5166 0.303711 19.9917 4.78071 19.9917 10.3037C19.9917 15.8267 15.5166 20.3037 9.99585 20.3037C4.47514 20.3037 0 15.8267 0 10.3037C0 4.78071 4.47514 0.303711 9.99585 0.303711ZM9.99585 4.30371C9.73074 4.30371 9.4765 4.40907 9.28904 4.5966C9.10158 4.78414 8.99627 5.03849 8.99627 5.30371V10.3037C8.99632 10.5689 9.10167 10.8232 9.28914 11.0107L12.2879 14.0107C12.4764 14.1929 12.7289 14.2937 12.991 14.2914C13.2531 14.2891 13.5038 14.1839 13.6891 13.9985C13.8745 13.8131 13.9796 13.5623 13.9819 13.3001C13.9841 13.0379 13.8834 12.7853 13.7013 12.5967L10.9954 9.88971V5.30371C10.9954 5.03849 10.8901 4.78414 10.7027 4.5966C10.5152 4.40907 10.261 4.30371 9.99585 4.30371Z" fill="white"/>
</svg>
