<svg width="50" height="59" viewBox="0 0 50 59" fill="none" xmlns="http://www.w3.org/2000/svg">
<path d="M40.785 53.2625C40.8772 43.8745 37.5007 37.599 32.8984 34.3928C31.1147 33.1499 29.157 32.3675 27.1624 32.0432C25.1598 31.7193 23.1047 31.8503 21.1361 32.4346C14.6418 34.3644 9.10062 41.2918 9.2155 53.262L40.785 53.2625ZM9.44432 9.22921H40.5585C40.7221 7.84781 40.8015 6.38084 40.785 4.82924H9.21692C9.20085 6.38131 9.2798 7.84781 9.44432 9.22921ZM0.430211 53.2625H4.9531C4.83208 40.2408 10.7071 32.1614 17.9772 29.0582C10.7019 25.954 4.82451 17.8651 4.9531 4.82829L0.430211 4.82877C0.193359 4.82877 0.00047276 4.6113 0.00047276 4.34419L0 0.484106C0 0.217469 0.193359 0 0.430211 0H49.5698C49.8062 0 50 0.217469 50 0.484106V4.34371C50 4.61035 49.8062 4.82829 49.5698 4.82829H45.0455C45.1518 15.8025 40.9892 23.2834 35.3326 27.2253C34.2982 27.9448 33.1849 28.5641 32.0262 29.0563C33.183 29.5522 34.2997 30.1696 35.3317 30.8906C40.9835 34.8296 45.1443 42.3021 45.0445 53.2616L49.5698 53.262C49.8062 53.262 50 53.4809 50 53.7476V57.6062C50 57.8729 49.8062 58.0918 49.5698 58.0918H0.430211C0.193359 58.0918 0.00047276 57.8729 0.00047276 57.6062V53.7476C0.00047276 53.4814 0.193831 53.2625 0.430211 53.2625Z" />
</svg>
