<svg width="300" height="300" viewBox="0 0 300 300" fill="none" xmlns="http://www.w3.org/2000/svg">
<path d="M290 242.386C290 273.773 219.407 290 150 290C80.3559 290 10 273.773 10 242.386C10 216.565 55.3219 204.247 82.1355 199.272L85.2202 216.802C41.6779 224.856 27.5592 237.411 27.5592 242.386C27.5592 252.927 74.0678 272.233 150 272.233C225.576 272.233 272.085 252.927 272.085 242.386C272.085 237.174 260.102 225.093 214.424 216.802L217.39 199.272C265.322 208.156 290 222.25 290 242.386ZM149.881 252.927C149.881 252.927 78.9322 142.064 78.9322 80.8291C78.9322 41.9797 110.729 10 149.881 10C188.678 10 220.83 41.9797 220.83 80.8291C220.83 141.117 149.881 252.927 149.881 252.927ZM149.881 104.399C162.813 104.399 173.254 93.7395 173.254 80.7107C173.254 67.8004 162.813 57.3773 149.881 57.3773C136.949 57.3773 126.152 67.9188 126.152 80.7107C126.152 93.7395 136.949 104.399 149.881 104.399Z" />
</svg>
