<svg width="300" height="300" viewBox="0 0 300 300" fill="none" xmlns="http://www.w3.org/2000/svg">
<g clip-path="url(#clip0_1323_31)">
<path d="M24.5448 58.552H156.758V19.0172C156.758 14.5906 160.339 11 164.759 11H275.455C279.875 11 283.46 14.5906 283.46 19.0172V272.97H302.107C312.631 272.97 312.631 289 302.107 289C200.704 289 99.2963 289 -2.10712 289C-12.631 289 -12.631 272.97 -2.10712 272.97H16.5442V66.5653C16.5442 62.1426 20.1252 58.552 24.5448 58.552V58.552ZM106.255 272.97V241.444H83.049V272.97H106.255ZM67.044 272.97V233.427C67.044 229.004 70.625 225.414 75.0446 225.414H114.259C118.679 225.414 122.26 229.004 122.26 233.427V272.97H156.758V74.5825H32.5492V272.97H67.044ZM196.099 44.2668H244.114C248.534 44.2668 252.119 47.8535 252.119 52.2801V196.558C252.119 200.985 248.534 204.571 244.114 204.571H196.099C191.68 204.571 188.095 200.985 188.095 196.558V52.2801C188.095 47.8535 191.68 44.2668 196.099 44.2668V44.2668ZM236.114 60.2934H204.1V188.541H236.114V60.2934V60.2934ZM56.4394 141.652H82.849C87.2685 141.652 90.8496 145.242 90.8496 149.669V176.116C90.8496 180.543 87.2685 184.134 82.849 184.134H56.4394C52.0199 184.134 48.435 180.543 48.435 176.116V149.669C48.435 145.242 52.0199 141.652 56.4394 141.652V141.652ZM74.8446 157.682H64.44V168.103H74.8446V157.682ZM106.458 141.652H132.864C137.284 141.652 140.869 145.242 140.869 149.669V176.116C140.869 180.543 137.284 184.134 132.864 184.134H106.458C102.039 184.134 98.454 180.543 98.454 176.116V149.669C98.454 145.242 102.039 141.652 106.458 141.652V141.652ZM124.864 157.682H114.459V168.103H124.864V157.682ZM56.4394 90.3548H82.849C87.2685 90.3548 90.8496 93.9416 90.8496 98.3681V124.82C90.8496 129.246 87.2685 132.833 82.849 132.833H56.4394C52.0199 132.833 48.435 129.246 48.435 124.82V98.3681C48.435 93.9416 52.0199 90.3548 56.4394 90.3548V90.3548ZM74.8446 106.385H64.44V116.803H74.8446V106.385ZM106.458 90.3548H132.864C137.284 90.3548 140.869 93.9416 140.869 98.3681V124.82C140.869 129.246 137.284 132.833 132.864 132.833H106.458C102.039 132.833 98.454 129.246 98.454 124.82V98.3681C98.454 93.9416 102.039 90.3548 106.458 90.3548V90.3548ZM124.864 106.385H114.459V116.803H124.864V106.385ZM172.763 272.97H267.455V27.0305H172.763V272.97V272.97Z" fill="white"/>
</g>
<defs>
<clipPath id="clip0_1323_31">
<rect width="300" height="300" fill="white"/>
</clipPath>
</defs>
</svg>
