<svg width="300" height="300" viewBox="0 0 300 300" fill="none" xmlns="http://www.w3.org/2000/svg">
<path fill-rule="evenodd" clip-rule="evenodd" d="M153.906 13.7619C152.204 15.1416 151.555 16.7262 151.555 19.4978C151.555 24.124 154.111 26.5726 159.911 27.5009C162.11 27.8524 164.499 28.8521 165.22 29.7213C167.454 32.4185 164.867 33.6382 157.353 33.4304C145.301 33.0982 135.33 37.8507 132.513 45.2699C128.564 55.6707 135.912 67.1027 148.4 69.9874C151.198 70.6345 154.814 71.4639 156.435 71.8318C159.427 72.5104 162.111 75.4003 160.886 76.6261C160.517 76.995 155.954 77.3995 150.746 77.5248C139.683 77.7898 134.469 79.8828 129.887 85.8978C127.534 88.9864 127.029 90.6667 127.029 95.407C127.029 103.185 130.091 107.69 138.132 111.741C148.812 117.125 157.05 115.185 157.05 107.288C157.05 102.996 154.838 100.949 147.997 98.9153C143.995 97.7252 142.757 96.9059 143.004 95.6087C143.275 94.1822 145.002 93.7858 152.99 93.316C164.171 92.6588 168.536 91.0457 173.043 85.905C176.685 81.7516 177.972 76.8707 176.916 71.2112C175.597 64.1313 163.823 55.6717 155.291 55.6717C152.016 55.6717 146.65 52.7798 147.144 51.2809C147.4 50.5055 151.19 49.8564 157.64 49.4844C165.134 49.0514 168.825 48.3371 171.964 46.7108C183.452 40.7599 185.534 27.5977 176.369 18.8599C169.734 12.533 158.552 9.99476 153.906 13.7619ZM41.7791 16.2646C32.7597 19.0739 27.6205 26.5675 25.6595 39.7715C24.3773 48.4003 25.4255 51.9983 29.9591 54.5427C32.1664 55.7818 33.1453 55.8164 35.723 54.7465C39.3784 53.2302 40.7482 50.1641 41.2977 42.2639C41.831 34.6032 44.0759 31.2161 48.6197 31.2161C56.0658 31.2161 58.9376 40.391 58.0288 61.2761C57.4172 75.3147 54.1944 94.6631 49.3727 113.244C46.0481 126.056 46.3839 129.073 51.3602 131.137C55.3738 132.802 59.4251 131.428 61.154 127.817C63.4142 123.094 68.4282 102.397 71.1209 86.6672C74.1402 69.0377 74.8129 47.4791 72.629 38.349C68.3386 20.4088 56.252 11.7566 41.7791 16.2646ZM221.614 24.0414C218.228 25.415 213.174 31.9049 212.44 35.824C211.511 40.7834 214.331 47.8836 218.375 50.7673C222.939 54.021 231.749 54.4469 236.231 51.6304C239.808 49.3836 243.49 42.6613 243.527 38.3103C243.565 33.9877 239.311 26.9598 235.425 24.9229C231.739 22.9909 225.229 22.5761 221.614 24.0414ZM258.306 62.6966C250.792 65.9685 249.185 76.4569 255.313 82.2213C257.368 84.1554 259.063 84.7128 262.885 84.7128C266.707 84.7128 268.402 84.1554 270.457 82.2213C277.734 75.3778 274.008 63.2591 264.313 62.2319C262.128 61.9996 259.425 62.2095 258.306 62.6966ZM98.9067 67.1353C93.7808 76.7117 10.5088 266.645 10.5088 268.76C10.5088 275.172 23.2029 288 29.55 288C30.9401 288 46.1153 281.756 63.2718 274.123C80.4272 266.491 124.918 246.732 162.138 230.213C226.224 201.773 238.393 195.98 228.514 198.62C225.324 199.473 222.979 199.337 217.47 197.982C198.557 193.326 175.919 178.223 150.06 153.005C115.41 119.216 94.1736 82.8979 100.036 67.4563C101.262 64.2312 100.566 64.0335 98.9067 67.1353ZM200.762 72.7397C196.849 76.2409 195.724 82.3406 198.131 87.0014C200.314 91.2281 207.22 93.9804 211.534 92.3439C218.422 89.7302 221.655 83.1843 219.105 77.0184C216.035 69.5961 206.707 67.4206 200.762 72.7397ZM233.196 95.1186C225.254 100.053 227.194 113.142 236.272 115.866C240.946 117.268 246.556 115.309 249.131 111.374C251.087 108.386 251.406 101.744 249.743 98.6331C247.13 93.743 238.397 91.8884 233.196 95.1186ZM249.656 124.999C228.26 127.616 200.273 138.194 186.122 149.014C182.011 152.158 181.473 153.025 181.473 156.524C181.473 159.619 182.078 160.955 184.256 162.671C187.867 165.515 190.907 164.894 198.482 159.761C208.983 152.647 221.695 147.176 236.935 143.211C244.821 141.159 248.793 140.805 265.518 140.663C277.529 140.56 285.75 140.064 287.059 139.362C291.961 136.735 290.439 128.142 284.683 125.951C280.966 124.536 258.451 123.924 249.656 124.999ZM17.6222 134.388C12.0526 138.184 10 141.772 10 147.709C10 162.87 29.2773 168.797 38.1227 156.357C41.2499 151.96 41.37 143.572 38.3638 139.509C34.9405 134.881 30.0171 132.095 25.2647 132.095C22.5028 132.095 19.7938 132.909 17.6222 134.388ZM257.099 149.315C253.098 151.822 251.691 154.338 251.691 158.983C251.691 163.823 253.323 167.082 256.769 169.12C265.958 174.556 277.143 165.883 273.807 155.909C271.422 148.781 263.156 145.519 257.099 149.315ZM73.0269 179.962C76.2356 181.184 79.6996 186.642 79.7047 190.483C79.7179 200.582 67.498 205.833 60.055 198.927C58.6252 197.599 57.1425 194.851 56.7619 192.819C55.0125 183.479 63.8712 176.476 73.0269 179.962ZM249.147 185.56C246.908 186.401 245.017 187.097 244.945 187.105C244.874 187.113 244.281 188.412 243.627 189.99C241.226 195.797 245.167 200.729 251.94 200.393C261.619 199.912 262.562 200.143 261.562 202.752C261.256 203.552 257.708 205.467 253.68 207.009C240.935 211.885 234.194 220.87 236.01 230.562C236.934 235.495 241.631 240.613 247.179 242.735C251.593 244.423 257.8 244.383 268.482 242.597C270.161 242.317 272.193 242.524 272.996 243.058C275.372 244.636 272.745 246.794 264.702 249.872C252.817 254.419 246.67 262.525 247.937 271.982C249.309 282.227 259.874 288.429 272.681 286.505C281.237 285.221 285.196 277.659 279.931 272.657C277.991 270.815 276.773 270.558 271.97 270.977C265.574 271.533 262.091 270.316 263.887 268.149C264.499 267.41 267.615 265.758 270.812 264.477C279.776 260.886 283.9 257.893 286.866 252.824C289.142 248.934 289.515 247.283 289.139 242.749C288.642 236.738 286.239 232.878 280.909 229.524C277.286 227.244 266.474 226.676 257.563 228.296C253.482 229.038 252.649 228.909 252.092 227.457C251.255 225.274 253.467 223.642 260.504 221.246C266.695 219.139 273.351 213.906 275.752 209.254C278.139 204.634 277.951 197.35 275.339 193.117C270.842 185.832 258.157 182.171 249.147 185.56ZM186.881 243.114C182.76 245.631 181.473 248.074 181.473 253.389C181.473 259.313 186.579 264.563 192.339 264.563C201.057 264.563 206.661 256.541 203.402 248.728C201.779 244.84 196.541 241.134 192.668 241.134C191.268 241.134 188.664 242.026 186.881 243.114Z" fill="white"/>
</svg>
