<svg width="300" height="300" viewBox="0 0 300 300" fill="none" xmlns="http://www.w3.org/2000/svg">
<path fill-rule="evenodd" clip-rule="evenodd" d="M5.29482 131.87H55.3554C58.2435 131.87 60.6502 134.277 60.6502 137.165V234.397C60.6502 237.285 58.2435 239.691 55.3554 239.691H5.29482C2.40671 239.691 0 237.285 0 234.397V137.165C0 134.277 2.28637 131.87 5.29482 131.87ZM72.8044 230.666V140.534H113.358C130.446 143.663 147.775 152.929 164.983 163.759H196.512C210.832 164.601 218.172 179.042 204.334 188.548C193.262 196.611 178.702 196.25 163.78 194.806C153.431 194.325 152.949 208.163 163.78 208.163C167.51 208.404 171.602 207.562 175.092 207.562C193.744 207.562 209.147 203.951 218.533 189.27L223.227 178.199L270.038 154.974C293.504 147.273 310.111 171.822 292.902 188.909C260.17 212.856 225.272 233.434 188.569 250.401C162.697 266.166 136.824 265.564 110.951 250.401L72.8044 230.666ZM239.593 98.296C238.389 97.4536 236.705 97.6943 235.862 98.8976C235.862 98.8976 235.862 98.8976 235.862 99.0179L233.455 102.387C232.613 102.026 231.65 101.786 230.808 101.545C229.845 101.304 229.003 101.184 228.04 100.943L227.318 96.4909C227.198 95.7689 226.837 95.1672 226.235 94.8062C225.633 94.4452 224.911 94.2044 224.189 94.4451L218.654 95.4078C217.932 95.5282 217.33 95.8892 216.969 96.4909C216.488 97.0926 216.367 97.8146 216.488 98.5366L217.21 102.628C216.367 102.989 215.525 103.47 214.803 103.952C213.961 104.433 213.239 104.914 212.517 105.516L208.786 103.109C208.184 102.628 207.462 102.508 206.861 102.628C206.139 102.748 205.537 103.109 205.176 103.711L202.047 108.284C201.566 108.885 201.446 109.608 201.566 110.33C201.686 111.052 202.047 111.653 202.649 112.014L206.018 114.421C205.657 115.263 205.296 116.226 205.176 117.068C204.935 117.911 204.695 118.753 204.574 119.716L200.122 120.438C199.4 120.558 198.798 120.919 198.437 121.521C197.956 122.123 197.835 122.845 198.076 123.567L199.039 129.102C199.159 129.824 199.52 130.426 200.122 130.787C200.723 131.268 201.446 131.389 202.168 131.268L206.139 130.546C206.5 131.388 206.981 132.231 207.462 132.953C207.944 133.795 208.425 134.638 209.027 135.36L206.379 139.09C206.018 139.692 205.778 140.414 205.898 141.015C206.018 141.737 206.379 142.339 206.981 142.7L211.554 145.949C212.156 146.31 212.878 146.551 213.6 146.431C214.322 146.31 214.923 145.949 215.405 145.348L217.811 141.978C218.654 142.339 219.616 142.7 220.459 142.82C221.301 143.061 222.264 143.302 223.227 143.422L223.949 147.875C224.069 148.597 224.43 149.198 225.032 149.559C225.633 150.041 226.355 150.161 227.077 149.92L232.613 148.958C233.335 148.837 233.937 148.476 234.298 147.875C234.779 147.273 234.899 146.551 234.779 145.829L234.057 141.617C234.899 141.256 235.742 140.775 236.464 140.293C237.306 139.812 238.028 139.21 238.871 138.729L242.601 141.136C243.203 141.617 243.925 141.737 244.647 141.617C245.369 141.497 245.97 141.136 246.331 140.534L249.581 135.961C250.062 135.36 250.182 134.638 249.942 133.916C249.821 133.194 249.46 132.592 248.859 132.111L245.489 129.824C245.85 128.982 246.211 128.019 246.452 127.177C246.692 126.334 246.933 125.372 247.053 124.409L251.506 123.687C252.228 123.567 252.83 123.206 253.191 122.604C253.672 122.002 253.792 121.28 253.552 120.558L252.589 115.023C252.469 114.301 252.108 113.699 251.506 113.338C250.904 112.857 250.182 112.736 249.46 112.857L245.489 113.579C245.128 112.736 244.647 111.894 244.165 111.172C243.684 110.33 243.203 109.608 242.601 108.885L245.008 105.155C245.489 104.553 245.61 103.952 245.489 103.23C245.369 102.508 245.008 101.906 244.406 101.545L239.833 98.4163H239.713L239.593 98.296ZM190.495 53.29C191.217 53.7714 191.939 54.3731 192.42 55.0951L197.354 61.9542C197.835 62.6762 198.196 63.3983 198.437 64.2406C198.678 65.083 198.678 65.9254 198.437 66.8881C198.317 67.7305 197.956 68.5728 197.474 69.2949C196.993 70.0169 196.391 70.6186 195.669 71.0999L191.578 74.1083C191.578 74.2287 191.578 74.3489 191.578 74.4692C191.818 75.1913 191.939 75.9133 192.059 76.6354C192.179 77.3574 192.3 78.1998 192.42 78.9218V79.1624L196.632 79.8844C198.317 80.1251 199.881 81.0878 200.964 82.5319C201.446 83.2539 201.807 83.9758 202.047 84.8182C202.168 85.6605 202.168 86.503 202.047 87.3454L200.723 95.7689C200.483 97.574 199.52 99.1383 198.076 100.101C197.354 100.582 196.512 100.943 195.669 101.184C194.827 101.304 193.985 101.304 193.022 101.184L188.088 100.342C188.088 100.462 187.968 100.582 187.847 100.703C187.486 101.304 187.005 102.026 186.644 102.628C186.163 103.23 185.802 103.952 185.32 104.553L185.2 104.794L187.607 108.284V108.404C188.088 109.126 188.449 109.969 188.569 110.811C188.69 111.653 188.69 112.496 188.569 113.338C188.449 114.18 188.088 115.023 187.727 115.745C187.246 116.467 186.764 117.189 186.042 117.67L179.183 122.604C178.461 123.085 177.619 123.567 176.776 123.687C175.934 123.928 174.971 123.928 174.129 123.687C173.286 123.567 172.444 123.206 171.722 122.724C171 122.243 170.398 121.641 169.917 120.919L167.029 116.948C166.908 116.948 166.788 116.948 166.668 116.948C165.946 117.068 165.224 117.309 164.381 117.43C163.659 117.55 162.817 117.67 162.095 117.79C161.975 117.79 161.854 117.79 161.734 117.79L161.012 122.002C160.892 122.845 160.531 123.687 160.049 124.409C159.568 125.131 158.966 125.733 158.244 126.214C157.522 126.695 156.8 127.056 155.958 127.297C155.115 127.417 154.273 127.417 153.431 127.297L145.007 125.853C143.202 125.612 141.638 124.65 140.675 123.206C140.194 122.484 139.833 121.641 139.592 120.799C139.472 119.956 139.472 119.114 139.592 118.151L140.434 113.218C140.314 113.218 140.194 113.097 140.073 112.977L138.148 111.774C137.426 111.292 136.824 110.811 136.222 110.45L135.982 110.33L132.492 112.736H132.372C131.65 113.218 130.807 113.579 129.965 113.699C129.122 113.819 128.28 113.819 127.438 113.699C126.595 113.579 125.753 113.218 125.031 112.857C124.309 112.375 123.707 111.894 123.106 111.172L118.172 104.192C117.69 103.47 117.329 102.628 117.089 101.786C116.848 100.943 116.848 100.101 117.089 99.1383C117.209 98.2959 117.57 97.4535 118.051 96.7315C118.533 96.0095 119.134 95.4078 119.856 94.9265L123.828 92.0384C123.828 91.918 123.828 91.7978 123.828 91.6774C123.707 90.9554 123.467 90.2334 123.346 89.391C123.226 88.5487 122.985 87.8266 122.985 87.1046V87.4657L118.773 86.7437C117.931 86.6233 117.089 86.2623 116.367 85.7809C115.645 85.2996 115.043 84.6979 114.562 83.9759C114.08 83.2539 113.719 82.4115 113.479 81.5691C113.358 80.7268 113.358 79.8844 113.479 79.1624L114.802 70.7388C115.043 68.9338 116.006 67.3694 117.45 66.4068C118.172 65.9254 119.014 65.5644 119.856 65.3237C120.699 65.2034 121.541 65.2034 122.504 65.3237L127.438 66.166L127.678 65.8051C128.039 65.2034 128.521 64.4814 128.882 63.8797C129.363 63.278 129.724 62.5559 130.205 61.9542L130.326 61.7136L128.28 58.1035C127.799 57.3815 127.317 56.5391 127.197 55.6968C127.077 54.8544 127.077 54.0121 127.197 53.29C127.317 52.4477 127.678 51.6053 128.16 50.8833C128.641 50.1613 129.243 49.4393 129.965 48.9579L136.824 44.0242C137.546 43.5428 138.388 43.1818 139.231 42.9411C140.073 42.7004 140.916 42.7004 141.878 42.9411C142.721 43.0614 143.563 43.4224 144.285 43.9037C145.007 44.3851 145.609 44.9867 146.09 45.7088L149.099 49.8002L149.339 49.4393L151.505 48.9579C152.227 48.8376 153.07 48.7172 153.792 48.5969C153.792 48.5969 154.032 48.5969 154.153 48.5969L154.875 44.3851C154.995 43.5427 155.356 42.7004 155.837 41.9784C156.319 41.2563 156.921 40.6547 157.643 40.1733C158.365 39.692 159.087 39.3309 159.929 39.0903C160.771 38.9699 161.614 38.9699 162.456 39.0903L170.88 40.2936C171.722 40.414 172.564 40.7751 173.286 41.1361C174.009 41.6174 174.731 42.2191 175.212 42.9411C175.693 43.6631 176.175 44.5055 176.295 45.3478C176.415 46.1902 176.415 47.1528 176.295 47.9952L175.452 52.929L175.814 53.1697L177.739 54.3731C178.461 54.8544 179.063 55.3358 179.664 55.6968L179.905 55.8171L183.395 53.4103C184.117 52.929 184.959 52.4476 185.802 52.3273C186.644 52.2069 187.486 52.2069 188.449 52.3273C188.93 52.6883 189.773 52.929 190.495 53.29ZM163.058 70.3778C162.215 70.0168 161.253 69.7761 160.29 69.6558C159.327 69.5354 158.364 69.4152 157.402 69.4152C156.559 69.4152 155.597 69.5354 154.754 69.7761H154.634C153.671 70.0168 152.829 70.2575 151.987 70.7388C151.144 71.0999 150.302 71.5812 149.58 72.0625C148.858 72.5439 148.136 73.1455 147.534 73.8676C146.932 74.5896 146.331 75.3117 145.849 76.0337C145.368 76.7557 144.887 77.5981 144.646 78.4404C143.924 80.2455 143.683 82.1708 143.683 84.0962C143.683 84.9385 143.804 85.9013 144.044 86.7437V86.864C144.285 87.8267 144.526 88.669 145.007 89.5113C145.368 90.3537 145.849 91.0757 146.331 91.7977C146.812 92.5198 147.414 93.2417 148.136 93.8434C148.858 94.4451 149.58 95.0468 150.302 95.5282C151.024 96.0095 151.866 96.4908 152.709 96.7315C154.514 97.4535 156.439 97.6943 158.365 97.6943C159.327 97.6943 160.17 97.5738 161.132 97.4535C161.132 97.4535 161.132 97.4535 161.253 97.4535C163.058 96.9722 164.622 96.2503 166.187 95.1672C166.909 94.6859 167.631 94.0842 168.232 93.3622C168.834 92.6402 169.436 91.9181 169.917 91.1961C170.398 90.474 170.88 89.6317 171.12 88.7893C171.481 87.947 171.722 86.9842 171.842 86.0215C172.083 84.9385 172.203 83.9758 172.203 82.8928C172.203 82.0505 172.083 81.2081 171.842 80.4861C171.842 80.4861 171.842 80.4861 171.842 80.3658C171.602 79.4031 171.241 78.5607 170.88 77.598C170.519 76.7556 170.037 75.9133 169.556 75.1912C169.075 74.4692 168.473 73.7473 167.751 73.1456C167.029 72.5439 166.307 71.9422 165.585 71.4608C164.863 70.9795 164.02 70.6185 163.178 70.2575L163.058 70.3778ZM158.244 59.3069C171.722 59.3069 182.552 70.1371 182.552 83.6148C182.552 97.0925 171.722 107.923 158.244 107.923C144.887 107.923 133.936 97.0926 133.936 83.7353C133.816 70.2576 144.646 59.3069 158.003 59.1866L158.244 59.3069ZM223.467 111.292C224.911 111.052 226.355 111.052 227.799 111.292C229.123 111.653 230.447 112.135 231.65 112.977C232.854 113.819 233.816 114.782 234.538 115.985C235.381 117.189 235.862 118.633 236.103 119.957C236.343 121.401 236.343 122.845 236.103 124.289C235.742 125.733 235.14 127.056 234.418 128.26C233.576 129.343 232.493 130.426 231.41 131.148C230.206 131.99 228.883 132.472 227.439 132.712C225.994 132.953 224.55 132.953 223.106 132.712C221.783 132.351 220.459 131.87 219.255 131.027C218.052 130.185 217.089 129.102 216.367 128.019C215.645 126.816 215.044 125.492 214.803 124.048C214.562 122.604 214.683 121.04 214.923 119.595C215.284 118.272 215.766 116.948 216.608 115.745C217.45 114.541 218.413 113.579 219.617 112.857C220.82 112.135 222.144 111.533 223.467 111.292ZM30.3251 148.236C34.6572 148.236 38.2674 151.725 38.2674 156.178C38.2674 160.51 34.7776 164.12 30.3251 164.12C25.9929 164.12 22.5031 160.63 22.3828 156.298C22.3828 151.966 25.8726 148.476 30.2048 148.356V148.236H30.3251Z" fill="white"/>
</svg>
