<svg width="300" height="300" viewBox="0 0 300 300" fill="none" xmlns="http://www.w3.org/2000/svg">
<path fill-rule="evenodd" clip-rule="evenodd" d="M44.7767 13.6702L43.1093 15.3404V23.4672V31.5946L28.7644 31.7444L14.4197 31.8947L11.5576 33.2377C7.68623 35.0543 5.26993 37.0595 3.25235 40.1301C-0.3483 45.6087 -0.0712174 35.854 0.0705137 152.017L0.197534 256.386L1.51185 259.195C3.05912 262.501 6.5568 266.412 9.5253 268.155C14.327 270.974 10.588 270.862 100.298 270.869L182.744 270.877L184.65 272.42C193.861 279.873 206.684 285.545 218.434 287.361C225.451 288.446 237.966 288.107 244.225 286.663C258.234 283.43 269.101 277.397 279.259 267.211C289.418 257.025 295.47 246.094 298.68 232.134C300.063 226.117 300.439 213.349 299.426 206.772C296.407 187.178 286.114 170.596 269.643 158.793C265.973 156.163 257.908 151.916 253.875 150.491L252.045 149.844L251.914 97.9922L251.782 46.1402L250.271 42.9459C248.352 38.8898 245.05 35.5779 240.867 33.5143L237.585 31.8947L223.228 31.7444L208.871 31.5946V23.7855C208.871 19.2166 208.65 15.4907 208.339 14.8059C206.742 11.2971 200.451 11.1217 198.677 14.5372C198.3 15.2637 198.036 18.5657 197.959 23.5438L197.836 31.4035L164.61 31.5297L131.385 31.656V23.4982V15.3404L129.717 13.6702C128.43 12.3807 127.642 12 126.26 12C124.168 12 121.872 13.066 121.275 14.3152C121.045 14.798 120.742 18.8403 120.603 23.2982L120.35 31.4035H87.247H54.1437L53.8984 23.2491C53.6484 14.9297 53.5037 14.3034 51.4464 12.6298C51.0417 12.3006 49.751 12.0241 48.5773 12.0157C46.7943 12.0025 46.1703 12.2741 44.7767 13.6702ZM119.82 42.7543C120.483 43.0092 120.595 44.2093 120.595 51.0389C120.595 58.3022 120.685 59.1393 121.584 60.2841C123.793 63.0981 128.35 63.0293 130.395 60.1519C131.289 58.8952 131.385 57.995 131.385 50.8543V42.9473H164.733H198.082V50.9862C198.082 58.3022 198.17 59.1386 199.07 60.2841C201.351 63.1893 206.068 63.0203 207.926 59.967C208.749 58.6161 208.867 57.4455 208.869 50.684C208.87 44.8287 209.02 42.9449 209.484 42.937C209.821 42.9311 215.683 42.9247 222.511 42.9228C234.464 42.9193 234.997 42.9601 236.88 44.0197C237.955 44.6254 239.32 45.9025 239.914 46.8584C240.954 48.5331 240.993 49.0627 240.993 61.3683V74.1403H125.99H10.9867V61.3315V48.5221L12.2918 46.5485C14.5781 43.0898 15.2813 42.9473 30.0645 42.9473H43.1093V51.0903V59.2334L44.5177 60.6444C47.037 63.1679 49.9707 63.1679 52.49 60.6444L53.8984 59.2334V51.094V42.9542L86.3887 42.8245C104.259 42.7528 118.916 42.6408 118.961 42.5755C119.007 42.5097 119.393 42.5902 119.82 42.7543ZM240.993 116.14V146.842L239.767 146.736C228.194 145.738 220.46 146.169 212.192 148.269C185.173 155.135 165.408 176.063 159.491 204.07C158.138 210.475 158.279 224.672 159.762 231.557C161.61 240.127 165.131 248.652 169.815 255.894L172.039 259.333L95.1907 259.476C42.3897 259.575 17.782 259.457 16.5496 259.102C14.3687 258.472 11.9578 255.84 11.2614 253.329C10.6866 251.255 10.4978 86.0923 11.0696 85.5197C11.2501 85.3387 63.0563 85.2466 126.195 85.3147L240.993 85.4386V116.14ZM103.975 99.7398C103.271 100.041 102.254 100.782 101.714 101.387C100.783 102.432 100.726 103.291 100.591 118.252C100.439 135.078 100.541 135.969 102.827 137.771C104.004 138.698 104.92 138.737 125.534 138.737C138.301 138.737 147.524 138.542 148.272 138.258C148.964 137.994 149.97 137.055 150.509 136.17C151.433 134.652 151.488 133.693 151.483 119.088C151.477 102.592 151.413 102.105 149.02 100.327C147.85 99.4566 146.483 99.3942 126.514 99.2964C111.773 99.2249 104.862 99.3605 103.975 99.7398ZM26.4394 100.832C24.5223 102.752 24.3825 104.241 24.563 120.807C24.7327 136.343 24.8259 136.862 27.6909 138.17C28.5697 138.571 35.2557 138.737 50.5377 138.737H72.142L73.8094 137.067L75.4767 135.396V119.35C75.4767 102.672 75.3994 101.984 73.335 100.309C72.379 99.5334 70.3814 99.4596 50.06 99.4493L27.8307 99.4386L26.4394 100.832ZM178.026 100.864L176.503 102.289V118.572C176.503 136.238 176.604 136.971 179.187 138.15C180.121 138.576 186.316 138.737 201.83 138.737C225.09 138.737 225.214 138.723 226.484 135.931C226.832 135.165 227.016 129.18 227.016 118.625V102.49L225.594 100.964L224.171 99.4386H201.86H179.55L178.026 100.864ZM64.4424 119.088V127.684H50.2203H35.998L35.8643 118.957L35.7303 110.231L50.0863 110.361L64.4424 110.491V119.088ZM140.212 119.088V127.93H125.99H111.768V119.088V110.245H125.99H140.212V119.088ZM216.116 118.965L215.982 127.684H201.76H187.538L187.404 118.965L187.27 110.245H201.76H216.25L216.116 118.965ZM28.0656 153.208C24.7606 154.648 24.7185 154.885 24.7185 172.118C24.7185 188.977 24.8529 189.949 27.3898 191.45C28.6507 192.196 30.9958 192.28 50.4673 192.28H72.142L73.8094 190.61L75.4767 188.94V172.663C75.4767 154.584 75.467 154.526 72.2047 153.161C69.855 152.178 30.3343 152.219 28.0656 153.208ZM103.837 153.29C100.603 154.635 100.488 155.3 100.488 172.607C100.488 185.323 100.614 188.152 101.232 189.349C102.742 192.273 102.806 192.28 125.934 192.28C138.441 192.28 147.526 192.085 148.272 191.802C148.964 191.538 149.975 190.599 150.52 189.714C151.467 188.174 151.504 187.419 151.378 172.069C151.253 156.827 151.198 155.977 150.266 154.931C148.151 152.555 147.483 152.49 125.883 152.517C108.899 152.538 105.347 152.663 103.837 153.29ZM239.578 158.164C269.985 163.475 291.848 192.066 288.814 222.549C287.446 236.287 282.073 248.212 272.8 258.085C244.099 288.645 194.421 281.243 175.657 243.61C171.539 235.351 169.637 227.053 169.637 217.343C169.637 206.492 171.955 197.261 176.944 188.24C185.679 172.447 201.135 161.357 218.924 158.117C223.803 157.228 234.361 157.252 239.578 158.164ZM64.6877 172.386V180.982H50.2203H35.753V172.386V163.789H50.2203H64.6877V172.386ZM140.212 172.386V180.982H125.99H111.768V172.386V163.789H125.99H140.212V172.386ZM227.261 167.697C226.722 167.92 225.729 168.697 225.055 169.424L223.829 170.745L223.692 194.304C223.57 215.434 223.64 218.041 224.371 219.585C225.891 222.792 225.84 222.785 247.365 222.63L266.719 222.491L267.959 221.249C270.512 218.689 270.331 214.769 267.563 212.713C266.237 211.727 265.528 211.678 250.521 211.541L234.863 211.399V191.754C234.863 169.703 234.802 169.242 231.709 167.947C229.804 167.15 228.727 167.089 227.261 167.697ZM28.5359 206.379C26.9121 206.694 25.0627 209.206 24.7185 211.564C24.5512 212.711 24.4826 219.988 24.5664 227.737C24.7111 241.145 24.768 241.891 25.7464 243.211C27.6845 245.823 27.5575 245.809 50.1223 245.817C67.795 245.823 71.3357 245.708 72.529 245.09C75.498 243.553 75.4774 243.682 75.4694 226.189C75.4617 208.609 75.422 208.35 72.5274 206.895C70.9744 206.115 68.9324 206.042 50.2203 206.103C38.8917 206.139 29.1337 206.263 28.5359 206.379ZM103.528 206.848C100.558 208.33 100.488 208.768 100.488 225.929C100.488 238.843 100.613 241.694 101.232 242.893C102.742 245.818 102.801 245.824 125.99 245.824C149.219 245.824 149.235 245.822 150.767 242.856C151.421 241.589 151.51 239.093 151.388 225.434L151.247 209.491L149.644 207.886L148.041 206.28L126.594 206.161C107.526 206.054 104.968 206.131 103.528 206.848ZM64.6877 225.929V234.526H50.2203H35.753V225.929V217.333H50.2203H64.6877V225.929ZM140.212 225.929V234.526H125.99H111.768V225.929V217.333H125.99H140.212V225.929Z" />
</svg>
