<svg width="300" height="300" viewBox="0 0 300 300" fill="none" xmlns="http://www.w3.org/2000/svg">
<g clip-path="url(#clip0_1323_53)">
<path fill-rule="evenodd" clip-rule="evenodd" d="M1.53429 1.53437L0 3.06813V150V296.932L1.53429 298.466L3.06796 300H149.992H296.916L298.449 298.466L299.984 296.932V282.5V268.068L298.449 266.534C296.42 264.504 293.548 264.504 291.519 266.534C290.006 268.046 289.984 268.224 289.984 279.034V290H284.985H279.985V276.534C279.985 263.07 279.985 263.068 278.451 261.534C276.421 259.504 273.549 259.504 271.52 261.534C269.985 263.068 269.985 263.07 269.985 276.534V290H264.986H259.986V269.034V248.068L258.452 246.534C256.422 244.504 253.55 244.504 251.521 246.534L249.986 248.068V269.034V290H244.987H239.987V284.034C239.987 278.533 239.868 277.949 238.453 276.534C236.423 274.504 233.551 274.504 231.522 276.534C230.107 277.949 229.988 278.533 229.988 284.034V290H222.488H214.988V279.034C214.988 268.224 214.966 268.046 213.454 266.534C211.425 264.504 208.552 264.504 206.523 266.534C205.011 268.046 204.989 268.224 204.989 279.034V290H199.989H194.989V279.034C194.989 268.224 194.968 268.046 193.455 266.534C191.426 264.504 188.554 264.504 186.524 266.534C185.012 268.046 184.99 268.224 184.99 279.034V290H179.99H174.991V276.534C174.991 263.07 174.991 263.068 173.456 261.534C171.427 259.504 168.555 259.504 166.525 261.534C164.991 263.068 164.991 263.07 164.991 276.534V290H159.991H154.992V269.034V248.068L153.457 246.534C151.428 244.504 148.556 244.504 146.526 246.534L144.992 248.068V269.034V290H139.992H134.993V284.034C134.993 278.533 134.873 277.949 133.458 276.534C131.429 274.504 128.557 274.504 126.528 276.534C125.113 277.949 124.993 278.533 124.993 284.034V290H117.494H109.994V284.034C109.994 278.533 109.875 277.949 108.46 276.534C106.43 274.504 103.558 274.504 101.529 276.534C100.114 277.949 99.9946 278.533 99.9946 284.034V290H94.9948H89.9951V276.534C89.9951 263.07 89.9951 263.068 88.4608 261.534C86.4316 259.504 83.5592 259.504 81.53 261.534C79.9957 263.068 79.9957 263.07 79.9957 276.534V290H74.9959H69.9962V266.534V243.068L68.4619 241.534C66.4326 239.504 63.5603 239.504 61.531 241.534L59.9967 243.068V266.534V290H54.997H49.9973V271.534V253.068L48.463 251.534C47.4962 250.567 46.215 250 44.9976 250C43.7801 250 42.4989 250.567 41.5321 251.534L39.9978 253.068V271.534V290H34.9981H29.9984V279.034C29.9984 268.224 29.9765 268.046 28.4641 266.534C26.4348 264.504 23.5625 264.504 21.5332 266.534C20.0208 268.046 19.9989 268.224 19.9989 279.034V290H14.9992H9.99946V248.365V206.73L26.3954 186.22C35.4131 174.939 42.8477 165.767 42.917 165.836C42.9864 165.906 45.8656 175.372 49.3154 186.872C56.0188 209.221 56.3669 209.956 60.2555 209.986C61.7567 209.998 63.4634 208.628 69.9718 202.188C74.3147 197.891 78.0339 194.375 78.2383 194.375C78.442 194.375 84.7092 208.649 92.165 226.094C99.6496 243.606 106.289 258.303 106.989 258.906C108.613 260.307 111.374 260.307 113.002 258.906C113.701 258.304 124.469 235.345 136.931 207.884C153.278 171.864 159.713 158.284 160.034 159.134C171.803 190.264 180.913 213.021 181.96 213.906C183.616 215.307 186.372 215.307 187.991 213.906C189.089 212.957 197.229 200.546 230.21 149.542C234.04 143.618 237.315 138.771 237.487 138.771C237.659 138.771 240.612 144.034 244.049 150.467C247.487 156.9 250.919 162.801 251.677 163.582C253.337 165.291 256.201 165.438 258.027 163.906C258.859 163.208 261.366 157.184 264.958 147.253C268.053 138.694 270.703 131.574 270.848 131.429C270.992 131.285 273.871 133.154 277.246 135.583C288.114 143.406 288.074 143.45 294.844 116.161C297.689 104.694 300.009 94.8075 300 94.1906C299.974 92.3631 297.145 90 294.984 90C291.289 90 290.634 91.44 286.308 109.062C284.115 118 282.103 125.553 281.838 125.846C281.573 126.139 279.794 125.225 277.885 123.814L274.414 121.251L276.519 115.469C277.676 112.289 278.929 108.896 279.304 107.928C280.374 105.162 280.112 103.195 278.451 101.534C276.704 99.7869 274.056 99.5325 272.073 100.921C271.261 101.49 269.861 104.36 268.414 108.421C267.125 112.039 265.954 115 265.812 115C265.671 115 262.418 112.75 258.582 110C251.923 105.224 250.18 104.486 247.761 105.414C247.168 105.641 244.794 108.751 242.484 112.325L238.284 118.822L233.354 109.886C229.458 102.821 228.065 100.826 226.706 100.354C222.929 99.045 222.662 99.3725 205.046 126.992C195.906 141.321 188.236 153.231 188.003 153.458C187.769 153.685 182.664 152.241 176.659 150.251L165.74 146.631L165.035 144.276C163.922 140.561 160.575 138.975 157.416 140.665C156.733 141.031 155.25 143.351 154.122 145.821C152.127 150.189 151.681 150.653 137.873 162.727C130.065 169.555 123.596 175.039 123.498 174.914C123.4 174.789 121.39 163.017 119.032 148.753C114.304 120.149 114.256 120 109.89 120C108.053 120 105.974 121.875 88.6983 139.119L69.5437 158.239L58.15 149.119C51.6484 143.916 46.1956 140 45.45 140C44.7307 140 36.653 142.812 27.4985 146.25C18.344 149.688 10.6619 152.5 10.4269 152.5C10.1919 152.5 9.99946 118.878 9.99946 77.7844V3.06813L8.46517 1.53437C7.49834 0.566875 6.21716 0 4.99973 0C3.78229 0 2.50111 0.566875 1.53429 1.53437ZM141.714 10.6462C136.329 11.5531 129.021 14.3644 123.972 17.4712C96.261 34.5256 91.8863 72.6387 115.015 95.505C137.503 117.738 174.529 113.647 191.941 87.0044C207.089 63.8256 199.882 32.1625 176.132 17.5456C166.033 11.3306 153.077 8.73312 141.714 10.6462ZM153.457 26.5344C154.717 27.7938 154.992 28.6875 154.992 31.5344V35H158.457C162.627 35 164.991 36.8088 164.991 40C164.991 41.2175 164.424 42.4987 163.457 43.4656C162.012 44.91 161.517 45 154.992 45C148.466 45 147.971 45.09 146.526 46.5344C143.402 49.6581 145.624 55 150.047 55C153.923 55 157.102 56.4438 160.325 59.6663C166.697 66.0381 166.652 73.9869 160.209 80.4688C158.416 82.2731 156.508 83.75 155.97 83.75C155.182 83.75 154.992 84.5456 154.992 87.8406C154.992 91.3512 154.774 92.1494 153.457 93.4656C151.428 95.4956 148.556 95.4956 146.526 93.4656C145.266 92.2062 144.992 91.3125 144.992 88.4656V85H141.527C137.356 85 134.993 83.1912 134.993 80C134.993 78.7825 135.56 77.5013 136.527 76.5344C137.971 75.09 138.466 75 144.992 75C151.518 75 152.013 74.91 153.457 73.4656C156.582 70.3419 154.36 65 149.936 65C142.203 65 134.993 57.8194 134.993 50.1175C134.993 46.0312 136.391 42.9344 139.774 39.5312C141.568 37.7262 143.476 36.25 144.014 36.25C144.802 36.25 144.992 35.4544 144.992 32.1594C144.992 28.6488 145.21 27.8506 146.526 26.5344C147.493 25.5669 148.774 25 149.992 25C151.209 25 152.49 25.5669 153.457 26.5344ZM230.374 125.315L232.023 128.443L225.224 138.908C221.485 144.663 214.638 155.209 210.008 162.342C205.378 169.476 198.107 180.641 193.851 187.154L186.112 198.996L178.606 179.465C174.477 168.723 171.251 159.781 171.438 159.595C171.623 159.409 175.861 160.608 180.854 162.259C188.259 164.708 190.248 165.15 191.646 164.659C193.004 164.181 196.606 158.945 208.966 139.479L224.572 114.901L226.648 118.544C227.791 120.548 229.467 123.595 230.374 125.315ZM257.208 121.274L262.436 125.049L260.531 130.181C259.483 133.003 257.659 137.969 256.477 141.215C255.295 144.461 254.225 147.219 254.1 147.344C253.975 147.469 251.583 143.361 248.785 138.214L243.697 128.856L247.31 123.215C249.298 120.112 251.161 117.558 251.451 117.537C251.742 117.517 254.332 119.199 257.208 121.274ZM110.99 161.562C114.738 184.115 115.416 187.354 116.655 188.593C119.514 191.452 120.982 190.754 131.578 181.493C136.931 176.814 141.387 173.088 141.48 173.212C141.573 173.336 134.549 189.022 125.872 208.071L110.096 242.704L109.2 240.571C96.6866 210.781 83.9817 181.938 83.0017 181.094C82.3037 180.493 80.8744 180 79.8257 180C78.227 180 76.6796 181.226 70.2181 187.614C65.9827 191.802 62.4141 195.107 62.2885 194.958C61.9154 194.516 50.7035 156.585 50.891 156.398C50.9854 156.304 54.9358 159.326 59.6693 163.113C66.4451 168.534 68.6869 170 70.2068 170C71.8999 170 74.2522 167.889 89.3258 152.843C98.779 143.407 106.563 135.743 106.623 135.812C106.683 135.881 108.648 147.468 110.99 161.562ZM40.6228 152.172C40.6228 152.335 33.7325 161.092 25.3111 171.633L9.99946 190.796L10.002 177.117L10.0045 163.438L25.1574 157.714C33.4913 154.566 40.3803 151.964 40.4666 151.933C40.5528 151.901 40.6228 152.009 40.6228 152.172Z" />
</g>
<defs>
<clipPath id="clip0_1323_53">
<rect width="300" height="300" />
</clipPath>
</defs>
</svg>
