<svg width="300" height="300" viewBox="0 0 300 300" fill="none" xmlns="http://www.w3.org/2000/svg">
<path d="M150 150C168.565 150 186.37 142.625 199.497 129.497C212.625 116.37 220 98.5652 220 80C220 61.4348 212.625 43.6301 199.497 30.5025C186.37 17.375 168.565 10 150 10C131.435 10 113.63 17.375 100.503 30.5025C87.375 43.6301 80 61.4348 80 80C80 98.5652 87.375 116.37 100.503 129.497C113.63 142.625 131.435 150 150 150V150ZM196.667 80C196.667 92.3768 191.75 104.247 182.998 112.998C174.247 121.75 162.377 126.667 150 126.667C137.623 126.667 125.753 121.75 117.002 112.998C108.25 104.247 103.333 92.3768 103.333 80C103.333 67.6232 108.25 55.7534 117.002 47.0017C125.753 38.25 137.623 33.3333 150 33.3333C162.377 33.3333 174.247 38.25 182.998 47.0017C191.75 55.7534 196.667 67.6232 196.667 80V80ZM290 266.667C290 290 266.667 290 266.667 290H33.3333C33.3333 290 10 290 10 266.667C10 243.333 33.3333 173.333 150 173.333C266.667 173.333 290 243.333 290 266.667ZM266.667 266.573C266.643 260.833 263.073 243.567 247.253 227.747C232.04 212.533 203.41 196.667 150 196.667C96.5667 196.667 67.96 212.533 52.7467 227.747C36.9267 243.567 33.38 260.833 33.3333 266.573H266.667Z" fill="white"/>
</svg>
