<svg width="123" height="123" viewBox="0 0 123 123" fill="none" xmlns="http://www.w3.org/2000/svg">
<path fill-rule="evenodd" clip-rule="evenodd" d="M12.27 56.7231H36.15C36.15 56.7831 36.15 56.8531 36.15 56.9131V88.0031H5.91V62.5431C5.91 59.3431 8.78 56.7231 12.27 56.7231ZM20.36 27.1731C15.03 23.4431 11.68 18.7231 10.42 14.5231C9.52 11.5031 9.59 8.5731 10.64 6.0931C11.85 3.2531 14.17 1.1831 17.61 0.353099C22.42 -0.816901 29.9 0.863099 39.81 7.6031C41.07 8.4631 43.35 10.0531 45.59 11.6231C48.24 13.4731 50.81 15.2731 52.98 16.7731C55.29 14.5031 58.45 13.0931 61.94 13.0931C65.76 13.0931 69.18 14.7731 71.52 17.4231C73.87 15.8031 76.81 13.7431 79.85 11.6131C82.09 10.0431 84.38 8.4431 85.63 7.5931C95.53 0.853099 103.02 -0.826901 107.83 0.343099C111.27 1.1831 113.59 3.2431 114.8 6.0831C115.85 8.5631 115.92 11.5031 115.02 14.5131C113.76 18.7131 110.41 23.4331 105.08 27.1631H118.56C120.93 27.1631 122.87 28.9631 122.87 31.1631V45.6731C122.87 47.8731 120.93 49.6731 118.56 49.6731H4.31C1.94 49.6731 0 47.8731 0 45.6731V31.1731C0 28.9731 1.94 27.1731 4.31 27.1731H20.36ZM85.64 19.8931C83.07 21.6931 80.54 23.4531 78.15 25.0231C80.44 24.8431 83.04 24.5131 85.75 23.9831C87.19 23.7031 88.6 23.3831 89.92 23.0131C91.22 22.6531 92.55 22.2231 93.9 21.7031L93.92 21.6931C100.49 19.1731 104.31 15.0231 105.33 11.6231C105.56 10.8631 105.62 10.3031 105.51 10.0331C105.5 10.0231 105.5 10.0131 105.5 10.0131V10.0231C105.5 10.0531 105.52 10.1631 105.47 10.1531C103.13 9.5831 98.57 11.0231 91.35 15.9431C88.78 17.6931 87.2 18.8031 85.64 19.8931ZM47.31 25.0231C44.91 23.4631 42.39 21.6931 39.82 19.8931C38.26 18.8031 36.67 17.6931 34.12 15.9531C26.9 11.0331 22.34 9.5931 20 10.1631C19.95 10.1731 19.97 10.0631 19.97 10.0331C19.97 10.0331 19.97 10.0331 19.96 10.0531C19.85 10.3231 19.91 10.8731 20.14 11.6431C21.16 15.0431 24.98 19.1931 31.55 21.7131L31.57 21.7231C32.92 22.2431 34.26 22.6731 35.55 23.0331C36.88 23.4031 38.28 23.7231 39.72 24.0031C42.42 24.5031 45.02 24.8431 47.31 25.0231ZM47.51 56.7231H110.6C114.1 56.7231 116.96 59.3431 116.96 62.5331V88.0031H47.52V56.9231C47.52 56.8531 47.52 56.7931 47.51 56.7231ZM116.97 99.5231V116.863C116.97 120.053 114.11 122.673 110.61 122.673H47.52V99.5231H116.97ZM36.15 122.683H12.27C8.78 122.683 5.91 120.073 5.91 116.873V99.5231H36.15V122.683Z" />
</svg>
