<svg width="93" height="123" viewBox="0 0 93 123" fill="none" xmlns="http://www.w3.org/2000/svg">
<path fill-rule="evenodd" clip-rule="evenodd" d="M68.5095 106.281C62.9195 112.411 56.4095 117.901 49.0995 122.341C48.1995 123.001 46.9795 123.081 45.9795 122.441C35.1795 115.571 26.1095 107.321 18.9795 98.3512C9.13952 86.0112 2.94952 72.3312 0.829525 59.1512C-1.33047 45.7912 0.689525 32.9312 7.33953 22.4812C9.95953 18.3512 13.3095 14.5912 17.3895 11.3412C26.7695 3.87119 37.4795 -0.0788084 48.1595 0.00119157C58.4395 0.0811916 68.5895 3.91119 77.3595 11.9212C80.4395 14.7212 83.0295 17.9312 85.1495 21.4112C92.2995 33.1912 93.8395 48.2112 90.6995 63.4312C87.5995 78.4712 79.8995 93.7512 68.5095 106.251V106.281ZM46.1195 23.7612C58.7995 23.7612 69.0695 34.0412 69.0695 46.7112C69.0695 59.3912 58.7895 69.6612 46.1195 69.6612C33.4395 69.6612 23.1695 59.3912 23.1695 46.7112C23.1595 34.0312 33.4395 23.7612 46.1195 23.7612Z" />
</svg>
