<svg width="124" height="165" viewBox="0 0 124 165" fill="none" xmlns="http://www.w3.org/2000/svg">
<path d="M62 0C48.5021 0 37.0062 8.60449 32.776 20.625H20.6667C9.26771 20.625 0 29.874 0 41.25V144.375C0 155.751 9.26771 165 20.6667 165H103.333C114.732 165 124 155.751 124 144.375V41.25C124 29.874 114.732 20.625 103.333 20.625H91.224C86.9937 8.60449 75.4979 0 62 0ZM62 20.625C64.7406 20.625 67.3689 21.7115 69.3068 23.6455C71.2446 25.5794 72.3333 28.2025 72.3333 30.9375C72.3333 33.6725 71.2446 36.2956 69.3068 38.2295C67.3689 40.1635 64.7406 41.25 62 41.25C59.2594 41.25 56.6311 40.1635 54.6932 38.2295C52.7554 36.2956 51.6667 33.6725 51.6667 30.9375C51.6667 28.2025 52.7554 25.5794 54.6932 23.6455C56.6311 21.7115 59.2594 20.625 62 20.625ZM41.3333 82.5C41.3333 77.0299 43.5107 71.7839 47.3865 67.9159C51.2622 64.048 56.5189 61.875 62 61.875C67.4811 61.875 72.7378 64.048 76.6135 67.9159C80.4893 71.7839 82.6667 77.0299 82.6667 82.5C82.6667 87.9701 80.4893 93.2161 76.6135 97.0841C72.7378 100.952 67.4811 103.125 62 103.125C56.5189 103.125 51.2622 100.952 47.3865 97.0841C43.5107 93.2161 41.3333 87.9701 41.3333 82.5ZM25.8333 139.219C25.8333 124.975 37.3937 113.438 51.6667 113.438H72.3333C86.6062 113.438 98.1667 124.975 98.1667 139.219C98.1667 142.055 95.8417 144.375 93 144.375H31C28.1583 144.375 25.8333 142.055 25.8333 139.219Z" />
</svg>
