<svg width="123" height="122" viewBox="0 0 123 122" fill="none" xmlns="http://www.w3.org/2000/svg">
<path fill-rule="evenodd" clip-rule="evenodd" d="M57.46 58.59C57.14 59.09 56.82 59.59 56.52 60.11C52.8891 67.175 51.7596 75.262 53.3161 83.0514C54.8725 90.8408 59.0229 97.8728 65.09 103L64.26 103.92C60.5877 107.109 56.126 109.253 51.3415 110.128C46.557 111.003 41.6254 110.577 37.0621 108.893C32.4988 107.21 28.4715 104.332 25.4012 100.56C22.3309 96.7873 20.3303 92.2595 19.6086 87.4495C18.8869 82.6396 19.4705 77.724 21.2986 73.2168C23.1266 68.7096 26.1319 64.7762 30.0002 61.8278C33.8685 58.8795 38.4579 57.0244 43.2884 56.4566C48.119 55.8888 53.0134 56.629 57.46 58.6V58.59ZM15.51 36.89C15.627 36.8442 15.7474 36.8075 15.87 36.78L46.95 27.78L38.84 20.61L18.84 26.38L15.54 36.85L15.51 36.89ZM36 11.38H35.86C35.6874 10.8078 35.4021 10.2759 35.0209 9.81563C34.6396 9.35537 34.1701 8.97605 33.64 8.7C33.12 8.39473 32.5429 8.1991 31.9445 8.12515C31.346 8.0512 30.7387 8.10049 30.16 8.27L30.11 8.12C30.6915 7.95648 31.2331 7.67499 31.701 7.29305C32.169 6.91112 32.5533 6.43692 32.83 5.9C33.1372 5.37893 33.3347 4.80057 33.4104 4.20043C33.486 3.60029 33.4383 2.99102 33.27 2.41H33.41C33.5735 2.99288 33.8562 3.53552 34.24 4.00368C34.6238 4.47184 35.1005 4.85535 35.64 5.13C36.1593 5.43694 36.736 5.63432 37.3345 5.70999C37.933 5.78566 38.5406 5.73802 39.12 5.57V5.71C38.5393 5.87515 37.9984 6.15727 37.5307 6.53904C37.0629 6.9208 36.6782 7.39414 36.4 7.93C36.1049 8.44867 35.9174 9.0215 35.8487 9.61427C35.7799 10.207 35.8314 10.8076 36 11.38ZM16.2 16.87L15.93 16.95C15.6204 15.8614 15.0918 14.8476 14.3764 13.9706C13.6611 13.0936 12.7741 12.372 11.77 11.85C10.7986 11.2711 9.71914 10.8971 8.59787 10.751C7.47661 10.6048 6.33729 10.6895 5.25 11L5.17 10.73C6.25559 10.4259 7.26733 9.90254 8.14277 9.1922C9.01821 8.48187 9.73878 7.59965 10.26 6.6C10.8327 5.62605 11.2009 4.54554 11.3419 3.4245C11.4828 2.30346 11.3937 1.16544 11.08 0.08L11.35 0C11.6581 1.08798 12.1863 2.10112 12.9018 2.97667C13.6174 3.85221 14.5051 4.5715 15.51 5.09C16.4783 5.66306 17.5542 6.03071 18.6707 6.17006C19.7873 6.30941 20.9205 6.21748 22 5.9L22.08 6.18C20.9941 6.48984 19.9831 7.01878 19.1095 7.73424C18.2358 8.4497 17.5179 9.3365 17 10.34C16.4259 11.3153 16.0578 12.398 15.9185 13.5211C15.7792 14.6442 15.8716 15.784 16.19 16.87H16.2ZM5.9 29.92H5.75C5.58485 29.3393 5.30273 28.7984 4.92096 28.3307C4.5392 27.8629 4.06586 27.4782 3.53 27.2C3.00012 26.8956 2.4131 26.7038 1.80569 26.6367C1.19828 26.5696 0.583556 26.6286 0 26.81L0 26.66C0.58148 26.4965 1.12306 26.215 1.59102 25.8331C2.05898 25.4511 2.44328 24.9769 2.72 24.44C3.01981 23.9252 3.21244 23.3551 3.28634 22.7639C3.36023 22.1728 3.31386 21.5728 3.15 21L3.3 20.95C3.46352 21.5315 3.74501 22.0731 4.12695 22.541C4.50888 23.009 4.98308 23.3933 5.52 23.67C6.04262 23.9692 6.62063 24.1589 7.21889 24.2277C7.81714 24.2965 8.42313 24.2428 9 24.07V24.21C8.41789 24.3752 7.876 24.6584 7.40806 25.0421C6.94012 25.4257 6.55613 25.9016 6.28 26.44C5.97417 26.9598 5.77822 27.5369 5.70426 28.1354C5.6303 28.734 5.6799 29.3414 5.85 29.92H5.9ZM27.06 50.53L12.3 39.31C12.0164 39.091 11.8056 38.7916 11.6949 38.4508C11.5843 38.11 11.5791 37.7438 11.68 37.4L15.75 24.49C15.84 24.1916 16.0095 23.9232 16.2402 23.7136C16.4709 23.504 16.7543 23.361 17.06 23.3L38.8 17C39.0824 16.919 39.3807 16.9105 39.6673 16.9752C39.954 17.0398 40.2197 17.1756 40.44 17.37L50.44 26.22C50.7088 26.4577 50.898 26.7722 50.9821 27.121C51.0662 27.4698 51.041 27.836 50.91 28.17L44.79 45.26C51.6617 44.9581 58.4868 46.5236 64.54 49.79C69.2233 45.6623 74.9223 42.8576 81.05 41.6646C87.1776 40.4716 93.5125 40.9335 99.4024 43.0028C105.292 45.072 110.524 48.6738 114.559 53.4372C118.594 58.2005 121.287 63.9534 122.359 70.1033C123.432 76.2532 122.846 82.5778 120.661 88.4259C118.477 94.274 114.773 99.4342 109.932 103.375C105.09 107.316 99.2855 109.895 93.1158 110.847C86.9461 111.799 80.6341 111.089 74.83 108.79C74.39 109.32 73.94 109.85 73.47 110.37C69.6436 114.22 65.0403 117.209 59.9672 119.139C54.894 121.069 49.4677 121.895 44.0501 121.563C38.6324 121.23 33.348 119.746 28.5493 117.209C23.7506 114.673 19.5478 111.142 16.2214 106.853C12.8949 102.564 10.5212 97.615 9.25851 92.3361C7.99586 87.0572 7.87329 81.5697 8.89899 76.2396C9.92469 70.9096 12.0751 65.8595 15.2067 61.4262C18.3384 56.9928 22.3793 53.2782 27.06 50.53ZM73.06 56.01C77.8373 60.6371 81.3165 66.437 83.15 72.83C85.8815 81.8988 84.9667 91.6755 80.6 100.08C84.3257 101.209 88.2636 101.452 92.0999 100.79C95.9362 100.128 99.565 98.5798 102.697 96.2678C105.829 93.9558 108.378 90.9442 110.141 87.4731C111.903 84.002 112.831 80.1672 112.849 76.2742C112.868 72.3813 111.977 68.5378 110.248 65.0499C108.519 61.562 105.999 58.5261 102.889 56.1841C99.7797 53.8421 96.166 52.2587 92.3362 51.5601C88.5064 50.8615 84.5664 51.0669 80.83 52.16C78.0125 52.9161 75.372 54.221 73.06 56V56.01ZM71.17 94.65L71.1 94.77C67.1455 91.2253 64.4225 86.5133 63.3257 81.3172C62.229 76.121 62.8154 70.7105 65 65.87L65.91 64.46C69.7273 68.3758 72.2721 73.3538 73.2108 78.7412C74.1494 84.1286 73.4381 89.6739 71.17 94.65Z" />
</svg>
