<svg width="200" height="201" viewBox="0 0 200 201" fill="none" xmlns="http://www.w3.org/2000/svg">
<path d="M69.1451 18.0411H18.0627V68.1103H0V0H69.1451V18.0411ZM130.851 182.671H181.937V132.601H200V200.712H130.851V182.671ZM130.851 0H200V68.1103H181.937V18.0411H130.851V0ZM69.1451 200.712H0V132.601H18.0627V182.671H69.1451V200.712Z" fill="#3B393A"/>
<path d="M100.352 46.9751C107.353 46.9712 114.285 48.3471 120.754 51.0241C133.85 56.4707 144.252 66.8883 149.679 79.9927L149.766 80.2012C155.09 93.2177 155.059 107.81 149.679 120.804C144.262 133.872 133.879 144.255 120.81 149.67C107.742 155.086 93.058 155.092 79.9856 149.686C73.4855 147.01 67.5794 143.073 62.6079 138.104C57.6444 133.145 53.7058 127.258 51.017 120.778L50.9388 120.569C45.6269 107.56 45.655 92.9815 51.017 79.9927C53.6972 73.4926 57.6364 67.5867 62.6079 62.615C67.5662 57.6515 73.4534 53.7129 79.9334 51.0241L80.142 50.9459C86.5565 48.321 93.4214 46.9723 100.352 46.9751ZM89.3521 116.39C88.9344 115.946 88.5455 115.476 88.1878 114.983C85.9287 111.889 83.9042 108.396 81.871 105.138C80.3939 102.966 79.6206 101.028 79.6206 99.473C79.6206 97.9177 80.4895 95.8845 82.2273 95.4414C81.9777 92.05 81.9255 88.6469 82.0709 85.2494C82.1684 84.3841 82.3429 83.5292 82.5922 82.6949C83.669 79.1807 86.0173 76.1942 89.1784 74.3188C90.2955 73.5999 91.4943 73.0165 92.7495 72.5811C94.9999 71.7122 93.9138 68.3149 96.3901 68.2367C102.177 68.115 111.717 73.0416 115.436 77.108C117.815 79.7311 119.166 83.1253 119.242 86.6657L119.007 95.8498C119.513 95.9761 119.975 96.2377 120.344 96.6065C120.713 96.9754 120.975 97.4376 121.101 97.9438C121.414 99.1863 121.101 100.889 120.015 103.296C120.015 103.374 119.937 103.374 119.937 103.452C117.547 107.389 115.054 111.95 112.308 115.617C110.926 117.459 109.788 117.137 110.97 118.901C116.574 126.608 127.635 125.539 134.43 130.675C140.079 124.293 143.833 116.461 145.27 108.061C146.707 99.6602 145.769 91.0254 142.563 83.1293L142.484 82.9555C140.193 77.4085 136.833 72.3661 132.596 68.115C126.235 61.7693 118.145 57.4383 109.337 55.6628C100.529 53.8873 91.3931 54.7459 83.0701 58.1316L82.8876 58.2098C77.3621 60.511 72.3432 63.8767 68.1166 68.115C61.7709 74.4764 57.4399 82.5662 55.6644 91.3743C53.8889 100.182 54.7475 109.318 58.1332 117.641L58.2114 117.824C60.1599 122.515 62.8761 126.849 66.2485 130.649C73.0693 125.513 84.1301 126.582 89.7084 118.875C90.6815 117.415 90.4295 117.554 89.3261 116.39H89.3521Z" fill="#3B393A"/>
</svg>
