<svg width="243" height="249" viewbox="0 0 243 249" fill="none" xmlns="http://www.w3.org/2000/svg">
<path d="M220.224 248.996H22.7762C16.7421 248.975 10.9613 246.568 6.69459 242.301C2.42785 238.035 0.0213597 232.254 0 226.22L0 45.6907C0.0213597 39.6566 2.42785 33.8757 6.69459 29.6089C10.9613 25.3422 16.7421 22.9357 22.7762 22.9143H43.7894V50.939C43.8082 54.6863 44.6682 58.3815 46.3061 61.752C47.944 65.1225 50.3178 68.0821 53.2525 70.4124C58.5015 74.6617 65.0503 76.9803 71.8037 76.9803C78.5572 76.9803 85.106 74.6617 90.355 70.4124C93.2897 68.0821 95.6635 65.1225 97.3014 61.752C98.9393 58.3815 99.7993 54.6863 99.818 50.939V22.9143H142.25V50.939C142.269 54.6863 143.129 58.3815 144.766 61.752C146.404 65.1225 148.778 68.0821 151.713 70.4124C156.962 74.6617 163.511 76.9803 170.264 76.9803C177.018 76.9803 183.566 74.6617 188.815 70.4124C191.75 68.0821 194.124 65.1225 195.762 61.752C197.4 58.3815 198.26 54.6863 198.278 50.939V22.9143H220.224C226.255 22.9462 232.029 25.3561 236.294 29.6206C240.558 33.8851 242.968 39.6599 243 45.6907V226.22C242.984 232.255 240.579 238.039 236.311 242.307C232.043 246.575 226.26 248.98 220.224 248.996ZM169.362 115.033H201.987C203.071 115.038 204.112 115.462 204.891 116.218C205.669 116.974 206.124 118.001 206.161 119.086V146.239C206.124 147.323 205.669 148.351 204.891 149.107C204.112 149.862 203.071 150.287 201.987 150.292H169.362C168.297 150.261 167.284 149.824 166.531 149.071C165.777 148.317 165.34 147.304 165.31 146.239V119.187C165.335 118.12 165.771 117.104 166.525 116.35C167.28 115.595 168.296 115.16 169.362 115.134V115.033ZM105.512 115.033H138.157C139.222 115.064 140.235 115.5 140.988 116.254C141.742 117.007 142.179 118.021 142.209 119.086V146.239C142.174 147.303 141.736 148.313 140.983 149.066C140.231 149.818 139.22 150.256 138.157 150.292H105.512C104.447 150.261 103.434 149.824 102.68 149.071C101.927 148.317 101.49 147.304 101.459 146.239V119.187C101.49 118.122 101.927 117.109 102.68 116.355C103.434 115.602 104.447 115.165 105.512 115.134V115.033ZM169.362 172.764H201.987C203.071 172.769 204.112 173.194 204.891 173.949C205.669 174.705 206.124 175.733 206.161 176.817V203.97C206.156 205.074 205.713 206.13 204.931 206.909C204.149 207.687 203.09 208.124 201.987 208.124H169.362C168.28 208.093 167.252 207.642 166.496 206.867C165.74 206.092 165.315 205.053 165.31 203.97V176.918C165.34 175.853 165.777 174.84 166.531 174.086C167.284 173.333 168.297 172.896 169.362 172.865V172.764ZM105.512 172.764H138.157C139.222 172.795 140.235 173.232 140.988 173.985C141.742 174.739 142.179 175.752 142.209 176.817V203.97C142.205 205.053 141.779 206.092 141.023 206.867C140.267 207.642 139.239 208.093 138.157 208.124H105.512C104.43 208.093 103.402 207.642 102.646 206.867C101.89 206.092 101.464 205.053 101.459 203.97V176.918C101.495 175.855 101.933 174.844 102.686 174.092C103.438 173.339 104.448 172.901 105.512 172.865V172.764ZM40.9931 172.764H73.6376C74.7028 172.795 75.7159 173.232 76.4694 173.985C77.2229 174.739 77.6597 175.752 77.6903 176.817V203.97C77.6855 205.053 77.2601 206.092 76.5039 206.867C75.7478 207.642 74.72 208.093 73.6376 208.124H40.9931C39.893 208.119 38.8395 207.68 38.0616 206.902C37.2838 206.124 36.8444 205.07 36.8391 203.97V176.918C36.8706 175.836 37.3215 174.808 38.0966 174.052C38.8717 173.296 39.9102 172.87 40.9931 172.865V172.764ZM159.271 9.01343C159.271 4.04883 164.134 -0.00390625 170.213 -0.00390625C176.293 -0.00390625 181.217 4.04883 181.217 9.01343V50.939C181.217 55.9238 176.313 59.9563 170.213 59.9563C164.114 59.9563 159.231 55.9036 159.231 50.939V9.01343H159.271ZM60.7905 9.01343C60.7905 4.04883 65.7348 -0.00390625 71.8139 -0.00390625C77.8929 -0.00390625 82.7967 4.04883 82.7967 9.01343V50.939C82.7967 55.9238 77.8929 59.9563 71.8139 59.9563C65.7348 59.9563 60.7905 55.9238 60.7905 50.939V9.01343ZM7.29486 88.8726V223.788C7.31089 228.534 9.20328 233.081 12.5591 236.437C15.915 239.793 20.4619 241.685 25.2078 241.701H217.711C222.461 241.69 227.013 239.8 230.373 236.444C233.733 233.088 235.628 228.538 235.644 223.788V88.8726H7.29486Z" />
<path d="M51.7477 131.645L44.7365 125.054C43.6625 124.019 42.8114 123.958 41.778 125.054L34.8276 132.253C34.6147 132.402 34.4383 132.597 34.3114 132.824C34.1845 133.051 34.1106 133.303 34.095 133.563C34.0794 133.822 34.1226 134.082 34.2214 134.322C34.3202 134.562 34.472 134.777 34.6654 134.95L47.9584 148.194C51.9301 152.108 51.2614 151.885 55.152 148.052L76.4694 127.183C78.3134 125.358 78.4958 124.303 76.4694 122.275L70.3903 116.191C68.5463 114.285 67.5939 115.501 66.1147 117.022L51.7477 131.645Z" />
</svg>
