<svg width="512" height="512" viewbox="0 0 512 512" fill="none" xmlns="http://www.w3.org/2000/svg">
<path fill-rule="evenodd" clip-rule="evenodd" d="M476.335 35.6639C523.889 83.2159 523.887 161.03 476.337 208.583L374.608 310.313C314.581 370.338 212.535 352.726 179.846 277.863C215.734 246.672 233.233 256.761 267.426 271.225C287.554 279.737 311.166 275.18 327.506 258.838L426.881 159.467C448.371 137.974 448.373 102.805 426.881 81.3119C405.392 59.8239 370.204 59.8399 348.73 81.3119L277.452 152.592C253.869 141.255 227.334 137.895 201.999 142.522C207.208 133.693 213.514 125.56 220.766 118.315L303.417 35.6649C350.971 -11.8861 428.782 -11.8901 476.335 35.6639ZM35.664 476.334L35.665 476.335C83.219 523.887 161.03 523.887 208.582 476.335L294.264 390.653C301.777 383.148 308.274 374.69 313.589 365.496C285.713 372.447 255.825 369.511 229.657 356.691L159.465 426.881C137.993 448.352 102.807 448.373 81.316 426.881C59.824 405.39 59.823 370.223 81.316 348.732L180.691 249.356C201.054 228.993 241.693 222.921 272.408 251.044C302.137 247.911 313.683 242.232 332.15 224.551C292.752 155.075 194.543 144.538 137.393 201.688L35.664 303.417C-11.888 350.97 -11.888 428.781 35.664 476.334Z" />
</svg>
