<svg width="123" height="108" viewbox="0 0 123 108" fill="none" xmlns="http://www.w3.org/2000/svg">
<path fill-rule="evenodd" clip-rule="evenodd" d="M59.543 41.6488L92.7006 8.49123C92.9871 8.52769 93.2892 8.43915 93.5079 8.22039C93.7267 8.00163 93.8204 7.69953 93.7788 7.41306L100.649 0.542991C101.373 -0.180997 102.555 -0.180997 103.279 0.542991L108.712 5.98071C107.285 8.30893 107.581 11.3924 109.597 13.4081C111.613 15.4238 114.696 15.7155 117.024 14.2936L122.457 19.7261C123.181 20.45 123.181 21.6324 122.457 22.3564L115.587 29.2264C115.3 29.19 115.004 29.2785 114.78 29.4973C114.561 29.7161 114.467 30.0181 114.509 30.3046L81.3564 63.457C80.6324 64.181 79.45 64.181 78.7261 63.457L73.3248 58.061C74.8769 55.7119 74.6165 52.5243 72.5539 50.4565C70.4861 48.3887 67.2985 48.1335 64.9495 49.6856L59.543 44.2791C58.819 43.5552 58.819 42.3728 59.543 41.6488ZM112.269 26.9868C112.644 26.6118 113.254 26.6118 113.629 26.9868C114.004 27.3618 114.004 27.9712 113.629 28.3462C113.254 28.7212 112.644 28.7212 112.269 28.3462C111.894 27.9712 111.894 27.3618 112.269 26.9868ZM109.753 24.471C110.128 24.096 110.738 24.096 111.113 24.471C111.488 24.8461 111.488 25.4555 111.113 25.8305C110.738 26.2055 110.128 26.2055 109.753 25.8305C109.378 25.4555 109.378 24.8461 109.753 24.471ZM107.238 21.9553C107.613 21.5803 108.222 21.5803 108.597 21.9553C108.972 22.3303 108.972 22.9397 108.597 23.3147C108.222 23.6898 107.613 23.6898 107.238 23.3147C106.863 22.9397 106.863 22.3303 107.238 21.9553ZM104.722 19.4396C105.097 19.0646 105.706 19.0646 106.081 19.4396C106.456 19.8146 106.456 20.424 106.081 20.799C105.706 21.174 105.097 21.174 104.722 20.799C104.347 20.424 104.347 19.8146 104.722 19.4396ZM102.206 16.9239C102.581 16.5489 103.191 16.5489 103.566 16.9239C103.941 17.2989 103.941 17.9083 103.566 18.2833C103.191 18.6583 102.581 18.6583 102.206 18.2833C101.831 17.9083 101.831 17.2989 102.206 16.9239ZM99.6905 14.4081C100.065 14.0331 100.675 14.0331 101.05 14.4081C101.425 14.7832 101.425 15.3926 101.05 15.7676C100.675 16.1426 100.065 16.1426 99.6905 15.7676C99.3154 15.3926 99.3154 14.7832 99.6905 14.4081ZM97.1747 11.8924C97.5497 11.5174 98.1591 11.5174 98.5342 11.8924C98.9092 12.2674 98.9092 12.8768 98.5342 13.2518C98.1591 13.6269 97.5497 13.6269 97.1747 13.2518C96.7997 12.8768 96.7997 12.2674 97.1747 11.8924ZM94.659 9.37668C95.034 9.00167 95.6434 9.00167 96.0184 9.37668C96.3935 9.7517 96.3935 10.3611 96.0184 10.7361C95.6434 11.1111 95.034 11.1111 94.659 10.7361C94.284 10.3611 94.284 9.7517 94.659 9.37668ZM72.2571 39.0185L92.7683 18.5073C93.6121 17.6635 94.9924 17.6635 95.8361 18.5073L105.264 27.9347C106.107 28.7785 106.107 30.1588 105.264 31.0026L84.7523 51.5138C83.9086 52.3576 82.5283 52.3576 81.6845 51.5138L72.2571 42.0864C71.4133 41.2426 71.4133 39.8623 72.2571 39.0185Z" />
<path fill-rule="evenodd" clip-rule="evenodd" d="M41.22 97.097L39.91 64.127L54.74 63.537C61.07 64.417 67.5 67.577 73.94 71.287L85.46 70.827C90.69 70.937 93.63 76.107 88.7 79.787C84.78 82.907 79.44 82.957 73.96 82.677C70.19 82.637 70.22 87.707 74.15 87.577C75.52 87.627 76.99 87.247 78.29 87.197C85.11 86.917 90.67 85.397 93.89 79.867L95.46 75.767L112.26 66.587C120.72 63.427 126.42 71.397 120.35 77.887C108.3 87.407 96.62 96.097 83.84 102.617C74.61 108.747 65.15 108.927 55.47 103.747L41.22 97.097ZM0 62.987L35.32 61.127L36.89 100.577L1.57 102.427L0 62.987Z" />
</svg>
