<svg width="80" height="79" viewbox="0 0 80 79" fill="none" xmlns="http://www.w3.org/2000/svg">
<path fill-rule="evenodd" clip-rule="evenodd" d="M38.8839 0.504325C39.3703 0.89924 39.5558 1.35278 39.5558 2.14611C39.5558 3.47027 38.8254 4.17114 37.1684 4.43685C36.5401 4.53747 35.8574 4.8236 35.6515 5.07239C35.013 5.84443 35.7521 6.19355 37.8991 6.13405C41.3425 6.03897 44.1913 7.3993 44.9962 9.52292C46.1246 12.4999 44.025 15.7721 40.4572 16.5978C39.6576 16.7831 38.6245 17.0205 38.1614 17.1258C37.3065 17.32 36.5398 18.1472 36.8896 18.498C36.9951 18.6036 38.2989 18.7194 39.787 18.7553C42.9478 18.8311 44.4373 19.4302 45.7466 21.1519C46.4188 22.036 46.563 22.5169 46.563 23.8737C46.563 26.1 45.6882 27.3895 43.3909 28.5491C40.3394 30.09 37.9857 29.535 37.9857 27.2746C37.9857 26.0461 38.6178 25.4601 40.5723 24.8779C41.7158 24.5373 42.0694 24.3028 41.9988 23.9315C41.9214 23.5232 41.428 23.4097 39.1459 23.2752C35.951 23.0871 34.704 22.6254 33.4162 21.154C32.3756 19.9651 32.0081 18.5681 32.3096 16.9481C32.6867 14.9216 36.0505 12.5002 38.4882 12.5002C39.4241 12.5002 40.9573 11.6725 40.816 11.2434C40.743 11.0215 39.6599 10.8357 37.8171 10.7292C35.676 10.6053 34.6214 10.4008 33.7247 9.93533C30.4424 8.232 29.8475 4.46456 32.466 1.96353C34.3618 0.152575 37.5566 -0.573963 38.8839 0.504325ZM70.9203 1.22066C73.4972 2.02478 74.9656 4.16969 75.5258 7.94909C75.8922 10.4189 75.5927 11.4488 74.2974 12.1771C73.6667 12.5317 73.387 12.5417 72.6506 12.2354C71.6062 11.8014 71.2148 10.9238 71.0578 8.6625C70.9054 6.46976 70.264 5.50026 68.9658 5.50026C66.8383 5.50026 66.0178 8.12642 66.2775 14.1044C66.4522 18.1227 67.373 23.6608 68.7506 28.9793C69.7005 32.6465 69.6046 33.5101 68.1828 34.1007C67.0361 34.5773 65.8786 34.1841 65.3846 33.1505C64.7388 31.7986 63.3062 25.8746 62.5369 21.3721C61.6742 16.326 61.482 10.1552 62.106 7.54192C63.3318 2.40686 66.7851 -0.069673 70.9203 1.22066ZM19.5387 3.44665C20.5063 3.83981 21.9502 5.69743 22.1599 6.81918C22.4253 8.23871 21.6197 10.271 20.4642 11.0965C19.1602 12.0277 16.6431 12.1497 15.3626 11.3435C14.3406 10.7004 13.2886 8.77625 13.2779 7.53084C13.2671 6.29359 14.4825 4.28198 15.5929 3.69894C16.646 3.14594 18.5059 3.02723 19.5387 3.44665ZM9.0555 14.511C11.2022 15.4475 11.6616 18.4496 9.91062 20.0996C9.32329 20.6532 8.83918 20.8127 7.7471 20.8127C6.65502 20.8127 6.17091 20.6532 5.58358 20.0996C3.50467 18.1408 4.56913 14.672 7.33916 14.378C7.96342 14.3115 8.73567 14.3716 9.0555 14.511ZM54.5981 15.7815C56.0626 18.5226 79.8546 72.8876 79.8546 73.4928C79.8546 75.3282 76.2277 79 74.4143 79C74.0171 79 69.6814 77.2127 64.7795 75.0281C59.8779 72.8435 47.1664 67.1878 36.532 62.4596C18.2216 54.319 14.7447 52.6608 17.5674 53.4166C18.4789 53.6607 19.1488 53.6219 20.723 53.234C26.1267 51.9013 32.5945 47.5783 39.9829 40.3601C49.8829 30.6885 55.9504 20.2933 54.2753 15.8734C53.9253 14.9502 54.1239 14.8936 54.5981 15.7815ZM25.4966 17.3856C26.6146 18.3878 26.9361 20.1337 26.2482 21.4678C25.6245 22.6776 23.6515 23.4654 22.4189 22.997C20.4508 22.2489 19.5271 20.3752 20.2557 18.6103C21.1329 16.4859 23.798 15.8631 25.4966 17.3856ZM16.2296 23.7912C18.499 25.2034 17.9445 28.9502 15.351 29.7298C14.0155 30.1311 12.4126 29.5703 11.677 28.4441C11.1181 27.5887 11.0268 25.6876 11.5019 24.7972C12.2486 23.3974 14.7436 22.8666 16.2296 23.7912ZM11.5269 32.344C17.6401 33.093 25.6362 36.1208 29.6794 39.2177C30.8541 40.1178 31.0076 40.366 31.0076 41.3673C31.0076 42.2533 30.8349 42.6357 30.2127 43.1269C29.1808 43.9409 28.3123 43.763 26.1479 42.2939C23.1476 40.2578 19.5157 38.6918 15.1614 37.5567C12.9083 36.9695 11.7735 36.868 6.99491 36.8275C3.56312 36.798 1.21439 36.656 0.840187 36.455C-0.560386 35.7031 -0.125417 33.2435 1.5191 32.6164C2.58123 32.2113 9.01392 32.0363 11.5269 32.344ZM77.8222 35.0314C79.4135 36.1179 80 37.1448 80 38.8444C80 43.1838 74.4922 44.8804 71.965 41.3197C71.0715 40.0609 71.0372 37.6602 71.896 36.497C72.8742 35.1726 74.2808 34.3752 75.6387 34.3752C76.4278 34.3752 77.2018 34.6079 77.8222 35.0314ZM9.40034 39.304C10.5433 40.0215 10.9454 40.7416 10.9454 42.0713C10.9454 43.4565 10.479 44.3895 9.49455 44.9728C6.86902 46.5286 3.67332 44.0462 4.62671 41.1914C5.30795 39.1512 7.66976 38.2173 9.40034 39.304ZM61.9923 48.0762C61.0756 48.4259 60.0858 49.988 60.0844 51.0876C60.0806 53.9783 63.572 55.4813 65.6986 53.5043C66.1071 53.1243 66.5307 52.3377 66.6395 51.7561C67.1393 49.0827 64.6082 47.0784 61.9923 48.0762ZM11.6723 49.6783C12.312 49.9192 12.8522 50.1184 12.8728 50.1207C12.8932 50.1231 13.0627 50.4946 13.2494 50.9464C13.9356 52.6086 12.8095 54.0203 10.8742 53.924C8.1088 53.7864 7.83956 53.8526 8.12508 54.5993C8.2126 54.8282 9.22617 55.3765 10.3773 55.8178C14.0187 57.2135 15.9447 59.7854 15.4257 62.5594C15.1617 63.9713 13.8198 65.4364 12.2346 66.0436C10.9733 66.5269 9.20001 66.5155 6.14794 66.0043C5.66819 65.924 5.08784 65.9833 4.85815 66.1361C4.17952 66.5879 4.92996 67.2056 7.2281 68.0865C10.6238 69.3882 12.38 71.7084 12.018 74.415C11.6261 77.3477 8.60745 79.1228 4.94828 78.5721C2.5036 78.2046 1.37256 76.0402 2.87693 74.6084C3.43112 74.0811 3.77915 74.0076 5.15152 74.1274C6.97892 74.2867 7.97389 73.9381 7.46099 73.3181C7.28596 73.1066 6.39567 72.6335 5.4824 72.2669C2.92113 71.2391 1.74299 70.3824 0.895431 68.9314C0.24501 67.8181 0.13859 67.3456 0.245879 66.0477C0.388059 64.3272 1.07454 63.2224 2.59752 62.2622C3.63261 61.6097 6.72161 61.447 9.26776 61.9107C10.4337 62.1231 10.6718 62.0863 10.8309 61.6707C11.0699 61.0459 10.438 60.5787 8.42747 59.893C6.65851 59.2898 4.75696 57.7918 4.07078 56.4604C3.38895 55.138 3.44245 53.0531 4.18882 51.8416C5.47368 49.7562 9.09795 48.7085 11.6723 49.6783ZM29.4625 66.1521C30.6401 66.8725 31.0076 67.572 31.0076 69.0933C31.0076 70.7887 29.5489 72.2917 27.9032 72.2917C25.4123 72.2917 23.8111 69.9954 24.7424 67.7592C25.2061 66.6462 26.7027 65.5854 27.8093 65.5854C28.2091 65.5854 28.9531 65.8406 29.4625 66.1521Z" />
</svg>
