<svg width="80" height="80" viewbox="0 0 80 80" fill="none" xmlns="http://www.w3.org/2000/svg">
<path fill-rule="evenodd" clip-rule="evenodd" d="M41.1161 0.504592C40.6297 0.899717 40.4442 1.3535 40.4442 2.14725C40.4442 3.47211 41.1746 4.17336 42.8316 4.4392C43.4599 4.53988 44.1426 4.82616 44.3485 5.07508C44.987 5.84753 44.2479 6.19684 42.1009 6.13731C38.6575 6.04217 35.8087 7.40323 35.0038 9.52797C33.8754 12.5066 35.975 15.7805 39.5428 16.6067C40.3424 16.792 41.3755 17.0295 41.8386 17.1348C42.6935 17.3292 43.4602 18.1568 43.1104 18.5079C43.0049 18.6135 41.7011 18.7294 40.213 18.7653C37.0522 18.8411 35.5627 19.4405 34.2534 21.1631C33.5812 22.0476 33.437 22.5289 33.437 23.8864C33.437 26.1139 34.3118 27.404 36.6091 28.5643C39.6606 30.106 42.0143 29.5506 42.0143 27.289C42.0143 26.0599 41.3822 25.4736 39.4277 24.8911C38.2842 24.5503 37.9306 24.3157 38.0012 23.9442C38.0786 23.5356 38.572 23.4221 40.8541 23.2876C44.049 23.0994 45.296 22.6374 46.5838 21.1652C47.6244 19.9757 47.9919 18.5779 47.6904 16.9571C47.3133 14.9296 43.9495 12.5069 41.5118 12.5069C40.5759 12.5069 39.0427 11.6787 39.184 11.2494C39.257 11.0273 40.3401 10.8415 42.1829 10.7349C44.324 10.6109 45.3786 10.4063 46.2753 9.9406C49.5576 8.23637 50.1525 4.46693 47.534 1.96457C45.6382 0.152656 42.4434 -0.574268 41.1161 0.504592ZM9.07973 1.2213C6.50276 2.02585 5.03444 4.1719 4.47416 7.95331C4.1078 10.4244 4.40728 11.4549 5.7026 12.1835C6.33325 12.5384 6.61296 12.5483 7.34944 12.2419C8.39384 11.8077 8.7852 10.9296 8.94221 8.6671C9.09456 6.47319 9.73597 5.50318 11.0342 5.50318C13.1617 5.50318 13.9822 8.13073 13.7225 14.1119C13.5478 18.1323 12.627 23.6734 11.2494 28.9947C10.2995 32.6638 10.3954 33.5279 11.8172 34.1188C12.9639 34.5956 14.1214 34.2023 14.6154 33.168C15.2612 31.8155 16.6938 25.8883 17.4631 21.3835C18.3258 16.3347 18.518 10.1606 17.894 7.54593C16.6682 2.40814 13.2149 -0.06971 9.07973 1.2213ZM60.4613 3.44848C59.4936 3.84185 58.0498 5.70045 57.8401 6.8228C57.5747 8.24308 58.3803 10.2765 59.5358 11.1023C60.8398 12.0341 63.3569 12.1561 64.6374 11.3495C65.6594 10.706 66.7114 8.78091 66.7221 7.53484C66.7329 6.29693 65.5175 4.28425 64.4071 3.7009C63.354 3.14761 61.4941 3.02884 60.4613 3.44848ZM70.9445 14.5187C68.7978 15.4557 68.3384 18.4594 70.0894 20.1102C70.6767 20.6641 71.1608 20.8238 72.2529 20.8238C73.345 20.8238 73.8291 20.6641 74.4164 20.1102C76.4953 18.1504 75.4309 14.6798 72.6608 14.3856C72.0366 14.3191 71.2643 14.3792 70.9445 14.5187ZM25.4019 15.7899C23.9374 18.5324 0.145378 72.9262 0.145378 73.5318C0.145378 75.3682 3.77227 79.0419 5.58572 79.0419C5.98289 79.0419 10.3186 77.2536 15.2205 75.0679C20.1221 72.8822 32.8336 67.2235 43.468 62.4928C61.7784 54.3478 65.2553 52.6888 62.4326 53.4449C61.5211 53.6892 60.8512 53.6503 59.277 53.2622C53.8733 51.9289 47.4055 47.6035 40.0171 40.3816C30.1171 30.7048 24.0496 20.304 25.7247 15.8818C26.0747 14.9582 25.8761 14.9015 25.4019 15.7899ZM54.5034 17.3949C53.3854 18.3976 53.0639 20.1444 53.7518 21.4792C54.3755 22.6897 56.3485 23.4779 57.5811 23.0092C59.5492 22.2607 60.4729 20.386 59.7443 18.6202C58.8671 16.4946 56.202 15.8716 54.5034 17.3949ZM63.7704 23.8038C61.501 25.2168 62.0555 28.9655 64.649 29.7456C65.9845 30.1471 67.5874 29.5859 68.323 28.4592C68.8819 27.6033 68.9732 25.7012 68.4981 24.8103C67.7514 23.4099 65.2564 22.8788 63.7704 23.8038ZM68.4731 32.3612C62.3599 33.1106 54.3638 36.1399 50.3206 39.2385C49.1459 40.1391 48.9924 40.3874 48.9924 41.3892C48.9924 42.2758 49.1651 42.6583 49.7873 43.1498C50.8192 43.9642 51.6877 43.7862 53.8521 42.3163C56.8524 40.2791 60.4843 38.7123 64.8386 37.5766C67.0917 36.9891 68.2265 36.8876 73.0051 36.847C76.4369 36.8176 78.7856 36.6754 79.1598 36.4744C80.5604 35.7221 80.1254 33.2611 78.4809 32.6337C77.4188 32.2284 70.9861 32.0533 68.4731 32.3612ZM2.17777 35.05C0.586457 36.137 0 37.1645 0 38.865C0 43.2067 5.50779 44.9042 8.03504 41.3416C8.92854 40.0821 8.96285 37.6802 8.10395 36.5164C7.12585 35.1912 5.71917 34.3934 4.36134 34.3934C3.57223 34.3934 2.79824 34.6263 2.17777 35.05ZM70.5997 39.3249C69.4567 40.0428 69.0546 40.7633 69.0546 42.0937C69.0546 43.4795 69.521 44.4131 70.5055 44.9967C73.131 46.5533 76.3267 44.0696 75.3733 41.2132C74.6921 39.172 72.3302 38.2376 70.5997 39.3249ZM18.0077 48.1017C18.9244 48.4516 19.9142 50.0145 19.9156 51.1147C19.9194 54.0069 16.428 55.5107 14.3014 53.5327C13.8929 53.1525 13.4693 52.3655 13.3605 51.7836C12.8607 49.1087 15.3918 47.1033 18.0077 48.1017ZM68.3277 49.7046C67.688 49.9457 67.1478 50.145 67.1272 50.1473C67.1068 50.1497 66.9373 50.5214 66.7506 50.9735C66.0644 52.6366 67.1905 54.049 69.1258 53.9527C71.8912 53.8149 72.1604 53.8812 71.8749 54.6282C71.7874 54.8573 70.7738 55.4059 69.6227 55.8475C65.9813 57.2438 64.0553 59.8171 64.5743 62.5926C64.8383 64.0053 66.1802 65.4711 67.7654 66.0787C69.0267 66.5622 70.8 66.5508 73.8521 66.0393C74.3318 65.959 74.9122 66.0183 75.1419 66.1712C75.8205 66.6232 75.07 67.2413 72.7719 68.1226C69.3762 69.425 67.62 71.7464 67.982 74.4545C68.3739 77.3888 71.3926 79.1648 75.0517 78.6138C77.4964 78.2461 78.6274 76.0805 77.1231 74.648C76.5689 74.1204 76.2208 74.0468 74.8485 74.1668C73.0211 74.3261 72.0261 73.9774 72.539 73.357C72.714 73.1454 73.6043 72.6721 74.5176 72.3053C77.0789 71.2769 78.257 70.4198 79.1046 68.968C79.755 67.8541 79.8614 67.3814 79.7541 66.0828C79.6119 64.3613 78.9255 63.2559 77.4025 62.2952C76.3674 61.6424 73.2784 61.4796 70.7322 61.9436C69.5663 62.156 69.3282 62.1193 69.1691 61.7034C68.9301 61.0783 69.562 60.6108 71.5725 59.9248C73.3415 59.3213 75.243 57.8225 75.9292 56.4903C76.611 55.1672 76.5575 53.0813 75.8112 51.8691C74.5263 49.7826 70.902 48.7343 68.3277 49.7046ZM50.5375 66.1872C49.3599 66.908 48.9924 67.6078 48.9924 69.13C48.9924 70.8263 50.4511 72.33 52.0968 72.33C54.5877 72.33 56.1889 70.0325 55.2576 67.7952C54.7939 66.6816 53.2973 65.6202 52.1907 65.6202C51.7909 65.6202 51.0469 65.8756 50.5375 66.1872Z" />
</svg>
