<svg width="137" height="133" viewbox="0 0 137 133" fill="none" xmlns="http://www.w3.org/2000/svg">
<path d="M103.744 105.03C97.5461 91.6488 84.3971 85.1612 70.495 79.6004C70.8426 78.2681 72.0011 77.3992 72.6962 76.2407C78.1991 68.7105 82.891 59.2107 83.702 46.9885C84.8605 31.8121 79.01 21.4435 71.0163 14.087C74.376 6.20913 80.2264 0.706234 90.5371 0.0690566C105.25 -0.915672 113.939 8.75784 115.445 20.9801C116.951 34.187 112.433 45.019 106.93 52.2018C106.119 53.1865 104.903 54.2291 104.439 55.3877C103.744 57.0675 103.628 60.3692 104.092 61.8753C105.076 64.1923 109.942 65.2349 112.78 66.3934C116.314 67.8995 119.152 69.058 121.817 70.5641C127.146 73.5762 133.344 77.3992 135.835 83.0759C137.341 86.6094 136.819 93.2708 134.676 95.9353C129.173 103.176 115.445 103.871 103.744 105.03ZM0 116.557C0 114.877 0 113.197 0 111.575C0.173776 110.069 0.695103 108.911 1.1585 107.752C3.99684 102.249 9.32596 98.7157 14.5392 95.7036C18.5361 93.2128 22.7067 91.1854 27.2249 89.3318C28.7309 88.6367 30.5845 88.3471 31.743 87.4782C34.06 85.6246 36.2612 80.1217 34.5814 75.7773C34.06 74.4451 32.9015 73.5762 31.9168 72.4177C26.0664 65.1191 20.3897 53.7078 21.722 40.0375C23.228 26.3092 32.0906 16.6357 47.3249 16.6357C62.3855 16.6357 71.5377 26.3092 73.2175 39.8637C74.2022 48.3787 72.059 55.3876 69.8578 60.7168C67.8304 65.2349 65.6872 68.7105 63.0227 72.2439C62.0379 73.4024 60.7056 74.445 60.3581 75.6036C58.6783 79.7742 59.8368 85.1033 61.8641 87.3045C62.8489 88.2892 65.3976 88.9843 67.1933 89.6215C75.5345 92.8074 83.7599 96.978 89.5524 102.655C91.8694 104.856 94.4181 107.636 94.7078 111.691C94.8815 113.545 95.0553 116.673 94.3602 118.7C92.3328 126.056 82.3117 128.547 73.7967 130.053C58.7362 132.718 37.5355 132.892 21.8378 130.401C14.1338 129.242 5.9663 127.041 2.14323 122.407C1.1585 120.554 0.521327 119.221 0 116.557Z" />
</svg>
