<svg width="34" height="43" viewbox="0 0 34 43" fill="none" xmlns="http://www.w3.org/2000/svg">
<path d="M19.0271 7.59785C23.3656 8.14233 27.3368 10.4116 30.1166 13.9347C32.8963 17.4578 34.2711 21.9641 33.9556 26.5183C33.6401 31.0726 31.6584 35.3249 28.422 38.3929C25.1856 41.4608 20.943 43.1087 16.5747 42.9944C12.2064 42.8802 8.04793 41.0126 4.96243 37.7794C1.87693 34.5461 0.10134 30.1955 0.0042053 25.6304C-0.0929297 21.0654 1.49585 16.6366 4.44077 13.2632C7.3857 9.88985 11.4606 7.83099 15.8197 7.51398V4.54334C15.8197 4.4979 15.8197 4.45247 15.8197 4.40704H12.6425C12.3914 4.40704 12.1507 4.30283 11.9732 4.11735C11.7957 3.93187 11.696 3.6803 11.696 3.41799V0.989049C11.6969 0.726416 11.7973 0.474856 11.9754 0.289473C12.1534 0.10409 12.3945 -1.6281e-06 12.6458 0L22.201 0C22.4517 0.000921023 22.692 0.10542 22.8693 0.290703C23.0466 0.475987 23.1466 0.72702 23.1475 0.989049V3.41449C23.1475 3.6768 23.0478 3.92837 22.8703 4.11385C22.6928 4.29934 22.452 4.40354 22.201 4.40354H19.0204C19.0204 4.44897 19.0204 4.49441 19.0204 4.53984V7.59785H19.0271ZM16.9903 25.2924L28.2879 21.6857C27.5481 19.1573 26.0512 16.9438 24.0175 15.3709C21.9837 13.7981 19.5205 12.949 16.9903 12.9485V25.2924ZM32.2344 12.9555C32.9033 11.3129 32.813 9.59343 31.8699 8.44012C30.7394 7.04217 28.696 6.89888 26.7963 7.87045C28.8164 9.30649 30.6451 11.0164 32.2344 12.9555ZM1.74616 12.9555C1.07726 11.3129 1.16422 9.59343 2.10736 8.44012C3.23779 7.04217 5.28462 6.89888 7.18428 7.87045C5.16289 9.30476 3.334 11.0149 1.74616 12.9555ZM27.0639 14.6785C24.7334 12.2441 21.6672 10.7293 18.3878 10.3923C15.1084 10.0553 11.8187 10.9168 9.07894 12.8301C6.33924 14.7434 4.3191 17.5901 3.36268 20.8853C2.40626 24.1805 2.57273 27.7202 3.83373 30.9015C5.09473 34.0828 7.37226 36.7088 10.2783 38.3322C13.1843 39.9556 16.5391 40.4759 19.7711 39.8045C23.003 39.133 25.9122 37.3114 28.0031 34.65C30.094 31.9886 31.2371 28.6519 31.2378 25.2085C31.2403 23.2525 30.8729 21.3153 30.1566 19.5082C29.4403 17.701 28.3892 16.0597 27.0639 14.6785Z" fill="white"/>
</svg>
