<svg width="326" height="327" viewbox="0 0 326 327" fill="none" xmlns="http://www.w3.org/2000/svg">
<path fill-rule="evenodd" clip-rule="evenodd" d="M278.499 47.518C247.858 16.8911 207.106 0.0159525 163.685 0C74.2117 0 1.39349 72.6834 1.36217 162.024C1.34683 190.584 8.82629 218.461 23.0303 243.028L0 327L86.0493 304.468C109.756 317.382 136.451 324.18 163.615 324.187H163.685C253.142 324.187 325.969 251.497 325.999 162.156C326.015 118.858 309.149 78.1532 278.499 47.5257V47.518ZM163.685 296.824H163.63C139.424 296.817 115.679 290.32 94.9606 278.053L90.0342 275.132L38.9698 288.502L52.5979 238.801L49.3909 233.705C35.8875 212.261 28.7506 187.476 28.766 162.032C28.7973 87.7789 89.3183 27.3636 163.74 27.3636C199.774 27.3796 233.647 41.4037 259.12 66.8639C284.594 92.3165 298.611 126.161 298.596 162.141C298.564 236.401 238.044 296.817 163.685 296.817V296.824ZM237.685 195.961C233.63 193.933 213.691 184.143 209.97 182.791C206.25 181.439 203.55 180.764 200.849 184.819C198.148 188.876 190.373 197.997 188.007 200.692C185.64 203.396 183.275 203.731 179.219 201.702C175.165 199.674 162.097 195.401 146.601 181.61C134.545 170.873 126.404 157.619 124.039 153.563C121.672 149.507 123.789 147.316 125.812 145.304C127.633 143.486 129.868 140.573 131.899 138.211C133.93 135.848 134.6 134.155 135.954 131.459C137.309 128.755 136.631 126.394 135.62 124.365C134.607 122.338 126.498 102.409 123.112 94.3054C119.819 86.4121 116.473 87.4841 113.991 87.352C111.624 87.2353 108.924 87.2123 106.215 87.2123C103.507 87.2123 99.1168 88.2218 95.3966 92.2782C91.6763 96.3327 81.2002 106.131 81.2002 126.051C81.2002 145.972 95.7315 165.233 97.7629 167.937C99.7937 170.641 126.365 211.531 167.047 229.075C176.721 233.247 184.278 235.74 190.171 237.605C199.884 240.689 208.725 240.255 215.714 239.213C223.506 238.048 239.71 229.416 243.087 219.96C246.464 210.505 246.464 202.394 245.453 200.707C244.442 199.022 241.733 198.004 237.678 195.976L237.685 195.961Z" />
</svg>
