<svg width="150" height="138" viewBox="0 0 150 138" fill="none" xmlns="http://www.w3.org/2000/svg">
<path fill-rule="evenodd" clip-rule="evenodd" d="M48.1538 0.120024C45.4152 0.412849 43.4145 1.22248 40.0507 3.39843C35.312 6.46378 31.5925 10.7332 29.8045 15.1599C28.4429 18.5311 28.1861 24.3495 29.1216 30.6389C29.4399 32.7799 29.4254 32.9076 28.757 33.8144C28.1356 34.6577 28.0653 35.0501 28.1031 37.4645C28.1521 40.5988 28.994 44.152 30.087 45.8386C30.4888 46.4588 30.9776 47.764 31.1732 48.7391C33.0622 58.1665 40.6269 67.7198 48.6461 70.8061C51.1063 71.7529 54.7212 71.8587 57.6134 71.0685C66.2369 68.7123 74.5273 59.2264 77.1021 48.7692C77.3781 47.6481 77.9221 46.2505 78.3107 45.6634C79.9615 43.1686 80.9573 35.7342 79.8637 34.0656C79.4332 33.4081 79.4415 33.1496 79.9686 30.8507C80.7726 27.3439 80.8335 21.4431 80.0966 18.4519C78.6626 12.6308 75.0701 8.22664 69.4308 5.37551C65.4881 3.38247 55.5477 0.367049 51.8474 0.0417206C50.9535 -0.0365828 49.2914 -0.00142036 48.1538 0.120024ZM35.6764 67.1271C33.7536 69.0513 27.7674 72.0498 21.4124 74.2719C12.5559 77.3686 9.78423 79.3584 7.30541 84.3996C6.48101 86.0759 5.45568 88.5113 5.02663 89.8114C1.41227 100.764 -1.13836 120.574 0.51429 124.856C1.26039 126.789 1.91814 127.278 5.81558 128.802C15.7716 132.693 31.7872 135.913 47.8143 137.244C52.5069 137.634 55.3867 137.593 61.4506 137.048C70.2318 136.259 84.6201 134.046 85.3574 133.371C85.6951 133.061 83.2869 130.096 81.4416 128.548C78.1399 125.78 71.5919 122.111 65.5874 119.667C64.1247 119.071 60.0819 117.796 56.6035 116.833C53.125 115.871 50.2479 115.048 50.2098 115.005C50.1312 114.917 71.2105 71.9751 71.4492 71.736C71.7081 71.4775 82.4853 78.4025 86.419 81.355C90.2479 84.2285 94.583 87.8725 97.9831 91.0749L99.952 92.9297L101.162 91.5181C101.827 90.7419 102.372 90.0106 102.373 89.893C102.378 89.4066 100.488 84.9474 99.5214 83.163C97.1129 78.7169 94.1336 76.9794 79.7813 71.6521C76.0712 70.2749 73.1743 68.6482 71.448 66.9728L70.251 65.811L70.064 68.6512C69.3917 78.8646 64.1643 84.4123 55.2454 84.3783C50.2612 84.3591 46.6362 82.9639 43.5366 79.8716C40.8134 77.1546 38.4226 72.1107 37.6907 67.5372C37.5246 66.4998 37.3512 65.6355 37.3048 65.6166C37.2587 65.5973 36.5259 66.2773 35.6764 67.1271ZM147.668 66.1697C136.804 70.3517 122.926 81.1153 109.212 95.9959C106.506 98.9327 103.308 102.505 102.107 103.936C100.906 105.366 99.8352 106.429 99.7283 106.299C97.0246 103.015 95.8512 101.698 93.2371 99.0175C88.6786 94.343 83.315 89.8156 77.4721 85.7101L75.469 84.3027L69.8633 95.7309C66.7803 102.016 64.2577 107.255 64.2577 107.372C64.2577 107.489 65.6208 108.082 67.2864 108.69C71.6602 110.286 79.8628 114.39 83.4754 116.788C88.0684 119.838 90.5148 122.303 95.733 129.142C98.2842 132.486 100.466 135.11 100.582 134.973C100.697 134.837 101.702 132.731 102.814 130.293C111.87 110.442 122.076 93.5079 132.376 81.2424C137.303 75.3749 144.394 68.905 148.545 66.49C150.746 65.2091 150.447 65.1 147.668 66.1697Z" fill="white"/>
</svg>
