<svg width="86" height="80" viewBox="0 0 86 80" fill="none" xmlns="http://www.w3.org/2000/svg">
<path fill-rule="evenodd" clip-rule="evenodd" d="M0 70.036H10.3021V1.0988C10.3021 0.496908 10.799 0 11.4009 0H46.2964C46.8983 0 47.3952 0.496908 47.3952 1.0988V26.945H78.2734C78.8753 26.945 79.3722 27.4419 79.3722 28.0438V70.029H86V79.1203H0V70.036ZM19.1204 10.3721H26.2591C26.4761 10.3721 26.658 10.554 26.658 10.771V19.4214C26.658 19.6383 26.4761 19.8203 26.2591 19.8203H19.1204C18.9035 19.8203 18.7215 19.6383 18.7215 19.4214V10.771C18.7215 10.554 18.9035 10.3721 19.1204 10.3721ZM31.2142 53.4001H38.3529C38.5698 53.4001 38.7518 53.582 38.7518 53.799V62.4494C38.7518 62.6663 38.5698 62.8483 38.3529 62.8483H31.2142C30.9972 62.8483 30.8153 62.6663 30.8153 62.4494V53.799C30.8153 53.575 30.9972 53.4001 31.2142 53.4001ZM19.1204 53.4001H26.2591C26.4761 53.4001 26.658 53.582 26.658 53.799V62.4494C26.658 62.6663 26.4761 62.8483 26.2591 62.8483H19.1204C18.9035 62.8483 18.7215 62.6663 18.7215 62.4494V53.799C18.7215 53.575 18.9035 53.4001 19.1204 53.4001ZM31.2142 39.0527H38.3529C38.5698 39.0527 38.7518 39.2347 38.7518 39.4517V48.1021C38.7518 48.319 38.5698 48.501 38.3529 48.501H31.2142C30.9972 48.501 30.8153 48.319 30.8153 48.1021V39.4587C30.8153 39.2347 30.9972 39.0527 31.2142 39.0527ZM19.1204 39.0527H26.2591C26.4761 39.0527 26.658 39.2347 26.658 39.4517V48.1021C26.658 48.319 26.4761 48.501 26.2591 48.501H19.1204C18.9035 48.501 18.7215 48.319 18.7215 48.1021V39.4587C18.7215 39.2347 18.9035 39.0527 19.1204 39.0527ZM31.2142 24.7124H38.3529C38.5698 24.7124 38.7518 24.8944 38.7518 25.1113V33.7617C38.7518 33.9787 38.5698 34.1606 38.3529 34.1606H31.2142C30.9972 34.1606 30.8153 33.9787 30.8153 33.7617V25.1113C30.8153 24.8944 30.9972 24.7124 31.2142 24.7124ZM19.1204 24.7124H26.2591C26.4761 24.7124 26.658 24.8944 26.658 25.1113V33.7617C26.658 33.9787 26.4761 34.1606 26.2591 34.1606H19.1204C18.9035 34.1606 18.7215 33.9787 18.7215 33.7617V25.1113C18.7215 24.8944 18.9035 24.7124 19.1204 24.7124ZM31.2142 10.3721H38.3529C38.5698 10.3721 38.7518 10.554 38.7518 10.771V19.4214C38.7518 19.6383 38.5698 19.8203 38.3529 19.8203H31.2142C30.9972 19.8203 30.8153 19.6383 30.8153 19.4214V10.771C30.8153 10.554 30.9972 10.3721 31.2142 10.3721ZM16.216 5.12305H41.3553C41.7892 5.12305 42.1462 5.54997 42.1462 6.06787V66.1657C42.1462 66.6836 41.7892 67.1105 41.3553 67.1105H16.216C15.7821 67.1105 15.4251 66.6836 15.4251 66.1657V6.06787C15.4251 5.54997 15.7821 5.12305 16.216 5.12305ZM50.8175 37.394H57.9562C58.1732 37.394 58.3551 37.576 58.3551 37.793V46.4434C58.3551 46.6603 58.1732 46.8423 57.9562 46.8423H50.8175C50.6006 46.8423 50.4186 46.6603 50.4186 46.4434V37.793C50.4186 37.576 50.6006 37.394 50.8175 37.394ZM62.9113 53.4001H70.05C70.2669 53.4001 70.4489 53.582 70.4489 53.799V62.4494C70.4489 62.6663 70.2669 62.8483 70.05 62.8483H62.9113C62.6943 62.8483 62.5124 62.6663 62.5124 62.4494V53.799C62.5124 53.575 62.6943 53.4001 62.9113 53.4001ZM50.8175 53.4001H57.9562C58.1732 53.4001 58.3551 53.582 58.3551 53.799V62.4494C58.3551 62.6663 58.1732 62.8483 57.9562 62.8483H50.8175C50.6006 62.8483 50.4186 62.6663 50.4186 62.4494V53.799C50.4186 53.575 50.6006 53.4001 50.8175 53.4001ZM62.9113 37.394H70.05C70.2669 37.394 70.4489 37.576 70.4489 37.793V46.4434C70.4489 46.6603 70.2669 46.8423 70.05 46.8423H62.9113C62.6943 46.8423 62.5124 46.6603 62.5124 46.4434V37.793C62.5124 37.576 62.6943 37.394 62.9113 37.394ZM48.193 32.068H73.3324C73.7663 32.068 74.1232 32.495 74.1232 33.0129V66.1657C74.1232 66.6836 73.7663 67.1105 73.3324 67.1105H48.193C47.7591 67.1105 47.4022 66.6836 47.4022 66.1657V33.0129C47.4022 32.495 47.7591 32.068 48.193 32.068Z" fill="white"/>
</svg>
