<svg width="35" height="35" viewBox="0 0 35 35" fill="none" xmlns="http://www.w3.org/2000/svg">
<path fill-rule="evenodd" clip-rule="evenodd" d="M17.5 0C22.3323 0 26.7073 1.95918 29.8744 5.12559C33.0408 8.29268 35 12.6677 35 17.5C35 22.3323 33.0408 26.7073 29.8744 29.8744C26.7073 33.0408 22.3323 35 17.5 35C12.6677 35 8.29268 33.0408 5.12559 29.8744C1.95918 26.7073 0 22.3323 0 17.5C0 12.6677 1.95918 8.29268 5.12559 5.12559C8.29268 1.95918 12.6677 0 17.5 0ZM16.4486 21.2037L16.2771 19.0422C15.9858 15.4198 15.7254 12.6109 15.7247 8.8334C15.724 8.74727 15.7596 8.66865 15.8163 8.61191C15.873 8.55518 15.9517 8.51963 16.0378 8.51963H18.9615C19.0483 8.51963 19.1263 8.55518 19.183 8.61191C19.2123 8.64086 19.2356 8.67535 19.2514 8.71338C19.2673 8.7514 19.2754 8.7922 19.2753 8.8334C19.2753 12.5938 19.0306 15.4472 18.7605 19.0771L18.6026 21.2181C18.5964 21.2955 18.5615 21.3679 18.5049 21.4211C18.4481 21.4737 18.3723 21.5059 18.2909 21.5059H16.7617C16.721 21.506 16.6807 21.4981 16.643 21.4826C16.6053 21.4672 16.5711 21.4444 16.5423 21.4156C16.4876 21.3616 16.4521 21.2864 16.4486 21.2037ZM16.0378 26.1666V24.1021C16.0378 24.0167 16.0727 23.9381 16.1294 23.8813C16.1583 23.852 16.1928 23.8288 16.2309 23.8129C16.2689 23.7971 16.3097 23.789 16.3509 23.7891H18.6484C18.7346 23.7891 18.8132 23.8239 18.8699 23.8807L18.8754 23.8868C18.9287 23.9436 18.9622 24.0201 18.9622 24.1021V26.1666C18.9622 26.2534 18.9267 26.3313 18.8699 26.3881C18.8132 26.4448 18.7346 26.4804 18.6484 26.4804H16.3509C16.2647 26.4804 16.1861 26.4448 16.1294 26.3881C16.1003 26.359 16.0772 26.3245 16.0614 26.2865C16.0457 26.2485 16.0377 26.2077 16.0378 26.1666Z" fill="#DE7B26"/>
</svg>
