<svg width="22" height="22" viewBox="0 0 22 22" fill="none" xmlns="http://www.w3.org/2000/svg">
<path d="M9.02455 6.89443C9.02455 6.26802 9.5322 5.75994 10.1586 5.75994C10.785 5.75994 11.2927 6.26802 11.2927 6.89443V11.6485L14.4372 13.0308C15.01 13.2829 15.2698 13.9514 15.0177 14.5238C14.7656 15.0961 14.0972 15.356 13.5248 15.1043L9.7603 13.4493C9.33026 13.2881 9.02455 12.8735 9.02455 12.3873V6.89443ZM0.231583 7.22629C0.198997 7.12982 0.178846 7.02735 0.173272 6.92059L0.00176853 3.76964C-0.0303883 3.1458 0.449821 2.61414 1.07366 2.58241C1.69751 2.55026 2.22917 3.03047 2.26089 3.65431L2.29262 4.23742C2.75988 3.63613 3.28885 3.08546 3.87088 2.59442C4.64136 1.94442 5.51645 1.39004 6.48673 0.95742C9.25951 -0.279547 12.2685 -0.276545 14.8912 0.728035C17.4874 1.72275 19.7088 3.69804 20.9539 6.42323C20.9869 6.4824 21.0148 6.54499 21.0371 6.61017C22.2316 9.35679 22.2174 12.3268 21.2244 14.9199C20.2297 17.5161 18.2544 19.7374 15.5292 20.9821C15.3604 21.0767 15.1701 21.1262 14.9766 21.1258C14.3502 21.1258 13.8425 20.6181 13.8425 19.9917C13.8425 19.4986 14.1572 19.0793 14.5967 18.9232C14.9264 18.7719 15.2424 18.603 15.5438 18.4173C15.5781 18.389 15.6146 18.3624 15.6531 18.3376C16.1389 18.0237 16.6007 17.6644 17.0183 17.2639C17.0458 17.2378 17.0745 17.2129 17.1041 17.1902C17.9899 16.3112 18.6682 15.2582 19.1068 14.1134C19.9069 12.0254 19.9116 9.63462 18.931 7.43681L18.9306 7.43552C17.95 5.23771 16.1698 3.64445 14.0848 2.84567C11.9967 2.04604 9.60595 2.04132 7.40813 3.02146C6.65874 3.35528 5.96014 3.79306 5.33295 4.32188C4.91019 4.67861 4.52688 5.0705 4.18602 5.49196L4.33394 5.47353C4.95521 5.39764 5.52074 5.84012 5.59663 6.46139C5.67252 7.08266 5.23004 7.64819 4.60877 7.72408L1.47627 8.10996C0.890584 8.18113 0.354636 7.79225 0.231583 7.22629ZM12.1549 21.931C13.0502 21.8306 13.4772 20.7763 12.9035 20.0805C12.6587 19.7833 12.2865 19.6371 11.9049 19.6766C11.2378 19.7516 10.5702 19.7503 9.9035 19.671C9.50305 19.6234 9.11245 19.7876 8.86634 20.107C8.33639 20.8115 8.75701 21.8122 9.63039 21.9228C10.4699 22.0232 11.3145 22.0253 12.1549 21.931ZM4.92005 20.1872C5.25963 20.4127 5.68195 20.4385 6.04854 20.2618C6.83274 19.8734 6.90477 18.7865 6.1776 18.2998C5.62836 17.9375 5.0997 17.4869 4.65079 17.0067C4.24004 16.5694 3.56689 16.5243 3.10255 16.9042C2.98262 17.0025 2.88415 17.1244 2.81321 17.2623C2.74228 17.4002 2.70039 17.5512 2.69014 17.7059C2.67989 17.8606 2.7015 18.0158 2.75363 18.1618C2.80576 18.3079 2.8873 18.4417 2.99321 18.5549C3.56518 19.1638 4.22203 19.7272 4.92005 20.1872ZM0.468686 14.2335C0.593883 14.6382 0.928315 14.9332 1.34378 15.013C2.18157 15.1686 2.88774 14.3767 2.63563 13.5629C2.43583 12.9198 2.31449 12.2655 2.26518 11.5936C2.20687 10.8077 1.39866 10.3236 0.676205 10.6362C0.23587 10.8356 -0.0295308 11.2703 0.00262605 11.754C0.0635097 12.5969 0.217863 13.4261 0.468686 14.2335Z" fill="white"/>
</svg>
