<svg width="23" height="22" viewBox="0 0 23 22" fill="none" xmlns="http://www.w3.org/2000/svg">
<path d="M14.9632 13.5701H18.3045V16.2003H14.9632V13.5701ZM12.7615 16.2003H9.45913L9.41042 13.5701H12.8005L12.7615 16.2003ZM4.25709 13.5701H7.59847V16.2003H4.25709V13.5701ZM14.9632 9.93647L18.3045 9.88776V12.5667L14.9632 12.518V9.93647ZM9.45913 9.93647L12.8005 9.88776V12.5667H9.41042L9.45913 9.93647ZM4.25709 9.93647H7.59847V12.5667H4.25709V9.93647ZM14.9632 6.21516H18.3045V8.89411H14.9632V6.21516ZM9.42016 6.21516H12.8103V8.89411H9.42016V6.21516ZM4.25709 6.21516H7.59847V8.89411H4.25709V6.21516ZM15.1969 1.86065L15.1482 0.0487082H13.8623L13.8136 1.86065C13.648 2.09445 13.5604 2.48412 13.0928 2.48412H12.7128C12.2842 2.48412 11.9043 2.11393 11.9043 1.71453V0H10.4235V1.86065C10.4235 2.12368 9.97543 2.48412 9.61499 2.48412H9.23507C8.90385 2.48412 8.51419 2.10419 8.51419 1.76324V0H7.21855V1.77298C7.21855 2.10419 6.82889 2.49386 6.49767 2.49386H6.02033C5.69886 2.49386 5.29945 2.10419 5.29945 1.77298V0H2.25032C0.993647 0 0 1.01313 0 2.24058V19.2105C0 20.5451 0.974163 21.5485 2.29903 21.5485H20.7984C22.0161 21.5485 23 20.5256 23 19.2495V2.33799C23 0.993647 22.0843 0 20.7497 0H17.0673V1.81194C17.0673 2.22109 16.6387 2.48412 16.2101 2.48412H16.064C15.6256 2.48412 15.2262 2.23083 15.1969 1.86065Z" fill="white"/>
</svg>
