<svg width="23" height="24" viewBox="0 0 23 24" fill="none" xmlns="http://www.w3.org/2000/svg">
<path d="M10.8743 0.0660992C10.5136 0.144074 10.1627 0.300024 9.79235 0.572936C9.44146 0.816608 1.15662 9.06246 0.727761 9.59854C0.181936 10.2711 -0.0422417 10.9046 0.00649264 11.6649C0.0649739 12.6883 0.679027 13.624 1.56599 14.0626C1.93637 14.238 2.42372 14.3745 2.71612 14.3843H2.86233L2.87207 17.5422C2.88182 20.671 2.88182 20.71 2.98903 20.9926C3.13524 21.4215 3.3984 21.8309 3.72005 22.1623C4.06119 22.5034 4.38284 22.6983 4.85069 22.8738L5.18208 22.9907L6.89753 23.0005L8.62273 23.0102L8.63247 19.2187L8.64222 15.4272L8.75918 15.203C8.89564 14.9203 9.16855 14.6474 9.45121 14.511L9.67539 14.394H11.4981H13.3207L13.5546 14.511C13.8958 14.6864 14.0322 14.8229 14.2077 15.1445L14.3636 15.4272L14.3734 19.2187L14.3831 23.0102L16.1083 23.0005L17.8238 22.9907L18.1552 22.8738C18.623 22.6983 18.9447 22.5034 19.2858 22.1623C19.6269 21.8211 19.8219 21.4995 19.9973 21.0316L20.1143 20.7002L20.124 17.5422L20.1338 14.3843H20.28C20.5724 14.3843 21.0597 14.2478 21.4106 14.0724C22.8044 13.3803 23.399 11.6551 22.7167 10.2711C22.629 10.0956 22.4243 9.79348 22.2683 9.59854C21.8395 9.06246 13.5546 0.816608 13.2038 0.572936C12.4727 0.0660992 11.693 -0.109344 10.8743 0.0660992Z" fill="white"/>
</svg>
