<svg width="22" height="22" viewBox="0 0 22 22" fill="none" xmlns="http://www.w3.org/2000/svg">
<path d="M19.6031 15.1594C21.1851 13.4466 22.0433 11.1882 21.9983 8.85699C21.9533 6.52573 21.0085 4.30223 19.3616 2.65178C17.7147 1.00133 15.4934 0.0518633 13.1625 0.00206245C10.8316 -0.0477384 8.57182 0.805991 6.85597 2.38459C5.42842 3.77668 4.51619 5.61258 4.26889 7.59124C4.02158 9.5699 4.45388 11.5739 5.49488 13.2746C5.53144 13.3501 5.54593 13.4344 5.53667 13.5177C5.5274 13.6011 5.49477 13.6802 5.44253 13.7458L0.835753 18.3531C-0.0803672 19.2693 -0.315941 20.552 0.49548 21.3635L0.652529 21.4944C1.46395 22.3059 2.74652 22.0965 3.66264 21.1803L8.24324 16.573C8.30534 16.5141 8.38497 16.4771 8.47002 16.4677C8.55507 16.4582 8.64088 16.4768 8.71439 16.5206C10.4191 17.5479 12.4196 17.9721 14.3944 17.7253C16.3692 17.4784 18.2037 16.5747 19.6031 15.1594ZM8.50499 13.484C7.57292 12.5499 6.93861 11.3604 6.68219 10.0659C6.42578 8.7714 6.55877 7.42993 7.06436 6.21097C7.56996 4.99202 8.42546 3.9503 9.52279 3.21741C10.6201 2.48453 11.91 2.09338 13.2296 2.09338C14.5491 2.09338 15.839 2.48453 16.9363 3.21741C18.0336 3.9503 18.8891 4.99202 19.3947 6.21097C19.9003 7.42993 20.0333 8.7714 19.7769 10.0659C19.5205 11.3604 18.8862 12.5499 17.9541 13.484C17.3341 14.1053 16.5977 14.5983 15.787 14.9346C14.9763 15.271 14.1072 15.4441 13.2296 15.4441C12.3519 15.4441 11.4828 15.271 10.6721 14.9346C9.86138 14.5983 9.12496 14.1053 8.50499 13.484Z" fill="#999999"/>
</svg>
