<svg width="123" height="123" viewbox="0 0 123 123" fill="transparent" xmlns="http://www.w3.org/2000/svg">
<path fill-rule="evenodd" clip-rule="evenodd" d="M61.44 0C95.37 0 122.88 27.51 122.88 61.44C122.88 95.37 95.37 122.88 61.44 122.88C27.51 122.88 0 95.37 0 61.44C0 27.51 27.51 0 61.44 0ZM83.31 65.24C86.44 63.22 86.43 60.97 83.31 59.18L50.98 40.6C48.43 39 45.77 39.94 45.84 43.27L45.94 80.82C46.16 84.43 48.22 85.42 51.26 83.75L83.31 65.24ZM61.44 12.48C88.48 12.48 110.4 34.4 110.4 61.44C110.4 88.48 88.48 110.4 61.44 110.4C34.4 110.4 12.48 88.48 12.48 61.44C12.48 34.4 34.4 12.48 61.44 12.48Z" />
</svg>
