<svg width="25" height="20" viewBox="0 0 25 20" fill="none" xmlns="http://www.w3.org/2000/svg">
<path d="M0.876754 12.5933C0.308931 12.0481 0.0154206 11.3227 0.000576858 10.5924C-0.014069 9.86228 0.25015 9.12543 0.795213 8.55761C1.33988 7.99018 2.06524 7.69647 2.79536 7.68183C3.52587 7.66678 4.26232 7.93021 4.83054 8.47587L9.7363 13.1964L19.5033 0.789375L19.8532 1.05636L19.5029 0.788187C19.5308 0.751969 19.5625 0.721093 19.5977 0.695958C20.1788 0.192656 20.9081 -0.0345528 21.621 0.00423894V0.00344727L21.6558 0.00661394C22.3729 0.054114 23.0733 0.37276 23.5905 0.949885C24.1165 1.53671 24.355 2.28206 24.3152 3.01059H24.316L24.3129 3.04543C24.2662 3.74962 23.9584 4.43777 23.4007 4.95176L11.6792 19.2196L11.68 19.2204C11.6581 19.2483 11.6333 19.2722 11.6064 19.2932C11.0576 19.7751 10.3645 20.0114 9.67534 19.9996C8.98046 19.9875 8.28696 19.7233 7.74744 19.2047L0.876754 12.5933Z" fill="#33BE5B"/>
</svg>
