<svg width="253" height="179" viewbox="0 0 253 179" fill="none" xmlns="http://www.w3.org/2000/svg">
<path d="M160 46L245 131"  stroke-width="15" stroke-linecap="round" stroke-linejoin="round"/>
<path d="M160 131L245 46"  stroke-width="15" stroke-linecap="round" stroke-linejoin="round"/>
<path d="M23.7676 41.6989H71.1558L110.355 2.15963C111.752 0.776237 113.638 0 115.605 0C117.571 0 119.457 0.776237 120.854 2.15963C121.537 2.85304 122.075 3.67604 122.436 4.5802C122.796 5.48437 122.972 6.45144 122.953 7.42453V170.595C122.951 172.077 122.508 173.524 121.68 174.754C120.852 175.983 119.677 176.939 118.303 177.499C116.93 178.059 115.421 178.198 113.968 177.899C112.516 177.599 111.185 176.875 110.146 175.818L71.4077 144.354H23.7676C17.4764 144.338 11.447 141.836 6.99449 137.396C2.54199 132.956 0.0276928 126.937 0 120.651L0 65.4434C0.0276224 59.1544 2.54057 53.131 6.99188 48.684C11.4432 44.237 17.4725 41.7265 23.7676 41.6989Z" />
</svg>
