<svg width="259" height="179" viewbox="0 0 259 179" fill="none" xmlns="http://www.w3.org/2000/svg">
<path d="M23.7676 41.6989H71.1558L110.355 2.15963C111.752 0.776237 113.638 0 115.605 0C117.571 0 119.457 0.776237 120.854 2.15963C121.537 2.85304 122.075 3.67604 122.436 4.5802C122.796 5.48437 122.972 6.45144 122.953 7.42453V170.595C122.951 172.077 122.508 173.524 121.68 174.754C120.852 175.983 119.677 176.939 118.303 177.499C116.93 178.059 115.421 178.198 113.968 177.899C112.516 177.599 111.185 176.875 110.146 175.818L71.4077 144.354H23.7676C17.4764 144.338 11.447 141.836 6.99449 137.396C2.54199 132.956 0.0276928 126.937 0 120.651L0 65.4434C0.0276224 59.1544 2.54057 53.131 6.99188 48.684C11.4432 44.237 17.4725 41.7265 23.7676 41.6989ZM156.862 66.3873C156.36 64.661 156.545 62.8075 157.38 61.2147C158.214 59.6219 159.633 58.4131 161.339 57.8414C163.045 57.2696 164.906 57.3792 166.533 58.1471C168.16 58.915 169.427 60.2817 170.068 61.9614C172.462 69.0722 173.617 80.1264 173.428 90.6352C173.239 101.144 171.727 111.024 168.83 117.002C168.019 118.671 166.579 119.95 164.825 120.557C163.07 121.165 161.146 121.052 159.476 120.242C157.805 119.433 156.525 117.994 155.917 116.241C155.308 114.489 155.422 112.567 156.232 110.898C158.332 106.703 159.318 98.8158 159.486 90.4045C159.818 82.3101 158.919 74.2123 156.82 66.3873H156.862ZM192.849 40.3774C192.498 39.5304 192.316 38.6224 192.316 37.7055C192.316 36.7885 192.496 35.8805 192.847 35.0332C193.556 33.322 194.916 31.9622 196.628 31.253C198.341 30.5437 200.265 30.543 201.978 31.251C203.691 31.9591 205.052 33.3179 205.762 35.0286C212.229 50.5506 215.735 70.079 216.029 89.5655C216.323 109.052 213.488 127.846 207.336 143.075C206.649 144.785 205.309 146.153 203.612 146.877C201.915 147.6 199.999 147.621 198.287 146.934C196.575 146.247 195.206 144.909 194.481 143.213C193.757 141.518 193.736 139.604 194.424 137.894C199.883 124.385 202.381 107.122 202.129 89.6494C201.877 72.1766 198.707 54.2843 192.87 40.3564L192.849 40.3774ZM227.64 18.269C226.838 16.6 226.732 14.6812 227.347 12.9347C227.961 11.1881 229.245 9.75685 230.915 8.95576C232.586 8.15467 234.506 8.04938 236.255 8.66304C238.003 9.27669 239.435 10.559 240.237 12.228C251.819 36.8674 257.894 63.7296 258.042 90.9499C258.252 117.337 252.919 143.641 241.245 166.064C240.863 166.927 240.309 167.704 239.617 168.346C238.924 168.988 238.108 169.482 237.218 169.799C236.328 170.115 235.382 170.247 234.44 170.186C233.497 170.125 232.576 169.873 231.734 169.444C230.892 169.016 230.147 168.42 229.543 167.694C228.939 166.968 228.49 166.127 228.223 165.222C227.955 164.316 227.876 163.366 227.988 162.429C228.101 161.492 228.404 160.587 228.878 159.771C239.376 139.404 244.248 115.366 244.059 91.1386C243.944 65.9708 238.333 41.1311 227.619 18.3529L227.64 18.269Z" />
</svg>
