<svg width="86" height="76" viewBox="0 0 86 76" fill="none" xmlns="http://www.w3.org/2000/svg">
<path fill-rule="evenodd" clip-rule="evenodd" d="M47.5173 5.40835C52.7869 -3.28333 70.87 -1.49881 70.87 10.7619V14.5829C70.87 16.2974 70.8071 16.3464 71.4299 17.2422C71.8988 17.928 72.0107 18.005 72.1717 18.8448C72.3816 19.9365 72.3956 21.0562 72.4096 22.2039C72.4376 23.9884 71.7588 24.4992 70.8491 25.9479L66.9931 32.0992C65.7964 34.0167 65.6075 35.1924 66.0833 37.6137C67.147 43.0093 81.6822 46.0465 86 47.964V58.1812H75.8247V54.6612L73.0185 53.4155C71.7168 52.8347 69.9323 52.2608 67.8748 51.603C63.0041 50.0354 56.083 47.81 55.8171 46.4594C55.6841 45.7876 55.6281 45.3747 55.6631 45.1717C55.6841 45.0388 55.8311 44.7728 56.097 44.3389H56.09L59.932 38.2086L60.3659 37.5648C61.4926 35.9202 62.2484 34.8145 62.2134 31.9033C62.2064 31.2034 62.1924 30.5106 62.1644 30.0068C62.1224 29.258 62.0454 28.5022 61.8984 27.7394V27.7114C61.5905 26.1088 61.3736 25.7169 60.6738 24.7162V24.3383H60.6948V20.5173C60.6948 13.0153 56.097 8.22859 50.2186 6.15715V6.15015C49.3368 5.83523 48.434 5.5903 47.5173 5.40835ZM0 75.5156V66.495C4.31785 64.5775 20.2946 60.3367 21.3583 54.9411C21.8342 52.5128 21.6452 51.3441 20.4485 49.4266L16.5926 43.2752C15.6898 41.8336 15.011 41.3157 15.032 39.5312C15.046 38.5305 15.06 37.5368 15.2069 36.571C15.3889 35.3393 15.5428 35.2974 16.1867 34.3106C16.6206 33.6458 16.5716 33.4429 16.5716 31.9103V28.0893C16.5716 20.3633 23.7516 16.7943 30.3789 17.3891C36.0684 17.893 41.3519 21.4621 41.3519 28.0893V31.9103C41.3519 33.6248 41.289 33.6738 41.9118 34.5695C42.3807 35.2554 42.4926 35.3323 42.6536 36.1721C42.8635 37.2638 42.8775 38.3835 42.8915 39.5312C42.9195 41.3157 42.2407 41.8266 41.3309 43.2752L37.475 49.4266C36.2783 51.3441 36.0893 52.5198 36.5652 54.9411C37.6289 60.3367 52.164 63.3739 56.4819 65.2913V75.5086L0 75.5156ZM34.1019 13.2812C40.6451 6.81497 55.971 9.22233 55.971 20.5103V24.3313C55.971 26.0528 55.908 26.0948 56.5309 26.9906C56.9998 27.6764 57.1117 27.7534 57.2727 28.5931C57.4826 29.6849 57.4966 30.8046 57.5106 31.9522C57.5386 33.7368 56.8598 34.2476 55.95 35.6962L52.0941 41.8476C50.8974 43.7651 50.7084 44.9408 51.1843 47.3621C52.248 52.7577 66.7831 55.7949 71.101 57.7124V67.9296H61.1986V62.2402L58.3924 60.9945C57.0907 60.4136 55.3062 59.8398 53.2488 59.182C48.3781 57.6144 41.4569 55.389 41.191 54.0383C41.058 53.3595 41.002 52.9536 41.037 52.7507C41.058 52.6177 41.205 52.3518 41.4709 51.9179H41.4639L45.3059 45.7876L45.7398 45.1437C46.8665 43.4992 47.6223 42.3935 47.5873 39.4822C47.5803 38.7754 47.5663 38.0826 47.5383 37.5857C47.4963 36.8369 47.4193 36.0811 47.2724 35.3184V35.2974C46.9644 33.6948 46.7475 33.3029 46.0477 32.3022V31.9243H46.0687V28.1033C46.0687 23.6245 44.3541 20.0624 41.6739 17.4521C39.6024 15.4157 36.9501 14.03 34.1019 13.2812Z" fill="white"/>
</svg>
