<svg width="25" height="22" viewBox="0 0 25 22" fill="none" xmlns="http://www.w3.org/2000/svg">
<path d="M15.2054 14.4325V14.9408C15.2054 15.5443 14.7183 16.0314 14.1148 16.0314H10.8852C10.2817 16.0314 9.79458 15.5443 9.79458 14.9408V14.4325C6.69208 14.0195 4.26726 12.9077 2.43541 12.1136L1.09064 11.6053V20.4998C1.09064 21.0928 1.5036 21.7175 2.12833 21.7175H22.7658C23.4011 21.7175 23.8988 21.061 23.8988 20.4998V11.4253L22.554 12.103C20.7327 12.9077 18.2973 14.0089 15.2054 14.4325Z" fill="white"/>
<path d="M9.79458 13.0771V12.23C9.79458 11.6264 10.2817 11.1393 10.8852 11.1393H14.1148C14.7183 11.1393 15.2054 11.6264 15.2054 12.23V13.0771C19.2503 12.4947 22.5858 10.6734 23.6552 10.144L25 9.40279V8.15333V6.38501C25 5.19907 24.1211 4.34138 22.914 4.34138H17.122V2.7213C17.122 1.2177 15.5231 0 13.543 0H11.3723C9.42397 0 7.88861 1.19653 7.88861 2.7213V4.35197H2.2554C0.995341 4.35197 0 5.24142 0 6.38501V8.14274V9.49809L1.09064 10.1017C2.14951 10.6523 5.74968 12.4947 9.79458 13.0771ZM9.22279 2.7213C9.22279 1.82126 10.0381 1.34477 11.3617 1.34477H13.5324C14.856 1.34477 15.7666 1.85303 15.7666 2.7213V4.35197H9.22279V2.7213Z" fill="white"/>
<path d="M11.1393 12.2195H13.8501V14.9302H11.1393V12.2195Z" fill="white"/>
</svg>
