<svg width="331" height="331" viewbox="0 0 331 331" fill="none" xmlns="http://www.w3.org/2000/svg">
<path d="M281.823 331H49.1771C21.7514 331 0 309.249 0 281.823V49.1771C0 21.7514 21.7514 0 49.1771 0H280.877C309.249 0 331 21.7514 331 49.1771V280.877C331 309.249 309.249 331 281.823 331Z" fill="#0077B5"/>
<path fill-rule="evenodd" clip-rule="evenodd" d="M223.189 176.849C253.452 176.849 278.986 201.437 278.986 232.646C278.986 263.854 254.397 288.443 223.189 288.443C192.926 288.443 167.392 263.854 167.392 232.646C167.392 201.437 191.98 176.849 223.189 176.849ZM139.966 261.963C142.803 261.963 145.64 265.746 144.694 268.583C144.694 271.42 141.857 273.311 139.966 273.311H66.2001C58.6344 273.311 52.0144 266.691 52.0144 259.126V56.7429C52.0144 52.9601 52.9601 49.1772 55.7973 47.2858C58.6344 44.4486 61.4715 43.5029 65.2544 43.5029H234.537C242.103 43.5029 248.723 50.1229 248.723 57.6886V151.314C248.723 154.151 246.832 157.934 243.994 157.934C241.157 157.934 237.374 156.043 237.374 153.206C237.374 152.26 237.374 152.26 237.374 151.314V56.7429C237.374 55.7972 236.429 54.8515 235.483 54.8515H66.2001C65.2544 54.8515 65.2544 54.8515 65.2544 55.7972L64.3087 56.7429V260.071C64.3087 261.017 64.3087 261.017 65.2544 261.017L66.2001 261.963H139.966ZM98.3544 185.36C104.029 185.36 108.757 190.089 108.757 195.763C108.757 201.437 104.029 206.166 98.3544 206.166C92.6801 206.166 87.9515 201.437 87.9515 195.763C87.0058 190.089 91.7344 185.36 98.3544 185.36ZM98.3544 133.346C104.029 133.346 108.757 138.074 108.757 143.749C108.757 149.423 104.029 154.151 98.3544 154.151C92.6801 154.151 87.9515 149.423 87.9515 143.749C87.0058 138.074 91.7344 133.346 98.3544 133.346ZM130.509 201.437C127.672 200.491 124.834 197.654 125.78 194.817C125.78 191.98 128.617 190.089 130.509 190.089H157.934C160.772 191.034 163.609 193.871 162.663 196.709C162.663 199.546 159.826 201.437 157.934 201.437H130.509ZM130.509 100.246C127.672 100.246 124.834 97.4086 125.78 94.5715C125.78 91.7344 127.672 88.8972 130.509 88.8972H195.763C198.6 88.8972 201.437 91.7344 200.492 94.5715C200.492 97.4086 198.6 100.246 195.763 100.246H130.509ZM86.0601 96.4629C84.1687 94.5715 85.1144 92.6801 86.0601 90.7886C87.9516 88.8972 89.843 88.8972 91.7344 90.7886L95.5173 94.5715L105.92 86.0601C107.812 85.1144 109.703 85.1144 110.649 87.0058C111.594 88.8972 111.594 90.7886 110.649 92.6801L96.463 104.029C95.5173 104.029 93.6258 104.029 92.6801 103.083L86.0601 96.4629ZM126.726 150.369C123.889 149.423 121.052 146.586 121.997 143.749C121.997 140.912 124.834 139.02 126.726 139.02H191.98C194.817 139.966 197.654 142.803 196.709 145.64C196.709 148.477 193.872 150.369 191.98 150.369H126.726ZM213.732 209.003C213.732 205.22 216.569 202.383 219.406 202.383C223.189 202.383 226.026 205.22 226.026 208.057C226.026 208.057 226.026 208.057 226.026 209.003V233.592H243.049C246.832 233.592 249.669 236.429 249.669 239.266C249.669 243.049 246.832 245.886 243.994 245.886C243.994 245.886 243.994 245.886 243.049 245.886H219.406C215.623 245.886 213.732 243.049 213.732 240.211V209.003Z" fill="white"/>
</svg>
