<svg width="400" height="400" viewBox="0 0 400 400" fill="none" xmlns="http://www.w3.org/2000/svg">
<g clip-path="url(#clip0_545_772)">
<path d="M340.571 400H59.4286C26.2857 400 0 373.714 0 340.571V59.4286C0 26.2857 26.2857 0 59.4286 0H339.429C373.714 0 400 26.2857 400 59.4286V339.429C400 373.714 373.714 400 340.571 400Z" fill="#128C7E"/>
<path d="M75.031 358.367C74.6892 359.374 73.3939 359.698 72.6562 358.925C57.5078 343.506 46.6592 326.271 38.5992 307.218C27.7146 281.437 22.8031 254.343 21.5077 226.511C19.6546 187.092 22.3533 148.106 38.3654 111.53C64.2185 52.4295 108.926 18.0126 173.946 11.5539C202.138 8.74726 230.186 9.37698 257.73 16.4834C309.616 29.8508 345.67 62.8463 364.561 111.764C390.144 178.061 389.388 245.563 362.15 311.662C356.411 325.587 346.39 337.749 338.24 350.631C337.376 351.98 336.153 353.113 334.731 354.517C333.976 355.254 332.734 354.949 332.393 353.959C318.719 315.404 292.758 289.821 254.725 274.799C253.934 274.475 253.016 274.942 252.8 275.77C243.121 312.544 233.622 348.688 224.123 384.814L220.129 384.562C217.772 366.967 215.595 349.335 212.698 331.812C211.349 323.698 213.22 317.707 219.175 312.4C221.568 310.259 223.565 307.686 226.066 304.79C226.587 304.178 226.515 303.26 225.904 302.739C219.193 297.179 212.698 291.782 205.772 286.043C205.25 285.611 204.476 285.593 203.937 286.043C197.28 291.548 190.767 296.927 183.859 302.613C183.229 303.134 183.157 304.07 183.697 304.682C187.565 309.071 191.271 313.065 194.635 317.329C196.075 319.164 197.712 321.809 197.46 323.86C195.013 344.154 192.279 364.43 188.5 384.832C188.231 386.325 186.09 386.415 185.712 384.94C176.087 348.868 166.443 312.742 156.638 276.058C156.422 275.248 155.541 274.781 154.749 275.068C114.485 290.037 88.7042 317.743 75.085 358.349L75.031 358.367ZM209.64 246.481C209.406 245.833 209.64 245.113 210.234 244.754C211.511 243.944 212.77 243.044 214.138 242.792C230.455 239.986 249.778 230.936 260.357 218.469C261.886 216.652 264.836 215.266 267.211 215.104C272.105 214.762 274.39 212.352 274.516 207.854C274.731 199.182 274.803 190.493 274.605 181.821C274.569 179.986 273.22 178.133 272.249 176.406C270.378 173.041 267.373 169.983 266.545 166.403C259.979 138.337 236.069 118.205 207.877 117.485C177.814 116.729 152.446 134.9 144.404 163.002C142.821 168.526 143.019 174.822 136.83 178.205C135.787 178.78 135.211 181.029 135.175 182.523C134.995 190.726 134.743 198.966 135.211 207.152C135.337 209.437 137.334 212.855 139.259 213.557C144.117 215.32 145.394 219.026 146.905 223.164C153.31 240.742 163.007 255.926 179.271 266.091C204.422 281.815 237.634 271.992 250.587 245.491C250.821 245.005 250.767 244.43 250.444 243.998C249.148 242.217 247.907 240.508 246.845 239.05C246.45 238.511 245.748 238.313 245.118 238.583C234.953 243.008 220.848 248.118 210.881 247.452C210.324 247.416 209.838 247.038 209.658 246.499L209.64 246.481ZM127.943 223.902C128.752 223.992 129.472 223.362 129.508 222.553C129.634 220.304 129.778 218.307 129.778 216.31C129.814 203.266 129.778 190.223 129.778 177.179C129.832 137.617 159.859 106.439 202.192 104.334C242.132 102.337 274.084 131.41 278.366 165.521C280.524 182.649 279.481 200.208 279.481 217.551C279.481 222.84 281.01 224.658 286.264 223.326C297.382 220.52 304.111 213.143 306.809 202.475C309.544 191.68 307.043 181.677 297.778 174.912C292.543 171.08 289.898 166.636 288.441 160.556C278.851 120.436 243.751 92.4595 204.243 93.1792C163.025 93.9348 128.878 122.253 119.973 162.607C119.199 166.133 116.608 169.983 113.712 172.178C103.349 180.022 99.247 190.708 102.683 203.608C105.616 214.672 114.881 222.391 127.925 223.884L127.943 223.902Z" fill="white" fill-opacity="0.07"/>
<path d="M204.458 254.432C202.245 254.666 199.997 254.648 197.82 254.252C196.56 254.037 195.283 253.659 194.293 252.921C192.063 251.23 189.616 248.082 189.67 245.635C189.724 243.17 192.278 239.5 194.581 238.636C198.197 237.287 202.569 237.467 206.563 237.755C211.313 238.097 214.677 240.327 214.623 245.977C214.569 251.734 210.719 253.173 206.275 254.18C205.718 254.306 205.142 254.378 204.494 254.45L204.458 254.432Z" fill="white" fill-opacity="0.07"/>
<path d="M142.222 142.222C144.138 142.222 145.975 141.461 147.329 140.107C148.684 138.752 149.444 136.915 149.444 135V91.6666C149.444 89.7511 148.684 87.9141 147.329 86.5597C145.975 85.2052 144.138 84.4443 142.222 84.4443C140.307 84.4443 138.47 85.2052 137.115 86.5597C135.761 87.9141 135 89.7511 135 91.6666V135C135 136.915 135.761 138.752 137.115 140.107C138.47 141.461 140.307 142.222 142.222 142.222Z" fill="white"/>
<path d="M257.778 142.222C259.693 142.222 261.53 141.461 262.885 140.107C264.239 138.752 265 136.915 265 135V91.6666C265 89.7511 264.239 87.9141 262.885 86.5597C261.53 85.2052 259.693 84.4443 257.778 84.4443C255.862 84.4443 254.025 85.2052 252.671 86.5597C251.316 87.9141 250.556 89.7511 250.556 91.6666V135C250.556 136.915 251.316 138.752 252.671 140.107C254.025 141.461 255.862 142.222 257.778 142.222Z" fill="white"/>
<path d="M302.917 113.334H274.028V135.001C274.028 139.215 272.354 143.256 269.374 146.236C266.394 149.216 262.353 150.89 258.139 150.89C253.925 150.89 249.884 149.216 246.904 146.236C243.924 143.256 242.25 139.215 242.25 135.001V113.334H158.111V135.001C158.111 139.215 156.437 143.256 153.458 146.236C150.478 149.216 146.436 150.89 142.222 150.89C138.008 150.89 133.967 149.216 130.987 146.236C128.008 143.256 126.333 139.215 126.333 135.001V113.334H97.4446C95.7259 113.315 94.0207 113.64 92.4299 114.291C90.8391 114.942 89.395 115.905 88.1829 117.124C86.9709 118.343 86.0156 119.792 85.3735 121.387C84.7314 122.981 84.4155 124.688 84.4446 126.407V288.04C84.4159 289.728 84.7201 291.406 85.3398 292.976C85.9594 294.547 86.8825 295.98 88.0562 297.194C89.2298 298.408 90.6312 299.379 92.1801 300.051C93.729 300.723 95.3952 301.084 97.0835 301.112H302.917C304.605 301.084 306.271 300.723 307.82 300.051C309.369 299.379 310.77 298.408 311.944 297.194C313.118 295.98 314.041 294.547 314.661 292.976C315.28 291.406 315.584 289.728 315.556 288.04V126.407C315.584 124.718 315.28 123.041 314.661 121.47C314.041 119.899 313.118 118.466 311.944 117.252C310.77 116.038 309.369 115.068 307.82 114.395C306.271 113.723 304.605 113.363 302.917 113.334ZM257.345 189.745L187.506 259.584L149.445 221.234C147.758 219.38 146.845 216.951 146.891 214.445C146.938 211.938 147.941 209.545 149.695 207.754C151.449 205.963 153.821 204.911 156.325 204.812C158.83 204.713 161.278 205.576 163.167 207.223L187.578 231.634L243.333 175.879C244.249 174.964 245.335 174.238 246.531 173.742C247.727 173.247 249.009 172.992 250.303 172.992C251.597 172.992 252.879 173.247 254.075 173.742C255.271 174.238 256.357 174.964 257.272 175.879C258.188 176.794 258.914 177.881 259.409 179.076C259.904 180.272 260.159 181.554 260.159 182.848C260.159 184.143 259.904 185.424 259.409 186.62C258.914 187.816 258.188 188.902 257.272 189.818L257.345 189.745Z" fill="white"/>
</g>
<defs>
<clipPath id="clip0_545_772">
<rect width="400" height="400" fill="white"/>
</clipPath>
</defs>
</svg>
