<svg width="400" height="400" viewbox="0 0 400 400" fill="none" xmlns="http://www.w3.org/2000/svg">
<g clip-path="url(#clip0_768_428)">
<path d="M340.571 400H59.4286C26.2857 400 0 373.714 0 340.571V59.4286C0 26.2857 26.2857 0 59.4286 0H339.429C373.714 0 400 26.2857 400 59.4286V339.429C400 373.714 373.714 400 340.571 400Z" fill="#FF9901"/>
<path fill-rule="evenodd" clip-rule="evenodd" d="M94.9973 64.6853V79.3698L84.6048 79.7874C78.4869 80.0324 72.8411 80.6387 70.8796 81.2598C62.9411 83.7743 56.2821 89.6963 52.5838 97.5308L50.2565 102.46L50.0543 190.832C49.9014 257.679 50.0579 279.976 50.6948 282.373C53.4518 292.748 61.2353 300.741 71.6624 303.904C74.3391 304.715 85.1396 304.892 132.482 304.898L190.048 304.906L189.009 301.561C187.127 295.503 185.837 288.456 185.401 281.849L184.971 275.34L132.41 275.159L79.8489 274.979L79.6692 207.556L79.4895 140.132H169.679H259.869V162.976V185.82L270.966 185.439C277.07 185.23 283.886 185.359 286.114 185.726L290.166 186.394V147.164C290.166 123.613 289.88 106.417 289.451 104.14C287.156 91.9588 276.611 82.0738 263.96 80.2451C261.516 79.8923 256.266 79.5966 252.295 79.5888L245.073 79.5747V64.7874V50H229.924H214.776V64.7874V79.5747H169.683H124.59V64.7874V50H109.793H94.9973V64.6853ZM168.797 161.292C162.272 176.788 157.417 187.734 156.933 188.044C156.605 188.254 149.432 188.997 140.992 189.696C132.552 190.394 125.551 191.057 125.434 191.169C125.318 191.281 130.631 196.178 137.241 202.051C147.267 210.958 149.201 212.986 148.9 214.279C145.433 229.246 142.377 243.343 142.562 243.53C142.692 243.66 148.799 240.096 156.135 235.608C163.47 231.12 169.67 227.448 169.912 227.448C170.153 227.448 176.304 231.09 183.58 235.541C190.856 239.992 196.908 243.338 197.03 242.976C197.152 242.613 195.804 235.93 194.036 228.123C192.267 220.316 190.825 213.564 190.832 213.119C190.838 212.674 196.235 207.59 202.826 201.822C209.417 196.054 214.723 191.257 214.617 191.162C214.51 191.068 207.924 190.462 199.98 189.816C192.035 189.17 184.859 188.504 184.034 188.336C182.833 188.091 181.364 185.302 176.729 174.467C169.356 157.235 170.032 158.358 168.797 161.292ZM262.82 201.061C243.666 204.434 226.805 214.654 215.37 229.82C190.158 263.259 196.937 310.327 230.568 335.343C249.466 349.4 275.035 353.723 297.547 346.669C324.786 338.133 345.259 314.151 349.386 285.945C350.664 277.202 349.887 263.943 347.608 255.615C341.699 234.025 325.569 215.197 305.535 206.503C292.68 200.924 275.806 198.774 262.82 201.061ZM317.649 241.888L327.851 252.102L293.86 286.073L259.87 320.043L237.504 297.691L215.138 275.339L225.694 264.772L236.249 254.205L247.89 265.824C254.293 272.215 259.847 277.444 260.232 277.444C260.619 277.444 271.234 267.145 283.825 254.559C296.415 241.972 306.88 231.673 307.081 231.673C307.281 231.673 312.037 236.27 317.649 241.888Z" fill="white"/>
</g>
<defs>
<clipPath id="clip0_768_428">
<rect width="400" height="400" fill="white"/>
</clipPath>
</defs>
</svg>
