<svg width="400" height="400" viewbox="0 0 400 400" fill="none" xmlns="http://www.w3.org/2000/svg">
<g clip-path="url(#clip0_780_424)">
<path d="M340.571 400H59.4286C26.2857 400 0 373.714 0 340.571V59.4286C0 26.2857 26.2857 0 59.4286 0H339.429C373.714 0 400 26.2857 400 59.4286V339.429C400 373.714 373.714 400 340.571 400Z" fill="#128C7E"/>
<g clip-path="url(#clip1_780_424)">
<path d="M245.522 276.417C244.115 276.417 242.766 275.859 241.771 274.865C240.776 273.871 240.217 272.523 240.217 271.118C240.217 269.712 240.776 268.364 241.771 267.37C242.766 266.377 244.115 265.818 245.522 265.818H255.483V226.534H245.82C244.473 226.442 243.211 225.842 242.29 224.856C241.368 223.87 240.855 222.571 240.855 221.222C240.855 219.873 241.368 218.574 242.29 217.588C243.211 216.602 244.473 216.003 245.82 215.91H255.458V160.554H214.543V215.861H224.18C225.528 215.953 226.789 216.552 227.711 217.538C228.633 218.524 229.145 219.823 229.145 221.172C229.145 222.521 228.633 223.82 227.711 224.806C226.789 225.792 225.528 226.392 224.18 226.484H214.543V237.232C214.451 238.578 213.851 239.839 212.864 240.759C211.877 241.68 210.577 242.192 209.226 242.192C207.876 242.192 206.576 241.68 205.589 240.759C204.602 239.839 204.002 238.578 203.91 237.232V160.554H133.835V197.699H168.15C168.847 197.699 169.536 197.836 170.18 198.102C170.823 198.368 171.408 198.759 171.901 199.251C172.393 199.743 172.784 200.327 173.051 200.97C173.317 201.613 173.454 202.302 173.454 202.998V265.818H203.736V256.19C203.686 255.462 203.786 254.731 204.031 254.044C204.275 253.356 204.659 252.726 205.157 252.192C205.656 251.659 206.259 251.234 206.929 250.943C207.599 250.652 208.322 250.502 209.052 250.502C209.783 250.502 210.505 250.652 211.175 250.943C211.845 251.234 212.448 251.659 212.947 252.192C213.446 252.726 213.829 253.356 214.074 254.044C214.318 254.731 214.419 255.462 214.369 256.19V265.818H226.596C228.003 265.818 229.352 266.377 230.346 267.37C231.341 268.364 231.9 269.712 231.9 271.118C231.9 272.523 231.341 273.871 230.346 274.865C229.352 275.859 228.003 276.417 226.596 276.417H128.53C127.124 276.417 125.775 275.859 124.78 274.865C123.785 273.871 123.226 272.523 123.226 271.118V155.254C123.226 153.849 123.785 152.501 124.78 151.507C125.775 150.513 127.124 149.955 128.53 149.955H260.787C261.488 149.949 262.183 150.081 262.832 150.344C263.481 150.608 264.072 150.997 264.57 151.49C265.067 151.982 265.463 152.569 265.732 153.215C266.002 153.861 266.141 154.554 266.141 155.254V271.118C266.141 272.523 265.582 273.871 264.587 274.865C263.592 275.859 262.243 276.417 260.837 276.417H245.522ZM352.776 153.662V312.268H309.819V153.662H309.645L311.114 150.702L328.845 114.303L330.638 110.571L332.53 114.228L351.406 150.652L353 153.662H352.776ZM316.294 149.507H346.177L334.274 126.618H327.401L316.244 149.507H316.294ZM296.547 308.735V312.89C296.59 313.936 296.766 314.973 297.069 315.975H81.8634C76.6019 315.704 71.4805 314.186 66.922 311.547C62.0519 309.033 57.7996 305.473 54.4709 301.122C51.8415 297.319 49.9961 293.031 49.0422 288.508C48.0038 283.554 47.6353 278.483 47.9465 273.431C47.9465 228.848 45.8049 179.114 47.9465 135.177C47.8717 123.235 47.797 110.82 51.9806 101.167C56.1642 91.5136 64.8302 84.3234 82.0129 84H82.5358C83.904 84.0024 85.2173 84.538 86.1965 85.4928C87.1521 86.471 87.6881 87.7831 87.6906 89.15V113.557H314.476L312.957 116.642L312.658 117.264L312.335 117.886L312.036 118.508L311.737 119.13L311.438 119.777L311.114 120.398V120.672L309.446 123.807H87.8151V251.786C87.7389 252.901 87.3118 253.964 86.5949 254.822C85.7979 255.762 84.6798 256.374 83.4572 256.538H83.3327C80.5052 256.951 77.7095 257.558 74.9655 258.355C72.4742 259.057 70.0998 260.122 67.9181 261.514C65.8521 262.893 64.0407 264.618 62.5641 266.614C60.7533 269.074 59.2716 271.758 58.1564 274.601C57.9722 278.453 58.265 282.314 59.028 286.095C59.6932 289.353 60.9965 292.448 62.863 295.201V295.201C64.826 297.905 67.3811 300.126 70.3337 301.694V301.694C74.0191 303.618 78.0001 304.913 82.1125 305.526H296.472V308.611L296.547 308.735ZM58.256 256.09L58.8288 255.593C59.9112 254.691 61.0507 253.86 62.2404 253.105C64.6634 251.521 67.273 250.243 70.0099 249.298C72.4494 248.458 74.946 247.792 77.4806 247.308V94.6732C58.0817 97.6588 58.2062 117.065 58.3058 135.251C58.394 136.793 58.394 138.338 58.3058 139.879V256.09H58.256ZM133.835 208.397V265.818H162.846V208.397H133.835Z" fill="white"/>
</g>
</g>
<defs>
<clipPath id="clip0_780_424">
<rect width="400" height="400" fill="white"/>
</clipPath>
<clipPath id="clip1_780_424">
<rect width="306" height="232" fill="white" transform="translate(47 84)"/>
</clipPath>
</defs>
</svg>
