<svg width="400" height="400" viewbox="0 0 400 400" fill="none" xmlns="http://www.w3.org/2000/svg">
<path d="M340.571 400H59.4286C26.2857 400 0 373.714 0 340.571V59.4286C0 26.2857 26.2857 0 59.4286 0H339.429C373.714 0 400 26.2857 400 59.4286V339.429C400 373.714 373.714 400 340.571 400Z" fill="#DB562D"/>
<g clip-path="url(#clip0_675_878)">
<path fill-rule="evenodd" clip-rule="evenodd" d="M138.491 154.642C138.654 154.722 138.833 154.764 139.015 154.767H190.257V274.821H187.759C186.528 274.827 185.35 275.32 184.48 276.191C183.61 277.062 183.118 278.241 183.112 279.473V279.473C183.118 280.705 183.61 281.884 184.48 282.755C185.35 283.626 186.528 284.119 187.759 284.125H217.739C218.967 284.118 220.143 283.625 221.009 282.754C221.875 281.882 222.361 280.702 222.361 279.473C222.361 278.244 221.875 277.064 221.009 276.192C220.143 275.321 218.967 274.828 217.739 274.821H215.241V154.767H261.985C262.175 154.761 262.361 154.719 262.535 154.642H267.532C270.525 154.636 273.393 153.442 275.509 151.324C277.626 149.205 278.818 146.333 278.824 143.337V143.337C278.818 140.341 277.626 137.469 275.509 135.351C273.393 133.232 270.525 132.039 267.532 132.032H133.594C130.601 132.039 127.732 133.232 125.616 135.351C123.5 137.469 122.308 140.341 122.301 143.337V143.337C122.308 146.333 123.5 149.205 125.616 151.324C127.732 153.442 130.601 154.636 133.594 154.642H138.491ZM51.3475 116H62.815C63.9031 116.093 64.9219 116.573 65.6872 117.353C66.4525 118.133 66.9137 119.161 66.9873 120.252C71.375 147.342 73.5641 174.744 73.533 202.188H151.932C153.423 202.188 154.853 202.781 155.907 203.837C156.961 204.892 157.553 206.323 157.553 207.816V219.171H153.056V277.297C153.05 277.746 152.869 278.175 152.551 278.492C152.234 278.81 151.806 278.991 151.357 278.998H136.367C136.142 279.001 135.918 278.96 135.709 278.876C135.5 278.792 135.31 278.667 135.15 278.509C134.989 278.35 134.862 278.162 134.775 277.954C134.688 277.746 134.643 277.522 134.643 277.297V252.011H70.51C69.5773 259.714 68.403 267.426 66.9873 275.146C66.9064 276.247 66.4329 277.282 65.6532 278.062C64.8736 278.843 63.8397 279.317 62.74 279.398H51.3475C49.024 279.398 46.3507 277.372 47.1002 275.146C62.0905 222.623 59.0425 171.1 47.1002 120.252C46.5756 117.976 49.024 116 51.3475 116ZM134.618 244.182V219.171H73.3581C73.0333 229.801 72.2838 233.552 71.1596 244.182H134.618ZM349.653 116H338.186C337.084 116.076 336.047 116.548 335.267 117.33C334.486 118.111 334.014 119.149 333.938 120.252C329.551 147.342 327.362 174.744 327.393 202.188H249.069C247.578 202.188 246.148 202.781 245.094 203.837C244.04 204.892 243.447 206.323 243.447 207.816V219.171H247.944V277.297C247.951 277.746 248.132 278.175 248.449 278.492C248.766 278.81 249.195 278.991 249.643 278.998H264.634C264.859 279.001 265.082 278.96 265.291 278.876C265.5 278.792 265.691 278.667 265.851 278.509C266.011 278.35 266.139 278.162 266.226 277.954C266.313 277.746 266.357 277.522 266.357 277.297V252.011H330.466C331.398 259.714 332.548 267.426 333.913 275.146C333.994 276.247 334.468 277.282 335.247 278.062C336.027 278.843 337.061 279.317 338.161 279.398H349.628C351.952 279.398 354.625 277.372 353.875 275.146C338.885 222.623 341.933 171.1 353.875 120.252C354.4 117.976 351.952 116 349.628 116L349.653 116ZM266.382 244.182V219.171H327.643C327.967 229.801 328.717 233.552 329.841 244.182H266.382Z" fill="white"/>
</g>
<defs>
<clipPath id="clip0_675_878">
<rect width="307" height="168" fill="white" transform="translate(47 116)"/>
</clipPath>
</defs>
</svg>
