<svg width="400" height="400" viewBox="0 0 400 400" fill="none" xmlns="http://www.w3.org/2000/svg">
<g clip-path="url(#clip0_545_729)">
<path d="M340.571 400H59.4286C26.2857 400 0 373.714 0 340.571V59.4286C0 26.2857 26.2857 0 59.4286 0H339.429C373.714 0 400 26.2857 400 59.4286V339.429C400 373.714 373.714 400 340.571 400Z" fill="#DB562D"/>
<g clip-path="url(#clip1_545_729)">
<path d="M209.237 209.084H190.763C190.458 209.084 190.214 209.206 190.011 209.389C189.807 209.593 189.705 209.857 189.705 210.142V249.082C189.705 249.388 189.827 249.632 190.011 249.835C190.214 250.039 190.479 250.14 190.763 250.14H209.216C209.521 250.14 209.766 250.018 209.969 249.835C210.173 249.632 210.274 249.367 210.274 249.082V210.142C210.274 209.837 210.152 209.593 209.969 209.389C209.786 209.165 209.522 209.084 209.237 209.084ZM89.2008 126.422H153.267V108.05C153.267 105.263 154.407 102.761 156.217 100.95C158.049 99.1393 160.571 98 163.318 98H236.682C239.469 98 241.952 99.1393 243.783 100.95C245.593 102.761 246.733 105.304 246.733 108.05V126.422H310.799C314.726 126.422 318.266 128.029 320.809 130.613C323.393 133.197 325 136.737 325 140.623V174.925C308.948 185.931 292.387 195.31 275.317 202.96C258.146 210.651 240.446 216.612 222.135 220.721V207.009C222.135 203.876 220.854 200.987 218.799 198.911C216.744 196.857 213.855 195.575 210.702 195.575H189.278C186.145 195.575 183.256 196.857 181.181 198.911C179.126 200.966 177.844 203.855 177.844 207.009V220.416C160.022 216.327 142.749 210.467 126.005 202.96C108.468 195.107 91.4795 185.402 75 174.009V140.623C75 136.696 76.6073 133.156 79.1911 130.613C81.7546 128.029 85.3149 126.422 89.2008 126.422ZM325 195.27V288.369C325 292.295 323.393 295.835 320.809 298.378C318.225 300.962 314.685 302.57 310.799 302.57H89.2008C85.2743 302.57 81.7342 300.962 79.1911 298.378C76.6073 295.795 75 292.255 75 288.369V194.415C89.0177 203.408 103.442 211.261 118.274 217.914C137.419 226.499 157.275 233.071 177.865 237.465V252.216C177.865 255.349 179.146 258.238 181.201 260.313C183.256 262.368 186.165 263.649 189.299 263.649H210.722C213.855 263.649 216.744 262.368 218.819 260.313C220.874 258.258 222.156 255.369 222.156 252.216V236.753L222.38 237.689C243.355 233.274 263.578 226.642 283.069 217.893C297.432 211.464 311.41 203.896 325 195.27ZM229.032 111.692H171.008C170.662 111.692 170.378 111.814 170.113 112.079C169.91 112.282 169.727 112.628 169.727 112.974V126.035H230.253V112.974C230.253 112.628 230.131 112.343 229.867 112.079C229.663 111.875 229.317 111.692 228.971 111.692H229.032Z" fill="white"/>
</g>
<path d="M75.031 358.367C74.6892 359.374 73.3939 359.698 72.6562 358.925C57.5078 343.506 46.6592 326.271 38.5992 307.218C27.7146 281.437 22.8031 254.343 21.5077 226.511C19.6546 187.092 22.3533 148.106 38.3654 111.53C64.2185 52.4295 108.926 18.0126 173.946 11.5539C202.138 8.74726 230.186 9.37698 257.73 16.4834C309.616 29.8508 345.67 62.8463 364.561 111.764C390.144 178.061 389.388 245.563 362.15 311.662C356.411 325.587 346.39 337.749 338.24 350.631C337.376 351.98 336.153 353.113 334.731 354.517C333.976 355.254 332.734 354.949 332.393 353.959C318.719 315.404 292.758 289.821 254.725 274.799C253.934 274.475 253.016 274.942 252.8 275.77C243.121 312.544 233.622 348.688 224.123 384.814L220.129 384.562C217.772 366.967 215.595 349.335 212.698 331.812C211.349 323.698 213.22 317.707 219.175 312.4C221.568 310.259 223.565 307.686 226.066 304.79C226.587 304.178 226.515 303.26 225.904 302.739C219.193 297.179 212.698 291.782 205.772 286.043C205.25 285.611 204.476 285.593 203.937 286.043C197.28 291.548 190.767 296.927 183.859 302.613C183.229 303.134 183.157 304.07 183.697 304.682C187.565 309.071 191.271 313.065 194.635 317.329C196.075 319.164 197.712 321.809 197.46 323.86C195.013 344.154 192.279 364.43 188.5 384.832C188.231 386.325 186.09 386.415 185.712 384.94C176.087 348.868 166.443 312.742 156.638 276.058C156.422 275.248 155.541 274.781 154.749 275.068C114.485 290.037 88.7042 317.743 75.085 358.349L75.031 358.367ZM209.64 246.481C209.406 245.833 209.64 245.113 210.234 244.754C211.511 243.944 212.77 243.044 214.138 242.792C230.455 239.986 249.778 230.936 260.357 218.469C261.886 216.652 264.836 215.266 267.211 215.104C272.105 214.762 274.39 212.352 274.516 207.854C274.731 199.182 274.803 190.493 274.605 181.821C274.569 179.986 273.22 178.133 272.249 176.406C270.378 173.041 267.373 169.983 266.545 166.403C259.979 138.337 236.069 118.205 207.877 117.485C177.814 116.729 152.446 134.9 144.404 163.002C142.821 168.526 143.019 174.822 136.83 178.205C135.787 178.78 135.211 181.029 135.175 182.523C134.995 190.726 134.743 198.966 135.211 207.152C135.337 209.437 137.334 212.855 139.259 213.557C144.117 215.32 145.394 219.026 146.905 223.164C153.31 240.742 163.007 255.926 179.271 266.091C204.422 281.815 237.634 271.992 250.587 245.491C250.821 245.005 250.767 244.43 250.444 243.998C249.148 242.217 247.907 240.508 246.845 239.05C246.45 238.511 245.748 238.313 245.118 238.583C234.953 243.008 220.848 248.118 210.881 247.452C210.324 247.416 209.838 247.038 209.658 246.499L209.64 246.481ZM127.943 223.902C128.752 223.992 129.472 223.362 129.508 222.553C129.634 220.304 129.778 218.307 129.778 216.31C129.814 203.266 129.778 190.223 129.778 177.179C129.832 137.617 159.859 106.439 202.192 104.334C242.132 102.337 274.084 131.41 278.366 165.521C280.524 182.649 279.481 200.208 279.481 217.551C279.481 222.84 281.01 224.658 286.264 223.326C297.382 220.52 304.111 213.143 306.809 202.475C309.544 191.68 307.043 181.677 297.778 174.912C292.543 171.08 289.898 166.636 288.441 160.556C278.851 120.436 243.751 92.4595 204.243 93.1792C163.025 93.9348 128.878 122.253 119.973 162.607C119.199 166.133 116.608 169.983 113.712 172.178C103.349 180.022 99.247 190.708 102.683 203.608C105.616 214.672 114.881 222.391 127.925 223.884L127.943 223.902Z" fill="white" fill-opacity="0.07"/>
<path d="M204.458 254.432C202.245 254.666 199.997 254.648 197.82 254.252C196.56 254.037 195.283 253.659 194.293 252.921C192.063 251.23 189.616 248.082 189.67 245.635C189.724 243.17 192.278 239.5 194.581 238.636C198.197 237.287 202.569 237.467 206.563 237.755C211.313 238.097 214.677 240.327 214.623 245.977C214.569 251.734 210.719 253.173 206.275 254.18C205.718 254.306 205.142 254.378 204.494 254.45L204.458 254.432Z" fill="white" fill-opacity="0.07"/>
</g>
<defs>
<clipPath id="clip0_545_729">
<rect width="400" height="400" fill="white"/>
</clipPath>
<clipPath id="clip1_545_729">
<rect width="250" height="204.549" fill="white" transform="translate(75 98)"/>
</clipPath>
</defs>
</svg>
