<svg width="400" height="400" viewbox="0 0 400 400" fill="none" xmlns="http://www.w3.org/2000/svg">
<path d="M340.571 400H59.4286C26.2857 400 0 373.714 0 340.571V59.4286C0 26.2857 26.2857 0 59.4286 0H339.429C373.714 0 400 26.2857 400 59.4286V339.429C400 373.714 373.714 400 340.571 400Z" fill="#833AB4"/>
<g clip-path="url(#clip0_675_874)">
<path d="M139.507 118.176H172.957L148.212 68.5527C146.75 65.6256 147.938 62.0811 150.863 60.6175C153.787 59.154 157.329 60.3431 158.791 63.2702L186.14 118.153H213.832L241.181 63.2702C242.643 60.3431 246.185 59.154 249.109 60.6175C252.034 62.0811 253.222 65.6256 251.759 68.5527L227.038 118.176H261.493C270.152 118.176 278.035 121.72 283.747 127.437C289.459 133.154 293 141.044 293 149.711V309.465C293 318.109 289.459 325.999 283.747 331.716L283.701 331.762C277.989 337.478 270.106 341 261.493 341H139.507C130.848 341 122.965 337.456 117.253 331.739C111.541 326.022 108 318.132 108 309.465V149.711C108 141.044 111.541 133.154 117.253 127.437C122.965 121.72 130.848 118.176 139.507 118.176ZM146.499 200.409C144.283 200.409 142.478 198.716 142.478 196.613C142.478 194.509 144.283 192.817 146.499 192.817H187.442C187.1 194.029 186.917 195.286 186.917 196.613C186.917 197.939 187.1 199.197 187.442 200.409H146.499ZM200.511 188.22C205.15 188.22 208.897 191.97 208.897 196.613C208.897 201.255 205.15 205.005 200.511 205.005C195.873 205.005 192.126 201.255 192.126 196.613C192.126 191.97 195.873 188.22 200.511 188.22ZM213.558 192.817H254.501C256.717 192.817 258.522 194.509 258.522 196.613C258.522 198.716 256.717 200.409 254.501 200.409H213.558C213.9 199.197 214.083 197.939 214.083 196.613C214.083 195.286 213.923 194.029 213.558 192.817ZM146.499 308.665C144.283 308.665 142.478 306.973 142.478 304.869C142.478 302.765 144.283 301.073 146.499 301.073H187.442C187.1 302.285 186.917 303.543 186.917 304.869C186.917 306.195 187.1 307.453 187.442 308.665H146.499ZM200.511 296.476C205.15 296.476 208.897 300.227 208.897 304.869C208.897 309.511 205.15 313.261 200.511 313.261C195.873 313.261 192.126 309.511 192.126 304.869C192.126 300.25 195.873 296.476 200.511 296.476ZM213.558 301.073H254.501C256.717 301.073 258.522 302.765 258.522 304.869C258.522 306.973 256.717 308.665 254.501 308.665H213.558C213.9 307.453 214.083 306.195 214.083 304.869C214.083 303.543 213.923 302.285 213.558 301.073ZM220.389 218.36H237.342C241.912 218.36 245.431 218.726 247.898 219.435C250.343 220.166 252.216 221.196 253.45 222.545C254.684 223.917 255.529 225.563 255.963 227.484C256.398 229.428 256.626 232.401 256.626 236.448V242.074C256.626 246.19 256.215 249.209 255.347 251.084C254.501 252.982 252.925 254.445 250.663 255.452C248.378 256.458 245.408 256.961 241.752 256.961H237.251V283.076H220.412V218.36H220.389ZM237.228 229.428V245.916C237.708 245.939 238.119 245.961 238.462 245.961C239.993 245.961 241.067 245.573 241.661 244.818C242.255 244.063 242.552 242.485 242.552 240.084V234.756C242.552 232.538 242.209 231.097 241.524 230.434C240.815 229.748 239.399 229.428 237.228 229.428ZM210.77 218.36V283.099H193.931V218.36H210.77ZM188.151 218.36L179.628 283.099H154.153L144.397 218.36H162.15C164.16 236.22 165.623 251.312 166.536 263.661C167.428 251.175 168.364 240.107 169.301 230.434L170.421 218.36H188.151ZM201.951 142.004L207.937 130.021H139.507C134.092 130.021 129.18 132.24 125.616 135.807C122.052 139.374 119.835 144.291 119.835 149.711V309.465C119.835 314.862 122.052 319.802 125.616 323.369C129.18 326.936 134.115 329.155 139.507 329.155H261.493C266.908 329.155 271.82 326.936 275.384 323.392L275.407 323.369C278.971 319.802 281.165 314.885 281.165 309.465V149.711C281.165 144.314 278.948 139.374 275.384 135.807C271.82 132.24 266.908 130.021 261.493 130.021H221.12L212.507 147.287C215.454 150.397 217.259 154.581 217.259 159.201C217.259 168.76 209.514 176.489 199.986 176.489C190.435 176.489 182.713 168.737 182.713 159.201C182.713 149.642 190.458 141.913 199.986 141.913C200.649 141.89 201.311 141.936 201.951 142.004Z" fill="white"/>
</g>
<defs>
<clipPath id="clip0_675_874">
<rect width="185" height="281" fill="white" transform="translate(108 60)"/>
</clipPath>
</defs>
</svg>
