<svg width="400" height="400" viewBox="0 0 400 400" fill="none" xmlns="http://www.w3.org/2000/svg">
<g clip-path="url(#clip0_545_677)">
<path d="M320.004 0H79.9959C35.8154 0 0 35.8154 0 79.9959V320.004C0 364.185 35.8154 400 79.9959 400H320.004C364.185 400 400 364.185 400 320.004V79.9959C400 35.8154 364.185 0 320.004 0Z" fill="#2255A4"/>
<path d="M75.031 358.367C74.6892 359.374 73.3939 359.698 72.6562 358.925C57.5078 343.506 46.6592 326.271 38.5992 307.218C27.7146 281.437 22.8031 254.343 21.5077 226.511C19.6546 187.092 22.3533 148.106 38.3654 111.53C64.2185 52.4295 108.926 18.0126 173.946 11.5539C202.138 8.74726 230.186 9.37698 257.73 16.4834C309.616 29.8508 345.67 62.8463 364.561 111.764C390.144 178.061 389.388 245.563 362.15 311.662C356.411 325.587 346.39 337.749 338.24 350.631C337.376 351.98 336.153 353.113 334.731 354.517C333.976 355.254 332.734 354.949 332.393 353.959C318.719 315.404 292.758 289.821 254.725 274.799C253.934 274.475 253.016 274.942 252.8 275.77C243.121 312.544 233.622 348.688 224.123 384.814L220.129 384.562C217.772 366.967 215.595 349.335 212.698 331.812C211.349 323.698 213.22 317.707 219.175 312.4C221.568 310.259 223.565 307.686 226.066 304.79C226.587 304.178 226.515 303.26 225.904 302.739C219.193 297.179 212.698 291.782 205.772 286.043C205.25 285.611 204.476 285.593 203.937 286.043C197.28 291.548 190.767 296.927 183.859 302.613C183.229 303.134 183.157 304.07 183.697 304.682C187.565 309.071 191.271 313.065 194.635 317.329C196.075 319.164 197.712 321.809 197.46 323.86C195.013 344.154 192.279 364.43 188.5 384.832C188.231 386.325 186.09 386.415 185.712 384.94C176.087 348.868 166.443 312.742 156.638 276.058C156.422 275.248 155.541 274.781 154.749 275.068C114.485 290.037 88.7042 317.743 75.085 358.349L75.031 358.367ZM209.64 246.481C209.406 245.833 209.64 245.113 210.234 244.754C211.511 243.944 212.77 243.044 214.138 242.792C230.455 239.986 249.778 230.936 260.357 218.469C261.886 216.652 264.836 215.266 267.211 215.104C272.105 214.762 274.39 212.352 274.516 207.854C274.731 199.182 274.803 190.493 274.605 181.821C274.569 179.986 273.22 178.133 272.249 176.406C270.378 173.041 267.373 169.983 266.545 166.403C259.979 138.337 236.069 118.205 207.877 117.485C177.814 116.729 152.446 134.9 144.404 163.002C142.821 168.526 143.019 174.822 136.83 178.205C135.787 178.78 135.211 181.029 135.175 182.523C134.995 190.726 134.743 198.966 135.211 207.152C135.337 209.437 137.334 212.855 139.259 213.557C144.117 215.32 145.394 219.026 146.905 223.164C153.31 240.742 163.007 255.926 179.271 266.091C204.422 281.815 237.634 271.992 250.587 245.491C250.821 245.005 250.767 244.43 250.444 243.998C249.148 242.217 247.907 240.508 246.845 239.05C246.45 238.511 245.748 238.313 245.118 238.583C234.953 243.008 220.848 248.118 210.881 247.452C210.324 247.416 209.838 247.038 209.658 246.499L209.64 246.481ZM127.943 223.902C128.752 223.992 129.472 223.362 129.508 222.553C129.634 220.304 129.778 218.307 129.778 216.31C129.814 203.266 129.778 190.223 129.778 177.179C129.832 137.617 159.859 106.439 202.192 104.334C242.132 102.337 274.084 131.41 278.366 165.521C280.524 182.649 279.481 200.208 279.481 217.551C279.481 222.84 281.01 224.658 286.264 223.326C297.382 220.52 304.111 213.143 306.809 202.475C309.544 191.68 307.043 181.677 297.778 174.912C292.543 171.08 289.898 166.636 288.441 160.556C278.851 120.436 243.751 92.4595 204.243 93.1792C163.025 93.9348 128.878 122.253 119.973 162.607C119.199 166.133 116.608 169.983 113.712 172.178C103.349 180.022 99.247 190.708 102.683 203.608C105.616 214.672 114.881 222.391 127.925 223.884L127.943 223.902Z" fill="white" fill-opacity="0.1"/>
<path d="M204.458 254.432C202.245 254.666 199.997 254.648 197.82 254.252C196.56 254.037 195.283 253.659 194.293 252.921C192.063 251.23 189.616 248.082 189.67 245.635C189.724 243.17 192.278 239.5 194.581 238.636C198.197 237.287 202.569 237.467 206.563 237.755C211.313 238.097 214.677 240.327 214.623 245.977C214.569 251.734 210.719 253.173 206.275 254.18C205.718 254.306 205.142 254.378 204.494 254.45L204.458 254.432Z" fill="white" fill-opacity="0.1"/>
<g clip-path="url(#clip1_545_677)">
<path fill-rule="evenodd" clip-rule="evenodd" d="M271.515 244.969C300.931 254.225 320 269.022 320 285.711C320 313.725 266.286 336.421 200 336.421C133.714 336.421 80 313.725 80 285.711C80 268.622 100.026 253.513 130.577 244.324C131.689 246.015 132.802 247.706 133.937 249.352C136.325 252.824 138.795 256.235 141.346 259.588C119.941 265.329 106.212 274.185 106.212 284.064C106.212 301.375 147.755 315.416 199.021 315.416C250.287 315.416 291.808 301.375 291.808 284.064C291.808 274.808 279.926 266.486 261.012 260.745C264.728 255.649 268.222 250.354 271.515 244.902V244.969ZM239.429 250.999C229.396 262.057 217.834 271.625 205.096 279.414C204.304 280.004 203.351 280.337 202.364 280.369C201.378 280.401 200.405 280.13 199.577 279.592C181.399 268.138 165.253 253.737 151.804 236.981C134.404 215.152 123.456 190.943 119.696 167.58C115.891 143.994 119.451 121.253 131.177 102.762C135.966 95.2348 141.983 88.5634 148.978 83.0256C165.6 69.853 184.58 62.8662 203.427 62.9997C222.681 63.2884 241.121 70.8198 255.071 84.0937C260.442 88.9868 265.088 94.6212 268.867 100.826C281.506 121.676 284.243 148.244 278.68 175.167C272.509 203.41 258.966 229.513 239.429 250.821V250.999ZM199.822 105.032C207.854 105.032 215.705 107.414 222.383 111.876C229.061 116.338 234.266 122.68 237.339 130.1C240.413 137.52 241.217 145.685 239.65 153.562C238.083 161.44 234.215 168.675 228.536 174.354C222.857 180.034 215.621 183.901 207.744 185.468C199.867 187.035 191.702 186.231 184.282 183.157C176.862 180.084 170.52 174.879 166.058 168.201C161.595 161.523 159.214 153.672 159.214 145.64C159.211 140.307 160.259 135.025 162.299 130.097C164.339 125.168 167.33 120.691 171.101 116.919C174.873 113.148 179.35 110.157 184.278 108.117C189.207 106.077 194.488 105.029 199.822 105.032Z" fill="white"/>
</g>
</g>
<defs>
<clipPath id="clip0_545_677">
<rect width="400" height="400" fill="white"/>
</clipPath>
<clipPath id="clip1_545_677">
<rect width="240" height="273.421" fill="white" transform="translate(80 63)"/>
</clipPath>
</defs>
</svg>
