<svg width="400" height="400" viewBox="0 0 400 400" fill="none" xmlns="http://www.w3.org/2000/svg">
<g clip-path="url(#clip0_545_749)">
<path d="M320.004 0H79.9959C35.8154 0 0 35.8154 0 79.9959V320.004C0 364.185 35.8154 400 79.9959 400H320.004C364.185 400 400 364.185 400 320.004V79.9959C400 35.8154 364.185 0 320.004 0Z" fill="#833AB4"/>
<path d="M75.031 358.367C74.6892 359.374 73.3939 359.698 72.6562 358.925C57.5078 343.506 46.6592 326.271 38.5992 307.218C27.7146 281.437 22.8031 254.343 21.5077 226.511C19.6546 187.092 22.3533 148.106 38.3654 111.53C64.2185 52.4295 108.926 18.0126 173.946 11.5539C202.138 8.74726 230.186 9.37698 257.73 16.4834C309.616 29.8508 345.67 62.8463 364.561 111.764C390.144 178.061 389.388 245.563 362.15 311.662C356.411 325.587 346.39 337.749 338.24 350.631C337.376 351.98 336.153 353.113 334.731 354.517C333.976 355.254 332.734 354.949 332.393 353.959C318.719 315.404 292.758 289.821 254.725 274.799C253.934 274.475 253.016 274.942 252.8 275.77C243.121 312.544 233.622 348.688 224.123 384.814L220.129 384.562C217.772 366.967 215.595 349.335 212.698 331.812C211.349 323.698 213.22 317.707 219.175 312.4C221.568 310.259 223.565 307.686 226.066 304.79C226.587 304.178 226.515 303.26 225.904 302.739C219.193 297.179 212.698 291.782 205.772 286.043C205.25 285.611 204.476 285.593 203.937 286.043C197.28 291.548 190.767 296.927 183.859 302.613C183.229 303.134 183.157 304.07 183.697 304.682C187.565 309.071 191.271 313.065 194.635 317.329C196.075 319.164 197.712 321.809 197.46 323.86C195.013 344.154 192.279 364.43 188.5 384.832C188.231 386.325 186.09 386.415 185.712 384.94C176.087 348.868 166.443 312.742 156.638 276.058C156.422 275.248 155.541 274.781 154.749 275.068C114.485 290.037 88.7042 317.743 75.085 358.349L75.031 358.367ZM209.64 246.481C209.406 245.833 209.64 245.113 210.234 244.754C211.511 243.944 212.77 243.044 214.138 242.792C230.455 239.986 249.778 230.936 260.357 218.469C261.886 216.652 264.836 215.266 267.211 215.104C272.105 214.762 274.39 212.352 274.516 207.854C274.731 199.182 274.803 190.493 274.605 181.821C274.569 179.986 273.22 178.133 272.249 176.406C270.378 173.041 267.373 169.983 266.545 166.403C259.979 138.337 236.069 118.205 207.877 117.485C177.814 116.729 152.446 134.9 144.404 163.002C142.821 168.526 143.019 174.822 136.83 178.205C135.787 178.78 135.211 181.029 135.175 182.523C134.995 190.726 134.743 198.966 135.211 207.152C135.337 209.437 137.334 212.855 139.259 213.557C144.117 215.32 145.394 219.026 146.905 223.164C153.31 240.742 163.007 255.926 179.271 266.091C204.422 281.815 237.634 271.992 250.587 245.491C250.821 245.005 250.767 244.43 250.444 243.998C249.148 242.217 247.907 240.508 246.845 239.05C246.45 238.511 245.748 238.313 245.118 238.583C234.953 243.008 220.848 248.118 210.881 247.452C210.324 247.416 209.838 247.038 209.658 246.499L209.64 246.481ZM127.943 223.902C128.752 223.992 129.472 223.362 129.508 222.553C129.634 220.304 129.778 218.307 129.778 216.31C129.814 203.266 129.778 190.223 129.778 177.179C129.832 137.617 159.859 106.439 202.192 104.334C242.132 102.337 274.084 131.41 278.366 165.521C280.524 182.649 279.481 200.208 279.481 217.551C279.481 222.84 281.01 224.658 286.264 223.326C297.382 220.52 304.111 213.143 306.809 202.475C309.544 191.68 307.043 181.677 297.778 174.912C292.543 171.08 289.898 166.636 288.441 160.556C278.851 120.436 243.751 92.4595 204.243 93.1792C163.025 93.9348 128.878 122.253 119.973 162.607C119.199 166.133 116.608 169.983 113.712 172.178C103.349 180.022 99.247 190.708 102.683 203.608C105.616 214.672 114.881 222.391 127.925 223.884L127.943 223.902Z" fill="white" fill-opacity="0.05"/>
<path d="M204.458 254.432C202.245 254.666 199.997 254.648 197.82 254.252C196.56 254.037 195.283 253.659 194.293 252.921C192.063 251.23 189.616 248.082 189.67 245.635C189.724 243.17 192.278 239.5 194.581 238.636C198.197 237.287 202.569 237.467 206.563 237.755C211.313 238.097 214.677 240.327 214.623 245.977C214.569 251.734 210.719 253.173 206.275 254.18C205.718 254.306 205.142 254.378 204.494 254.45L204.458 254.432Z" fill="white" fill-opacity="0.05"/>
<g clip-path="url(#clip1_545_749)">
<path d="M125.75 92C134.701 92 143.286 95.5558 149.615 101.885C155.944 108.214 159.5 116.799 159.5 125.75C159.5 134.701 155.944 143.286 149.615 149.615C143.286 155.944 134.701 159.5 125.75 159.5C116.799 159.5 108.214 155.944 101.885 149.615C95.5558 143.286 92 134.701 92 125.75C92 116.799 95.5558 108.214 101.885 101.885C108.214 95.5558 116.799 92 125.75 92ZM281 92C289.951 92 298.536 95.5558 304.865 101.885C311.194 108.214 314.75 116.799 314.75 125.75C314.75 134.701 311.194 143.286 304.865 149.615C298.536 155.944 289.951 159.5 281 159.5C272.049 159.5 263.464 155.944 257.135 149.615C250.806 143.286 247.25 134.701 247.25 125.75C247.25 116.799 250.806 108.214 257.135 101.885C263.464 95.5558 272.049 92 281 92ZM65 218.014C65 193.166 85.1656 173 110.014 173H128.028C134.736 173 141.106 174.477 146.844 177.092C146.295 180.13 146.042 183.294 146.042 186.5C146.042 202.616 153.13 217.086 164.309 227C164.225 227 164.141 227 164.014 227H73.9859C69.05 227 65 222.95 65 218.014ZM235.986 227C235.902 227 235.817 227 235.691 227C246.913 217.086 253.958 202.616 253.958 186.5C253.958 183.294 253.663 180.172 253.156 177.092C258.894 174.434 265.264 173 271.972 173H289.986C314.834 173 335 193.166 335 218.014C335 222.992 330.95 227 326.014 227H236.028H235.986ZM159.5 186.5C159.5 175.759 163.767 165.457 171.362 157.862C178.957 150.267 189.259 146 200 146C210.741 146 221.043 150.267 228.638 157.862C236.233 165.457 240.5 175.759 240.5 186.5C240.5 197.241 236.233 207.543 228.638 215.138C221.043 222.733 210.741 227 200 227C189.259 227 178.957 222.733 171.362 215.138C163.767 207.543 159.5 197.241 159.5 186.5ZM119 296.736C119 265.686 144.186 240.5 175.236 240.5H224.722C255.814 240.5 281 265.686 281 296.736C281 302.937 275.98 308 269.736 308H130.222C124.02 308 118.958 302.98 118.958 296.736H119Z" fill="white"/>
</g>
</g>
<defs>
<clipPath id="clip0_545_749">
<rect width="400" height="400" fill="white"/>
</clipPath>
<clipPath id="clip1_545_749">
<rect width="270" height="216" fill="white" transform="translate(65 92)"/>
</clipPath>
</defs>
</svg>
