<svg width="122" height="122" viewBox="0 0 122 122" fill="none" xmlns="http://www.w3.org/2000/svg">
<path fill-rule="evenodd" clip-rule="evenodd" d="M61 0C77.8441 0 93.0941 6.82914 104.134 17.8663C115.171 28.9059 122 44.1559 122 61C122 77.8441 115.171 93.0941 104.134 104.134C93.0941 115.171 77.8441 122 61 122C44.1559 122 28.9059 115.171 17.8663 104.134C6.82914 93.0941 0 77.8441 0 61C0 44.1559 6.82914 28.9059 17.8663 17.8663C28.9059 6.82914 44.1559 0 61 0ZM57.3352 73.9101L56.7371 66.3756C55.7221 53.7491 54.8142 43.9581 54.8118 30.7907C54.8095 30.4905 54.9334 30.2164 55.1311 30.0187C55.3289 29.8209 55.6029 29.697 55.9032 29.697H66.0945C66.3971 29.697 66.6687 29.8209 66.8665 30.0187C66.9687 30.1196 67.0497 30.2398 67.105 30.3723C67.1602 30.5049 67.1885 30.6471 67.1882 30.7907C67.1882 43.8986 66.3351 53.8444 65.3939 66.4972L64.8435 73.9601C64.8216 74.2301 64.7001 74.4823 64.5027 74.6678C64.305 74.8513 64.0405 74.9633 63.7569 74.9633H58.4266C58.2846 74.9638 58.144 74.9363 58.0127 74.8824C57.8815 74.8284 57.7622 74.749 57.6617 74.6487C57.4711 74.4605 57.3471 74.1984 57.3352 73.9101ZM55.9032 91.2093V84.0132C55.9032 83.7153 56.0247 83.4413 56.2225 83.2436C56.3234 83.1414 56.4436 83.0603 56.5761 83.0051C56.7087 82.9499 56.8509 82.9216 56.9945 82.9219H65.0031C65.3034 82.9219 65.5774 83.0434 65.7752 83.2412L65.7942 83.2626C65.9801 83.4604 66.0968 83.7273 66.0968 84.0132V91.2093C66.0968 91.5119 65.9729 91.7836 65.7752 91.9813C65.5774 92.1791 65.3034 92.303 65.0031 92.303H56.9945C56.6943 92.303 56.4202 92.1791 56.2225 91.9813C56.1209 91.8801 56.0404 91.7598 55.9856 91.6273C55.9308 91.4947 55.9028 91.3527 55.9032 91.2093Z" />
</svg>
