<svg width="123" height="121" viewBox="0 0 123 121" fill="none" xmlns="http://www.w3.org/2000/svg">
<path d="M69.43 4.04C69.43 1.82 71.62 0 74.35 0C77.08 0 79.27 1.8 79.27 4.04V21.7C79.27 23.92 77.08 25.74 74.35 25.74C71.62 25.74 69.43 23.94 69.43 21.7V4.04ZM13.41 57.17C13.13 57.17 12.88 55.94 12.88 54.44C12.88 52.94 13.1 51.72 13.41 51.72H26.85C27.13 51.72 27.38 52.95 27.38 54.44C27.38 55.94 27.16 57.17 26.85 57.17H13.41ZM34.82 57.17C34.54 57.17 34.29 55.94 34.29 54.44C34.29 52.94 34.51 51.72 34.82 51.72H48.26C48.54 51.72 48.79 52.95 48.79 54.44C48.79 55.94 48.57 57.17 48.26 57.17H34.82ZM56.24 57.17C55.96 57.17 55.71 55.94 55.71 54.44C55.71 52.94 55.93 51.72 56.24 51.72H69.68C69.96 51.72 70.21 52.94 70.21 54.43C68.86 55.27 67.57 56.18 66.33 57.17H56.24ZM13.44 72.8C13.16 72.8 12.91 71.57 12.91 70.07C12.91 68.57 13.13 67.34 13.44 67.34H26.88C27.16 67.34 27.41 68.57 27.41 70.07C27.41 71.58 27.19 72.8 26.88 72.8H13.44ZM34.85 72.8C34.57 72.8 34.32 71.57 34.32 70.07C34.32 68.57 34.54 67.34 34.85 67.34H48.29C48.57 67.34 48.82 68.57 48.82 70.07C48.82 71.58 48.6 72.8 48.29 72.8H34.85ZM13.46 88.43C13.18 88.43 12.93 87.2 12.93 85.7C12.93 84.19 13.15 82.97 13.46 82.97H26.9C27.18 82.97 27.43 84.2 27.43 85.7C27.43 87.2 27.21 88.43 26.9 88.43H13.46ZM34.88 88.43C34.6 88.43 34.35 87.2 34.35 85.7C34.35 84.19 34.57 82.97 34.88 82.97H48.32C48.6 82.97 48.85 84.2 48.85 85.7C48.85 87.2 48.63 88.43 48.32 88.43H34.88ZM25.21 4.04C25.21 1.81 27.4 0 30.13 0C32.86 0 35.05 1.8 35.05 4.04V21.7C35.05 23.92 32.85 25.74 30.13 25.74C27.4 25.74 25.21 23.94 25.21 21.7V4.04ZM5.42 38.61H99.19V18.28C99.19 17.58 98.91 16.97 98.46 16.53C98.01 16.08 97.37 15.8 96.71 15.8H87.72C86.21 15.8 84.99 14.57 84.99 13.07C84.99 11.57 86.21 10.34 87.72 10.34H96.71C98.91 10.34 100.89 11.23 102.33 12.67C103.78 14.12 104.66 16.09 104.66 18.29V50.57C102.87 49.95 101.02 49.45 99.13 49.08V44.04H99.19H5.42V96.7C5.42 97.4 5.7 98.01 6.15 98.45C6.6 98.9 7.24 99.18 7.9 99.18H52.46C52.97 101.07 53.61 102.92 54.37 104.69H7.95C5.76 104.69 3.77 103.8 2.33 102.36C0.89 100.92 0 98.95 0 96.75V18.3C0 16.11 0.89 14.12 2.33 12.68C3.78 11.23 5.75 10.35 7.95 10.35H17.55C19.05 10.35 20.28 11.58 20.28 13.08C20.28 14.58 19.05 15.81 17.55 15.81H7.95C7.25 15.81 6.64 16.09 6.2 16.54C5.75 16.99 5.47 17.63 5.47 18.29V38.62L5.42 38.61ZM42.93 15.8C41.43 15.8 40.2 14.57 40.2 13.07C40.2 11.57 41.43 10.34 42.93 10.34H61.23C62.74 10.34 63.96 11.57 63.96 13.07C63.96 14.58 62.73 15.8 61.23 15.8H42.93Z" fill="white"/>
<path fill-rule="evenodd" clip-rule="evenodd" d="M91.0898 56.5303C99.8698 56.5303 107.82 60.0903 113.57 65.8403C119.31 71.6003 122.87 79.5503 122.87 88.3203C122.87 97.0903 119.31 105.05 113.57 110.8C107.81 116.55 99.8598 120.11 91.0898 120.11C82.3198 120.11 74.3598 116.55 68.6098 110.8C62.8598 105.04 59.2998 97.0903 59.2998 88.3203C59.2998 79.5503 62.8598 71.5903 68.6098 65.8403C74.3598 60.0903 82.3098 56.5303 91.0898 56.5303ZM77.0898 91.7003C76.9398 91.5403 76.8098 91.3703 76.6998 91.1903C76.5798 91.0103 76.4898 90.8203 76.3998 90.6203C76.1198 89.9603 76.0498 89.2603 76.1698 88.5803C76.2898 87.9103 76.5898 87.2703 77.0698 86.7503L77.2498 86.5703C78.4398 85.4403 80.2398 85.2303 81.6498 86.0803C81.8498 86.2003 82.0398 86.3403 82.2198 86.5103L82.2398 86.5303C83.2398 87.4903 84.9298 89.0603 86.0398 90.0403L86.9898 90.8903L98.6498 78.6603C98.8098 78.4903 98.9898 78.3403 99.1898 78.2103C99.3898 78.0703 99.5898 77.9603 99.7998 77.8703C100.01 77.7803 100.24 77.7003 100.47 77.6503C100.7 77.6003 100.94 77.5703 101.17 77.5703H101.18C101.41 77.5703 101.64 77.5803 101.87 77.6203C102.1 77.6603 102.32 77.7203 102.56 77.8103C102.78 77.8903 102.99 78.0003 103.19 78.1203C103.38 78.2403 103.56 78.3803 103.74 78.5503L103.82 78.6303C103.98 78.7903 104.13 78.9703 104.26 79.1603C104.39 79.3503 104.51 79.5603 104.6 79.7703C104.7 79.9803 104.77 80.2103 104.82 80.4403C104.87 80.6703 104.9 80.9003 104.91 81.1403V81.2603C104.91 81.4703 104.89 81.6803 104.85 81.8803C104.81 82.1003 104.75 82.3303 104.67 82.5403C104.59 82.7603 104.48 82.9703 104.36 83.1703C104.24 83.3703 104.09 83.5503 103.93 83.7203L89.8298 98.4903C89.6598 98.6703 89.4898 98.8203 89.2998 98.9503C89.1098 99.0903 88.8998 99.2003 88.6898 99.3003C88.4798 99.4003 88.2498 99.4703 88.0198 99.5303C87.7898 99.5903 87.5598 99.6203 87.3198 99.6303H87.2598C87.0398 99.6303 86.8198 99.6203 86.6198 99.5903L86.5698 99.5803C86.3598 99.5403 86.1498 99.4903 85.9498 99.4203C85.7298 99.3403 85.5198 99.2403 85.3198 99.1203L85.2898 99.1003C85.0998 98.9803 84.9198 98.8503 84.7498 98.7103L84.7198 98.6803C83.8998 97.9203 83.0098 97.1503 82.1198 96.3703C80.5498 95.0203 78.3898 93.0703 77.0898 91.7003Z" fill="#ffffff"/>
</svg>
