<svg width="50" height="50" viewBox="0 0 50 50" fill="none" xmlns="http://www.w3.org/2000/svg">
<path d="M7.14286 0C3.20313 0 0 3.20313 0 7.14286V42.8571C0 46.7969 3.20313 50 7.14286 50H42.8571C46.7969 50 50 46.7969 50 42.8571V7.14286C50 3.20313 46.7969 0 42.8571 0H7.14286ZM37.6116 19.7545L23.3259 34.0402C22.2768 35.0893 20.5804 35.0893 19.5424 34.0402L12.3996 26.8973C11.3504 25.8482 11.3504 24.1518 12.3996 23.1138C13.4487 22.0759 15.1451 22.0647 16.183 23.1138L21.4286 28.3594L33.817 15.9598C34.8661 14.9107 36.5625 14.9107 37.6004 15.9598C38.6384 17.0089 38.6496 18.7054 37.6004 19.7433L37.6116 19.7545Z" />
</svg>
