<svg width="278" height="316" viewBox="0 0 278 316" fill="none" xmlns="http://www.w3.org/2000/svg">
<path fill-rule="evenodd" clip-rule="evenodd" d="M189.829 244.446L189.774 254.167C189.749 258.716 186.03 262.413 181.489 262.401L172.457 262.358C171.117 266.764 169.22 270.93 166.811 274.751L173.464 281.466C176.67 284.7 176.652 289.953 173.433 293.156L166.527 300.007C163.277 303.198 158.02 303.179 154.814 299.945L147.647 292.73C143.88 294.78 139.87 296.35 135.712 297.402L135.656 307.777C135.638 312.314 131.906 316.023 127.347 315.998L117.623 315.961C113.083 315.949 109.37 312.203 109.394 307.66L109.432 297.192C105.32 296.076 101.361 294.459 97.6443 292.378L90.2866 299.667C87.0742 302.871 81.8107 302.852 78.6044 299.618L71.7533 292.705C68.547 289.49 68.5655 284.237 71.7903 281.034L78.7589 274.152C76.4264 270.332 74.5991 266.227 73.3224 261.938L63.9631 261.895C59.4101 261.876 55.6972 258.13 55.7219 253.593L55.7714 243.879C55.7961 239.324 59.5213 235.614 64.0619 235.639L72.544 235.676C73.6175 230.975 75.3566 226.45 77.7087 222.24L72.0807 216.574C68.8744 213.358 68.8991 208.081 72.1239 204.878L79.0307 198.052C82.274 194.848 87.5251 194.867 90.7314 198.095L95.859 203.267C100.153 200.607 104.872 198.595 109.858 197.28L109.895 190.25C109.913 185.714 113.657 182.017 118.198 182.035L127.928 182.078C132.475 182.091 136.181 185.831 136.163 190.374L136.138 197.292C141.167 198.607 145.905 200.687 150.217 203.359L155.264 198.36C158.483 195.182 163.74 195.2 166.947 198.422L173.792 205.322C176.998 208.544 176.979 213.821 173.761 217.012L168.306 222.394C170.653 226.634 172.414 231.251 173.483 236.12L181.582 236.157C186.141 236.182 189.854 239.898 189.829 244.446ZM89.9345 53.5651C109.37 54.17 124.641 70.4024 124.023 89.8503C123.43 109.267 107.17 124.525 87.7167 123.932C68.2814 123.315 53.0037 107.07 53.6153 87.6346C54.2207 68.2175 70.4683 52.9479 89.9345 53.5651ZM149.414 249.143C149.352 263.827 137.361 275.708 122.664 275.621C107.937 275.559 96.0628 263.604 96.137 248.915C96.1926 234.201 108.19 222.351 122.887 222.412C137.608 222.468 149.482 234.435 149.414 249.143ZM219.112 141.004C230.985 138.813 242.371 146.639 244.57 158.501C246.776 170.352 238.918 181.739 227.056 183.955C215.183 186.14 203.791 178.307 201.598 166.451C199.411 154.588 207.25 143.189 219.112 141.004ZM85.1714 0.00456781L98.0336 0.418092C104.032 0.609423 108.808 5.67046 108.61 11.682L108.245 23.5692C114.028 25.5073 119.464 28.1859 124.437 31.5003L133.574 22.9335C137.961 18.8168 144.917 19.0328 149.025 23.4149L157.841 32.784C161.974 37.16 161.739 44.1282 157.359 48.2387L147.555 57.435C150.094 62.4343 152.058 67.7854 153.318 73.3896L167.039 73.8216C173.063 74.0068 177.82 79.074 177.647 85.0917L177.233 97.9418C177.041 103.935 171.975 108.706 165.952 108.508L152.089 108.089C150.464 113.532 148.172 118.692 145.318 123.469L154.696 133.449C158.811 137.831 158.6 144.781 154.214 148.885L144.836 157.693C140.45 161.803 133.482 161.587 129.361 157.211L120.508 147.787C115.424 150.694 109.938 152.984 104.15 154.514L103.76 166.883C103.569 172.901 98.5031 177.653 92.4797 177.48L79.6361 177.067C73.6128 176.875 68.8435 171.814 69.0289 165.797L69.3872 154.625C63.2032 153.024 57.2745 150.564 51.7743 147.318L44.0707 154.551C39.703 158.662 32.7344 158.452 28.6139 154.07L19.8105 144.701C15.6961 140.319 15.9062 133.375 20.2924 129.24L27.3165 122.648C23.9211 116.823 21.422 110.521 19.9032 103.953L10.5995 103.663C4.58848 103.472 -0.168406 98.4109 0.00457209 92.3932L0.418483 79.5369C0.609994 73.5439 5.67577 68.7791 11.6929 68.9643L20.8546 69.2605C22.7759 62.6503 25.6732 56.4598 29.3737 50.8556L22.955 44.0294C18.8344 39.6658 19.0507 32.7038 23.4369 28.5871L32.8147 19.792C37.1948 15.6814 44.151 15.8913 48.2839 20.2734L55.2092 27.6428C60.9175 24.6987 67.0767 22.5385 73.5572 21.298L73.8908 10.5895C74.0761 4.58419 79.1481 -0.168248 85.1714 0.00456781ZM209.141 109.169L217.011 107.718C220.681 107.039 224.227 109.483 224.907 113.15L226.247 120.42C230.009 120.828 233.66 121.735 237.12 123.08L241.519 116.674C243.638 113.612 247.869 112.835 250.952 114.946L257.538 119.464C260.602 121.581 261.38 125.808 259.286 128.888L254.548 135.758C256.759 138.455 258.65 141.442 260.138 144.658L268.522 143.108C272.191 142.43 275.75 144.892 276.429 148.558L277.887 156.391C278.561 160.057 276.12 163.606 272.451 164.285L263.981 165.858C263.722 169.337 263.025 172.769 261.905 176.073L268.917 180.887C271.981 183.004 272.778 187.251 270.659 190.312L266.137 196.891C264.024 199.953 259.768 200.743 256.704 198.638L250.081 194.089C247.388 196.521 244.354 198.607 241.055 200.323L242.458 207.865C243.131 211.531 240.685 215.105 237.021 215.771L229.157 217.228C225.512 217.907 221.935 215.463 221.256 211.778L220.001 204.97C216.044 204.818 212.127 204.108 208.369 202.86L204.65 208.248C202.543 211.334 198.299 212.105 195.21 210.001L188.631 205.483C185.56 203.359 184.763 199.138 186.882 196.052L190.274 191.133C187.449 188.046 185.1 184.555 183.305 180.776L177.647 181.819C173.977 182.498 170.419 180.054 169.739 176.388L168.281 168.556C167.608 164.889 170.048 161.322 173.718 160.643L179.308 159.612C179.599 155.366 180.55 151.237 182.045 147.355L177.251 144.059C174.181 141.948 173.39 137.696 175.509 134.634L180.031 128.067C182.144 124.975 186.4 124.204 189.465 126.314L194.642 129.863C197.712 127.339 201.165 125.203 204.915 123.599L203.704 117.081C203.025 113.396 205.471 109.854 209.141 109.169Z" />
</svg>
