<svg width="200" height="200" viewBox="0 0 200 200" fill="none" xmlns="http://www.w3.org/2000/svg">
<path d="M186.136 6.48281C177.493 -2.16094 163.521 -2.16094 154.877 6.48281L142.997 18.3235L181.637 56.9638L193.517 45.0836C202.161 36.4399 202.161 22.4678 193.517 13.8241L186.136 6.48281ZM68.0448 93.3149C65.6372 95.7225 63.7821 98.6827 62.7165 101.959L51.0336 137.007C49.889 140.402 50.7968 144.151 53.3228 146.717C55.8488 149.282 59.5984 150.15 63.0322 149.006L98.0808 137.323C101.317 136.257 104.277 134.402 106.725 131.995L172.756 65.9233L134.077 27.2436L68.0448 93.3149ZM37.8904 23.1783C16.9717 23.1783 0 40.15 0 61.0686V162.11C0 183.028 16.9717 200 37.8904 200H138.931C159.85 200 176.822 183.028 176.822 162.11V124.219C176.822 117.233 171.178 111.589 164.192 111.589C157.206 111.589 151.562 117.233 151.562 124.219V162.11C151.562 169.096 145.917 174.74 138.931 174.74H37.8904C30.9043 174.74 25.2603 169.096 25.2603 162.11V61.0686C25.2603 54.0826 30.9043 48.4385 37.8904 48.4385H75.7808C82.7668 48.4385 88.4109 42.7944 88.4109 35.8084C88.4109 28.8223 82.7668 23.1783 75.7808 23.1783H37.8904Z" />
</svg>
