<svg width="151" height="113" viewBox="0 0 151 113" fill="none" xmlns="http://www.w3.org/2000/svg">
<path d="M14.1562 0C6.34082 0 0 6.32682 0 14.125C0 18.5685 2.09395 22.7471 5.6625 25.425L69.8375 73.45C73.1996 75.9513 77.8004 75.9513 81.1625 73.45L145.337 25.425C148.906 22.7471 151 18.5685 151 14.125C151 6.32682 144.659 0 136.844 0H14.1562ZM0 32.9583V94.1667C0 104.554 8.46426 113 18.875 113H132.125C142.536 113 151 104.554 151 94.1667V32.9583L86.825 80.9833C80.1008 86.0154 70.8992 86.0154 64.175 80.9833L0 32.9583Z"/>
</svg>
