<svg width="236" height="229" viewbox="0 0 236 229" fill="none" xmlns="http://www.w3.org/2000/svg">
<path d="M179.1 181.319C168.4 158.219 145.7 147.019 121.7 137.419C122.3 135.119 124.3 133.619 125.5 131.619C135 118.619 143.1 102.219 144.5 81.1192C146.5 54.9192 136.4 37.0192 122.6 24.3192C128.4 10.7192 138.5 1.21922 156.3 0.119217C181.7 -1.58078 196.7 15.1192 199.3 36.2192C201.9 59.0192 194.1 77.7192 184.6 90.1192C183.2 91.8192 181.1 93.6192 180.3 95.6192C179.1 98.5192 178.9 104.219 179.7 106.819C181.4 110.819 189.8 112.619 194.7 114.619C200.8 117.219 205.7 119.219 210.3 121.819C219.5 127.019 230.2 133.619 234.5 143.419C237.1 149.519 236.2 161.019 232.5 165.619C223 178.119 199.3 179.319 179.1 181.319ZM0 201.219C0 198.319 0 195.419 0 192.619C0.3 190.019 1.2 188.019 2 186.019C6.9 176.519 16.1 170.419 25.1 165.219C32 160.919 39.2 157.419 47 154.219C49.6 153.019 52.8 152.519 54.8 151.019C58.8 147.819 62.6 138.319 59.7 130.819C58.8 128.519 56.8 127.019 55.1 125.019C45 112.419 35.2 92.7192 37.5 69.1192C40.1 45.4192 55.4 28.7192 81.7 28.7192C107.7 28.7192 123.5 45.4192 126.4 68.8192C128.1 83.5192 124.4 95.6192 120.6 104.819C117.1 112.619 113.4 118.619 108.8 124.719C107.1 126.719 104.8 128.519 104.2 130.519C101.3 137.719 103.3 146.919 106.8 150.719C108.5 152.419 112.9 153.619 116 154.719C130.4 160.219 144.6 167.419 154.6 177.219C158.6 181.019 163 185.819 163.5 192.819C163.8 196.019 164.1 201.419 162.9 204.919C159.4 217.619 142.1 221.919 127.4 224.519C101.4 229.119 64.8 229.419 37.7 225.119C24.4 223.119 10.3 219.319 3.7 211.319C2 208.119 0.9 205.819 0 201.219Z" />
</svg>
