<svg width="884" height="473" viewBox="0 0 884 473" fill="none" xmlns="http://www.w3.org/2000/svg">
<path d="M430.272 457.1C430.082 457.66 429.362 457.84 428.952 457.41C420.532 448.84 414.502 439.26 410.022 428.67C403.972 414.34 401.242 399.28 400.522 383.81C399.492 361.9 400.992 340.23 409.892 319.9C424.262 287.05 449.112 267.92 485.252 264.33C500.922 262.77 516.512 263.12 531.822 267.07C560.662 274.5 580.702 292.84 591.202 320.03C605.422 356.88 605.002 394.4 589.862 431.14C586.672 438.88 581.102 445.64 576.572 452.8C576.092 453.55 575.412 454.18 574.622 454.96C574.202 455.37 573.512 455.2 573.322 454.65C565.722 433.22 551.292 419 530.152 410.65C529.712 410.47 529.202 410.73 529.082 411.19C523.702 431.63 518.422 451.72 513.142 471.8L510.922 471.66C509.612 461.88 508.402 452.08 506.792 442.34C506.042 437.83 507.082 434.5 510.392 431.55C511.722 430.36 512.832 428.93 514.222 427.32C514.512 426.98 514.472 426.47 514.132 426.18C510.402 423.09 506.792 420.09 502.942 416.9C502.652 416.66 502.222 416.65 501.922 416.9C498.222 419.96 494.602 422.95 490.762 426.11C490.412 426.4 490.372 426.92 490.672 427.26C492.822 429.7 494.882 431.92 496.752 434.29C497.552 435.31 498.462 436.78 498.322 437.92C496.962 449.2 495.442 460.47 493.342 471.81C493.192 472.64 492.002 472.69 491.792 471.87C486.442 451.82 481.082 431.74 475.632 411.35C475.512 410.9 475.022 410.64 474.582 410.8C452.202 419.12 437.872 434.52 430.302 457.09L430.272 457.1ZM505.092 394.91C504.962 394.55 505.092 394.15 505.422 393.95C506.132 393.5 506.832 393 507.592 392.86C516.662 391.3 527.402 386.27 533.282 379.34C534.132 378.33 535.772 377.56 537.092 377.47C539.812 377.28 541.082 375.94 541.152 373.44C541.272 368.62 541.312 363.79 541.202 358.97C541.182 357.95 540.432 356.92 539.892 355.96C538.852 354.09 537.182 352.39 536.722 350.4C533.072 334.8 519.782 323.61 504.112 323.21C487.402 322.79 473.302 332.89 468.832 348.51C467.952 351.58 468.062 355.08 464.622 356.96C464.042 357.28 463.722 358.53 463.702 359.36C463.602 363.92 463.462 368.5 463.722 373.05C463.792 374.32 464.902 376.22 465.972 376.61C468.672 377.59 469.382 379.65 470.222 381.95C473.782 391.72 479.172 400.16 488.212 405.81C502.192 414.55 520.652 409.09 527.852 394.36C527.982 394.09 527.952 393.77 527.772 393.53C527.052 392.54 526.362 391.59 525.772 390.78C525.552 390.48 525.162 390.37 524.812 390.52C519.162 392.98 511.322 395.82 505.782 395.45C505.472 395.43 505.202 395.22 505.102 394.92L505.092 394.91ZM459.682 382.36C460.132 382.41 460.532 382.06 460.552 381.61C460.622 380.36 460.702 379.25 460.702 378.14C460.722 370.89 460.702 363.64 460.702 356.39C460.732 334.4 477.422 317.07 500.952 315.9C523.152 314.79 540.912 330.95 543.292 349.91C544.492 359.43 543.912 369.19 543.912 378.83C543.912 381.77 544.762 382.78 547.682 382.04C553.862 380.48 557.602 376.38 559.102 370.45C560.622 364.45 559.232 358.89 554.082 355.13C551.172 353 549.702 350.53 548.892 347.15C543.562 324.85 524.052 309.3 502.092 309.7C479.182 310.12 460.202 325.86 455.252 348.29C454.822 350.25 453.382 352.39 451.772 353.61C446.012 357.97 443.732 363.91 445.642 371.08C447.272 377.23 452.422 381.52 459.672 382.35L459.682 382.36Z" fill="white"/>
<path d="M502.213 399.33C500.983 399.46 499.733 399.45 498.523 399.23C497.823 399.11 497.113 398.9 496.563 398.49C495.323 397.55 493.963 395.8 493.993 394.44C494.023 393.07 495.443 391.03 496.723 390.55C498.733 389.8 501.163 389.9 503.383 390.06C506.023 390.25 507.893 391.49 507.863 394.63C507.833 397.83 505.693 398.63 503.223 399.19C502.913 399.26 502.593 399.3 502.233 399.34L502.213 399.33Z" fill="white"/>
<path d="M123.472 153.61C123.472 145.77 120.492 139.47 114.522 134.71C108.552 129.95 98.082 125.47 83.082 121.27C57.382 114.18 37.872 105.82 24.572 96.2C11.262 86.59 4.61204 73.47 4.61204 56.85C4.61204 40.23 12.112 26.49 27.102 15.89C42.092 5.3 61.212 0 84.472 0C109.152 0 129.012 5.7 144.052 17.08C159.092 28.47 166.362 43.41 165.852 61.89L165.542 62.73H122.252C122.252 52.56 118.882 44.74 112.152 39.27C105.422 33.81 95.982 31.08 83.852 31.08C72.842 31.08 64.322 33.51 58.302 38.36C52.282 43.22 49.272 49.42 49.272 56.98C49.272 63.89 52.532 69.56 59.062 73.99C65.592 78.43 76.862 83.12 92.872 88.06C117.352 94.41 136.012 102.69 148.862 112.92C161.712 123.14 168.142 136.61 168.142 153.32C168.142 170.03 160.692 184.55 145.812 194.63C130.922 204.71 111.242 209.75 86.762 209.75C62.282 209.75 42.222 204.29 25.032 193.37C7.85204 182.46 -0.487957 166.17 0.0220426 144.51L0.332043 143.67H43.622C43.622 155.71 47.492 164.58 55.252 170.28C63.002 175.98 73.502 178.82 86.762 178.82C98.692 178.82 107.792 176.53 114.072 171.96C120.342 167.39 123.482 161.27 123.482 153.62L123.472 153.61Z" fill="white"/>
<path d="M356.302 34.45H292.662V206.83H247.992V34.45H185.272V2.94H356.302V34.45Z" fill="white"/>
<path d="M480.222 162.86H408.022L393.032 206.83H346.372L421.472 2.94H467.212L542.022 206.83H495.362L480.222 162.86ZM419.032 130.79H469.362L444.732 58.95H443.812L419.032 130.79Z" fill="white"/>
<path d="M693.622 122.11H608.112V206.83H563.442V2.94H709.232V34.45H608.112V90.6H693.622V122.11Z" fill="white"/>
<path d="M867.862 122.11H782.352V206.83H737.682V2.94H883.472V34.45H782.352V90.6H867.862V122.11Z" fill="white"/>
<path d="M52.0321 395.27V469.21H7.37207V265.32H92.5721C118.172 265.32 138.312 271.3 153.002 283.24C167.692 295.19 175.032 310.92 175.032 330.43C175.032 349.94 167.692 365.63 153.002 377.48C138.312 389.34 118.172 395.26 92.5721 395.26H52.0321V395.27ZM52.0321 363.76H92.5721C105.012 363.76 114.452 360.66 120.872 354.45C127.292 348.24 130.512 340.33 130.512 330.71C130.512 321.09 127.322 312.81 120.952 306.42C114.582 300.03 105.122 296.83 92.5721 296.83H52.0321V363.77V363.76Z" fill="white"/>
<path d="M251.672 387.71V469.21H207.002V265.32H284.102C309.492 265.32 329.352 270.62 343.682 281.21C358.012 291.81 365.172 306.58 365.172 325.53C365.172 335.99 362.132 345.02 356.072 352.63C350.002 360.24 341.152 366.38 329.532 371.04C342.692 374.59 352.142 380.52 357.912 388.82C363.672 397.13 366.552 407.4 366.552 419.63V434.61C366.552 440.31 367.392 446.26 369.072 452.46C370.752 458.67 373.632 463.27 377.712 466.25V469.19H331.662C327.582 466.2 324.952 461.26 323.782 454.35C322.612 447.44 322.022 440.77 322.022 434.33V419.91C322.022 409.74 318.982 401.82 312.922 396.18C306.852 390.53 298.262 387.71 287.142 387.71H251.652H251.672ZM251.672 356.2H283.342C295.882 356.2 305.222 353.77 311.332 348.92C317.452 344.07 320.512 336.88 320.512 327.36C320.512 317.84 317.422 310.6 311.252 305.09C305.082 299.58 296.032 296.83 284.102 296.83H251.672V356.2Z" fill="white"/>
<path d="M823.972 291.61L815.922 316.8H832.262L824.272 291.61H823.972Z" fill="white"/>
<path d="M871.772 260.16H648.602C643.612 260.16 639.572 264.21 639.572 269.19V346.67C639.572 351.66 643.622 355.7 648.602 355.7H871.772C876.762 355.7 880.802 351.65 880.802 346.67V269.19C880.802 264.2 876.752 260.16 871.772 260.16ZM722.612 318.76C722.612 326.81 719.912 333.11 714.512 337.66C709.112 342.21 702.102 344.48 693.492 344.48C684.882 344.48 677.942 342.21 672.602 337.66C667.252 333.11 664.582 326.81 664.582 318.76V271.97H679.142V318.76C679.142 323.54 680.432 327.19 683.022 329.71C685.602 332.23 689.102 333.49 693.502 333.49C697.902 333.49 701.522 332.23 704.132 329.71C706.752 327.19 708.062 323.54 708.062 318.76V271.97H722.622V318.76H722.612ZM780.152 339.18C775.312 342.72 768.922 344.48 760.972 344.48C753.022 344.48 746.502 342.57 740.922 338.74C735.342 334.91 732.632 329.2 732.802 321.6L732.902 321.31H746.962C746.962 325.53 748.222 328.64 750.742 330.64C753.262 332.64 756.672 333.63 760.972 333.63C764.852 333.63 767.802 332.83 769.842 331.22C771.882 329.62 772.902 327.47 772.902 324.79C772.902 322.11 771.932 319.83 769.992 318.16C768.052 316.49 764.652 314.92 759.782 313.45C751.432 310.96 745.102 308.03 740.772 304.66C736.452 301.29 734.292 296.69 734.292 290.86C734.292 285.03 736.722 280.21 741.592 276.5C746.462 272.79 752.672 270.93 760.222 270.93C768.242 270.93 774.692 272.93 779.572 276.92C784.452 280.91 786.822 286.15 786.652 292.63L786.552 292.93H772.492C772.492 289.36 771.402 286.62 769.212 284.71C767.022 282.8 763.962 281.84 760.022 281.84C756.442 281.84 753.682 282.69 751.722 284.39C749.772 286.09 748.792 288.27 748.792 290.92C748.792 293.34 749.852 295.33 751.972 296.88C754.092 298.44 757.752 300.08 762.952 301.81C770.902 304.04 776.962 306.94 781.142 310.52C785.312 314.1 787.402 318.83 787.402 324.68C787.402 330.53 784.982 335.63 780.152 339.16V339.18ZM840.722 343.45L835.802 328.03H812.352L807.482 343.45H792.322L816.722 271.97H831.582L855.882 343.45H840.732H840.722Z" fill="white"/>
<path d="M830.102 404.32C784.332 378.85 738.562 429.78 692.792 404.32V397.77C738.562 423.24 784.332 372.3 830.102 397.77V404.32Z" fill="#DB2E2E"/>
<path d="M830.102 391.25C784.332 365.79 738.562 416.72 692.792 391.25V384.71C738.562 410.17 784.332 359.24 830.102 384.71V391.25Z" fill="#DB2E2E"/>
<path d="M830.102 378.19C784.332 352.72 738.562 403.65 692.792 378.19V371.65C738.562 397.12 784.332 346.18 830.102 371.65V378.19Z" fill="#DB2E2E"/>
<path d="M830.102 417.39C784.332 391.92 738.562 442.85 692.792 417.39V410.84C738.562 436.31 784.332 385.38 830.102 410.84V417.39Z" fill="#DB2E2E"/>
<path d="M830.102 430.44C784.332 404.97 738.562 455.91 692.792 430.44V423.9C738.562 449.37 784.332 398.43 830.102 423.9V430.44Z" fill="#DB2E2E"/>
<path d="M830.102 443.5C784.332 418.03 738.562 468.97 692.792 443.5V436.96C738.562 462.43 784.332 411.49 830.102 436.96V443.5Z" fill="#DB2E2E"/>
<path d="M830.102 456.54C784.332 431.07 738.562 482.01 692.792 456.54V449.99C738.562 475.46 784.332 424.53 830.102 449.99V456.54Z" fill="#DB2E2E"/>
<path d="M830.102 397.79C784.332 372.32 738.562 423.26 692.792 397.79V391.25C738.562 416.72 784.332 365.78 830.102 391.25V397.79Z" fill="white"/>
<path d="M830.102 384.73C784.332 359.26 738.562 410.2 692.792 384.73V378.19C738.562 403.65 784.332 352.72 830.102 378.19V384.73Z" fill="white"/>
<path d="M830.102 410.86C784.332 385.39 738.562 436.33 692.792 410.86V404.32C738.562 429.79 784.332 378.85 830.102 404.32V410.86Z" fill="white"/>
<path d="M830.102 423.9C784.332 398.43 738.562 449.36 692.792 423.9V417.36C738.562 442.82 784.332 391.89 830.102 417.36V423.9Z" fill="white"/>
<path d="M830.102 436.97C784.332 411.5 738.562 462.43 692.792 436.97V430.42C738.562 455.89 784.332 404.96 830.102 430.42V436.97Z" fill="white"/>
<path d="M830.102 450.03C784.332 424.56 738.562 475.51 692.792 450.03V443.49C738.562 468.96 784.332 418.02 830.102 443.49V450.03Z" fill="white"/>
<path d="M744.142 376.37C727.032 380.23 709.912 381.38 692.792 371.87V411.4C709.902 420.93 727.032 419.77 744.142 415.92V376.38V376.37Z" fill="#2E4593"/>
<path d="M735.712 385.87C735.902 386.35 736.072 386.83 736.262 387.31C735.822 387.07 735.392 386.81 734.972 386.56H734.962C734.532 386.94 734.102 387.33 733.672 387.72C733.852 387.18 734.032 386.64 734.222 386.1C733.772 385.86 733.332 385.63 732.882 385.39C733.422 385.32 733.952 385.23 734.492 385.16C734.652 384.62 734.792 384.08 734.942 383.55C735.102 384.04 735.262 384.53 735.432 385.01C735.982 384.92 736.522 384.83 737.062 384.74C736.612 385.12 736.162 385.5 735.722 385.86L735.732 385.87H735.712Z" fill="white"/>
<path d="M735.712 393.86C735.902 394.34 736.072 394.82 736.262 395.29C735.822 395.05 735.392 394.8 734.972 394.55H734.962C734.532 394.93 734.102 395.32 733.672 395.7C733.852 395.16 734.032 394.63 734.222 394.09C733.772 393.86 733.332 393.62 732.882 393.37C733.422 393.3 733.952 393.22 734.492 393.15C734.652 392.61 734.792 392.07 734.942 391.54C735.102 392.03 735.262 392.52 735.432 393C735.982 392.92 736.522 392.83 737.062 392.74C736.612 393.11 736.162 393.49 735.722 393.86C735.722 393.86 735.732 393.86 735.732 393.87L735.712 393.86Z" fill="white"/>
<path d="M735.712 401.85C735.902 402.33 736.072 402.81 736.262 403.29C735.822 403.05 735.392 402.79 734.972 402.54H734.962C734.532 402.93 734.102 403.31 733.672 403.69C733.852 403.16 734.032 402.62 734.222 402.09C734.222 402.09 734.222 402.08 734.222 402.07C733.772 401.84 733.332 401.6 732.882 401.36C733.422 401.3 733.952 401.22 734.492 401.14C734.652 400.6 734.792 400.07 734.942 399.53C735.102 400.02 735.262 400.51 735.432 400.99C735.982 400.91 736.522 400.82 737.062 400.72C736.612 401.1 736.162 401.47 735.722 401.84L735.732 401.85H735.712Z" fill="white"/>
<path d="M735.712 409.83C735.902 410.31 736.072 410.79 736.262 411.27C735.822 411.02 735.392 410.77 734.972 410.52H734.962C734.532 410.9 734.102 411.29 733.672 411.67C733.852 411.13 734.032 410.59 734.222 410.06C733.772 409.82 733.332 409.58 732.882 409.34C733.422 409.27 733.952 409.19 734.492 409.12C734.652 408.58 734.792 408.03 734.942 407.51C735.102 407.99 735.262 408.48 735.432 408.96C735.982 408.88 736.522 408.78 737.062 408.69C736.612 409.07 736.162 409.45 735.722 409.82H735.732L735.712 409.83Z" fill="white"/>
<path d="M727.212 386.88C727.392 387.38 727.572 387.87 727.752 388.37C727.322 388.08 726.892 387.8 726.462 387.5H726.452C726.022 387.84 725.592 388.19 725.152 388.53C725.342 388.01 725.522 387.49 725.692 386.97C725.702 386.97 725.712 386.97 725.712 386.96C725.262 386.69 724.822 386.41 724.372 386.12C724.912 386.1 725.452 386.08 725.982 386.05C726.132 385.52 726.272 385 726.422 384.47C726.592 384.98 726.752 385.48 726.922 385.98C727.462 385.95 728.002 385.9 728.542 385.86C728.092 386.2 727.662 386.53 727.212 386.87C727.212 386.87 727.212 386.87 727.222 386.88H727.212Z" fill="white"/>
<path d="M727.212 394.86C727.392 395.36 727.572 395.86 727.752 396.35C727.322 396.06 726.892 395.78 726.462 395.49H726.452C726.022 395.83 725.592 396.19 725.152 396.52C725.342 396 725.522 395.48 725.692 394.96C725.702 394.96 725.712 394.96 725.712 394.96C725.262 394.68 724.822 394.4 724.372 394.11C724.912 394.09 725.452 394.07 725.982 394.04C726.132 393.52 726.272 393 726.422 392.48C726.592 392.98 726.752 393.48 726.922 393.99C727.462 393.95 728.002 393.91 728.542 393.86C728.092 394.2 727.662 394.54 727.212 394.87C727.212 394.87 727.212 394.87 727.222 394.87L727.212 394.86Z" fill="white"/>
<path d="M727.212 402.85C727.392 403.34 727.572 403.84 727.752 404.33C727.322 404.04 726.892 403.75 726.462 403.46H726.452C726.022 403.81 725.592 404.15 725.152 404.49C725.342 403.97 725.522 403.46 725.692 402.94C725.702 402.94 725.712 402.94 725.712 402.92C725.262 402.65 724.822 402.37 724.372 402.08C724.912 402.06 725.452 402.03 725.982 402.01C726.132 401.48 726.272 400.96 726.422 400.44C726.592 400.94 726.752 401.44 726.922 401.95C727.462 401.91 728.002 401.87 728.542 401.83C728.092 402.16 727.662 402.5 727.212 402.84C727.212 402.84 727.212 402.84 727.222 402.85H727.212Z" fill="white"/>
<path d="M727.212 410.83C727.392 411.33 727.572 411.82 727.752 412.32C727.322 412.03 726.892 411.75 726.462 411.46H726.452C726.022 411.8 725.592 412.14 725.152 412.48C725.342 411.96 725.522 411.45 725.692 410.93C725.702 410.93 725.712 410.93 725.712 410.93C725.262 410.65 724.822 410.37 724.372 410.07C724.912 410.06 725.452 410.03 725.982 410.01C726.132 409.48 726.272 408.96 726.422 408.44C726.592 408.94 726.752 409.44 726.922 409.94C727.462 409.9 728.002 409.86 728.542 409.81C728.092 410.15 727.662 410.49 727.212 410.82C727.212 410.82 727.212 410.82 727.222 410.82L727.212 410.83Z" fill="white"/>
<path d="M718.712 387C718.902 387.52 719.082 388.03 719.262 388.56C718.832 388.22 718.402 387.88 717.972 387.53C717.532 387.82 717.102 388.12 716.662 388.41C716.842 387.92 717.032 387.41 717.212 386.91C717.212 386.91 717.215 386.907 717.222 386.9H717.212C716.762 386.57 716.322 386.24 715.882 385.89C716.412 385.95 716.952 385.99 717.492 386.02C717.642 385.52 717.782 385.01 717.932 384.5C718.102 385.02 718.262 385.55 718.422 386.07H718.432C718.972 386.1 719.502 386.12 720.042 386.14C719.602 386.43 719.152 386.71 718.702 386.99C718.702 386.99 718.712 386.99 718.712 387Z" fill="white"/>
<path d="M718.712 394.99C718.902 395.51 719.082 396.02 719.262 396.54C718.832 396.2 718.402 395.86 717.972 395.52C717.532 395.81 717.102 396.1 716.662 396.39C716.842 395.89 717.032 395.4 717.212 394.9C716.762 394.56 716.322 394.23 715.882 393.88C716.412 393.93 716.952 393.98 717.492 394.01C717.642 393.51 717.782 393 717.932 392.49C718.102 393.01 718.262 393.53 718.422 394.05C718.422 394.05 718.422 394.05 718.432 394.05C718.972 394.08 719.502 394.09 720.042 394.11C719.602 394.41 719.152 394.69 718.702 394.97H718.712V394.99Z" fill="white"/>
<path d="M718.712 402.97C718.902 403.49 719.082 404.01 719.262 404.52C718.832 404.18 718.402 403.84 717.972 403.49C717.532 403.78 717.102 404.08 716.662 404.37C716.842 403.87 717.032 403.38 717.212 402.88C717.212 402.88 717.212 402.88 717.222 402.87H717.212C716.762 402.54 716.322 402.2 715.882 401.86C716.412 401.91 716.952 401.95 717.492 401.99C717.642 401.48 717.782 400.98 717.932 400.47C718.102 400.99 718.262 401.51 718.422 402.04H718.432C718.972 402.06 719.502 402.09 720.042 402.1C719.602 402.4 719.152 402.67 718.702 402.95L718.712 402.96V402.97Z" fill="white"/>
<path d="M718.712 410.96C718.902 411.49 719.082 412 719.262 412.52C718.832 412.18 718.402 411.84 717.972 411.5C717.532 411.8 717.102 412.09 716.662 412.38C716.842 411.89 717.032 411.39 717.212 410.89C717.212 410.89 717.215 410.887 717.222 410.88H717.212C716.762 410.55 716.322 410.21 715.882 409.86C716.412 409.92 716.952 409.96 717.492 409.99C717.642 409.49 717.782 408.99 717.932 408.49C718.102 409.01 718.262 409.53 718.422 410.05C718.422 410.05 718.422 410.05 718.432 410.05C718.972 410.07 719.502 410.09 720.042 410.11C719.602 410.4 719.152 410.68 718.702 410.96H718.712Z" fill="white"/>
<path d="M710.372 386.06C710.552 386.61 710.732 387.15 710.912 387.69C710.482 387.29 710.052 386.9 709.612 386.49C709.182 386.72 708.742 386.95 708.322 387.17C708.492 386.71 708.682 386.23 708.862 385.76C708.862 385.76 708.866 385.76 708.872 385.76C708.432 385.36 707.982 384.97 707.532 384.55C708.062 384.68 708.602 384.81 709.142 384.91C709.282 384.43 709.442 383.94 709.582 383.46C709.742 384.01 709.922 384.55 710.082 385.1C710.622 385.2 711.162 385.3 711.702 385.39C711.262 385.61 710.812 385.84 710.362 386.06C710.362 386.06 710.362 386.07 710.372 386.07V386.06Z" fill="white"/>
<path d="M710.372 394.05C710.552 394.6 710.732 395.14 710.912 395.68C710.482 395.28 710.052 394.89 709.612 394.48C709.182 394.71 708.742 394.94 708.322 395.17C708.492 394.7 708.682 394.23 708.862 393.76C708.862 393.76 708.862 393.76 708.872 393.76C708.432 393.35 707.982 392.95 707.532 392.55C708.062 392.67 708.602 392.8 709.142 392.91C709.282 392.42 709.442 391.94 709.582 391.46C709.742 392.01 709.922 392.55 710.082 393.09C710.622 393.19 711.162 393.29 711.702 393.37C711.262 393.59 710.812 393.82 710.362 394.04C710.362 394.04 710.362 394.04 710.372 394.04V394.05Z" fill="white"/>
<path d="M710.372 402.04C710.552 402.58 710.732 403.12 710.912 403.66C710.482 403.27 710.052 402.87 709.612 402.46C709.182 402.69 708.742 402.92 708.322 403.15C708.492 402.68 708.682 402.21 708.862 401.74C708.862 401.74 708.862 401.74 708.872 401.73C708.432 401.33 707.982 400.94 707.532 400.52C708.062 400.65 708.602 400.77 709.142 400.87C709.282 400.38 709.442 399.91 709.582 399.43C709.742 399.98 709.922 400.52 710.082 401.06C710.622 401.16 711.162 401.26 711.702 401.34C711.262 401.57 710.812 401.79 710.362 402.01C710.362 402.01 710.362 402.01 710.372 402.03V402.04Z" fill="white"/>
<path d="M710.372 410.02C710.552 410.56 710.732 411.11 710.912 411.64C710.482 411.25 710.052 410.85 709.612 410.44C709.182 410.68 708.742 410.9 708.322 411.12C708.492 410.65 708.682 410.19 708.862 409.72C708.862 409.72 708.866 409.717 708.872 409.71C708.432 409.31 707.982 408.91 707.532 408.5C708.062 408.63 708.602 408.75 709.142 408.86C709.282 408.37 709.442 407.9 709.582 407.41C709.742 407.96 709.922 408.5 710.082 409.05C710.622 409.16 711.162 409.25 711.702 409.34C711.262 409.57 710.812 409.8 710.362 410.02C710.362 410.02 710.362 410.02 710.372 410.03V410.02Z" fill="white"/>
<path d="M702.012 383.86C702.192 384.44 702.372 385.01 702.552 385.58C702.122 385.11 701.692 384.63 701.252 384.17C700.812 384.33 700.392 384.49 699.952 384.64C700.132 384.2 700.322 383.76 700.502 383.31H700.522C700.522 383.31 700.522 383.31 700.502 383.31C700.062 382.84 699.612 382.36 699.162 381.87C699.702 382.1 700.242 382.3 700.772 382.51C700.922 382.05 701.062 381.59 701.212 381.13C701.372 381.71 701.542 382.28 701.702 382.85C702.252 383.05 702.782 383.23 703.322 383.41C702.882 383.57 702.432 383.72 701.992 383.86H701.982C701.982 383.86 702.002 383.86 702.002 383.87L702.012 383.86Z" fill="white"/>
<path d="M702.012 391.85C702.192 392.41 702.372 392.99 702.552 393.56C702.122 393.09 701.692 392.63 701.252 392.15C700.812 392.31 700.392 392.47 699.952 392.61C700.132 392.17 700.322 391.73 700.502 391.29H700.522C700.522 391.29 700.522 391.29 700.502 391.29C700.062 390.82 699.612 390.34 699.162 389.86C699.702 390.08 700.242 390.29 700.772 390.5C700.922 390.04 701.062 389.58 701.212 389.12C701.372 389.69 701.542 390.26 701.702 390.83C702.252 391.03 702.782 391.2 703.322 391.38C702.882 391.54 702.432 391.69 701.992 391.84H701.982C701.982 391.84 702.002 391.84 702.002 391.86L702.012 391.85Z" fill="white"/>
<path d="M702.012 399.83C702.192 400.41 702.372 400.97 702.552 401.54C702.122 401.07 701.692 400.6 701.252 400.12C700.812 400.29 700.392 400.45 699.952 400.59C700.132 400.15 700.322 399.71 700.502 399.26C700.502 399.26 700.502 399.26 700.522 399.26H700.502C700.062 398.78 699.612 398.31 699.162 397.83C699.702 398.05 700.242 398.27 700.772 398.46C700.922 398 701.062 397.54 701.212 397.09C701.372 397.66 701.542 398.24 701.702 398.8C702.252 399 702.782 399.17 703.322 399.35C702.882 399.51 702.432 399.66 701.992 399.8H701.982C701.982 399.8 702.002 399.81 702.002 399.82L702.012 399.83Z" fill="white"/>
<path d="M702.012 407.81C702.192 408.39 702.372 408.95 702.552 409.53C702.122 409.07 701.692 408.6 701.252 408.11C700.812 408.28 700.392 408.43 699.952 408.58C700.132 408.14 700.322 407.7 700.502 407.26H700.522C700.522 407.26 700.522 407.26 700.502 407.26C700.062 406.78 699.612 406.31 699.162 405.82C699.702 406.05 700.242 406.25 700.772 406.46C700.922 406 701.062 405.54 701.212 405.08C701.372 405.64 701.542 406.22 701.702 406.79C702.252 406.99 702.782 407.17 703.322 407.34C702.882 407.5 702.432 407.65 701.992 407.8H701.982H702.002L702.012 407.81Z" fill="white"/>
<path d="M739.832 389.12C740.012 389.59 740.202 390.07 740.382 390.55C739.942 390.32 739.512 390.08 739.082 389.84H739.072C738.642 390.24 738.212 390.65 737.782 391.04C737.962 390.5 738.142 389.96 738.322 389.41C738.322 389.41 738.332 389.41 738.342 389.4L738.332 389.41C737.882 389.19 737.442 388.96 736.992 388.74C737.532 388.64 738.062 388.55 738.602 388.45C738.752 387.91 738.892 387.37 739.042 386.82C739.212 387.3 739.382 387.78 739.542 388.27C740.092 388.17 740.632 388.07 741.172 387.94C740.722 388.34 740.282 388.73 739.832 389.12C739.832 389.12 739.832 389.12 739.842 389.12H739.832Z" fill="white"/>
<path d="M739.832 397.12C740.012 397.59 740.202 398.07 740.382 398.54C739.942 398.31 739.512 398.07 739.082 397.83H739.072C738.642 398.23 738.212 398.64 737.782 399.03C737.962 398.49 738.142 397.95 738.322 397.41C738.322 397.39 738.332 397.39 738.342 397.39H738.332C737.882 397.17 737.442 396.95 736.992 396.73C737.532 396.63 738.062 396.54 738.602 396.44C738.752 395.9 738.892 395.35 739.042 394.82C739.212 395.3 739.382 395.79 739.542 396.27C740.092 396.16 740.632 396.06 741.172 395.95C740.722 396.34 740.282 396.73 739.832 397.12C739.832 397.12 739.832 397.12 739.842 397.13L739.832 397.12Z" fill="white"/>
<path d="M739.832 405.11C740.012 405.59 740.202 406.06 740.382 406.52C739.942 406.29 739.512 406.06 739.082 405.82H739.072C738.642 406.23 738.212 406.62 737.782 407.03C737.962 406.49 738.142 405.94 738.322 405.4C738.322 405.4 738.332 405.39 738.342 405.39H738.332C737.882 405.17 737.442 404.95 736.992 404.72C737.532 404.63 738.062 404.53 738.602 404.44C738.752 403.9 738.892 403.35 739.042 402.82C739.212 403.3 739.382 403.79 739.542 404.27C740.092 404.16 740.632 404.05 741.172 403.94C740.722 404.34 740.282 404.73 739.832 405.11C739.832 405.11 739.832 405.11 739.842 405.11H739.832Z" fill="white"/>
<path d="M739.832 413.11C740.012 413.58 740.202 414.06 740.382 414.53C739.942 414.3 739.512 414.06 739.082 413.83H739.072C738.642 414.23 738.212 414.62 737.782 415.02C737.962 414.48 738.142 413.94 738.322 413.4C738.322 413.39 738.332 413.39 738.342 413.38H738.332C737.882 413.17 737.442 412.94 736.992 412.72C737.532 412.62 738.062 412.53 738.602 412.43C738.752 411.89 738.892 411.34 739.042 410.8C739.212 411.28 739.382 411.76 739.542 412.25C740.092 412.14 740.632 412.04 741.172 411.92C740.722 412.31 740.282 412.7 739.832 413.09C739.832 413.09 739.832 413.09 739.842 413.09L739.832 413.11Z" fill="white"/>
<path d="M739.832 381.18C740.012 381.65 740.202 382.12 740.382 382.59C739.942 382.36 739.512 382.12 739.082 381.89H739.072C738.642 382.29 738.212 382.69 737.782 383.09C737.962 382.55 738.142 382 738.322 381.46C738.322 381.46 738.332 381.46 738.342 381.45H738.332C737.882 381.22 737.442 381.01 736.992 380.78C737.532 380.68 738.062 380.59 738.602 380.49C738.752 379.95 738.892 379.41 739.042 378.87C739.212 379.35 739.382 379.83 739.542 380.31C740.092 380.21 740.632 380.1 741.172 379.99C740.722 380.39 740.282 380.78 739.832 381.16C739.832 381.16 739.832 381.16 739.842 381.17L739.832 381.18Z" fill="white"/>
<path d="M731.522 390.45C731.692 390.94 731.882 391.43 732.072 391.92C731.632 391.66 731.202 391.39 730.762 391.11C730.322 391.49 729.892 391.84 729.472 392.2C729.652 391.68 729.832 391.15 730.012 390.62C730.012 390.62 730.015 390.616 730.022 390.61C729.582 390.36 729.132 390.1 728.682 389.83C729.222 389.79 729.762 389.73 730.292 389.68C730.432 389.15 730.582 388.62 730.732 388.09C730.892 388.58 731.062 389.07 731.222 389.57C731.762 389.51 732.302 389.45 732.842 389.37C732.392 389.72 731.952 390.08 731.512 390.44H731.522V390.45Z" fill="white"/>
<path d="M731.522 398.44C731.692 398.93 731.882 399.41 732.072 399.9C731.632 399.63 731.202 399.37 730.762 399.1C730.322 399.46 729.892 399.83 729.472 400.19C729.652 399.66 729.832 399.14 730.012 398.61C730.012 398.61 730.012 398.61 730.022 398.6C729.582 398.35 729.132 398.09 728.682 397.83C729.222 397.78 729.762 397.73 730.292 397.67C730.432 397.14 730.582 396.61 730.732 396.08C730.892 396.58 731.062 397.07 731.222 397.56C731.762 397.5 732.302 397.43 732.842 397.36C732.392 397.71 731.952 398.08 731.512 398.43C731.512 398.43 731.522 398.43 731.522 398.44Z" fill="white"/>
<path d="M731.522 406.43C731.692 406.92 731.882 407.41 732.072 407.89C731.632 407.62 731.202 407.35 730.762 407.08C730.322 407.45 729.892 407.82 729.472 408.18C729.652 407.66 729.832 407.13 730.012 406.6C730.012 406.6 730.015 406.593 730.022 406.58C729.582 406.32 729.132 406.06 728.682 405.81C729.222 405.76 729.762 405.71 730.292 405.66C730.432 405.13 730.582 404.59 730.732 404.07C730.892 404.56 731.062 405.05 731.222 405.54C731.762 405.48 732.302 405.41 732.842 405.34C732.392 405.71 731.952 406.07 731.512 406.42L731.522 406.43Z" fill="white"/>
<path d="M731.522 414.43C731.692 414.92 731.882 415.41 732.072 415.89C731.632 415.63 731.202 415.36 730.762 415.08C730.322 415.45 729.892 415.82 729.472 416.18C729.652 415.66 729.832 415.13 730.012 414.6C730.012 414.6 730.015 414.593 730.022 414.58C729.582 414.33 729.132 414.07 728.682 413.81C729.222 413.76 729.762 413.71 730.292 413.66C730.432 413.13 730.582 412.6 730.732 412.07C730.892 412.57 731.062 413.07 731.222 413.55C731.762 413.49 732.302 413.42 732.842 413.35C732.392 413.71 731.952 414.07 731.512 414.42H731.522V414.43Z" fill="white"/>
<path d="M731.522 382.49C731.692 382.98 731.882 383.47 732.072 383.95C731.632 383.69 731.202 383.42 730.762 383.15C730.322 383.52 729.892 383.89 729.472 384.24C729.652 383.71 729.832 383.2 730.012 382.66C730.012 382.66 730.015 382.653 730.022 382.64C729.582 382.39 729.132 382.13 728.682 381.86C729.222 381.82 729.762 381.77 730.292 381.71C730.432 381.18 730.582 380.65 730.732 380.12C730.892 380.62 731.062 381.11 731.222 381.6C731.762 381.54 732.302 381.47 732.842 381.4C732.392 381.75 731.952 382.11 731.512 382.47H731.522V382.49Z" fill="white"/>
<path d="M722.882 391.05C723.072 391.55 723.252 392.06 723.422 392.57C722.992 392.26 722.562 391.95 722.132 391.63H722.122C721.692 391.96 721.262 392.28 720.832 392.58C721.012 392.07 721.182 391.57 721.372 391.06C721.372 391.05 721.382 391.05 721.382 391.04C720.932 390.74 720.492 390.43 720.042 390.12C720.582 390.13 721.122 390.14 721.652 390.15C721.812 389.63 721.952 389.12 722.102 388.61C722.272 389.12 722.442 389.63 722.602 390.14C723.142 390.14 723.692 390.12 724.232 390.1C723.782 390.41 723.342 390.73 722.892 391.04L722.882 391.05Z" fill="white"/>
<path d="M722.882 399.05C723.072 399.55 723.252 400.05 723.422 400.56C722.992 400.25 722.562 399.93 722.132 399.61H722.122C721.692 399.94 721.262 400.25 720.832 400.57C721.012 400.07 721.182 399.56 721.372 399.05C721.372 399.05 721.382 399.04 721.382 399.03C720.932 398.73 720.492 398.43 720.042 398.11C720.582 398.13 721.122 398.13 721.652 398.13C721.812 397.62 721.952 397.11 722.102 396.6C722.272 397.11 722.442 397.62 722.602 398.13C723.142 398.13 723.692 398.11 724.232 398.09C723.782 398.41 723.342 398.72 722.892 399.03C722.892 399.03 722.892 399.04 722.902 399.05H722.882Z" fill="white"/>
<path d="M722.882 407.04C723.072 407.54 723.252 408.06 723.422 408.56C722.992 408.24 722.562 407.93 722.132 407.61H722.122C721.692 407.93 721.262 408.25 720.832 408.57C721.012 408.07 721.182 407.55 721.372 407.04C720.922 406.73 720.482 406.42 720.032 406.11C720.572 406.12 721.112 406.13 721.642 406.13C721.802 405.61 721.942 405.1 722.092 404.58C722.262 405.09 722.432 405.6 722.592 406.12C723.132 406.12 723.682 406.1 724.222 406.08C723.772 406.4 723.332 406.71 722.882 407.02C722.882 407.02 722.882 407.02 722.892 407.03L722.882 407.04Z" fill="white"/>
<path d="M722.882 415.03C723.072 415.53 723.252 416.04 723.422 416.55C722.992 416.23 722.562 415.93 722.132 415.61H722.122C721.692 415.93 721.262 416.25 720.832 416.57C721.012 416.06 721.182 415.55 721.372 415.04C721.372 415.04 721.382 415.04 721.382 415.03C720.932 414.73 720.492 414.42 720.042 414.11C720.582 414.13 721.122 414.14 721.652 414.14C721.812 413.62 721.952 413.11 722.102 412.6C722.272 413.11 722.442 413.62 722.602 414.14C723.142 414.14 723.692 414.11 724.232 414.09C723.782 414.4 723.342 414.71 722.892 415.03H722.882Z" fill="white"/>
<path d="M722.882 383.1C723.072 383.61 723.252 384.11 723.422 384.62C722.992 384.3 722.562 383.99 722.132 383.67H722.122C721.692 384 721.262 384.32 720.832 384.63C721.012 384.12 721.182 383.62 721.372 383.11C721.372 383.11 721.382 383.11 721.382 383.09C720.932 382.79 720.492 382.48 720.042 382.17C720.582 382.17 721.122 382.19 721.652 382.19C721.812 381.68 721.952 381.16 722.102 380.65C722.272 381.16 722.442 381.67 722.602 382.19C723.142 382.18 723.692 382.17 724.232 382.15C723.782 382.47 723.342 382.78 722.892 383.09L722.882 383.1Z" fill="white"/>
<path d="M714.443 390.65C714.623 391.19 714.803 391.71 714.983 392.24C714.553 391.87 714.123 391.51 713.683 391.13C713.243 391.4 712.823 391.66 712.383 391.91C712.563 391.43 712.753 390.94 712.933 390.46C712.933 390.46 712.943 390.46 712.943 390.45H712.933C712.493 390.08 712.053 389.72 711.603 389.34C712.133 389.43 712.673 389.51 713.203 389.59C713.353 389.09 713.493 388.6 713.643 388.1C713.813 388.64 713.983 389.16 714.143 389.69V389.71V389.7C714.683 389.77 715.233 389.82 715.773 389.87C715.323 390.13 714.883 390.39 714.433 390.64H714.453L714.443 390.65Z" fill="white"/>
<path d="M714.443 398.64C714.623 399.18 714.803 399.7 714.983 400.23C714.553 399.86 714.123 399.49 713.683 399.11C713.243 399.38 712.823 399.64 712.383 399.9C712.563 399.41 712.753 398.93 712.933 398.45H712.943C712.943 398.45 712.943 398.44 712.933 398.44C712.493 398.07 712.053 397.71 711.603 397.33C712.133 397.43 712.673 397.5 713.203 397.58C713.353 397.08 713.493 396.59 713.643 396.09C713.813 396.63 713.983 397.16 714.143 397.7C714.683 397.76 715.233 397.82 715.773 397.87C715.323 398.13 714.883 398.38 714.433 398.63H714.443V398.64Z" fill="white"/>
<path d="M714.443 406.64C714.623 407.17 714.803 407.7 714.983 408.23C714.553 407.86 714.123 407.5 713.683 407.11C713.243 407.38 712.823 407.65 712.383 407.9C712.563 407.42 712.753 406.93 712.933 406.45C712.493 406.08 712.053 405.72 711.603 405.34C712.133 405.43 712.673 405.51 713.203 405.58C713.353 405.09 713.493 404.59 713.643 404.1C713.813 404.63 713.983 405.17 714.143 405.7C714.683 405.77 715.233 405.82 715.773 405.87C715.323 406.13 714.883 406.39 714.433 406.64H714.443Z" fill="white"/>
<path d="M714.443 414.64C714.623 415.17 714.803 415.7 714.983 416.23C714.553 415.86 714.123 415.5 713.683 415.12C713.243 415.38 712.823 415.64 712.383 415.89C712.563 415.41 712.753 414.92 712.933 414.44H712.943C712.943 414.44 712.943 414.44 712.933 414.44C712.493 414.07 712.053 413.71 711.603 413.33C712.133 413.42 712.673 413.5 713.203 413.56C713.353 413.07 713.493 412.58 713.643 412.08C713.813 412.61 713.983 413.15 714.143 413.68C714.683 413.75 715.233 413.8 715.773 413.85C715.323 414.11 714.883 414.36 714.433 414.61C714.433 414.61 714.453 414.62 714.453 414.63L714.443 414.64Z" fill="white"/>
<path d="M714.443 382.7C714.623 383.23 714.803 383.76 714.983 384.29C714.553 383.92 714.123 383.56 713.683 383.18C713.243 383.45 712.823 383.71 712.383 383.96C712.563 383.48 712.753 383 712.933 382.51H712.943C712.943 382.51 712.943 382.51 712.933 382.51C712.493 382.14 712.053 381.78 711.603 381.4C712.133 381.49 712.673 381.57 713.203 381.64C713.353 381.14 713.493 380.65 713.643 380.15C713.813 380.68 713.983 381.22 714.143 381.76C714.683 381.82 715.233 381.87 715.773 381.92C715.323 382.18 714.883 382.44 714.433 382.69C714.433 382.69 714.453 382.69 714.453 382.7H714.443Z" fill="white"/>
<path d="M706.172 389.12C706.342 389.67 706.522 390.23 706.712 390.79C706.272 390.36 705.842 389.93 705.412 389.49C704.982 389.68 704.552 389.88 704.122 390.07C704.302 389.61 704.492 389.16 704.662 388.7H704.682C704.682 388.7 704.682 388.7 704.672 388.7C704.232 388.27 703.782 387.83 703.342 387.38C703.882 387.55 704.412 387.72 704.952 387.88C705.092 387.41 705.242 386.93 705.392 386.46C705.562 387.02 705.732 387.57 705.892 388.14C706.442 388.28 706.982 388.42 707.522 388.54C707.082 388.74 706.632 388.92 706.182 389.11H706.172C706.172 389.11 706.192 389.12 706.192 389.13L706.172 389.12Z" fill="white"/>
<path d="M706.172 397.11C706.342 397.67 706.522 398.22 706.712 398.77C706.272 398.34 705.842 397.9 705.412 397.46C704.982 397.66 704.552 397.86 704.122 398.04C704.302 397.59 704.492 397.13 704.662 396.67H704.682H704.672C704.232 396.24 703.782 395.8 703.342 395.36C703.882 395.53 704.412 395.69 704.952 395.85C705.092 395.38 705.242 394.9 705.392 394.43C705.562 394.99 705.732 395.55 705.892 396.11C706.442 396.25 706.982 396.39 707.522 396.52C707.082 396.72 706.632 396.9 706.182 397.09H706.172C706.172 397.09 706.192 397.1 706.192 397.11H706.172Z" fill="white"/>
<path d="M706.172 405.1C706.342 405.66 706.522 406.21 706.712 406.78C706.272 406.34 705.842 405.91 705.412 405.47C704.982 405.67 704.552 405.86 704.122 406.06C704.302 405.6 704.492 405.14 704.662 404.68C704.222 404.24 703.772 403.8 703.332 403.36C703.872 403.54 704.402 403.7 704.942 403.86C705.082 403.39 705.232 402.92 705.382 402.44C705.552 403 705.722 403.56 705.882 404.12C706.432 404.27 706.972 404.41 707.512 404.53C707.072 404.72 706.622 404.91 706.172 405.1H706.162H706.182H706.172Z" fill="white"/>
<path d="M706.172 413.1C706.342 413.65 706.522 414.21 706.712 414.77C706.272 414.34 705.842 413.9 705.412 413.46C704.982 413.66 704.552 413.85 704.122 414.04C704.302 413.59 704.492 413.13 704.662 412.68L704.682 412.67H704.672C704.232 412.24 703.782 411.8 703.342 411.36C703.882 411.53 704.412 411.7 704.952 411.85C705.092 411.38 705.242 410.91 705.392 410.43C705.562 411 705.732 411.56 705.892 412.12C706.442 412.26 706.982 412.4 707.522 412.53C707.082 412.72 706.632 412.91 706.182 413.09H706.172C706.172 413.09 706.192 413.1 706.192 413.11L706.172 413.1Z" fill="white"/>
<path d="M706.172 381.16C706.342 381.71 706.522 382.28 706.712 382.83C706.272 382.4 705.842 381.97 705.412 381.53C704.982 381.73 704.552 381.92 704.122 382.12C704.302 381.66 704.492 381.21 704.662 380.75H704.682H704.672C704.232 380.32 703.782 379.88 703.342 379.43C703.882 379.61 704.412 379.77 704.952 379.92C705.092 379.45 705.242 378.98 705.392 378.51C705.562 379.07 705.732 379.62 705.892 380.18C706.442 380.32 706.982 380.46 707.522 380.59C707.082 380.79 706.632 380.97 706.182 381.15H706.172C706.172 381.15 706.192 381.16 706.192 381.17L706.172 381.16Z" fill="white"/>
<path d="M697.772 386.18C697.942 386.76 698.122 387.35 698.312 387.94C697.872 387.44 697.442 386.93 697.012 386.41C696.582 386.53 696.142 386.65 695.702 386.76C695.892 386.34 696.072 385.91 696.252 385.49H696.272C695.822 384.97 695.362 384.45 694.922 383.92C695.462 384.2 696.002 384.46 696.532 384.71C696.682 384.26 696.822 383.82 696.972 383.37C697.132 383.95 697.302 384.54 697.472 385.13C698.012 385.39 698.562 385.61 699.102 385.84C698.662 385.95 698.202 386.06 697.762 386.17L697.782 386.19L697.772 386.18Z" fill="white"/>
<path d="M697.772 394.17C697.942 394.76 698.122 395.34 698.312 395.93C697.872 395.42 697.442 394.91 697.012 394.39C696.582 394.51 696.142 394.63 695.702 394.74C695.892 394.32 696.072 393.89 696.252 393.47H696.272C695.822 392.95 695.362 392.44 694.922 391.91C695.462 392.18 696.002 392.44 696.532 392.7C696.682 392.25 696.822 391.81 696.972 391.36C697.132 391.94 697.302 392.54 697.472 393.13C698.012 393.37 698.562 393.6 699.102 393.83C698.662 393.94 698.202 394.06 697.762 394.16C697.762 394.16 697.782 394.16 697.782 394.18L697.772 394.17Z" fill="white"/>
<path d="M697.772 402.16C697.942 402.76 698.122 403.34 698.312 403.93C697.872 403.43 697.442 402.91 697.012 402.4V402.38C696.582 402.5 696.142 402.62 695.702 402.74C695.892 402.31 696.072 401.89 696.252 401.46H696.262C695.812 400.94 695.352 400.42 694.912 399.89C695.452 400.16 695.992 400.42 696.522 400.67C696.672 400.23 696.812 399.78 696.962 399.34C697.122 399.92 697.292 400.51 697.462 401.1C698.002 401.35 698.552 401.58 699.092 401.8C698.652 401.91 698.192 402.03 697.752 402.14H697.772V402.16Z" fill="white"/>
<path d="M697.772 410.16C697.942 410.75 698.122 411.34 698.312 411.93C697.872 411.42 697.442 410.9 697.012 410.39C696.582 410.51 696.142 410.62 695.702 410.73C695.892 410.31 696.072 409.89 696.252 409.46H696.272C696.272 409.46 696.272 409.46 696.272 409.45C695.822 408.94 695.362 408.42 694.922 407.9C695.462 408.16 696.002 408.43 696.532 408.68C696.682 408.23 696.822 407.79 696.972 407.34C697.132 407.93 697.302 408.52 697.472 409.11C698.012 409.34 698.562 409.58 699.102 409.8C698.662 409.91 698.202 410.03 697.762 410.13C697.762 410.13 697.782 410.13 697.782 410.14L697.772 410.16Z" fill="white"/>
<path d="M697.772 378.22C697.942 378.81 698.122 379.41 698.312 379.99C697.872 379.48 697.442 378.98 697.012 378.46C696.582 378.59 696.142 378.7 695.702 378.81C695.892 378.39 696.072 377.96 696.252 377.54H696.272C695.822 377.02 695.362 376.51 694.922 375.98C695.462 376.25 696.002 376.51 696.532 376.76C696.682 376.32 696.822 375.88 696.972 375.42C697.132 376.01 697.302 376.61 697.472 377.19C698.012 377.44 698.562 377.67 699.102 377.89C698.662 378.01 698.202 378.12 697.762 378.22H697.782H697.772Z" fill="white"/>
<path style="mix-blend-mode:multiply" d="M829.942 399.35V427.48C829.942 427.48 829.902 427.48 829.902 427.44V455.41C784.302 430.44 738.702 480.49 693.142 455.45V371.86C738.692 396.94 784.292 346.85 829.902 371.82V399.31L829.942 399.35Z" fill="url(#paint0_linear_78_1545)"/>
<path style="mix-blend-mode:overlay" opacity="0.25" d="M829.942 399.35V427.48C829.942 427.48 829.902 427.48 829.902 427.44V455.41C784.302 430.44 738.702 480.49 693.142 455.45V371.86C738.692 396.94 784.292 346.85 829.902 371.82V399.31L829.942 399.35Z" fill="url(#paint1_linear_78_1545)"/>
<defs>
<linearGradient id="paint0_linear_78_1545" x1="693.142" y1="413.66" x2="829.942" y2="413.66" gradientUnits="userSpaceOnUse">
<stop stop-color="white"/>
<stop offset="0.13" stop-color="#F6F6F6"/>
<stop offset="0.34" stop-color="#DFE0E0"/>
<stop offset="0.54" stop-color="#C4C5C6"/>
<stop offset="0.57" stop-color="#C1C2C3"/>
<stop offset="0.69" stop-color="#BEBFC0"/>
<stop offset="0.91" stop-color="white"/>
</linearGradient>
<linearGradient id="paint1_linear_78_1545" x1="693.142" y1="413.66" x2="829.942" y2="413.66" gradientUnits="userSpaceOnUse">
<stop stop-color="white"/>
<stop offset="0.13" stop-color="#F6F6F6"/>
<stop offset="0.34" stop-color="#DFE0E0"/>
<stop offset="0.54" stop-color="#C4C5C6"/>
<stop offset="0.57" stop-color="#C1C2C3"/>
<stop offset="0.69" stop-color="#BEBFC0"/>
<stop offset="0.91" stop-color="white"/>
</linearGradient>
</defs>
</svg>
