<svg width="300" height="133" viewbox="0 0 300 133" fill="none" xmlns="http://www.w3.org/2000/svg">
    <path fill-rule="evenodd" clip-rule="evenodd" d="M232.609 0.419186C232.352 0.728459 231.823 0.981467 231.433 0.981467C231.043 0.981467 230.724 1.15555 230.724 1.36853C230.724 1.58113 230.297 1.9176 229.776 2.11623C229.254 2.31448 228.632 2.90508 228.393 3.42847C228.155 3.95185 227.732 4.38008 227.454 4.38008C227.176 4.38008 226.948 4.55115 226.948 4.76035C226.948 4.96917 226.523 5.50955 226.004 5.96119C225.485 6.41245 225.06 7.00645 225.06 7.28023C225.06 7.55438 224.832 7.77869 224.554 7.77869C224.276 7.77869 223.852 8.16085 223.613 8.62835C223.373 9.09585 223.018 9.7329 222.824 10.0444C222.629 10.356 222.098 11.4269 221.645 12.4242C220.796 14.2882 220.217 14.6888 220.876 12.9555C221.278 11.8986 221.077 9.64906 220.447 8.15632C219.418 5.71498 219.209 5.28638 218.79 4.7577C218.543 4.44616 218.278 3.85141 218.202 3.43602C218.126 3.02063 217.852 2.68077 217.593 2.68077C217.335 2.68077 216.787 2.12831 216.377 1.4535C215.607 0.188835 215.035 -0.0970246 214.783 0.657845C214.677 0.976937 214.413 0.969004 213.775 0.627254C212.74 0.0732803 212.304 0.36103 212.968 1.16121C213.335 1.60303 213.343 1.86057 213.004 2.26954C212.681 2.65887 212.675 2.8726 212.983 3.06293C213.215 3.20642 213.311 3.56781 213.197 3.86614C213.082 4.16446 213.241 4.50545 213.549 4.62365C213.857 4.74185 214.109 5.15006 214.109 5.53108C214.109 5.9121 214.285 6.33277 214.502 6.46645C214.718 6.60013 214.796 7.0208 214.675 7.40107C214.554 7.78134 214.618 8.19295 214.816 8.3153C215.014 8.43765 215.295 9.24199 215.44 10.1022C215.586 10.9628 215.942 12.2365 216.233 12.9325C217.062 14.9162 216.362 14.4366 213.969 11.3808C210.651 7.14542 206.026 4.00246 203.11 4.00246C201.666 4.00246 201.729 4.5636 203.22 4.99107C204.107 5.24559 204.527 5.66476 204.847 6.61561C205.089 7.33536 205.641 8.03132 206.106 8.20352C206.562 8.37194 206.934 8.79375 206.934 9.14116C206.934 9.4882 207.231 9.99799 207.595 10.274C207.998 10.5803 208.072 10.7804 207.784 10.7876C206.832 10.8118 207.348 11.5085 208.633 11.9326C210.608 12.5843 210.237 13.016 207.595 13.1417C205.401 13.2463 205.241 13.3139 205.324 14.1039C205.374 14.5714 205.247 14.9535 205.041 14.9535C204.836 14.9535 204.668 15.1371 204.668 15.361C204.668 15.6178 205.088 15.6767 205.801 15.52C206.482 15.3704 206.934 15.4248 206.934 15.6567C206.934 16.4089 206.212 16.4606 203.544 15.8995C199.919 15.1371 195.761 15.1359 195.468 15.8976C195.349 16.2091 194.831 16.464 194.317 16.464C193.803 16.464 193.155 16.7892 192.876 17.1864C192.598 17.5837 191.739 18.2098 190.967 18.578C190.134 18.9749 189.563 19.5171 189.563 19.9102C189.563 20.275 189.393 20.6783 189.186 20.8067C188.275 21.369 188.963 21.6692 190.895 21.5525C192.357 21.4642 192.952 21.5601 192.88 21.872C192.824 22.1167 192.878 22.3172 193.001 22.3172C193.123 22.3172 193.462 22.4988 193.753 22.7205C194.045 22.9425 194.921 23.1125 195.7 23.0981C196.579 23.0823 197.116 23.2477 197.116 23.535C197.116 24.1317 198.946 23.8292 201.392 22.8285C204.17 21.6919 205.34 22.0332 203.126 23.3349C201.565 24.2525 198.626 27.3071 198.626 28.0121C198.626 28.1666 198.133 29.0725 197.531 30.0253C196.405 31.8058 195.609 34.9676 196.287 34.9676C196.491 34.9676 196.754 34.7157 196.872 34.4076C196.99 34.0994 197.329 33.9405 197.625 34.0541C197.971 34.1867 198.347 33.8472 198.674 33.107C199.003 32.3658 199.389 32.0172 199.755 32.132C200.124 32.248 200.629 31.7805 201.186 30.8069C201.66 29.9799 202.279 29.3032 202.562 29.3032C202.845 29.3032 203.173 29.0514 203.292 28.7432C203.41 28.4351 203.746 28.275 204.039 28.3871C204.331 28.4997 204.672 28.3267 204.797 28.0031C204.92 27.6798 205.25 27.4151 205.529 27.4151C205.808 27.4151 206.429 27.0496 206.908 26.6029C207.387 26.1561 208.205 25.7441 208.726 25.6871C209.246 25.6297 209.855 25.4005 210.078 25.1773C210.647 24.6083 211.088 24.6728 211.088 25.325C211.088 25.629 210.743 26.0625 210.322 26.2879C209.322 26.823 205.423 30.7873 205.423 31.2692C205.423 31.4738 205.088 32.1124 204.678 32.6879C203.43 34.4416 201.18 38.8533 200.82 40.2543C200.267 42.4125 200.071 45.9187 200.504 45.9187C200.717 45.9187 200.892 45.7673 200.892 45.5818C200.892 45.3968 201.323 45.137 201.849 45.0048C202.394 44.8681 202.964 44.3515 203.172 43.8055C203.372 43.278 203.961 42.2893 204.48 41.6089C204.999 40.9284 205.423 40.0904 205.423 39.7468C205.423 38.9398 205.778 38.9527 206.408 39.7823C206.873 40.3944 206.911 40.3805 206.922 39.5935C206.929 39.126 207.084 38.7438 207.267 38.7438C207.451 38.7438 207.69 38.4032 207.799 37.9871C207.931 37.4822 208.197 37.307 208.598 37.461C209.024 37.6242 209.2 37.4728 209.2 36.9422C209.2 36.5302 209.454 35.9815 209.766 35.7228C210.078 35.4642 210.332 34.7637 210.332 34.1663C210.332 33.5685 210.502 33.0795 210.71 33.0795C210.918 33.0795 211.088 33.2494 211.088 33.4571C211.088 34.4102 211.804 33.6893 212.119 32.4186C212.313 31.6385 212.677 31.0475 212.929 31.1026C213.181 31.1578 213.64 30.5985 213.948 29.8602C214.257 29.1216 214.661 28.6114 214.847 28.7259C215.032 28.8407 215.555 28.4128 216.009 27.7754C216.463 27.138 216.917 26.6988 217.018 26.7996C217.184 26.9661 214.879 36.1194 214.104 38.3662C213.925 38.8854 213.157 41.6043 212.397 44.4082C211.637 47.212 210.796 50.1858 210.528 51.0166C210.26 51.8474 209.756 53.5467 209.408 54.7928C208.646 57.52 206.727 63.8196 205.784 66.688L205.102 68.7649L202.479 68.8748C200.107 68.9745 199.836 68.9111 199.654 68.214C199.488 67.5811 199.146 67.4432 197.74 67.4432C196.798 67.4432 195.922 67.2733 195.794 67.0656C195.65 66.8326 196.302 66.688 197.497 66.688C199.29 66.688 199.425 66.6245 199.313 65.8383C199.198 65.0257 199.019 64.9845 195.228 64.8954C191.076 64.7976 189.564 64.5937 189.562 64.1319C189.562 63.98 191.686 63.9079 194.283 63.9717C199 64.0877 199.259 64.0174 198.775 62.7539C198.567 62.2132 193.674 62.1565 147.229 62.1565H95.9125V63.1006V64.0446H99.953C105.117 64.0446 104.743 64.7277 99.4957 64.8796C95.9098 64.9834 95.7176 65.0306 95.6028 65.8383C95.4929 66.6132 95.6345 66.688 97.2077 66.688C98.1571 66.688 98.9335 66.8579 98.9335 67.0656C98.9335 67.2733 98.1529 67.4432 97.1987 67.4432C95.7818 67.4432 95.428 67.5815 95.2667 68.1985C94.9057 69.5783 88.4552 69.3219 88.147 67.9153C88.0216 67.3443 87.8472 66.6468 87.7588 66.3659C87.3619 65.1012 81.1851 34.5288 81.1851 33.8291C81.1851 33.0746 81.7708 33.49 82.2576 34.59C82.5333 35.2131 82.9864 35.7228 83.2643 35.7228C83.5426 35.7228 83.9728 36.338 84.2209 37.0898C84.5415 38.0607 84.7628 38.31 84.9852 37.9501C85.3447 37.3685 85.595 37.8496 85.7925 39.4991C85.8677 40.1233 86.1267 40.4258 86.5576 40.3922C87.0157 40.3563 87.2807 40.7222 87.4499 41.6236C87.5821 42.329 87.8411 42.9993 88.025 43.1129C88.2093 43.2266 88.36 43.668 88.36 44.0933C88.36 44.5944 88.5428 44.7964 88.8796 44.6672C89.4056 44.4652 90.2481 45.8277 90.2481 46.8805C90.2481 47.547 90.6941 47.5874 91.3055 46.976C91.6578 46.6237 91.7586 46.7075 91.7586 47.3537C91.7586 47.8106 91.9285 48.1844 92.1362 48.1844C92.3439 48.1844 92.5139 48.4393 92.5139 48.7509C92.5139 49.0624 92.6566 49.3173 92.8311 49.3173C93.0055 49.3173 93.3696 49.9876 93.6395 50.8066C93.9809 51.8406 94.49 52.4701 95.3049 52.8666L96.4789 53.4372L96.73 52.0381C97.2519 49.1307 96.6352 47.0572 93.4341 40.9541C92.9281 39.9889 92.5139 38.9481 92.5139 38.6411C92.5139 38.3345 91.7492 37.3425 90.8146 36.4369C89.8799 35.531 89.1152 34.6036 89.1152 34.3762C89.1152 34.1485 88.6904 33.735 88.1712 33.4571C87.6508 33.1784 87.2271 32.6154 87.2271 32.2019C87.2271 31.4633 87.2392 31.4629 88.0232 32.1713C88.4608 32.567 89.1066 32.8435 89.4574 32.7853C89.8086 32.7275 90.4996 33.1097 90.9932 33.635C91.4867 34.1602 92.1094 34.59 92.3775 34.59C92.6457 34.59 93.0467 34.9298 93.2691 35.3452C93.4915 35.7606 93.9277 36.1005 94.2385 36.1005C94.5489 36.1005 94.9012 36.3554 95.0205 36.6669C95.1402 36.9784 95.4563 37.2333 95.7229 37.2333C95.9899 37.2333 96.4865 37.9293 96.8271 38.7797C97.2557 39.8514 97.6152 40.2615 97.9977 40.1146C98.3515 39.979 98.7582 40.3053 99.1291 41.0224C99.4474 41.6383 99.9406 42.1425 100.225 42.1425C100.509 42.1425 100.839 42.3973 100.958 42.7089C101.264 43.5064 102.05 43.4184 101.801 42.6145C101.689 42.2512 101.517 41.3589 101.419 40.632C101.087 38.1706 97.9649 32.9715 95.8751 31.3994C93.8174 29.8516 94.5715 29.2859 96.9234 30.6136C98.699 31.6158 100.632 32.0554 101.383 31.6271C101.587 31.5101 102.272 31.4591 102.905 31.5135C104.417 31.6438 106.237 30.9497 105.884 30.378C105.685 30.057 106.182 29.9996 107.749 30.1612C109.703 30.3629 110.454 30.0774 109.507 29.4921C109.299 29.3637 109.129 28.9324 109.129 28.5333C109.129 28.0714 108.598 27.5375 107.667 27.0624C106.863 26.652 106.114 25.9688 106.003 25.544C105.884 25.0875 105.489 24.7718 105.038 24.7718C104.618 24.7718 103.975 24.4742 103.608 24.1109C103.042 23.5486 102.289 23.4603 98.5585 23.5192L94.1739 23.5879L94.1935 22.3995C94.2173 20.9498 93.0954 20.2542 90.7201 20.2459C88.6912 20.2388 88.6311 19.6331 90.6257 19.2962C92.0097 19.0625 92.7718 18.3635 91.6642 18.3438C91.4048 18.3393 91.6 18.0217 92.0981 17.6388C92.7714 17.1211 92.8684 16.8942 92.4757 16.7548C92.1434 16.6366 92.4663 16.3149 93.3473 15.887C94.3095 15.4195 94.8189 14.8799 94.9767 14.1609C95.1451 13.3932 95.5012 13.0499 96.3146 12.8713C97.8893 12.5254 97.688 11.9326 95.9963 11.9326C93.4092 11.9326 89.4834 14.1802 86.1347 17.5788C84.4878 19.2501 83.0404 20.6179 82.9181 20.6179C82.417 20.6179 82.7455 19.5568 83.4418 18.9265C83.8523 18.5553 84.0928 18.0965 83.9758 17.9077C83.8591 17.7185 83.9509 17.3379 84.1801 17.0618C84.4093 16.7858 84.4992 16.3054 84.3798 15.9943C84.2537 15.6657 84.4255 15.3278 84.7899 15.188C85.146 15.0513 85.3258 14.7085 85.2057 14.3958C84.9663 13.7716 85.7906 11.9828 86.5414 11.4983C86.9496 11.2347 86.9458 11.1176 86.521 10.8439C86.1022 10.5739 86.1384 10.4311 86.7098 10.0954C87.3023 9.74724 87.3287 9.62339 86.8737 9.32506C86.4209 9.0275 86.4141 8.86965 86.8333 8.36477C87.4975 7.5642 87.1112 7.23416 86.1267 7.76132C85.6033 8.04152 85.339 8.05172 85.339 7.79191C85.339 7.11408 84.5804 7.36595 83.6729 8.34513C83.1915 8.86436 82.6439 9.28919 82.4555 9.28919C82.2674 9.28919 81.6923 10.0962 81.1772 11.0829C80.6625 12.0693 80.1561 12.9616 80.0523 13.0658C79.3231 13.7958 78.5765 15.9052 78.7718 16.6827C78.9183 17.2657 78.8386 17.5969 78.5527 17.5969C78.2506 17.5969 78.1853 17.9674 78.353 18.7298C78.5097 19.4424 78.4508 19.8627 78.194 19.8627C77.9701 19.8627 77.7865 19.448 77.7865 18.9409C77.7865 18.4337 77.6166 17.9141 77.4089 17.7857C77.2012 17.6573 77.0313 17.2435 77.0313 16.8655C77.0313 16.4878 76.7764 15.9675 76.4649 15.7088C76.1533 15.4501 75.8984 14.9196 75.8984 14.5299C75.8984 14.1398 75.6435 13.8207 75.332 13.8207C75.0204 13.8207 74.7655 13.6855 74.7655 13.5197C74.7655 13.1579 73.8158 11.8684 72.4167 10.3303C71.8522 9.70911 71.2884 8.88098 71.1641 8.49014C71.0399 8.09892 70.6895 7.77869 70.3855 7.77869C70.0815 7.77869 69.7348 7.5238 69.6155 7.21226C69.4958 6.90072 69.0849 6.64582 68.702 6.64582C68.3191 6.64582 67.8403 6.34976 67.6379 5.988C67.4355 5.62624 67.1326 5.46726 66.9653 5.63492C66.7977 5.80221 66.945 6.43436 67.292 7.03931C67.6549 7.67145 67.7723 8.23298 67.5684 8.3591C66.999 8.71067 67.1583 10.2842 67.8188 10.8322C68.1518 11.109 68.5793 11.6818 68.7685 12.1059C68.9577 12.53 69.4373 13.3864 69.8345 14.0095C70.2314 14.6326 70.569 15.5982 70.5841 16.1551C70.6026 16.83 70.9893 17.4368 71.7446 17.9745C72.3676 18.4182 72.8774 19.0062 72.8774 19.2815C72.8774 19.5568 73.1323 19.8796 73.4439 19.9994C73.7554 20.1187 74.0103 20.5533 74.0103 20.9649C74.0103 21.3765 74.2229 21.849 74.4823 22.0151C74.9638 22.3232 75.8984 23.8032 75.8984 24.2578C75.8984 24.396 74.9679 23.5962 73.8305 22.4807C70.1729 18.8933 68.0623 17.7076 65.4718 17.7846C60.8097 17.9232 60.6998 17.9417 60.9302 18.541C61.0967 18.9749 60.8516 19.1074 59.883 19.1074C58.6214 19.1074 52.4857 21.9343 52.4857 22.5155C52.4857 22.6786 53.1655 22.7205 53.9962 22.6091C55.7684 22.3716 55.87 22.6076 54.5023 23.7839C52.4299 25.5667 53.9117 25.7434 57.3299 24.1211C58.3027 23.6597 58.6644 23.6264 58.8819 23.9787C59.093 24.3201 59.5307 24.2223 60.5918 23.5962L62.0181 22.7549L61.7326 23.6691C61.5755 24.1717 61.2625 24.7012 61.0367 24.8458C60.2663 25.339 61.1654 25.6509 62.1136 25.2189C62.8904 24.8647 63.0592 24.8877 63.0592 25.3461C63.0592 26.0534 63.2371 26.0478 65.4107 25.2687C67.1761 24.6358 68.3943 24.8586 67.1077 25.5784C66.7414 25.7834 66.5454 26.1187 66.6723 26.3238C66.8173 26.5587 67.1107 26.5239 67.4642 26.2305C67.9136 25.8578 68.0907 25.8691 68.3497 26.2887C68.7995 27.0164 68.5517 27.2796 67.153 27.5594C65.0927 27.9714 60.0382 31.6453 60.0382 32.7309C60.0382 33.0036 59.5764 33.709 59.0118 34.2985C57.8926 35.4664 57.4379 38.0743 58.1947 38.9863C58.4243 39.2631 58.5043 39.771 58.3721 40.1154C58.24 40.4594 58.3789 41.0141 58.6807 41.3475C59.2116 41.934 59.283 42.1156 59.283 42.8777C59.283 43.0744 59.9627 43.2081 60.7935 43.1752C61.722 43.1379 62.304 42.9321 62.304 42.6405C62.304 42.3796 62.5415 42.2572 62.8315 42.3686C63.2223 42.5186 63.4274 42.0733 63.6234 40.6493C63.8288 39.1547 64.0263 38.7503 64.5119 38.8299C64.9122 38.896 65.1796 38.6279 65.257 38.083C65.3231 37.6155 65.5712 37.2333 65.8075 37.2333C66.0443 37.2333 67.036 36.3962 68.0121 35.3732C69.799 33.4994 72.8827 31.569 74.0888 31.569C74.7772 31.569 73.2486 34.2535 71.9436 35.3369C71.6264 35.6001 71.3669 36.102 71.3669 36.452C71.3669 36.8025 71.1173 37.4188 70.8126 37.8221C70.5075 38.225 70.2526 38.8817 70.2461 39.2804C70.2393 39.6796 69.9433 40.3272 69.5883 40.7196C69.094 41.2656 69.0528 41.5016 69.4123 41.7237C69.6706 41.8834 69.773 42.2976 69.6401 42.6447C69.4735 43.0782 69.5947 43.2753 70.0271 43.2753C70.373 43.2753 70.5467 43.4528 70.4127 43.6696C70.2786 43.8863 70.3677 44.3028 70.6105 44.5955C70.853 44.8878 70.9413 45.4754 70.8062 45.9006C70.6256 46.47 70.7276 46.6739 71.1936 46.6739C71.6989 46.6739 71.771 46.8835 71.5523 47.7124C71.0833 49.4884 71.1392 49.8902 71.839 49.7727C72.3612 49.6851 72.4998 49.9328 72.4998 50.9562C72.4998 51.9327 72.6852 52.2986 73.255 52.4478C73.6704 52.5562 74.0156 52.9584 74.0224 53.3413C74.0583 55.4193 75.4437 55.7732 75.5808 53.7393C75.6548 52.637 75.807 52.3783 76.2904 52.5316C76.7658 52.6827 76.9055 52.4686 76.9055 51.5883C76.9055 50.173 77.347 49.6779 77.8337 50.5476C78.4938 51.7277 78.8775 51.2432 78.8329 49.2856C78.8057 48.0912 78.9719 47.2525 79.2725 47.0667C79.5534 46.893 79.6561 46.4545 79.5172 46.0176C78.7453 43.5854 78.8933 41.5201 79.8721 41.0745C81.0488 40.5383 80.8702 40.0191 82.1247 47.618C83.3338 54.9428 83.9705 58.3659 85.1747 64.0159C85.6804 66.3889 86.0943 68.4704 86.0943 68.6418C86.0943 68.8133 78.9998 68.9568 70.3285 68.9602C55.6752 68.9662 54.3629 69.021 51.7305 69.7335C46.2674 71.2131 39.0801 73.0872 26.1465 76.4046C22.5946 77.3155 23.539 78.0167 28.3178 78.0167C29.5119 78.0167 31.0201 78.1228 31.6692 78.2527L32.8493 78.4887V89.015V99.5413L31.9997 99.542C30.4982 99.5431 0.361965 105.832 0.0141737 106.217C-0.0998686 106.342 0.486959 106.338 1.31773 106.207C2.1485 106.076 8.7758 105.196 16.0451 104.251C23.3143 103.307 30.9612 102.293 33.0381 101.998C49.1147 99.7157 69.9252 97.7324 84.3949 97.1037C87.095 96.9866 93.1275 96.7234 97.8006 96.5191C138.071 94.7598 160.289 94.9754 197.116 97.4825C213.041 98.5662 230.532 100.383 242.581 102.204C247.718 102.98 271.57 105.97 278.305 106.681C280.486 106.911 285.413 107.434 289.256 107.841C299.846 108.966 300.458 109.012 299.829 108.637C298.282 107.712 287.999 105.419 273.396 102.742C268.709 101.882 254.815 100.014 246.773 99.161C242.619 98.7207 236.247 98.033 232.612 97.6328C213.523 95.5301 194.471 93.8131 184.654 93.3101C182.058 93.1772 176.45 92.8211 172.192 92.519C153.549 91.1954 100.615 92.6032 71.7446 95.1899C66.2407 95.6831 59.3585 96.2843 56.4508 96.5259C53.5431 96.7672 48.4452 97.3004 45.1221 97.7109C41.799 98.121 38.1882 98.5545 37.0976 98.6742L35.1151 98.8917V88.7374V78.5831L100.727 78.6047C163.361 78.6251 191.937 78.4615 235.35 77.8336L254.892 77.5511L254.907 78.4449C254.915 78.9362 254.957 83.7566 255.001 89.1566L255.081 98.9748H256.214H257.347L257.447 88.3069L257.547 77.6391H260.971C263.178 77.6391 264.349 77.4994 264.264 77.2456C264.105 76.7687 254.112 72.389 245.825 69.1648L242.61 67.9141L225.255 68.4137C215.71 68.6886 207.837 68.8495 207.759 68.7717C207.628 68.6403 209.211 62.7879 209.957 60.646C210.57 58.887 215.165 41.2297 216.367 36.0114C217.024 33.1588 217.726 30.7227 217.927 30.5989C218.304 30.3659 218.072 31.7072 217.437 33.4258C217.064 34.4367 217.608 35.0503 218.555 34.6867C218.95 34.5352 219.051 34.6776 218.913 35.1938C217.978 38.6891 217.831 39.561 218.078 40.1467C218.557 41.2834 218.613 42.5412 218.23 43.5502C217.756 44.7964 218.067 45.0796 218.991 44.2432C219.703 43.5993 219.733 43.6205 219.98 44.938C220.127 45.7227 220.456 46.2963 220.759 46.2963C221.107 46.2963 221.284 46.7419 221.284 47.618C221.284 48.3449 221.456 48.9397 221.667 48.9397C221.878 48.9397 222.334 48.3449 222.681 47.618C223.028 46.8911 223.535 46.2963 223.808 46.2963C224.081 46.2963 224.305 45.9704 224.305 45.572C224.305 44.4173 224.717 43.6529 225.339 43.6529C225.792 43.6529 225.872 43.3327 225.712 42.1425C225.559 41.0009 225.639 40.632 226.04 40.632C226.354 40.632 226.57 40.2468 226.57 39.6879C226.57 39.1687 226.752 38.7438 226.973 38.7438C227.205 38.7438 227.274 38.4217 227.137 37.9886C226.962 37.4388 227.069 37.2333 227.529 37.2333C227.911 37.2333 228.083 37.0275 227.962 36.713C227.852 36.4267 227.935 36.02 228.145 35.8093C228.405 35.5499 228.324 35.113 227.895 34.4582C227.546 33.9257 227.375 33.3053 227.514 33.0795C227.654 32.8537 227.499 32.2574 227.169 31.7544C226.84 31.2518 226.57 30.586 226.57 30.2752C226.57 29.9645 226.252 29.4063 225.862 29.0348C225.472 28.6632 225.029 27.9344 224.878 27.4151C224.726 26.8959 224.237 26.1777 223.792 25.8185C223.104 25.2634 223.08 25.1649 223.63 25.1577C224.457 25.1471 227.703 26.9423 228.503 27.8528C228.839 28.2349 229.306 28.548 229.541 28.548C229.776 28.548 229.969 28.7202 229.969 28.9309C229.969 29.6046 231.651 31.9372 232.14 31.9421C232.4 31.9443 232.612 32.2865 232.612 32.7019C232.612 33.1172 232.848 33.4571 233.135 33.4571C233.71 33.4571 234.11 34.5794 234.117 36.2202C234.122 37.1102 234.246 37.2451 234.876 37.0453C235.433 36.8682 235.574 36.9482 235.419 37.3527C235.258 37.7722 235.565 37.904 236.743 37.9202C238.016 37.9376 238.277 37.8168 238.277 37.2096C238.277 36.8074 238.532 36.4781 238.843 36.4781C239.239 36.4781 239.409 36.0793 239.409 35.1564C239.409 34.4295 239.585 33.8347 239.8 33.8347C240.941 33.8347 239.311 28.2266 238.157 28.1821C237.987 28.1757 237.947 27.8588 238.068 27.4778C238.551 25.9556 231.86 21.3969 229.119 21.3815C228.341 21.3769 227.703 21.227 227.703 21.048C227.703 20.8694 228.298 20.7705 229.025 20.8279C229.752 20.8856 230.347 20.7739 230.347 20.5794C230.347 20.3849 230.78 20.3347 231.309 20.4676C232.196 20.69 232.252 20.6307 232.024 19.7195C231.716 18.493 231.918 18.4873 233.664 19.6738C235.252 20.7527 236.011 20.872 236.011 20.0428C236.011 19.5281 236.103 19.5281 236.891 20.0439C238.535 21.1213 238.201 19.0451 236.526 17.7767C235.206 16.7767 236.572 17.2189 238.258 18.3374C239.386 19.0859 240.081 19.3336 240.373 19.0912C240.662 18.8514 241.404 19.0466 242.583 19.6738C245.188 21.0586 246.244 20.4601 244.13 18.7974C243.611 18.3888 243.186 17.9791 243.186 17.8865C243.186 17.6237 245.262 17.8129 245.76 18.1207C246.006 18.2725 246.207 18.2464 246.207 18.0625C246.207 17.5603 244.617 16.2065 243.703 15.9297C243.26 15.796 242.512 15.3516 242.04 14.9422C241.44 14.4222 240.631 14.1983 239.352 14.1983C238.345 14.1983 237.521 14.0284 237.521 13.8207C237.521 13.613 237.776 13.443 238.088 13.443C238.399 13.443 238.654 13.2928 238.654 13.1092C238.654 12.7308 233.804 12.1259 233.467 12.4624C233.347 12.5828 233.023 12.4948 232.749 12.2667C232.101 11.7294 228.871 13.505 225.343 16.3379C222.645 18.5047 221.915 18.5625 224.089 16.4372C224.801 15.7409 225.298 15.0344 225.195 14.8667C225.091 14.699 225.956 13.65 227.115 12.536C228.43 11.2725 229.144 10.3031 229.013 9.95985C228.896 9.65775 229.064 9.19214 229.385 8.92591C229.706 8.65931 229.97 8.24997 229.971 8.01584C229.972 7.78134 230.482 7.04572 231.106 6.38035C232.377 5.0243 233.122 3.38051 232.821 2.59581C232.711 2.30919 232.883 1.6744 233.204 1.18538C233.858 0.186189 233.348 -0.471251 232.609 0.419186ZM141.605 20.9627C130.692 22.5415 131.701 22.8693 147.458 22.8632C154.831 22.8606 160.864 22.7118 160.864 22.5325C160.864 21.4785 146.265 20.2886 141.605 20.9627ZM127.255 24.6921C125.758 25.4239 135.105 25.6501 158.099 25.4383C168.733 25.3405 168.953 25.3231 167.697 24.6774C165.757 23.6797 129.299 23.6933 127.255 24.6921ZM121.591 27.4151C120.651 28.15 120.781 28.1534 147.458 28.1492C174.169 28.1455 174.266 28.1424 173.378 27.4027C171.988 26.2445 123.072 26.2566 121.591 27.4151ZM117.531 29.9399C117.064 30.2635 116.682 30.6578 116.682 30.8156C116.682 30.9739 130.531 31.0973 147.458 31.0902C164.385 31.083 178.234 30.9523 178.234 30.8001C178.234 30.6476 177.825 30.2552 177.326 29.9278C175.953 29.0283 118.831 29.0397 117.531 29.9399ZM113.988 32.629C113.6 32.9001 113.283 33.2751 113.283 33.4616C113.283 33.6599 127.497 33.797 147.458 33.7917C166.254 33.7868 181.633 33.6452 181.633 33.4771C181.633 32.2257 180.875 32.1966 147.575 32.1656C121.08 32.1415 114.555 32.2313 113.988 32.629ZM110.715 35.4208C110.466 35.67 110.262 36.0098 110.262 36.176C110.262 36.3422 127 36.4781 147.458 36.4781C167.916 36.4781 184.654 36.3422 184.654 36.176C184.654 34.9955 183.789 34.9676 147.458 34.9676C119.736 34.9676 111.062 35.0745 110.715 35.4208ZM108.28 38.1355C107.916 38.4119 107.619 38.7469 107.619 38.8798C107.619 39.0127 125.474 39.1215 147.297 39.1215C184.883 39.1215 186.968 39.0867 186.848 38.4606C186.677 37.5721 109.44 37.2526 108.28 38.1355ZM105.944 40.9828C105.592 41.3717 105.443 41.769 105.612 41.866C106.267 42.2414 189.186 41.9533 189.138 41.576C189.111 41.3683 189.011 40.9949 188.916 40.7464C188.578 39.8665 106.743 40.0995 105.944 40.9828ZM104.082 43.5974C103.742 43.9724 103.465 44.3931 103.465 44.5324C103.465 44.6718 123.177 44.7858 147.269 44.7858C173.619 44.7858 191.074 44.6476 191.074 44.4392C191.074 42.8531 193.133 42.9253 147.662 42.9207C106.728 42.9162 104.669 42.9483 104.082 43.5974ZM102.296 46.3632C102.108 46.7147 101.954 47.098 101.954 47.2154C101.954 47.3329 122.431 47.4292 147.458 47.4292C172.485 47.4292 192.959 47.3019 192.956 47.146C192.929 45.8405 193.393 45.8545 147.474 45.7888C105.716 45.7291 102.615 45.7688 102.296 46.3632ZM100.822 49.3173C100.822 50.0684 101.073 50.0725 147.687 50.0725C190.267 50.0725 194.532 50.0178 194.324 49.4751C194.198 49.1466 194.095 48.8068 194.095 48.7199C194.095 48.633 173.108 48.5621 147.458 48.5621C101.073 48.5621 100.822 48.5662 100.822 49.3173ZM99.6321 51.583C99.6007 51.7907 99.5584 52.1634 99.5377 52.4112C99.5086 52.7575 110.587 52.8662 147.553 52.8832C173.981 52.8949 195.605 52.7911 195.605 52.6525C195.605 51.1405 197.772 51.2054 147.418 51.2054C115.888 51.2054 99.6694 51.3334 99.6321 51.583ZM98.4301 54.1007C98.2915 54.2389 98.1782 54.6618 98.1782 55.0402C98.1782 55.7022 100.037 55.7278 147.458 55.7256C176.391 55.7241 196.738 55.5825 196.738 55.3831C196.738 53.7683 199.322 53.8488 147.481 53.8488C120.641 53.8488 98.5683 53.9621 98.4301 54.1007ZM97.6012 56.8173C97.503 56.9155 97.423 57.3071 97.423 57.6881C97.423 58.3557 99.1918 58.3803 147.485 58.3803H197.546L197.425 57.582L197.304 56.7837L147.542 56.7115C120.173 56.6715 97.6994 56.7195 97.6012 56.8173ZM96.6677 60.2684C96.6677 61.0199 96.9196 61.0236 147.458 61.0236C197.997 61.0236 198.249 61.0199 198.249 60.2684C198.249 59.5169 197.997 59.5131 147.458 59.5131C96.9196 59.5131 96.6677 59.5169 96.6677 60.2684ZM154.822 85.0027V90.4783H158.598H162.374V85.0027V79.5272H158.598H154.822V85.0027ZM139.717 85.1916V90.4783H143.304H146.892V85.1916V79.9048H143.304H139.717V85.1916ZM124.398 80.7775C124.294 81.0498 124.257 83.2166 124.315 85.5922L124.423 89.9118L127.727 90.021L131.031 90.1301V85.2063V80.2824H127.81C125.501 80.2824 124.534 80.4225 124.398 80.7775ZM184.165 80.5203C184.019 80.6665 183.899 82.9666 183.899 85.6322V90.4783H187.308H190.718L190.613 85.4748L190.507 80.4713L187.469 80.3629C185.797 80.3032 184.311 80.3738 184.165 80.5203ZM232.612 84.6251V89.0037L234.972 88.8915L237.333 88.779V84.6251V80.4713L234.972 80.3587L232.612 80.2466V84.6251ZM112.32 81.1412C112.212 81.4225 112.172 83.5111 112.231 85.7822L112.339 89.9118L115.655 90.021L118.971 90.1305L118.865 85.4895L118.759 80.8489L115.637 80.739C113.281 80.6563 112.468 80.7548 112.32 81.1412ZM209.955 84.8139V88.9678H212.598H215.242V84.8139V80.6601H212.598H209.955V84.8139ZM220.78 80.9119C220.642 81.0501 220.528 82.9194 220.528 85.0658V88.9678H223.172H225.815V84.8139V80.6601H223.424C222.108 80.6601 220.918 80.7734 220.78 80.9119ZM84.9614 85.758V90.4783H87.7936H90.6257V85.758V81.0377H87.7936H84.9614V85.758ZM96.2901 85.5692V90.1007H100.066H103.843V85.5692V81.0377H100.066H96.2901V85.5692ZM160.864 85.1916V89.3454H158.409H155.955V85.1916V81.0377H158.409H160.864V85.1916ZM170.682 85.9321V90.8559H174.092H177.502L177.396 86.0412L177.29 81.2265L173.986 81.1174L170.682 81.0082V85.9321ZM197.116 85.758V90.4783H200.514H203.913V85.758V81.0377H200.514H197.116V85.758ZM243.941 85.0027V88.9678H246.584H249.228V85.0027V81.0377H246.584H243.941V85.0027ZM145.381 85.3804V89.3454H143.115H140.85V85.3804V81.4153H143.115H145.381V85.3804ZM38.8913 86.3244V90.8559H41.5347H44.178V86.3244V81.7929H41.5347H38.8913V86.3244ZM129.899 85.1916V88.5902H127.822H125.745V85.1916V81.7929H127.822H129.899V85.1916ZM189.186 85.5692V89.3454H187.297H185.409V85.5692V81.7929H187.297H189.186V85.5692ZM236.011 84.8139V87.8349H234.878H233.745V84.8139V81.7929H234.878H236.011V84.8139ZM102.332 85.5692V88.9678H100.066H97.8006V85.5692V82.1706H100.066H102.332V85.5692ZM117.437 85.3804V88.5902H115.549H113.661V85.3804V82.1706H115.549H117.437V85.3804ZM202.402 85.758V89.3454H200.325H198.249V85.758V82.1706H200.325H202.402V85.758ZM214.109 85.0027V87.8349H212.598H211.088V85.0027V82.1706H212.598H214.109V85.0027ZM224.682 85.0027V87.8349H223.36H222.039V85.0027V82.1706H223.36H224.682V85.0027ZM49.8424 86.3244V90.1007H52.4857H55.1291V86.3244V82.5482H52.4857H49.8424V86.3244ZM61.5487 86.3055V90.1007H63.828H66.1074L65.9994 86.4188L65.8914 82.737L63.72 82.6237L61.5487 82.5104V86.3055ZM72.7517 82.8001C72.4367 83.1146 72.4182 88.6929 72.729 89.5033C72.902 89.9545 73.5028 90.1007 75.1836 90.1007H77.4089V86.3244V82.5482H75.2062C73.9944 82.5482 72.8899 82.6615 72.7517 82.8001ZM89.4929 85.9468V89.3454H87.9824H86.4719V85.9468V82.5482H87.9824H89.4929V85.9468ZM175.969 86.1356V89.723H174.081H172.192V86.1356V82.5482H174.081H175.969V86.1356ZM248.018 85.0971L247.906 87.6461H246.773H245.64L245.529 85.0971L245.417 82.5482H246.773H248.129L248.018 85.0971ZM42.6675 86.3244V89.723H41.3458H40.0242V86.3244V82.9258H41.3458H42.6675V86.3244ZM53.6186 86.5132V88.9678H52.4857H51.3529V86.5132V84.0587H52.4857H53.6186V86.5132ZM64.6294 85.6636C64.7476 88.8311 64.6263 89.1566 63.4651 88.788C62.1503 88.3708 62.2964 84.0587 63.6256 84.0587C64.4753 84.0587 64.5757 84.2196 64.6294 85.6636ZM75.8984 86.5132C75.8984 88.8798 75.8644 88.9678 74.9544 88.9678C74.0443 88.9678 74.0103 88.8798 74.0103 86.5132C74.0103 84.1467 74.0443 84.0587 74.9544 84.0587C75.8644 84.0587 75.8984 84.1467 75.8984 86.5132ZM52.906 105.386C42.0275 107.859 40.1318 125.61 50.2049 130.682C53.6031 132.393 57.0014 132.709 63.2378 131.893L66.6262 131.45L67.0794 129.94C67.6228 128.129 67.7274 125.22 67.2489 125.22C67.0609 125.22 66.4363 126.027 65.8604 127.013C60.7387 135.792 46.6881 128.038 47.2583 116.748C47.7673 106.669 61.2092 102.233 65.325 110.785C66.5488 113.329 66.7259 113.268 67.0216 110.209C67.4925 105.336 67.6621 105.806 65.325 105.501C60.5997 104.885 55.3266 104.836 52.906 105.386ZM141.692 105.413C128.876 108.864 128.802 127.991 141.59 131.788C144.654 132.699 150.401 132.601 153.492 131.586L155.955 130.778V125.791C155.955 120.673 156.282 119.555 157.778 119.555C159.278 119.555 157.823 118.866 155.899 118.665C150.125 118.061 148.259 118.492 150.951 119.808L152.367 120.499L152.474 124.762L152.581 129.024L151.259 129.576C142.455 133.255 132.34 121.642 136.576 112.721C140.191 105.111 151.905 104.087 154.519 111.153C154.769 111.828 155.083 112.38 155.216 112.38C155.588 112.38 156.375 106.23 156.046 105.901C155.082 104.938 144.762 104.587 141.692 105.413ZM94.2993 109.483C89.3724 111.015 88.8309 114.671 92.9073 118.881C98.4176 124.571 98.8459 125.475 96.7954 127.089C94.3789 128.989 91.0034 127.968 91.0034 125.337C91.0034 124.22 90.406 124.204 90.1084 125.314C89.2108 128.664 90.3795 129.927 94.1524 129.687C101.838 129.197 102.435 122.482 95.2781 117.023C92.8122 115.142 92.2941 113.081 93.8869 111.488C95.4555 109.919 96.8543 110.237 98.2945 112.487C99.1978 113.899 99.6887 113.472 99.6887 111.275C99.6887 109.469 99.6804 109.457 98.2726 109.224C96.4423 108.922 96.014 108.949 94.2993 109.483ZM203.44 109.203C203.285 109.358 203.158 113.435 203.158 118.263V127.041L202.025 127.994C200.439 129.329 200.507 129.374 204.102 129.374C207.382 129.374 208.035 129.069 206.378 128.314C205.212 127.783 205.142 127.421 204.88 120.594C204.634 114.217 204.626 114.228 207.338 117.384C211.167 121.84 219.303 129.853 219.73 129.589C220.02 129.41 220.151 126.567 220.151 120.45C220.151 111.413 220.288 110.492 221.634 110.492C221.857 110.492 222.039 110.322 222.039 110.115C222.039 109.895 220.78 109.737 219.018 109.737C217.255 109.737 215.997 109.895 215.997 110.115C215.997 110.322 216.276 110.492 216.616 110.492C217.996 110.492 218.238 111.597 218.25 117.95C218.262 123.724 218.04 124.958 217.243 123.555C217.077 123.263 214.968 120.926 212.557 118.363C210.146 115.799 207.172 112.626 205.948 111.311C204.724 109.997 203.595 109.048 203.44 109.203ZM77.6313 110.587C77.3598 111.262 75.9917 114.984 74.5915 118.858C71.8431 126.461 70.9795 128.215 69.8375 128.514C68.2066 128.94 69.2628 129.374 71.9334 129.374C73.5696 129.374 74.7655 129.214 74.7655 128.996C74.7655 128.788 74.4895 128.618 74.1519 128.618C73.4133 128.618 73.5919 127.389 74.8199 124.021L75.622 121.821H78.1415H80.661L81.8834 124.93C82.9622 127.673 83.0374 128.088 82.5231 128.464C81.4699 129.235 81.9004 129.374 85.339 129.374C88.8558 129.374 89.5272 129.082 87.6455 128.372C86.3246 127.873 83.5056 122.286 80.5783 114.367C78.5879 108.981 78.3836 108.719 77.6313 110.587ZM109.008 114.359C104.75 126.229 104.016 127.893 102.804 128.425C101.294 129.087 101.893 129.374 104.787 129.374C106.423 129.374 107.619 129.214 107.619 128.996C107.619 128.788 107.342 128.618 107.003 128.618C106.232 128.618 106.428 127.135 107.617 123.976L108.441 121.788L110.888 121.899L113.335 122.01L114.659 125.015C115.897 127.828 115.94 128.052 115.321 128.505C114.958 128.77 114.734 129.062 114.825 129.153C114.967 129.295 119.728 129.483 121.119 129.401C121.851 129.358 121.675 128.62 120.93 128.606C119.529 128.581 116.723 123.569 114.276 116.723C111.162 108.01 111.268 108.058 109.008 114.359ZM188.66 110.526C188.361 111.241 187.432 113.777 186.595 116.163C182.917 126.646 181.971 128.618 180.623 128.618C180.348 128.618 180.123 128.788 180.123 128.996C180.123 129.214 181.318 129.374 182.955 129.374C184.591 129.374 185.787 129.214 185.787 128.996C185.787 128.788 185.532 128.618 185.22 128.618C184.468 128.618 184.505 128.067 185.446 125.188C186.506 121.946 186.645 121.821 189.186 121.821C191.699 121.821 191.727 121.847 193.121 125.392C194.047 127.746 194.092 128.064 193.558 128.454C192.49 129.235 192.912 129.374 196.36 129.374C198.374 129.374 199.759 129.22 199.759 128.996C199.759 128.788 199.446 128.618 199.062 128.618C197.616 128.618 195.69 125.039 192.165 115.798C189.581 109.021 189.401 108.751 188.66 110.526ZM224.187 109.67C223.492 109.804 223.297 110.492 223.954 110.492C225.269 110.492 225.437 111.473 225.437 119.133C225.437 126.725 225.161 128.618 224.055 128.618C223.777 128.618 223.549 128.772 223.549 128.959C223.549 130.008 234.877 129.857 237.47 128.774C245.04 125.611 245.094 113.745 237.554 110.389C236.006 109.7 226.658 109.197 224.187 109.67ZM249.889 109.642C244.75 109.757 243.896 109.963 245.546 110.686C246.817 111.244 247.078 126.991 245.836 128.233C244.693 129.377 244.681 129.374 250.32 129.374C256.045 129.374 256.025 129.381 256.025 127.077C256.025 125.868 255.443 125.587 255.111 126.636C254.829 127.523 252.85 128.359 251.785 128.04C249.404 127.33 249.228 126.99 249.228 123.134V119.555H251.134C252.855 119.555 253.101 119.664 253.683 120.686C254.582 122.267 254.8 122.12 255.099 119.727C255.409 117.25 255.358 117.166 253.859 117.689C253.223 117.911 251.964 118.039 251.06 117.974L249.417 117.856L249.307 114.552L249.198 111.248H251.259C253.07 111.248 253.41 111.373 254.075 112.285C254.49 112.856 254.929 113.225 255.048 113.105C255.428 112.726 255.766 109.356 255.415 109.442C255.232 109.488 252.745 109.578 249.889 109.642ZM158.976 109.966C158.976 110.092 159.4 110.529 159.92 110.938L160.864 111.68V119.531V127.382L159.868 128.378C159.321 128.926 159.023 129.386 159.207 129.402C160.551 129.517 165.88 129.392 166.029 129.243C166.132 129.141 165.818 128.848 165.333 128.592C164.014 127.897 163.897 127.554 163.89 124.37C163.884 121.129 163.969 121.044 166.252 121.998C167.067 122.338 168.13 123.322 169.005 124.547C172.3 129.155 174.176 130.411 176.914 129.842C178.732 129.465 179.145 128.618 177.511 128.618C176.87 128.618 176.346 128.476 176.346 128.301C176.346 128.127 175.937 127.798 175.438 127.57C174.542 127.163 170.876 122.851 169.956 121.125C169.552 120.366 169.591 120.123 170.228 119.425C173.03 116.357 172.854 111.986 169.867 110.462C168.479 109.753 158.976 109.321 158.976 109.966ZM166.366 111.09C169.833 112.021 169.966 118.989 166.532 119.743C164.088 120.28 163.885 119.95 163.885 115.439C163.885 110.635 163.989 110.452 166.366 111.09ZM234.977 112.015C241.4 115.093 242.182 124.152 236.283 127.161C233.71 128.474 230.265 128.57 229.057 127.363L228.081 126.387V119.069C228.081 115.044 228.194 111.638 228.333 111.499C228.919 110.913 233.404 111.261 234.977 112.015ZM79.1101 116.818C79.4847 118.219 79.868 119.579 79.962 119.839C80.0847 120.178 79.578 120.311 78.1604 120.311C76.4626 120.311 76.2137 120.218 76.3742 119.65C78.1249 113.443 78.191 113.375 79.1101 116.818ZM111.942 117.29C112.289 118.432 112.662 119.579 112.771 119.839C112.914 120.18 112.438 120.311 111.049 120.311C108.842 120.311 108.883 120.43 109.914 117.094C110.788 114.264 111.031 114.287 111.942 117.29ZM190.06 116.662C191.097 119.949 190.991 120.311 188.997 120.311C187.019 120.311 187.07 120.487 188.105 117.206C189.079 114.12 189.245 114.074 190.06 116.662Z" fill="black"/>
    </svg>
    