<svg width="802" height="421" viewbox="0 0 802 421" fill="none" xmlns="http://www.w3.org/2000/svg">
<path d="M182.55 384.225C182.55 386.252 182.265 388.31 181.695 390.4C181.188 392.49 180.492 394.422 179.605 396.195C179.605 396.322 179.51 396.385 179.32 396.385C175.267 397.082 171.213 397.62 167.16 398C163.107 398.443 158.99 398.665 154.81 398.665C149.68 398.665 144.93 397.842 140.56 396.195C136.19 394.485 132.39 392.11 129.16 389.07C125.993 385.967 123.523 382.293 121.75 378.05C119.977 373.743 119.09 368.962 119.09 363.705C119.09 360.982 119.343 358.258 119.85 355.535C120.42 352.812 121.212 350.152 122.225 347.555C123.302 344.958 124.6 342.488 126.12 340.145C127.64 337.802 129.382 335.68 131.345 333.78C132.928 332.26 134.797 330.993 136.95 329.98C139.167 328.967 141.478 328.175 143.885 327.605C146.292 326.972 148.698 326.528 151.105 326.275C153.575 326.022 155.855 325.895 157.945 325.895C160.288 325.895 162.6 326.053 164.88 326.37C167.223 326.687 169.503 327.003 171.72 327.32C173.367 327.573 175.013 327.795 176.66 327.985C178.37 328.175 180.017 328.333 181.6 328.46C181.853 328.46 181.98 328.587 181.98 328.84C181.853 331.88 181.6 334.857 181.22 337.77C180.903 340.62 180.523 343.502 180.08 346.415C180.017 346.605 179.89 346.7 179.7 346.7C179.573 346.7 179.478 346.605 179.415 346.415C178.908 343.565 177.99 341.063 176.66 338.91C175.393 336.757 173.778 334.952 171.815 333.495C169.852 332.038 167.635 330.962 165.165 330.265C162.695 329.505 160.098 329.125 157.375 329.125C152.878 329.125 148.793 329.853 145.12 331.31C141.447 332.703 138.312 334.73 135.715 337.39C133.118 339.987 131.092 343.122 129.635 346.795C128.242 350.468 127.545 354.553 127.545 359.05C127.545 363.737 128.368 368.265 130.015 372.635C131.725 377.005 134.068 380.868 137.045 384.225C140.085 387.582 143.663 390.273 147.78 392.3C151.96 394.327 156.488 395.34 161.365 395.34C164.152 395.34 166.558 395.055 168.585 394.485C170.612 393.852 172.385 392.933 173.905 391.73C175.488 390.527 176.85 389.038 177.99 387.265C179.193 385.428 180.365 383.275 181.505 380.805C181.632 380.615 181.758 380.552 181.885 380.615C182.075 380.615 182.202 380.71 182.265 380.9C182.455 381.977 182.55 383.085 182.55 384.225Z" />
<path d="M182.55 384.225C182.55 386.252 182.265 388.31 181.695 390.4C181.188 392.49 180.492 394.422 179.605 396.195C179.605 396.322 179.51 396.385 179.32 396.385C175.267 397.082 171.213 397.62 167.16 398C163.107 398.443 158.99 398.665 154.81 398.665C149.68 398.665 144.93 397.842 140.56 396.195C136.19 394.485 132.39 392.11 129.16 389.07C125.993 385.967 123.523 382.293 121.75 378.05C119.977 373.743 119.09 368.962 119.09 363.705C119.09 360.982 119.343 358.258 119.85 355.535C120.42 352.812 121.212 350.152 122.225 347.555C123.302 344.958 124.6 342.488 126.12 340.145C127.64 337.802 129.382 335.68 131.345 333.78C132.928 332.26 134.797 330.993 136.95 329.98C139.167 328.967 141.478 328.175 143.885 327.605C146.292 326.972 148.698 326.528 151.105 326.275C153.575 326.022 155.855 325.895 157.945 325.895C160.288 325.895 162.6 326.053 164.88 326.37C167.223 326.687 169.503 327.003 171.72 327.32C173.367 327.573 175.013 327.795 176.66 327.985C178.37 328.175 180.017 328.333 181.6 328.46C181.853 328.46 181.98 328.587 181.98 328.84C181.853 331.88 181.6 334.857 181.22 337.77C180.903 340.62 180.523 343.502 180.08 346.415C180.017 346.605 179.89 346.7 179.7 346.7C179.573 346.7 179.478 346.605 179.415 346.415C178.908 343.565 177.99 341.063 176.66 338.91C175.393 336.757 173.778 334.952 171.815 333.495C169.852 332.038 167.635 330.962 165.165 330.265C162.695 329.505 160.098 329.125 157.375 329.125C152.878 329.125 148.793 329.853 145.12 331.31C141.447 332.703 138.312 334.73 135.715 337.39C133.118 339.987 131.092 343.122 129.635 346.795C128.242 350.468 127.545 354.553 127.545 359.05C127.545 363.737 128.368 368.265 130.015 372.635C131.725 377.005 134.068 380.868 137.045 384.225C140.085 387.582 143.663 390.273 147.78 392.3C151.96 394.327 156.488 395.34 161.365 395.34C164.152 395.34 166.558 395.055 168.585 394.485C170.612 393.852 172.385 392.933 173.905 391.73C175.488 390.527 176.85 389.038 177.99 387.265C179.193 385.428 180.365 383.275 181.505 380.805C181.632 380.615 181.758 380.552 181.885 380.615C182.075 380.615 182.202 380.71 182.265 380.9C182.455 381.977 182.55 383.085 182.55 384.225Z" />
<path d="M239.55 389.72L237.87 389.79C237.263 389.837 236.633 389.86 235.98 389.86C235.373 389.813 234.79 389.743 234.23 389.65C233.763 389.603 233.273 389.557 232.76 389.51C232.247 389.463 231.757 389.44 231.29 389.44C230.123 389.44 228.957 389.487 227.79 389.58C226.623 389.627 225.457 389.697 224.29 389.79C224.057 389.837 223.777 389.86 223.45 389.86C223.123 389.86 222.843 389.883 222.61 389.93C222.47 389.977 222.377 389.93 222.33 389.79C222.283 389.603 222.33 389.463 222.47 389.37L226.25 387.62C225.13 384.633 223.987 381.67 222.82 378.73C221.653 375.743 220.51 372.757 219.39 369.77H204.55C204.223 370.563 203.757 371.777 203.15 373.41C202.543 375.043 201.937 376.747 201.33 378.52C200.77 380.247 200.257 381.903 199.79 383.49C199.37 385.077 199.16 386.22 199.16 386.92C199.16 387.387 199.277 387.783 199.51 388.11C199.79 388.39 200.117 388.623 200.49 388.81C200.863 388.997 201.26 389.137 201.68 389.23C202.147 389.277 202.567 389.323 202.94 389.37V389.93C202.567 389.883 202.17 389.86 201.75 389.86C201.33 389.86 200.933 389.837 200.56 389.79C199.767 389.697 198.973 389.627 198.18 389.58C197.387 389.533 196.593 389.51 195.8 389.51C194.96 389.51 194.12 389.533 193.28 389.58C192.44 389.627 191.623 389.697 190.83 389.79C190.317 389.837 189.803 389.883 189.29 389.93C188.823 389.93 188.333 389.953 187.82 390C187.68 390 187.587 389.93 187.54 389.79C187.54 389.603 187.61 389.487 187.75 389.44C189.57 389.16 191.087 388.577 192.3 387.69C193.56 386.803 194.517 385.543 195.17 383.91C196.943 379.477 198.623 375.043 200.21 370.61C201.797 366.177 203.383 361.697 204.97 357.17C206.137 353.857 207.327 350.52 208.54 347.16C209.8 343.8 211.037 340.487 212.25 337.22C212.297 337.08 212.39 337.01 212.53 337.01C212.67 337.01 212.763 337.08 212.81 337.22C213.043 337.873 213.3 338.55 213.58 339.25C213.86 339.95 214.117 340.65 214.35 341.35C215.61 344.85 216.94 348.467 218.34 352.2C219.74 355.933 221.187 359.667 222.68 363.4C224.22 367.133 225.783 370.82 227.37 374.46C229.003 378.053 230.707 381.53 232.48 384.89C233.273 386.337 234.253 387.387 235.42 388.04C236.587 388.647 237.963 389.02 239.55 389.16C239.69 389.16 239.76 389.253 239.76 389.44C239.76 389.627 239.69 389.72 239.55 389.72ZM218.2 366.76L212.04 346.67C211.807 347.323 211.573 347.977 211.34 348.63C211.153 349.237 210.967 349.843 210.78 350.45C209.847 353.25 208.96 355.98 208.12 358.64C207.327 361.3 206.44 364.007 205.46 366.76H218.2ZM271.263 376.21C271.263 378.45 270.679 380.48 269.513 382.3C268.346 384.073 266.853 385.613 265.033 386.92C263.259 388.227 261.276 389.23 259.083 389.93C256.936 390.63 254.883 390.98 252.923 390.98C251.943 390.98 250.939 390.863 249.913 390.63C248.886 390.443 247.953 390.117 247.113 389.65C246.273 389.137 245.573 388.507 245.013 387.76C244.499 386.967 244.243 385.987 244.243 384.82C244.243 383.98 244.313 383.187 244.453 382.44C244.639 381.693 244.826 380.97 245.013 380.27C245.106 379.897 245.176 379.523 245.223 379.15C245.316 378.73 245.409 378.333 245.503 377.96C245.549 377.82 245.643 377.773 245.783 377.82C245.969 377.82 246.063 377.89 246.063 378.03V378.8C246.063 380.247 246.296 381.53 246.763 382.65C247.276 383.77 247.976 384.703 248.863 385.45C249.749 386.197 250.776 386.78 251.943 387.2C253.109 387.573 254.393 387.76 255.793 387.76C256.959 387.76 258.149 387.573 259.363 387.2C260.576 386.78 261.673 386.22 262.653 385.52C263.633 384.773 264.426 383.887 265.033 382.86C265.686 381.787 266.013 380.62 266.013 379.36C266.013 378.193 265.709 377.003 265.103 375.79C264.543 374.53 263.773 373.293 262.793 372.08C261.859 370.867 260.786 369.653 259.573 368.44C258.359 367.227 257.123 366.037 255.863 364.87C254.556 363.61 253.249 362.35 251.943 361.09C250.636 359.783 249.469 358.453 248.443 357.1C247.416 355.747 246.576 354.37 245.923 352.97C245.269 351.57 244.943 350.17 244.943 348.77C244.943 346.623 245.549 344.78 246.763 343.24C247.976 341.7 249.469 340.44 251.243 339.46C253.016 338.48 254.929 337.78 256.983 337.36C259.083 336.893 261.019 336.66 262.793 336.66C265.219 336.66 267.506 336.963 269.653 337.57C269.793 337.57 269.863 337.663 269.863 337.85C269.723 339.343 269.559 340.837 269.373 342.33C269.233 343.823 269.046 345.317 268.813 346.81C268.813 346.903 268.789 346.997 268.743 347.09C268.743 347.137 268.743 347.207 268.743 347.3C268.743 347.44 268.649 347.533 268.463 347.58C268.323 347.58 268.229 347.51 268.183 347.37C267.949 346.25 267.576 345.2 267.063 344.22C266.596 343.24 265.989 342.4 265.243 341.7C264.543 340.953 263.703 340.37 262.723 339.95C261.789 339.483 260.739 339.25 259.573 339.25C258.359 339.25 257.216 339.46 256.143 339.88C255.116 340.3 254.206 340.883 253.413 341.63C252.666 342.33 252.059 343.193 251.593 344.22C251.173 345.247 250.963 346.367 250.963 347.58C250.963 348.84 251.219 350.03 251.733 351.15C252.293 352.223 252.993 353.297 253.833 354.37C254.719 355.397 255.723 356.423 256.843 357.45C258.009 358.43 259.199 359.41 260.413 360.39C261.719 361.51 263.026 362.653 264.333 363.82C265.639 364.94 266.806 366.13 267.833 367.39C268.859 368.65 269.676 370.003 270.283 371.45C270.936 372.897 271.263 374.483 271.263 376.21ZM322.946 389.72L321.266 389.79C320.659 389.837 320.029 389.86 319.376 389.86C318.769 389.813 318.186 389.743 317.626 389.65C317.159 389.603 316.669 389.557 316.156 389.51C315.642 389.463 315.152 389.44 314.686 389.44C313.519 389.44 312.352 389.487 311.186 389.58C310.019 389.627 308.852 389.697 307.686 389.79C307.452 389.837 307.172 389.86 306.846 389.86C306.519 389.86 306.239 389.883 306.006 389.93C305.866 389.977 305.772 389.93 305.726 389.79C305.679 389.603 305.726 389.463 305.866 389.37L309.646 387.62C308.526 384.633 307.382 381.67 306.216 378.73C305.049 375.743 303.906 372.757 302.786 369.77H287.946C287.619 370.563 287.152 371.777 286.546 373.41C285.939 375.043 285.332 376.747 284.726 378.52C284.166 380.247 283.652 381.903 283.186 383.49C282.766 385.077 282.556 386.22 282.556 386.92C282.556 387.387 282.672 387.783 282.906 388.11C283.186 388.39 283.512 388.623 283.886 388.81C284.259 388.997 284.656 389.137 285.076 389.23C285.542 389.277 285.962 389.323 286.336 389.37V389.93C285.962 389.883 285.566 389.86 285.146 389.86C284.726 389.86 284.329 389.837 283.956 389.79C283.162 389.697 282.369 389.627 281.576 389.58C280.782 389.533 279.989 389.51 279.196 389.51C278.356 389.51 277.516 389.533 276.676 389.58C275.836 389.627 275.019 389.697 274.226 389.79C273.712 389.837 273.199 389.883 272.686 389.93C272.219 389.93 271.729 389.953 271.216 390C271.076 390 270.982 389.93 270.936 389.79C270.936 389.603 271.006 389.487 271.146 389.44C272.966 389.16 274.482 388.577 275.696 387.69C276.956 386.803 277.912 385.543 278.566 383.91C280.339 379.477 282.019 375.043 283.606 370.61C285.192 366.177 286.779 361.697 288.366 357.17C289.532 353.857 290.722 350.52 291.936 347.16C293.196 343.8 294.432 340.487 295.646 337.22C295.692 337.08 295.786 337.01 295.926 337.01C296.066 337.01 296.159 337.08 296.206 337.22C296.439 337.873 296.696 338.55 296.976 339.25C297.256 339.95 297.512 340.65 297.746 341.35C299.006 344.85 300.336 348.467 301.736 352.2C303.136 355.933 304.582 359.667 306.076 363.4C307.616 367.133 309.179 370.82 310.766 374.46C312.399 378.053 314.102 381.53 315.876 384.89C316.669 386.337 317.649 387.387 318.816 388.04C319.982 388.647 321.359 389.02 322.946 389.16C323.086 389.16 323.156 389.253 323.156 389.44C323.156 389.627 323.086 389.72 322.946 389.72ZM301.596 366.76L295.436 346.67C295.202 347.323 294.969 347.977 294.736 348.63C294.549 349.237 294.362 349.843 294.176 350.45C293.242 353.25 292.356 355.98 291.516 358.64C290.722 361.3 289.836 364.007 288.856 366.76H301.596Z" />
<path d="M239.55 389.72L237.87 389.79C237.263 389.837 236.633 389.86 235.98 389.86C235.373 389.813 234.79 389.743 234.23 389.65C233.763 389.603 233.273 389.557 232.76 389.51C232.247 389.463 231.757 389.44 231.29 389.44C230.123 389.44 228.957 389.487 227.79 389.58C226.623 389.627 225.457 389.697 224.29 389.79C224.057 389.837 223.777 389.86 223.45 389.86C223.123 389.86 222.843 389.883 222.61 389.93C222.47 389.977 222.377 389.93 222.33 389.79C222.283 389.603 222.33 389.463 222.47 389.37L226.25 387.62C225.13 384.633 223.987 381.67 222.82 378.73C221.653 375.743 220.51 372.757 219.39 369.77H204.55C204.223 370.563 203.757 371.777 203.15 373.41C202.543 375.043 201.937 376.747 201.33 378.52C200.77 380.247 200.257 381.903 199.79 383.49C199.37 385.077 199.16 386.22 199.16 386.92C199.16 387.387 199.277 387.783 199.51 388.11C199.79 388.39 200.117 388.623 200.49 388.81C200.863 388.997 201.26 389.137 201.68 389.23C202.147 389.277 202.567 389.323 202.94 389.37V389.93C202.567 389.883 202.17 389.86 201.75 389.86C201.33 389.86 200.933 389.837 200.56 389.79C199.767 389.697 198.973 389.627 198.18 389.58C197.387 389.533 196.593 389.51 195.8 389.51C194.96 389.51 194.12 389.533 193.28 389.58C192.44 389.627 191.623 389.697 190.83 389.79C190.317 389.837 189.803 389.883 189.29 389.93C188.823 389.93 188.333 389.953 187.82 390C187.68 390 187.587 389.93 187.54 389.79C187.54 389.603 187.61 389.487 187.75 389.44C189.57 389.16 191.087 388.577 192.3 387.69C193.56 386.803 194.517 385.543 195.17 383.91C196.943 379.477 198.623 375.043 200.21 370.61C201.797 366.177 203.383 361.697 204.97 357.17C206.137 353.857 207.327 350.52 208.54 347.16C209.8 343.8 211.037 340.487 212.25 337.22C212.297 337.08 212.39 337.01 212.53 337.01C212.67 337.01 212.763 337.08 212.81 337.22C213.043 337.873 213.3 338.55 213.58 339.25C213.86 339.95 214.117 340.65 214.35 341.35C215.61 344.85 216.94 348.467 218.34 352.2C219.74 355.933 221.187 359.667 222.68 363.4C224.22 367.133 225.783 370.82 227.37 374.46C229.003 378.053 230.707 381.53 232.48 384.89C233.273 386.337 234.253 387.387 235.42 388.04C236.587 388.647 237.963 389.02 239.55 389.16C239.69 389.16 239.76 389.253 239.76 389.44C239.76 389.627 239.69 389.72 239.55 389.72ZM218.2 366.76L212.04 346.67C211.807 347.323 211.573 347.977 211.34 348.63C211.153 349.237 210.967 349.843 210.78 350.45C209.847 353.25 208.96 355.98 208.12 358.64C207.327 361.3 206.44 364.007 205.46 366.76H218.2ZM271.263 376.21C271.263 378.45 270.679 380.48 269.513 382.3C268.346 384.073 266.853 385.613 265.033 386.92C263.259 388.227 261.276 389.23 259.083 389.93C256.936 390.63 254.883 390.98 252.923 390.98C251.943 390.98 250.939 390.863 249.913 390.63C248.886 390.443 247.953 390.117 247.113 389.65C246.273 389.137 245.573 388.507 245.013 387.76C244.499 386.967 244.243 385.987 244.243 384.82C244.243 383.98 244.313 383.187 244.453 382.44C244.639 381.693 244.826 380.97 245.013 380.27C245.106 379.897 245.176 379.523 245.223 379.15C245.316 378.73 245.409 378.333 245.503 377.96C245.549 377.82 245.643 377.773 245.783 377.82C245.969 377.82 246.063 377.89 246.063 378.03V378.8C246.063 380.247 246.296 381.53 246.763 382.65C247.276 383.77 247.976 384.703 248.863 385.45C249.749 386.197 250.776 386.78 251.943 387.2C253.109 387.573 254.393 387.76 255.793 387.76C256.959 387.76 258.149 387.573 259.363 387.2C260.576 386.78 261.673 386.22 262.653 385.52C263.633 384.773 264.426 383.887 265.033 382.86C265.686 381.787 266.013 380.62 266.013 379.36C266.013 378.193 265.709 377.003 265.103 375.79C264.543 374.53 263.773 373.293 262.793 372.08C261.859 370.867 260.786 369.653 259.573 368.44C258.359 367.227 257.123 366.037 255.863 364.87C254.556 363.61 253.249 362.35 251.943 361.09C250.636 359.783 249.469 358.453 248.443 357.1C247.416 355.747 246.576 354.37 245.923 352.97C245.269 351.57 244.943 350.17 244.943 348.77C244.943 346.623 245.549 344.78 246.763 343.24C247.976 341.7 249.469 340.44 251.243 339.46C253.016 338.48 254.929 337.78 256.983 337.36C259.083 336.893 261.019 336.66 262.793 336.66C265.219 336.66 267.506 336.963 269.653 337.57C269.793 337.57 269.863 337.663 269.863 337.85C269.723 339.343 269.559 340.837 269.373 342.33C269.233 343.823 269.046 345.317 268.813 346.81C268.813 346.903 268.789 346.997 268.743 347.09C268.743 347.137 268.743 347.207 268.743 347.3C268.743 347.44 268.649 347.533 268.463 347.58C268.323 347.58 268.229 347.51 268.183 347.37C267.949 346.25 267.576 345.2 267.063 344.22C266.596 343.24 265.989 342.4 265.243 341.7C264.543 340.953 263.703 340.37 262.723 339.95C261.789 339.483 260.739 339.25 259.573 339.25C258.359 339.25 257.216 339.46 256.143 339.88C255.116 340.3 254.206 340.883 253.413 341.63C252.666 342.33 252.059 343.193 251.593 344.22C251.173 345.247 250.963 346.367 250.963 347.58C250.963 348.84 251.219 350.03 251.733 351.15C252.293 352.223 252.993 353.297 253.833 354.37C254.719 355.397 255.723 356.423 256.843 357.45C258.009 358.43 259.199 359.41 260.413 360.39C261.719 361.51 263.026 362.653 264.333 363.82C265.639 364.94 266.806 366.13 267.833 367.39C268.859 368.65 269.676 370.003 270.283 371.45C270.936 372.897 271.263 374.483 271.263 376.21ZM322.946 389.72L321.266 389.79C320.659 389.837 320.029 389.86 319.376 389.86C318.769 389.813 318.186 389.743 317.626 389.65C317.159 389.603 316.669 389.557 316.156 389.51C315.642 389.463 315.152 389.44 314.686 389.44C313.519 389.44 312.352 389.487 311.186 389.58C310.019 389.627 308.852 389.697 307.686 389.79C307.452 389.837 307.172 389.86 306.846 389.86C306.519 389.86 306.239 389.883 306.006 389.93C305.866 389.977 305.772 389.93 305.726 389.79C305.679 389.603 305.726 389.463 305.866 389.37L309.646 387.62C308.526 384.633 307.382 381.67 306.216 378.73C305.049 375.743 303.906 372.757 302.786 369.77H287.946C287.619 370.563 287.152 371.777 286.546 373.41C285.939 375.043 285.332 376.747 284.726 378.52C284.166 380.247 283.652 381.903 283.186 383.49C282.766 385.077 282.556 386.22 282.556 386.92C282.556 387.387 282.672 387.783 282.906 388.11C283.186 388.39 283.512 388.623 283.886 388.81C284.259 388.997 284.656 389.137 285.076 389.23C285.542 389.277 285.962 389.323 286.336 389.37V389.93C285.962 389.883 285.566 389.86 285.146 389.86C284.726 389.86 284.329 389.837 283.956 389.79C283.162 389.697 282.369 389.627 281.576 389.58C280.782 389.533 279.989 389.51 279.196 389.51C278.356 389.51 277.516 389.533 276.676 389.58C275.836 389.627 275.019 389.697 274.226 389.79C273.712 389.837 273.199 389.883 272.686 389.93C272.219 389.93 271.729 389.953 271.216 390C271.076 390 270.982 389.93 270.936 389.79C270.936 389.603 271.006 389.487 271.146 389.44C272.966 389.16 274.482 388.577 275.696 387.69C276.956 386.803 277.912 385.543 278.566 383.91C280.339 379.477 282.019 375.043 283.606 370.61C285.192 366.177 286.779 361.697 288.366 357.17C289.532 353.857 290.722 350.52 291.936 347.16C293.196 343.8 294.432 340.487 295.646 337.22C295.692 337.08 295.786 337.01 295.926 337.01C296.066 337.01 296.159 337.08 296.206 337.22C296.439 337.873 296.696 338.55 296.976 339.25C297.256 339.95 297.512 340.65 297.746 341.35C299.006 344.85 300.336 348.467 301.736 352.2C303.136 355.933 304.582 359.667 306.076 363.4C307.616 367.133 309.179 370.82 310.766 374.46C312.399 378.053 314.102 381.53 315.876 384.89C316.669 386.337 317.649 387.387 318.816 388.04C319.982 388.647 321.359 389.02 322.946 389.16C323.086 389.16 323.156 389.253 323.156 389.44C323.156 389.627 323.086 389.72 322.946 389.72ZM301.596 366.76L295.436 346.67C295.202 347.323 294.969 347.977 294.736 348.63C294.549 349.237 294.362 349.843 294.176 350.45C293.242 353.25 292.356 355.98 291.516 358.64C290.722 361.3 289.836 364.007 288.856 366.76H301.596Z" />
<path d="M476.48 389.37C475.407 389.883 474.287 390.28 473.12 390.56C472 390.84 470.833 390.98 469.62 390.98C467.8 390.98 466.12 390.607 464.58 389.86C463.04 389.113 461.617 388.157 460.31 386.99C459.003 385.823 457.79 384.517 456.67 383.07C455.55 381.577 454.5 380.107 453.52 378.66C452.54 377.213 451.42 375.697 450.16 374.11C448.947 372.523 447.733 371.217 446.52 370.19C445.587 369.397 444.513 368.93 443.3 368.79C442.087 368.603 440.873 368.51 439.66 368.51C439.147 368.51 438.633 368.51 438.12 368.51C437.607 368.51 437.093 368.533 436.58 368.58V382.09C436.58 384.003 437.14 385.637 438.26 386.99C439.427 388.297 440.943 389.043 442.81 389.23V389.79C441.363 389.65 439.917 389.533 438.47 389.44C437.023 389.347 435.577 389.3 434.13 389.3C432.683 389.3 431.26 389.37 429.86 389.51C428.46 389.603 427.037 389.743 425.59 389.93C425.45 389.977 425.357 389.93 425.31 389.79C425.263 389.603 425.31 389.463 425.45 389.37C426.803 388.763 427.923 387.83 428.81 386.57C429.743 385.263 430.21 383.863 430.21 382.37V344.43C430.21 342.937 429.65 341.63 428.53 340.51C427.457 339.39 426.197 338.643 424.75 338.27C424.61 338.223 424.54 338.13 424.54 337.99C424.587 337.85 424.68 337.78 424.82 337.78H426.15C426.85 337.78 427.55 337.803 428.25 337.85C428.95 337.85 429.627 337.873 430.28 337.92C431.68 338.06 433.08 338.13 434.48 338.13C435.973 338.13 437.49 338.06 439.03 337.92C439.823 337.873 440.57 337.85 441.27 337.85C442.017 337.803 442.787 337.78 443.58 337.78C445.54 337.78 447.453 338.013 449.32 338.48C451.187 338.947 452.843 339.693 454.29 340.72C455.783 341.7 456.973 342.983 457.86 344.57C458.747 346.157 459.19 348.093 459.19 350.38C459.19 351.873 458.957 353.367 458.49 354.86C458.023 356.307 457.393 357.707 456.6 359.06C455.853 360.413 454.967 361.697 453.94 362.91C452.96 364.077 451.957 365.15 450.93 366.13C451.583 366.877 452.353 367.857 453.24 369.07C454.127 370.283 455.037 371.52 455.97 372.78C457.37 374.693 458.84 376.653 460.38 378.66C461.92 380.667 463.53 382.463 465.21 384.05C466.937 385.637 468.71 386.897 470.53 387.83C472.397 388.717 474.333 389.043 476.34 388.81L476.48 389.37ZM452.61 354.02C452.61 352.34 452.353 350.66 451.84 348.98C451.373 347.3 450.65 345.783 449.67 344.43C448.737 343.077 447.57 341.98 446.17 341.14C444.77 340.3 443.137 339.88 441.27 339.88C440.477 339.88 439.683 339.95 438.89 340.09C438.143 340.183 437.397 340.37 436.65 340.65V364.45C437.723 364.637 438.797 364.777 439.87 364.87C440.99 364.917 442.063 364.94 443.09 364.94C446.637 364.94 449.11 363.96 450.51 362C451.91 360.04 452.61 357.38 452.61 354.02ZM530.313 389.72L528.633 389.79C528.027 389.837 527.397 389.86 526.743 389.86C526.137 389.813 525.553 389.743 524.993 389.65C524.527 389.603 524.037 389.557 523.523 389.51C523.01 389.463 522.52 389.44 522.053 389.44C520.887 389.44 519.72 389.487 518.553 389.58C517.387 389.627 516.22 389.697 515.053 389.79C514.82 389.837 514.54 389.86 514.213 389.86C513.887 389.86 513.607 389.883 513.373 389.93C513.233 389.977 513.14 389.93 513.093 389.79C513.047 389.603 513.093 389.463 513.233 389.37L517.013 387.62C515.893 384.633 514.75 381.67 513.583 378.73C512.417 375.743 511.273 372.757 510.153 369.77H495.313C494.987 370.563 494.52 371.777 493.913 373.41C493.307 375.043 492.7 376.747 492.093 378.52C491.533 380.247 491.02 381.903 490.553 383.49C490.133 385.077 489.923 386.22 489.923 386.92C489.923 387.387 490.04 387.783 490.273 388.11C490.553 388.39 490.88 388.623 491.253 388.81C491.627 388.997 492.023 389.137 492.443 389.23C492.91 389.277 493.33 389.323 493.703 389.37V389.93C493.33 389.883 492.933 389.86 492.513 389.86C492.093 389.86 491.697 389.837 491.323 389.79C490.53 389.697 489.737 389.627 488.943 389.58C488.15 389.533 487.357 389.51 486.563 389.51C485.723 389.51 484.883 389.533 484.043 389.58C483.203 389.627 482.387 389.697 481.593 389.79C481.08 389.837 480.567 389.883 480.053 389.93C479.587 389.93 479.097 389.953 478.583 390C478.443 390 478.35 389.93 478.303 389.79C478.303 389.603 478.373 389.487 478.513 389.44C480.333 389.16 481.85 388.577 483.063 387.69C484.323 386.803 485.28 385.543 485.933 383.91C487.707 379.477 489.387 375.043 490.973 370.61C492.56 366.177 494.147 361.697 495.733 357.17C496.9 353.857 498.09 350.52 499.303 347.16C500.563 343.8 501.8 340.487 503.013 337.22C503.06 337.08 503.153 337.01 503.293 337.01C503.433 337.01 503.527 337.08 503.573 337.22C503.807 337.873 504.063 338.55 504.343 339.25C504.623 339.95 504.88 340.65 505.113 341.35C506.373 344.85 507.703 348.467 509.103 352.2C510.503 355.933 511.95 359.667 513.443 363.4C514.983 367.133 516.547 370.82 518.133 374.46C519.767 378.053 521.47 381.53 523.243 384.89C524.037 386.337 525.017 387.387 526.183 388.04C527.35 388.647 528.727 389.02 530.313 389.16C530.453 389.16 530.523 389.253 530.523 389.44C530.523 389.627 530.453 389.72 530.313 389.72ZM508.963 366.76L502.803 346.67C502.57 347.323 502.337 347.977 502.103 348.63C501.917 349.237 501.73 349.843 501.543 350.45C500.61 353.25 499.723 355.98 498.883 358.64C498.09 361.3 497.203 364.007 496.223 366.76H508.963ZM590.446 338.76C590.353 338.807 590.259 338.83 590.166 338.83C590.073 338.83 589.979 338.853 589.886 338.9C589.466 339.04 588.999 339.18 588.486 339.32C588.019 339.46 587.576 339.647 587.156 339.88C586.736 340.067 586.386 340.347 586.106 340.72C585.873 341.047 585.756 341.443 585.756 341.91C585.756 343.823 585.756 345.737 585.756 347.65C585.756 349.563 585.779 351.477 585.826 353.39C585.873 355.303 585.896 357.217 585.896 359.13C585.896 360.997 585.896 362.91 585.896 364.87C585.896 369.117 585.826 373.363 585.686 377.61C585.593 381.81 585.359 386.057 584.986 390.35C584.986 390.443 584.916 390.513 584.776 390.56C584.683 390.653 584.589 390.653 584.496 390.56C578.149 385.1 572.129 379.267 566.436 373.06C560.743 366.853 555.143 360.6 549.636 354.3C548.703 353.227 547.863 352.27 547.116 351.43C546.416 350.543 545.599 349.587 544.666 348.56C544.573 349.447 544.479 350.31 544.386 351.15C544.339 351.99 544.316 352.853 544.316 353.74C544.316 356.12 544.363 358.523 544.456 360.95C544.549 363.33 544.643 365.757 544.736 368.23C544.829 370.657 544.923 373.06 545.016 375.44C545.109 377.82 545.156 380.223 545.156 382.65C545.156 383.863 545.226 384.82 545.366 385.52C545.553 386.173 545.786 386.687 546.066 387.06C546.393 387.387 546.743 387.62 547.116 387.76C547.536 387.9 547.979 388.017 548.446 388.11C548.959 388.203 549.496 388.343 550.056 388.53C550.616 388.67 551.199 388.973 551.806 389.44C551.899 389.533 551.923 389.65 551.876 389.79C551.876 389.883 551.806 389.93 551.666 389.93C551.013 389.883 550.359 389.837 549.706 389.79C549.053 389.743 548.399 389.673 547.746 389.58C546.906 389.487 546.043 389.417 545.156 389.37C544.316 389.277 543.453 389.23 542.566 389.23C541.399 389.23 540.209 389.3 538.996 389.44C537.783 389.58 536.569 389.743 535.356 389.93C535.263 389.977 535.169 389.93 535.076 389.79C535.029 389.65 535.053 389.533 535.146 389.44C535.613 389.067 536.033 388.763 536.406 388.53C536.779 388.297 537.153 388.063 537.526 387.83C537.946 387.597 538.343 387.387 538.716 387.2C539.089 386.967 539.416 386.687 539.696 386.36C539.976 385.987 540.186 385.543 540.326 385.03C540.513 384.47 540.606 383.77 540.606 382.93C540.606 382.51 540.606 381.857 540.606 380.97C540.606 380.083 540.583 379.033 540.536 377.82C540.489 375.253 540.443 372.15 540.396 368.51C540.396 364.87 540.396 361.16 540.396 357.38C540.396 354.813 540.396 352.34 540.396 349.96C540.443 347.58 540.489 345.457 540.536 343.59C540.629 341.723 540.723 340.207 540.816 339.04C540.956 337.827 541.143 337.127 541.376 336.94C541.563 336.847 541.703 336.847 541.796 336.94C548.703 344.033 555.423 351.103 561.956 358.15C568.489 365.15 575.046 372.36 581.626 379.78V379.22C581.626 373.433 581.556 367.623 581.416 361.79C581.276 356.003 581.206 350.193 581.206 344.36C581.206 343.193 581.089 342.283 580.856 341.63C580.623 340.93 580.296 340.417 579.876 340.09C579.503 339.717 579.083 339.483 578.616 339.39C578.149 339.297 577.683 339.203 577.216 339.11C576.796 339.017 576.376 338.947 575.956 338.9C575.536 338.807 575.163 338.62 574.836 338.34C574.743 338.247 574.719 338.153 574.766 338.06C574.859 337.92 574.976 337.873 575.116 337.92C576.469 338.06 577.823 338.223 579.176 338.41C580.529 338.55 581.883 338.573 583.236 338.48L585.686 338.27C586.153 338.223 586.643 338.177 587.156 338.13C587.669 338.037 588.159 338.037 588.626 338.13C588.859 338.13 589.163 338.153 589.536 338.2C589.909 338.2 590.189 338.2 590.376 338.2L590.446 338.76ZM647.002 363.19C647.002 367.857 646.278 371.917 644.832 375.37C643.432 378.777 641.425 381.6 638.812 383.84C636.198 386.08 633.072 387.76 629.432 388.88C625.792 389.953 621.755 390.49 617.322 390.49C615.688 390.49 614.032 390.443 612.352 390.35C610.718 390.257 609.085 390.14 607.452 390C605.585 389.86 603.672 389.72 601.712 389.58C599.798 389.44 597.885 389.417 595.972 389.51C595.832 389.51 595.738 389.44 595.692 389.3C595.692 389.113 595.762 388.997 595.902 388.95C596.928 388.717 597.745 388.413 598.352 388.04C599.005 387.667 599.495 387.223 599.822 386.71C600.148 386.15 600.358 385.497 600.452 384.75C600.545 384.003 600.592 383.117 600.592 382.09V342.82C600.592 342.027 600.475 341.397 600.242 340.93C600.055 340.463 599.775 340.113 599.402 339.88C599.075 339.647 598.702 339.483 598.282 339.39C597.862 339.297 597.442 339.203 597.022 339.11C596.555 339.017 596.135 338.923 595.762 338.83C595.435 338.737 595.178 338.527 594.992 338.2C594.852 337.967 594.922 337.85 595.202 337.85C596.042 337.85 596.882 337.873 597.722 337.92C598.608 337.92 599.448 337.943 600.242 337.99C601.268 338.083 602.272 338.153 603.252 338.2C604.278 338.247 605.282 338.27 606.262 338.27C607.568 338.27 608.852 338.247 610.112 338.2C611.372 338.107 612.632 338.013 613.892 337.92C615.105 337.873 616.365 337.827 617.672 337.78C618.978 337.733 620.238 337.71 621.452 337.71C624.345 337.71 627.285 338.293 630.272 339.46C633.305 340.58 636.035 342.143 638.462 344.15C640.935 346.157 642.942 348.513 644.482 351.22C646.068 353.927 646.862 356.82 646.862 359.9C646.862 360.18 646.862 360.46 646.862 360.74C646.862 361.02 646.885 361.3 646.932 361.58C646.978 361.86 647.002 362.14 647.002 362.42C647.002 362.653 647.002 362.91 647.002 363.19ZM640.702 365.85C640.702 361.93 640.048 358.407 638.742 355.28C637.482 352.153 635.685 349.493 633.352 347.3C631.065 345.107 628.312 343.427 625.092 342.26C621.918 341.093 618.418 340.51 614.592 340.51C613.285 340.51 612.002 340.603 610.742 340.79C609.482 340.977 608.222 341.28 606.962 341.7V379.43C606.962 381.25 607.172 382.72 607.592 383.84C608.012 384.913 608.642 385.753 609.482 386.36C610.322 386.92 611.372 387.293 612.632 387.48C613.938 387.62 615.432 387.69 617.112 387.69C620.612 387.69 623.808 387.247 626.702 386.36C629.595 385.427 632.068 384.05 634.122 382.23C636.222 380.41 637.832 378.147 638.952 375.44C640.118 372.687 640.702 369.49 640.702 365.85ZM682.358 380.9C682.124 382.02 681.914 383.163 681.728 384.33C681.588 385.45 681.424 386.57 681.238 387.69V387.62L681.028 389.3C681.028 389.487 680.934 389.58 680.748 389.58C680.748 389.533 680.678 389.58 680.538 389.72L679.488 389.93C677.994 389.93 676.501 389.93 675.008 389.93C673.514 389.93 672.021 389.907 670.528 389.86C669.034 389.86 667.564 389.86 666.118 389.86C664.671 389.813 663.201 389.79 661.708 389.79C660.214 389.79 658.721 389.79 657.228 389.79C655.734 389.79 654.241 389.837 652.748 389.93V389.37C653.774 389.323 654.591 389.113 655.198 388.74C655.804 388.32 656.271 387.807 656.598 387.2C656.924 386.547 657.134 385.823 657.228 385.03C657.368 384.19 657.438 383.35 657.438 382.51V342.96C657.438 342.26 657.344 341.723 657.158 341.35C657.018 340.93 656.808 340.603 656.528 340.37C656.248 340.137 655.921 339.973 655.548 339.88C655.221 339.74 654.848 339.623 654.428 339.53C653.961 339.437 653.494 339.32 653.028 339.18C652.608 338.993 652.141 338.713 651.628 338.34C651.534 338.247 651.511 338.153 651.558 338.06C651.604 337.967 651.674 337.92 651.768 337.92H656.038C657.578 337.967 659.421 338.013 661.568 338.06C663.714 338.06 665.768 338.06 667.728 338.06C669.221 338.06 670.668 338.06 672.068 338.06C673.514 338.013 674.798 337.967 675.918 337.92C677.084 337.873 678.064 337.803 678.858 337.71C679.698 337.617 680.258 337.5 680.538 337.36C680.818 337.173 680.958 337.243 680.958 337.57C680.818 338.877 680.608 340.183 680.328 341.49C680.094 342.797 679.838 344.057 679.558 345.27C679.511 345.503 679.464 345.713 679.418 345.9C679.371 346.04 679.324 346.227 679.278 346.46C679.231 346.6 679.114 346.67 678.928 346.67C678.788 346.623 678.718 346.53 678.718 346.39C678.531 344.103 677.761 342.61 676.408 341.91C675.054 341.163 673.328 340.79 671.228 340.79H663.738V360.6H674.728C675.054 360.6 675.451 360.507 675.918 360.32C676.431 360.087 676.944 359.853 677.458 359.62C677.831 359.433 678.204 359.27 678.578 359.13C678.951 358.99 679.324 358.873 679.698 358.78C679.931 358.687 680.048 358.78 680.048 359.06C679.954 359.807 679.861 360.553 679.768 361.3C679.674 362.047 679.581 362.77 679.488 363.47C679.348 364.403 679.208 365.313 679.068 366.2C678.974 367.04 678.881 367.903 678.788 368.79C678.788 368.93 678.718 369.023 678.578 369.07C678.484 369.117 678.391 369.093 678.298 369C678.064 368.767 677.878 368.487 677.738 368.16C677.598 367.787 677.481 367.413 677.388 367.04C677.294 366.667 677.178 366.293 677.038 365.92C676.898 365.547 676.641 365.173 676.268 364.8C675.988 364.473 675.404 364.217 674.518 364.03C673.678 363.843 672.744 363.727 671.718 363.68C670.738 363.587 669.758 363.54 668.778 363.54C667.844 363.54 667.144 363.54 666.678 363.54H663.808V383C664.274 383.793 664.858 384.47 665.558 385.03C666.258 385.59 667.004 386.057 667.798 386.43C668.638 386.803 669.501 387.083 670.388 387.27C671.274 387.457 672.138 387.55 672.978 387.55C675.171 387.55 677.061 386.967 678.648 385.8C680.281 384.633 681.354 382.977 681.868 380.83L682.358 380.9Z" />
<path d="M476.48 389.37C475.407 389.883 474.287 390.28 473.12 390.56C472 390.84 470.833 390.98 469.62 390.98C467.8 390.98 466.12 390.607 464.58 389.86C463.04 389.113 461.617 388.157 460.31 386.99C459.003 385.823 457.79 384.517 456.67 383.07C455.55 381.577 454.5 380.107 453.52 378.66C452.54 377.213 451.42 375.697 450.16 374.11C448.947 372.523 447.733 371.217 446.52 370.19C445.587 369.397 444.513 368.93 443.3 368.79C442.087 368.603 440.873 368.51 439.66 368.51C439.147 368.51 438.633 368.51 438.12 368.51C437.607 368.51 437.093 368.533 436.58 368.58V382.09C436.58 384.003 437.14 385.637 438.26 386.99C439.427 388.297 440.943 389.043 442.81 389.23V389.79C441.363 389.65 439.917 389.533 438.47 389.44C437.023 389.347 435.577 389.3 434.13 389.3C432.683 389.3 431.26 389.37 429.86 389.51C428.46 389.603 427.037 389.743 425.59 389.93C425.45 389.977 425.357 389.93 425.31 389.79C425.263 389.603 425.31 389.463 425.45 389.37C426.803 388.763 427.923 387.83 428.81 386.57C429.743 385.263 430.21 383.863 430.21 382.37V344.43C430.21 342.937 429.65 341.63 428.53 340.51C427.457 339.39 426.197 338.643 424.75 338.27C424.61 338.223 424.54 338.13 424.54 337.99C424.587 337.85 424.68 337.78 424.82 337.78H426.15C426.85 337.78 427.55 337.803 428.25 337.85C428.95 337.85 429.627 337.873 430.28 337.92C431.68 338.06 433.08 338.13 434.48 338.13C435.973 338.13 437.49 338.06 439.03 337.92C439.823 337.873 440.57 337.85 441.27 337.85C442.017 337.803 442.787 337.78 443.58 337.78C445.54 337.78 447.453 338.013 449.32 338.48C451.187 338.947 452.843 339.693 454.29 340.72C455.783 341.7 456.973 342.983 457.86 344.57C458.747 346.157 459.19 348.093 459.19 350.38C459.19 351.873 458.957 353.367 458.49 354.86C458.023 356.307 457.393 357.707 456.6 359.06C455.853 360.413 454.967 361.697 453.94 362.91C452.96 364.077 451.957 365.15 450.93 366.13C451.583 366.877 452.353 367.857 453.24 369.07C454.127 370.283 455.037 371.52 455.97 372.78C457.37 374.693 458.84 376.653 460.38 378.66C461.92 380.667 463.53 382.463 465.21 384.05C466.937 385.637 468.71 386.897 470.53 387.83C472.397 388.717 474.333 389.043 476.34 388.81L476.48 389.37ZM452.61 354.02C452.61 352.34 452.353 350.66 451.84 348.98C451.373 347.3 450.65 345.783 449.67 344.43C448.737 343.077 447.57 341.98 446.17 341.14C444.77 340.3 443.137 339.88 441.27 339.88C440.477 339.88 439.683 339.95 438.89 340.09C438.143 340.183 437.397 340.37 436.65 340.65V364.45C437.723 364.637 438.797 364.777 439.87 364.87C440.99 364.917 442.063 364.94 443.09 364.94C446.637 364.94 449.11 363.96 450.51 362C451.91 360.04 452.61 357.38 452.61 354.02ZM530.313 389.72L528.633 389.79C528.027 389.837 527.397 389.86 526.743 389.86C526.137 389.813 525.553 389.743 524.993 389.65C524.527 389.603 524.037 389.557 523.523 389.51C523.01 389.463 522.52 389.44 522.053 389.44C520.887 389.44 519.72 389.487 518.553 389.58C517.387 389.627 516.22 389.697 515.053 389.79C514.82 389.837 514.54 389.86 514.213 389.86C513.887 389.86 513.607 389.883 513.373 389.93C513.233 389.977 513.14 389.93 513.093 389.79C513.047 389.603 513.093 389.463 513.233 389.37L517.013 387.62C515.893 384.633 514.75 381.67 513.583 378.73C512.417 375.743 511.273 372.757 510.153 369.77H495.313C494.987 370.563 494.52 371.777 493.913 373.41C493.307 375.043 492.7 376.747 492.093 378.52C491.533 380.247 491.02 381.903 490.553 383.49C490.133 385.077 489.923 386.22 489.923 386.92C489.923 387.387 490.04 387.783 490.273 388.11C490.553 388.39 490.88 388.623 491.253 388.81C491.627 388.997 492.023 389.137 492.443 389.23C492.91 389.277 493.33 389.323 493.703 389.37V389.93C493.33 389.883 492.933 389.86 492.513 389.86C492.093 389.86 491.697 389.837 491.323 389.79C490.53 389.697 489.737 389.627 488.943 389.58C488.15 389.533 487.357 389.51 486.563 389.51C485.723 389.51 484.883 389.533 484.043 389.58C483.203 389.627 482.387 389.697 481.593 389.79C481.08 389.837 480.567 389.883 480.053 389.93C479.587 389.93 479.097 389.953 478.583 390C478.443 390 478.35 389.93 478.303 389.79C478.303 389.603 478.373 389.487 478.513 389.44C480.333 389.16 481.85 388.577 483.063 387.69C484.323 386.803 485.28 385.543 485.933 383.91C487.707 379.477 489.387 375.043 490.973 370.61C492.56 366.177 494.147 361.697 495.733 357.17C496.9 353.857 498.09 350.52 499.303 347.16C500.563 343.8 501.8 340.487 503.013 337.22C503.06 337.08 503.153 337.01 503.293 337.01C503.433 337.01 503.527 337.08 503.573 337.22C503.807 337.873 504.063 338.55 504.343 339.25C504.623 339.95 504.88 340.65 505.113 341.35C506.373 344.85 507.703 348.467 509.103 352.2C510.503 355.933 511.95 359.667 513.443 363.4C514.983 367.133 516.547 370.82 518.133 374.46C519.767 378.053 521.47 381.53 523.243 384.89C524.037 386.337 525.017 387.387 526.183 388.04C527.35 388.647 528.727 389.02 530.313 389.16C530.453 389.16 530.523 389.253 530.523 389.44C530.523 389.627 530.453 389.72 530.313 389.72ZM508.963 366.76L502.803 346.67C502.57 347.323 502.337 347.977 502.103 348.63C501.917 349.237 501.73 349.843 501.543 350.45C500.61 353.25 499.723 355.98 498.883 358.64C498.09 361.3 497.203 364.007 496.223 366.76H508.963ZM590.446 338.76C590.353 338.807 590.259 338.83 590.166 338.83C590.073 338.83 589.979 338.853 589.886 338.9C589.466 339.04 588.999 339.18 588.486 339.32C588.019 339.46 587.576 339.647 587.156 339.88C586.736 340.067 586.386 340.347 586.106 340.72C585.873 341.047 585.756 341.443 585.756 341.91C585.756 343.823 585.756 345.737 585.756 347.65C585.756 349.563 585.779 351.477 585.826 353.39C585.873 355.303 585.896 357.217 585.896 359.13C585.896 360.997 585.896 362.91 585.896 364.87C585.896 369.117 585.826 373.363 585.686 377.61C585.593 381.81 585.359 386.057 584.986 390.35C584.986 390.443 584.916 390.513 584.776 390.56C584.683 390.653 584.589 390.653 584.496 390.56C578.149 385.1 572.129 379.267 566.436 373.06C560.743 366.853 555.143 360.6 549.636 354.3C548.703 353.227 547.863 352.27 547.116 351.43C546.416 350.543 545.599 349.587 544.666 348.56C544.573 349.447 544.479 350.31 544.386 351.15C544.339 351.99 544.316 352.853 544.316 353.74C544.316 356.12 544.363 358.523 544.456 360.95C544.549 363.33 544.643 365.757 544.736 368.23C544.829 370.657 544.923 373.06 545.016 375.44C545.109 377.82 545.156 380.223 545.156 382.65C545.156 383.863 545.226 384.82 545.366 385.52C545.553 386.173 545.786 386.687 546.066 387.06C546.393 387.387 546.743 387.62 547.116 387.76C547.536 387.9 547.979 388.017 548.446 388.11C548.959 388.203 549.496 388.343 550.056 388.53C550.616 388.67 551.199 388.973 551.806 389.44C551.899 389.533 551.923 389.65 551.876 389.79C551.876 389.883 551.806 389.93 551.666 389.93C551.013 389.883 550.359 389.837 549.706 389.79C549.053 389.743 548.399 389.673 547.746 389.58C546.906 389.487 546.043 389.417 545.156 389.37C544.316 389.277 543.453 389.23 542.566 389.23C541.399 389.23 540.209 389.3 538.996 389.44C537.783 389.58 536.569 389.743 535.356 389.93C535.263 389.977 535.169 389.93 535.076 389.79C535.029 389.65 535.053 389.533 535.146 389.44C535.613 389.067 536.033 388.763 536.406 388.53C536.779 388.297 537.153 388.063 537.526 387.83C537.946 387.597 538.343 387.387 538.716 387.2C539.089 386.967 539.416 386.687 539.696 386.36C539.976 385.987 540.186 385.543 540.326 385.03C540.513 384.47 540.606 383.77 540.606 382.93C540.606 382.51 540.606 381.857 540.606 380.97C540.606 380.083 540.583 379.033 540.536 377.82C540.489 375.253 540.443 372.15 540.396 368.51C540.396 364.87 540.396 361.16 540.396 357.38C540.396 354.813 540.396 352.34 540.396 349.96C540.443 347.58 540.489 345.457 540.536 343.59C540.629 341.723 540.723 340.207 540.816 339.04C540.956 337.827 541.143 337.127 541.376 336.94C541.563 336.847 541.703 336.847 541.796 336.94C548.703 344.033 555.423 351.103 561.956 358.15C568.489 365.15 575.046 372.36 581.626 379.78V379.22C581.626 373.433 581.556 367.623 581.416 361.79C581.276 356.003 581.206 350.193 581.206 344.36C581.206 343.193 581.089 342.283 580.856 341.63C580.623 340.93 580.296 340.417 579.876 340.09C579.503 339.717 579.083 339.483 578.616 339.39C578.149 339.297 577.683 339.203 577.216 339.11C576.796 339.017 576.376 338.947 575.956 338.9C575.536 338.807 575.163 338.62 574.836 338.34C574.743 338.247 574.719 338.153 574.766 338.06C574.859 337.92 574.976 337.873 575.116 337.92C576.469 338.06 577.823 338.223 579.176 338.41C580.529 338.55 581.883 338.573 583.236 338.48L585.686 338.27C586.153 338.223 586.643 338.177 587.156 338.13C587.669 338.037 588.159 338.037 588.626 338.13C588.859 338.13 589.163 338.153 589.536 338.2C589.909 338.2 590.189 338.2 590.376 338.2L590.446 338.76ZM647.002 363.19C647.002 367.857 646.278 371.917 644.832 375.37C643.432 378.777 641.425 381.6 638.812 383.84C636.198 386.08 633.072 387.76 629.432 388.88C625.792 389.953 621.755 390.49 617.322 390.49C615.688 390.49 614.032 390.443 612.352 390.35C610.718 390.257 609.085 390.14 607.452 390C605.585 389.86 603.672 389.72 601.712 389.58C599.798 389.44 597.885 389.417 595.972 389.51C595.832 389.51 595.738 389.44 595.692 389.3C595.692 389.113 595.762 388.997 595.902 388.95C596.928 388.717 597.745 388.413 598.352 388.04C599.005 387.667 599.495 387.223 599.822 386.71C600.148 386.15 600.358 385.497 600.452 384.75C600.545 384.003 600.592 383.117 600.592 382.09V342.82C600.592 342.027 600.475 341.397 600.242 340.93C600.055 340.463 599.775 340.113 599.402 339.88C599.075 339.647 598.702 339.483 598.282 339.39C597.862 339.297 597.442 339.203 597.022 339.11C596.555 339.017 596.135 338.923 595.762 338.83C595.435 338.737 595.178 338.527 594.992 338.2C594.852 337.967 594.922 337.85 595.202 337.85C596.042 337.85 596.882 337.873 597.722 337.92C598.608 337.92 599.448 337.943 600.242 337.99C601.268 338.083 602.272 338.153 603.252 338.2C604.278 338.247 605.282 338.27 606.262 338.27C607.568 338.27 608.852 338.247 610.112 338.2C611.372 338.107 612.632 338.013 613.892 337.92C615.105 337.873 616.365 337.827 617.672 337.78C618.978 337.733 620.238 337.71 621.452 337.71C624.345 337.71 627.285 338.293 630.272 339.46C633.305 340.58 636.035 342.143 638.462 344.15C640.935 346.157 642.942 348.513 644.482 351.22C646.068 353.927 646.862 356.82 646.862 359.9C646.862 360.18 646.862 360.46 646.862 360.74C646.862 361.02 646.885 361.3 646.932 361.58C646.978 361.86 647.002 362.14 647.002 362.42C647.002 362.653 647.002 362.91 647.002 363.19ZM640.702 365.85C640.702 361.93 640.048 358.407 638.742 355.28C637.482 352.153 635.685 349.493 633.352 347.3C631.065 345.107 628.312 343.427 625.092 342.26C621.918 341.093 618.418 340.51 614.592 340.51C613.285 340.51 612.002 340.603 610.742 340.79C609.482 340.977 608.222 341.28 606.962 341.7V379.43C606.962 381.25 607.172 382.72 607.592 383.84C608.012 384.913 608.642 385.753 609.482 386.36C610.322 386.92 611.372 387.293 612.632 387.48C613.938 387.62 615.432 387.69 617.112 387.69C620.612 387.69 623.808 387.247 626.702 386.36C629.595 385.427 632.068 384.05 634.122 382.23C636.222 380.41 637.832 378.147 638.952 375.44C640.118 372.687 640.702 369.49 640.702 365.85ZM682.358 380.9C682.124 382.02 681.914 383.163 681.728 384.33C681.588 385.45 681.424 386.57 681.238 387.69V387.62L681.028 389.3C681.028 389.487 680.934 389.58 680.748 389.58C680.748 389.533 680.678 389.58 680.538 389.72L679.488 389.93C677.994 389.93 676.501 389.93 675.008 389.93C673.514 389.93 672.021 389.907 670.528 389.86C669.034 389.86 667.564 389.86 666.118 389.86C664.671 389.813 663.201 389.79 661.708 389.79C660.214 389.79 658.721 389.79 657.228 389.79C655.734 389.79 654.241 389.837 652.748 389.93V389.37C653.774 389.323 654.591 389.113 655.198 388.74C655.804 388.32 656.271 387.807 656.598 387.2C656.924 386.547 657.134 385.823 657.228 385.03C657.368 384.19 657.438 383.35 657.438 382.51V342.96C657.438 342.26 657.344 341.723 657.158 341.35C657.018 340.93 656.808 340.603 656.528 340.37C656.248 340.137 655.921 339.973 655.548 339.88C655.221 339.74 654.848 339.623 654.428 339.53C653.961 339.437 653.494 339.32 653.028 339.18C652.608 338.993 652.141 338.713 651.628 338.34C651.534 338.247 651.511 338.153 651.558 338.06C651.604 337.967 651.674 337.92 651.768 337.92H656.038C657.578 337.967 659.421 338.013 661.568 338.06C663.714 338.06 665.768 338.06 667.728 338.06C669.221 338.06 670.668 338.06 672.068 338.06C673.514 338.013 674.798 337.967 675.918 337.92C677.084 337.873 678.064 337.803 678.858 337.71C679.698 337.617 680.258 337.5 680.538 337.36C680.818 337.173 680.958 337.243 680.958 337.57C680.818 338.877 680.608 340.183 680.328 341.49C680.094 342.797 679.838 344.057 679.558 345.27C679.511 345.503 679.464 345.713 679.418 345.9C679.371 346.04 679.324 346.227 679.278 346.46C679.231 346.6 679.114 346.67 678.928 346.67C678.788 346.623 678.718 346.53 678.718 346.39C678.531 344.103 677.761 342.61 676.408 341.91C675.054 341.163 673.328 340.79 671.228 340.79H663.738V360.6H674.728C675.054 360.6 675.451 360.507 675.918 360.32C676.431 360.087 676.944 359.853 677.458 359.62C677.831 359.433 678.204 359.27 678.578 359.13C678.951 358.99 679.324 358.873 679.698 358.78C679.931 358.687 680.048 358.78 680.048 359.06C679.954 359.807 679.861 360.553 679.768 361.3C679.674 362.047 679.581 362.77 679.488 363.47C679.348 364.403 679.208 365.313 679.068 366.2C678.974 367.04 678.881 367.903 678.788 368.79C678.788 368.93 678.718 369.023 678.578 369.07C678.484 369.117 678.391 369.093 678.298 369C678.064 368.767 677.878 368.487 677.738 368.16C677.598 367.787 677.481 367.413 677.388 367.04C677.294 366.667 677.178 366.293 677.038 365.92C676.898 365.547 676.641 365.173 676.268 364.8C675.988 364.473 675.404 364.217 674.518 364.03C673.678 363.843 672.744 363.727 671.718 363.68C670.738 363.587 669.758 363.54 668.778 363.54C667.844 363.54 667.144 363.54 666.678 363.54H663.808V383C664.274 383.793 664.858 384.47 665.558 385.03C666.258 385.59 667.004 386.057 667.798 386.43C668.638 386.803 669.501 387.083 670.388 387.27C671.274 387.457 672.138 387.55 672.978 387.55C675.171 387.55 677.061 386.967 678.648 385.8C680.281 384.633 681.354 382.977 681.868 380.83L682.358 380.9Z" />
<path d="M422.91 363.99C421.263 364.307 419.775 364.845 418.445 365.605C417.178 366.302 416.545 367.568 416.545 369.405V393.44C416.545 393.503 416.482 393.598 416.355 393.725C414.835 394.865 413.157 395.783 411.32 396.48C409.547 397.177 407.678 397.683 405.715 398C403.815 398.38 401.883 398.602 399.92 398.665C398.02 398.792 396.152 398.855 394.315 398.855C391.528 398.855 388.71 398.76 385.86 398.57C380.857 398.19 376.328 396.923 372.275 394.77C368.285 392.617 364.865 389.83 362.015 386.41C359.228 382.927 357.075 379 355.555 374.63C354.035 370.197 353.275 365.542 353.275 360.665C353.275 355.028 354.288 350.057 356.315 345.75C358.342 341.38 361.097 337.738 364.58 334.825C368.127 331.848 372.243 329.632 376.93 328.175C381.617 326.655 386.62 325.895 391.94 325.895C394.79 325.895 397.64 326.053 400.49 326.37C403.403 326.687 406.253 327.035 409.04 327.415C410.307 327.605 411.542 327.795 412.745 327.985C414.012 328.175 415.278 328.333 416.545 328.46C416.798 328.46 416.925 328.587 416.925 328.84C416.798 331.12 416.577 333.368 416.26 335.585C415.943 337.738 415.627 339.923 415.31 342.14C415.247 342.583 415.183 343.027 415.12 343.47C415.057 343.85 414.993 344.23 414.93 344.61C414.93 344.8 414.803 344.927 414.55 344.99C414.36 344.99 414.233 344.895 414.17 344.705C413.663 341.982 412.745 339.638 411.415 337.675C410.085 335.712 408.438 334.097 406.475 332.83C404.575 331.5 402.422 330.55 400.015 329.98C397.608 329.347 395.107 329.03 392.51 329.03C388.14 329.03 384.055 329.758 380.255 331.215C376.518 332.672 373.257 334.73 370.47 337.39C367.683 339.987 365.467 343.153 363.82 346.89C362.237 350.563 361.445 354.617 361.445 359.05C361.445 363.863 362.332 368.423 364.105 372.73C365.878 376.973 368.285 380.71 371.325 383.94C374.428 387.107 378.07 389.64 382.25 391.54C386.493 393.377 391.053 394.295 395.93 394.295C398.02 394.295 400.142 394.073 402.295 393.63C404.448 393.123 406.285 392.078 407.805 390.495V369.12C407.805 367.6 407.33 366.587 406.38 366.08C405.43 365.51 404.353 365.035 403.15 364.655C402.643 364.528 402.137 364.37 401.63 364.18C401.123 363.99 400.617 363.737 400.11 363.42C399.92 363.293 399.857 363.167 399.92 363.04C399.983 362.85 400.11 362.755 400.3 362.755C404.1 362.755 407.837 362.787 411.51 362.85C415.247 362.913 419.015 363.04 422.815 363.23L422.91 363.99Z" />
<path d="M422.91 363.99C421.263 364.307 419.775 364.845 418.445 365.605C417.178 366.302 416.545 367.568 416.545 369.405V393.44C416.545 393.503 416.482 393.598 416.355 393.725C414.835 394.865 413.157 395.783 411.32 396.48C409.547 397.177 407.678 397.683 405.715 398C403.815 398.38 401.883 398.602 399.92 398.665C398.02 398.792 396.152 398.855 394.315 398.855C391.528 398.855 388.71 398.76 385.86 398.57C380.857 398.19 376.328 396.923 372.275 394.77C368.285 392.617 364.865 389.83 362.015 386.41C359.228 382.927 357.075 379 355.555 374.63C354.035 370.197 353.275 365.542 353.275 360.665C353.275 355.028 354.288 350.057 356.315 345.75C358.342 341.38 361.097 337.738 364.58 334.825C368.127 331.848 372.243 329.632 376.93 328.175C381.617 326.655 386.62 325.895 391.94 325.895C394.79 325.895 397.64 326.053 400.49 326.37C403.403 326.687 406.253 327.035 409.04 327.415C410.307 327.605 411.542 327.795 412.745 327.985C414.012 328.175 415.278 328.333 416.545 328.46C416.798 328.46 416.925 328.587 416.925 328.84C416.798 331.12 416.577 333.368 416.26 335.585C415.943 337.738 415.627 339.923 415.31 342.14C415.247 342.583 415.183 343.027 415.12 343.47C415.057 343.85 414.993 344.23 414.93 344.61C414.93 344.8 414.803 344.927 414.55 344.99C414.36 344.99 414.233 344.895 414.17 344.705C413.663 341.982 412.745 339.638 411.415 337.675C410.085 335.712 408.438 334.097 406.475 332.83C404.575 331.5 402.422 330.55 400.015 329.98C397.608 329.347 395.107 329.03 392.51 329.03C388.14 329.03 384.055 329.758 380.255 331.215C376.518 332.672 373.257 334.73 370.47 337.39C367.683 339.987 365.467 343.153 363.82 346.89C362.237 350.563 361.445 354.617 361.445 359.05C361.445 363.863 362.332 368.423 364.105 372.73C365.878 376.973 368.285 380.71 371.325 383.94C374.428 387.107 378.07 389.64 382.25 391.54C386.493 393.377 391.053 394.295 395.93 394.295C398.02 394.295 400.142 394.073 402.295 393.63C404.448 393.123 406.285 392.078 407.805 390.495V369.12C407.805 367.6 407.33 366.587 406.38 366.08C405.43 365.51 404.353 365.035 403.15 364.655C402.643 364.528 402.137 364.37 401.63 364.18C401.123 363.99 400.617 363.737 400.11 363.42C399.92 363.293 399.857 363.167 399.92 363.04C399.983 362.85 400.11 362.755 400.3 362.755C404.1 362.755 407.837 362.787 411.51 362.85C415.247 362.913 419.015 363.04 422.815 363.23L422.91 363.99Z" />
<path fill-rule="evenodd" clip-rule="evenodd" d="M182.008 65.1071C182.452 65.9298 183.61 66.6389 184.626 66.7097C185.63 66.7796 186.427 67.1701 186.399 67.5778C186.37 67.9848 187.137 68.6796 188.102 69.121C189.068 69.5625 190.613 71.3082 191.536 73.0012C192.458 74.6941 193.515 75.922 193.883 75.7312C194.253 75.5398 195.188 76.5733 195.964 78.0286C196.739 79.4832 197.643 80.6925 197.973 80.7155C198.303 80.7385 199.174 81.9433 199.907 83.3928C200.642 84.8423 201.722 86.0617 202.307 86.1025C202.895 86.1435 203.52 87.1633 203.703 88.379C203.885 89.5903 204.487 90.613 205.04 90.6515C205.615 90.6916 206.18 91.8453 206.358 93.344C206.529 94.7862 207.11 96.1691 207.648 96.4173C208.187 96.6655 208.575 97.6072 208.512 98.5101C208.45 99.4123 208.832 100.56 209.361 101.059C209.891 101.559 210.459 103.11 210.625 104.506C210.791 105.901 211.252 107.066 211.65 107.094C212.106 107.125 212.12 106.582 211.686 105.628C211.306 104.794 211.228 103.793 211.512 103.402C211.796 103.012 211.744 101.027 211.398 98.9923C210.952 96.3744 211.011 95.0826 211.601 94.576C212.059 94.1829 212.316 92.9593 212.172 91.8567C212.027 90.7534 212.287 89.6578 212.749 89.4177C213.211 89.1782 213.662 87.9412 213.75 86.6689C213.857 85.1377 214.428 84.0836 215.438 83.5539C216.571 82.9594 217.023 81.9623 217.189 79.6878C217.336 77.6953 217.611 76.9808 217.975 77.6468C218.648 78.8764 219.133 78.2811 220.067 75.0758C220.582 73.3094 220.925 72.9453 221.352 73.7125C221.842 74.5914 222.051 74.5922 222.667 73.7191C226.544 68.2243 227.241 67.4578 227.386 68.5351C227.578 69.9635 227.969 70.0031 230.619 68.8635C232.958 67.8576 233.1 68.0172 231.642 70.0179C230.826 71.1371 230.801 71.5378 231.518 72.0505C232.195 72.535 232.018 72.992 230.784 73.9499C229.298 75.103 229.258 75.2912 230.306 76.1662C231.35 77.0367 231.311 77.1836 229.872 77.8213C228.961 78.2242 228.241 79.2383 228.173 80.2142C228.108 81.1454 227.533 82.2777 226.895 82.7308C225.244 83.9016 225.385 84.8049 227.237 84.934L228.829 85.0449L227.021 86.698C226.027 87.6072 225.363 88.8307 225.545 89.4173C225.727 90.0038 225.328 91.1521 224.659 91.9692C223.99 92.7856 223.608 93.9881 223.811 94.6408C224.014 95.2971 223.558 96.4167 222.79 97.1463C221.897 97.9943 221.287 99.7177 221.083 101.971C220.793 105.161 220.89 105.421 222.161 104.858C222.929 104.518 223.575 103.987 223.596 103.679C223.618 103.37 224.258 102.528 225.019 101.806C225.781 101.084 228.305 98.427 230.63 95.9005C232.954 93.3747 236.943 89.6885 239.492 87.7108C244.955 83.4728 255.286 78.8731 258.639 79.1867L260.957 79.4034L258.571 80.09C257.26 80.4679 255.926 81.0033 255.608 81.2811C255.29 81.5583 254.477 81.7471 253.801 81.7001C253.126 81.653 251.898 82.2619 251.072 83.0535C249.572 84.4905 249.573 84.4921 251.79 84.3058C253.01 84.2027 253.587 84.2262 253.073 84.3575C251.89 84.6593 251.758 85.9162 252.901 85.9959C253.372 86.0287 251.886 87.1732 249.598 88.5385C246.876 90.1628 245.484 91.4562 245.573 92.2781C245.663 93.1205 244.953 93.7371 243.42 94.1483C240.427 94.9509 240.426 96.0136 243.418 96.2693C245.578 96.454 245.403 96.5899 241.487 97.7692C239.117 98.4823 237.146 99.3903 237.104 99.7869C237.062 100.185 239.91 100.896 243.461 101.373C246.999 101.849 250.269 102.505 250.728 102.831C252.285 103.937 251.479 104.695 248.712 104.729L245.952 104.762L248.423 106.228L250.895 107.694L247.27 106.956L243.644 106.219L244.993 107.971L246.341 109.722L244.354 109.216C242.981 108.866 242.346 109.012 242.299 109.693C242.261 110.234 241.736 110.643 241.132 110.601C240.528 110.559 240.011 110.858 239.983 111.266C239.921 112.155 247.429 112.126 249.454 111.229C251.322 110.402 273.741 109.536 274.384 110.266C274.669 110.589 274.396 111.122 273.778 111.451C273.003 111.864 273.902 112.147 276.678 112.366C278.89 112.54 281.392 113.128 282.238 113.672C283.679 114.6 283.855 114.905 283.758 116.305C283.736 116.609 285.312 117.745 287.259 118.829C289.206 119.913 290.767 121.258 290.728 121.817C290.689 122.377 291.41 123.69 292.33 124.734C294.124 126.773 293.056 127.274 290.413 125.632C289.461 125.041 288.578 124.994 287.484 125.478C286.324 125.992 285.663 125.932 284.936 125.246C283.629 124.013 281.096 124.701 282.225 125.983C283.414 127.333 283.121 128.055 281.433 127.938C280.517 127.874 280.101 128.161 280.371 128.668C280.68 129.249 280.129 129.303 278.563 128.847C277.062 128.41 276.291 128.469 276.253 129.021C276.219 129.505 275.597 129.637 274.76 129.337C273.97 129.056 272.63 128.576 271.781 128.271C270.565 127.834 270.316 127.971 270.61 128.916C271.274 131.055 265.323 130.044 260.565 127.209C258.286 125.851 256.066 124.777 255.633 124.821C254.603 124.927 248.524 123.413 247.697 122.844C246.798 122.226 242.692 121.669 241.935 122.062C240.982 122.555 243.529 124.316 246.371 125.128C248.797 125.821 255.604 129.479 256.296 130.46C256.48 130.722 257.964 131.971 259.595 133.236C261.227 134.502 262.534 135.923 262.501 136.393C262.468 136.864 263.353 138.411 264.468 139.831C265.582 141.251 266.475 142.684 266.452 143.013C266.429 143.344 267.475 145.355 268.777 147.484C270.853 150.878 273.119 158.454 272.275 159.178C272.109 159.321 271.457 158.38 270.826 157.085C269.529 154.42 268.842 154.092 268.355 155.902C268.125 156.756 267.258 155.72 265.608 152.623C263.349 148.386 263.185 148.235 263.022 150.264L262.848 152.431L260.837 149.022C259.731 147.147 258.576 144.86 258.271 143.94C257.677 142.151 256.259 141.566 256.149 143.065C256.112 143.563 255.382 142.625 254.527 140.983C253.064 138.174 252.949 138.101 252.594 139.746C252.24 141.391 252.089 141.295 250.062 138.126C248.877 136.274 247.879 135.148 247.846 135.624C247.745 137.079 246.379 136.508 243.055 133.617C239.572 130.588 238.662 130.225 238.55 131.821C238.497 132.586 237.512 132.186 234.966 130.368C231.483 127.879 229.687 127.638 231.317 129.876C232.448 131.431 231.746 131.302 228.465 129.351C226.962 128.458 224.316 127.443 222.584 127.096C219.865 126.55 220.668 127.174 228.45 131.652C235.953 135.969 237.446 137.109 237.353 138.442C237.274 139.58 238.003 140.469 239.866 141.506C242.941 143.217 247.683 148.515 247.572 150.114C247.529 150.724 248.307 152.443 249.301 153.934C251.991 157.968 257.843 171.898 258.618 176.108C259.264 179.619 259.173 188.759 258.511 186.816C258.337 186.304 257.811 185.847 257.342 185.8C255.655 185.631 252.748 182.172 251.528 178.883C250.844 177.038 250.01 175.672 249.675 175.848C249.34 176.025 249.022 175.21 248.969 174.038C248.897 172.445 248.688 172.155 248.141 172.891C247.634 173.572 247.464 172.985 247.588 170.981C247.848 166.793 246.806 165.26 245.775 168.31C244.847 171.052 243.108 171.948 243.272 169.599C243.332 168.743 242.921 167.519 242.358 166.881C241.797 166.243 241.22 164.434 241.076 162.861C240.816 160.006 239.567 159.444 239.382 162.098C239.328 162.87 238.955 163.478 238.553 163.45C238.15 163.422 237.891 162.389 237.977 161.153C238.09 159.533 237.843 158.995 237.09 159.222C236.036 159.539 235.333 156.887 235.569 153.49C235.63 152.626 235.313 151.502 234.866 150.995C234.236 150.28 233.769 150.583 232.795 152.34L231.537 154.608L231.439 152.421C231.385 151.219 230.92 148.8 230.406 147.046C229.554 144.137 229.378 143.965 228.41 145.091C227.397 146.269 227.329 146.258 226.923 144.843C226.689 144.027 226.098 142.188 225.609 140.756C224.84 138.501 224.637 138.333 224.093 139.51C223.559 140.668 223.106 140.243 221.033 136.64C216.71 129.126 215.741 129.101 217.316 136.546C217.788 138.776 218.499 142.258 218.896 144.283C219.293 146.309 220.159 150.618 220.82 153.861C221.481 157.103 222.331 161.412 222.709 163.436C223.088 165.46 224.453 172.093 225.743 178.176C227.034 184.259 228.797 192.718 229.661 196.973C230.525 201.228 231.482 205.381 231.788 206.202C232.094 207.022 232.879 210.509 233.531 213.951C234.184 217.392 235.059 221.539 235.476 223.166C235.893 224.794 236.924 229.115 237.767 232.77C238.61 236.424 239.662 240.84 240.104 242.583C241.083 246.446 241.001 248.36 239.829 248.967C238.299 249.761 236.564 246.261 234.817 238.853C231.378 224.272 228.833 212.458 227.322 204.074C226.279 198.285 221.833 174.152 221.085 170.224C219.972 164.373 218.441 155.272 217.809 150.745C217.471 148.324 216.808 145.499 216.336 144.467C215.865 143.436 215.611 141.457 215.774 140.07C215.937 138.683 215.503 136.201 214.811 134.555L213.552 131.561L213.732 134.807C213.83 136.592 214.243 138.508 214.648 139.066C215.055 139.623 215.113 140.297 214.779 140.563C214.445 140.83 214.052 140.625 213.905 140.109C213.545 138.843 211.64 136.726 211.201 137.104C211.007 137.27 211.394 138.866 212.06 140.649C212.727 142.432 213.427 144.96 213.616 146.268C213.803 147.575 214.248 148.851 214.604 149.104C215.479 149.725 215.249 152.15 214.152 153.877C213.259 155.281 213.246 155.279 211.825 153.546C210.078 151.415 209.411 152.501 210.396 155.874C211.011 157.983 213.144 169.244 213.086 170.076C213.074 170.25 212.652 170.363 212.149 170.328C211.096 170.254 210.579 175.608 211.243 179.708L211.659 182.28L209.625 179.728C207.33 176.849 207.068 176.987 206.032 181.619C205.407 184.415 205.077 184.861 203.922 184.476C202.723 184.074 202.525 184.43 202.321 187.355C202.193 189.192 201.815 190.674 201.481 190.651C200.815 190.604 199.669 188.149 199.152 185.664C198.971 184.795 198.188 183.872 197.41 183.613C196.426 183.284 196.036 182.515 196.128 181.084C196.309 178.267 195.493 176.999 193.825 177.502C192.56 177.883 192.513 177.592 193.235 173.8C193.98 169.884 193.944 169.703 192.491 170.049C191.077 170.386 191.015 170.2 191.647 167.501C192.207 165.111 192.118 164.573 191.156 164.506C190.249 164.443 190.114 163.951 190.56 162.332C191.075 160.47 190.965 160.272 189.564 160.531C188.442 160.739 188.014 160.488 188.072 159.655C188.117 159.011 188.511 158.51 188.946 158.541C189.382 158.571 189.616 158.179 189.467 157.669C189.317 157.16 188.818 156.797 188.358 156.865C187.051 157.058 187.432 156.022 189.59 153.519C190.934 151.958 191.365 150.926 190.927 150.323C190.249 149.391 191.849 145.684 192.902 145.747C193.204 145.765 193.504 145.029 193.568 144.112C193.632 143.195 194.584 141.401 195.684 140.123C196.785 138.846 197.726 137.214 197.776 136.496C197.826 135.778 198.361 135.225 198.965 135.267C199.568 135.309 200.089 134.964 200.121 134.5C200.18 133.66 201.349 132.43 204.684 129.698C205.65 128.908 206.465 127.887 206.497 127.43C206.598 125.99 203.318 126.418 201.783 128.045C200.624 129.272 200.107 129.411 199.348 128.694C198.588 127.978 198.365 128.034 198.301 128.957C198.224 130.063 197.859 130.219 195.344 130.225C194.777 130.227 194.012 130.859 193.643 131.631C193.271 132.407 192.981 132.579 192.991 132.015C193.004 131.322 192.531 131.473 191.508 132.486C190.427 133.557 189.913 133.705 189.681 133.015C189.477 132.405 189.135 132.636 188.745 133.647C188.408 134.522 187.84 135.218 187.484 135.193C186.474 135.123 183.577 137.846 183.274 139.152C183.113 139.845 182.474 140.195 181.719 140.004C180.722 139.75 180.506 140.032 180.745 141.279C180.995 142.586 180.797 142.794 179.663 142.416C178.649 142.077 178.248 142.324 178.178 143.33C178.115 144.24 177.57 144.672 176.575 144.603C175.747 144.545 175.197 144.753 175.354 145.063C175.51 145.373 175.292 146.376 174.867 147.291C174.251 148.618 173.899 148.77 173.128 148.043C171.701 146.697 171.179 147.856 170.615 153.627C170.345 156.404 170.018 158.67 169.891 158.663C169.764 158.656 169.046 158.268 168.296 157.803C167.112 157.067 166.916 157.201 166.803 158.814C166.689 160.448 166.504 160.566 165.264 159.796C164.103 159.075 163.828 159.147 163.706 160.207C163.62 160.962 163.432 161.11 163.253 160.564C163.084 160.053 162.315 159.591 161.544 159.537C160.772 159.483 160.173 158.974 160.213 158.406C160.252 157.839 159.823 156.849 159.258 156.208C158.07 154.859 158.005 152.711 159.046 149.193L159.782 146.702L158.111 147.969C157.191 148.666 156.423 148.94 156.403 148.577C156.332 147.238 156.945 144.303 157.436 143.633C157.714 143.252 158.006 142.619 158.083 142.225C158.161 141.831 158.304 141.091 158.401 140.581C158.498 140.071 160.217 138.149 162.221 136.307C165.109 133.655 165.578 132.934 164.486 132.833C162.711 132.669 172.194 124.898 177.099 122.497C181.516 120.335 188.684 119.388 194.985 120.134C197.731 120.459 199.167 120.494 198.175 120.212C197.183 119.93 195.883 119.204 195.286 118.598C194.689 117.993 193.965 117.7 193.677 117.946C193.389 118.194 193.203 117.691 193.263 116.83C193.386 115.06 192.686 114.789 191.168 116.018C190.342 116.687 190.081 116.669 189.863 115.927C189.713 115.417 189.134 114.968 188.577 114.929C187.927 114.884 187.763 114.433 188.121 113.673C188.562 112.736 187.913 112.845 185.008 114.194C182.989 115.131 181.203 115.747 181.039 115.561C180.876 115.375 182.172 114.115 183.92 112.76C186.947 110.416 188.632 107.849 185.896 109.751C184.754 110.543 184.663 110.503 185.16 109.425C185.951 107.71 183.993 107.687 182.014 109.387C181.154 110.126 180.292 110.72 180.098 110.706C179.905 110.693 177.82 111.719 175.466 112.987C173.111 114.255 171.066 115.156 170.92 114.99C170.774 114.825 171.741 113.557 173.069 112.173C175.982 109.14 175.473 109.006 170.469 111.488C166.531 113.441 164.567 113.907 166.206 112.499C166.723 112.055 167.173 111.288 167.208 110.793C167.242 110.298 168.506 108.736 170.016 107.32C173.059 104.467 172.435 103.335 169.006 105.491C167.796 106.252 166.566 106.858 166.274 106.837C165.982 106.817 165.02 107.366 164.136 108.058C163.253 108.749 161.69 109.506 160.662 109.738C158.961 110.123 159.022 109.998 161.343 108.326C165.963 105 163.569 105.309 155.932 109.026C149.629 112.093 146.23 113.477 145.907 113.11C145.518 112.668 149.084 108.645 149.87 108.64C150.741 108.634 157.351 104.524 157.046 104.177C156.58 103.647 152.204 104.474 152.16 105.101C152.138 105.42 151.449 105.806 150.629 105.958C149.809 106.11 149.342 105.952 149.594 105.607C150.196 104.778 149.976 104.79 146.138 105.791L142.86 106.646L144.985 105.281C147.593 103.607 153.98 100.903 155.144 100.98C155.614 101.011 156.137 100.702 156.308 100.293C156.719 99.3067 161.69 98.5664 166.018 98.8462C170.031 99.1055 170.647 98.0762 167.266 96.7619C165.359 96.021 165.86 95.9861 170.037 96.5714C174.675 97.2207 175.014 97.1783 173.791 96.1014C172.492 94.9591 172.511 94.9226 174.323 95.0489C175.356 95.1208 177.567 95.7653 179.237 96.4809C182.966 98.0796 182.854 98.074 182.406 96.6284C182.076 95.5681 182.291 95.5925 184.382 96.8511C188.47 99.3124 195.593 105.188 199.699 109.488C203.254 113.211 204.625 113.924 206.262 112.907C207.709 112.009 207.731 112.062 204.677 109.072C202.834 107.27 200.804 104.159 201.502 104.207C201.901 104.235 202.262 103.77 202.304 103.173C202.346 102.577 202.037 102.065 201.618 102.036C200.391 101.95 196.739 98.5992 196.807 97.6218C196.842 97.1288 196.049 95.9904 195.046 95.0931C194.043 94.1951 193.669 93.4913 194.216 93.5294C194.768 93.5679 194.502 93.0328 193.614 92.3222C192.737 91.6204 192.203 90.6548 192.428 90.1766C192.654 89.6976 191.943 88.347 190.848 87.1745C189.754 86.0014 188.888 84.6276 188.923 84.1202C188.958 83.6134 188.207 82.5302 187.252 81.714C186.298 80.8971 185.542 79.866 185.573 79.4221C185.604 78.9782 184.893 77.7112 183.993 76.6067C182.938 75.3128 182.531 74.0837 182.848 73.152C183.128 72.3288 182.986 71.6804 182.517 71.6477C181.915 71.6058 181.945 71.2483 182.631 70.3147C183.393 69.2767 183.281 68.5955 182.025 66.6497C181.177 65.3354 180.647 64.1187 180.848 63.9461C181.049 63.7734 181.571 64.2957 182.008 65.1071Z" />
<path fill-rule="evenodd" clip-rule="evenodd" d="M618.681 49.1443C618.179 49.9532 616.969 50.5951 615.946 50.5951C614.936 50.5951 614.11 50.9372 614.11 51.3558C614.11 51.7736 613.293 52.4288 612.295 52.811C611.297 53.1932 609.627 54.8666 608.585 56.5304C607.542 58.1942 606.398 59.3734 606.042 59.1522C605.686 58.9303 604.676 59.9196 603.798 61.3511C602.92 62.7818 601.93 63.9529 601.597 63.9529C601.265 63.9529 600.309 65.1217 599.473 66.5502C598.636 67.9788 597.469 69.1476 596.879 69.1476C596.287 69.1476 595.591 70.1449 595.322 71.3739C595.056 72.5983 594.381 73.6002 593.824 73.6002C593.245 73.6002 592.599 74.7385 592.316 76.2569C592.044 77.7181 591.365 79.0895 590.809 79.3047C590.252 79.5199 589.797 80.4542 589.797 81.3811C589.797 82.3072 589.334 83.4523 588.769 83.925C588.203 84.3977 587.525 85.9413 587.261 87.3557C586.998 88.7694 586.455 89.9263 586.054 89.9263C585.595 89.9263 585.619 89.3705 586.121 88.4265C586.559 87.6021 586.707 86.5847 586.45 86.1654C586.193 85.7461 586.383 83.7224 586.872 81.6683C587.502 79.0256 587.533 77.7017 586.977 77.1422C586.546 76.7081 586.374 75.4398 586.595 74.3237C586.817 73.2068 586.634 72.0692 586.187 71.7909C585.741 71.5134 585.376 70.2177 585.376 68.9116C585.376 67.3398 584.877 66.2222 583.903 65.6092C582.809 64.9213 582.426 63.8705 582.418 61.5351C582.411 59.4891 582.184 58.7396 581.773 59.3942C581.013 60.6023 580.569 59.9596 579.857 56.6187C579.464 54.7776 579.147 54.3813 578.665 55.1345C578.113 55.9976 577.903 55.9835 577.347 55.0477C573.846 49.1584 573.202 48.3258 572.982 49.4159C572.689 50.8615 572.295 50.8741 569.72 49.5213C567.447 48.3272 567.294 48.4801 568.615 50.6278C569.354 51.8292 569.351 52.2403 568.597 52.713C567.885 53.1598 568.03 53.6392 569.199 54.7056C570.608 55.9894 570.635 56.1846 569.524 57.0039C568.417 57.8187 568.445 57.9716 569.843 58.7255C570.728 59.202 571.378 60.2891 571.378 61.291C571.378 62.2468 571.875 63.4445 572.483 63.9529C574.054 65.2664 573.85 66.1792 571.986 66.1792H570.384L572.079 67.9966C573.012 68.9962 573.592 70.2934 573.368 70.8796C573.145 71.4659 573.464 72.6673 574.078 73.5497C574.691 74.4313 574.989 75.6869 574.741 76.3392C574.491 76.9953 574.87 78.1715 575.588 78.9715C576.424 79.9013 576.914 81.7054 576.962 84.0214C577.029 87.3015 576.914 87.5598 575.68 86.8941C574.935 86.4926 574.325 85.9041 574.325 85.5873C574.325 85.2704 573.742 84.3643 573.03 83.5732C572.318 82.7814 569.974 79.8872 567.821 77.1407C565.669 74.3949 561.931 70.3453 559.515 68.1435C554.339 63.4252 544.31 57.9909 540.929 58.0725L538.592 58.1289L540.933 59.0001C542.221 59.4795 543.52 60.1214 543.819 60.4279C544.118 60.7337 544.92 60.9845 545.6 60.9845C546.28 60.9845 547.467 61.6939 548.24 62.5614C549.642 64.1362 549.64 64.1377 547.433 63.7896C546.217 63.5974 545.637 63.5803 546.144 63.751C547.308 64.1436 547.353 65.4371 546.202 65.4371C545.727 65.4371 547.137 66.712 549.333 68.2697C551.946 70.1227 553.25 71.5431 553.104 72.3764C552.956 73.2306 553.624 73.9111 555.131 74.4402C558.073 75.4732 557.999 76.5589 554.985 76.6071C552.808 76.642 552.974 76.7934 556.815 78.2769C559.139 79.1741 561.05 80.2419 561.064 80.6501C561.078 81.0597 558.176 81.5829 554.585 81.8181C551.008 82.0527 547.686 82.4898 547.204 82.7896C545.566 83.8092 546.32 84.6411 549.091 84.8726L551.853 85.1027L549.275 86.4244L546.696 87.746L550.38 87.2503L554.064 86.7553L552.59 88.4488L551.117 90.1423L553.143 89.766C554.543 89.5063 555.169 89.7015 555.169 90.4005C555.169 90.9556 555.666 91.4105 556.274 91.4105C556.882 91.4105 557.379 91.7534 557.379 92.1719C557.379 93.084 549.859 92.52 547.893 91.4602C546.079 90.4822 523.68 88.0013 522.986 88.7011C522.678 89.0113 522.913 89.5753 523.509 89.9553C524.257 90.4317 523.337 90.6573 520.541 90.6833C518.312 90.704 515.765 91.1263 514.88 91.622C513.371 92.4673 513.173 92.7663 513.173 94.2038C513.173 94.5155 511.516 95.5633 509.49 96.5325C507.464 97.5009 505.806 98.764 505.806 99.3384C505.806 99.9127 504.992 101.203 503.997 102.204C502.057 104.159 503.092 104.747 505.854 103.258C506.85 102.722 507.738 102.736 508.8 103.309C509.927 103.917 510.593 103.902 511.369 103.253C512.765 102.086 515.253 102.97 514.033 104.199C512.748 105.494 512.991 106.252 514.69 106.252C515.612 106.252 516.009 106.575 515.703 107.074C515.353 107.645 515.901 107.74 517.502 107.386C519.036 107.047 519.804 107.161 519.804 107.728C519.804 108.224 520.418 108.404 521.278 108.157C522.088 107.926 523.465 107.531 524.336 107.28C525.585 106.92 525.824 107.078 525.465 108.022C524.65 110.16 530.682 109.551 535.646 106.994C538.024 105.769 540.323 104.829 540.754 104.906C541.779 105.087 547.974 103.973 548.843 103.45C549.787 102.883 553.938 102.607 554.67 103.062C555.59 103.634 552.916 105.251 550.012 105.878C547.532 106.414 540.459 109.665 539.697 110.619C539.494 110.873 537.92 112.043 536.197 113.22C534.475 114.397 533.066 115.755 533.066 116.238C533.066 116.721 532.071 118.239 530.856 119.61C529.64 120.982 528.645 122.381 528.645 122.72C528.645 123.059 527.457 125.039 526.004 127.121C523.688 130.44 520.889 138.019 521.684 138.819C521.84 138.977 522.559 138.061 523.281 136.784C524.767 134.153 525.478 133.867 525.84 135.751C526.01 136.639 526.952 135.643 528.821 132.597C531.379 128.429 531.554 128.287 531.576 130.371L531.599 132.597L533.851 129.258C535.091 127.421 536.407 125.167 536.777 124.248C537.497 122.464 538.958 121.967 538.964 123.506C538.966 124.017 539.762 123.111 540.734 121.494C542.396 118.729 542.516 118.663 542.757 120.368C542.997 122.074 543.154 121.986 545.407 118.894C546.723 117.086 547.801 116.007 547.801 116.496C547.801 117.99 549.209 117.503 552.74 114.787C556.441 111.94 557.379 111.634 557.379 113.272C557.379 114.057 558.394 113.719 561.071 112.043C564.734 109.749 566.55 109.63 564.761 111.8C563.519 113.308 564.232 113.226 567.655 111.466C569.223 110.661 571.945 109.813 573.704 109.582C576.466 109.218 575.618 109.797 567.51 113.818C559.691 117.695 558.116 118.752 558.116 120.122C558.116 121.29 557.324 122.145 555.385 123.072C552.185 124.602 547.064 129.676 547.064 131.318C547.064 131.944 546.165 133.645 545.066 135.096C542.089 139.027 535.253 152.841 534.184 157.086C533.291 160.627 532.745 169.971 533.543 168.032C533.753 167.522 534.313 167.093 534.785 167.078C536.488 167.025 539.641 163.699 541.092 160.426C541.906 158.589 542.838 157.253 543.161 157.457C543.485 157.661 543.86 156.852 543.994 155.658C544.178 154.036 544.408 153.755 544.904 154.545C545.364 155.277 545.575 154.689 545.591 152.634C545.623 148.337 546.774 146.845 547.594 150.034C548.332 152.902 550.012 153.94 550.012 151.529C550.012 150.65 550.509 149.429 551.117 148.818C551.724 148.206 552.428 146.399 552.682 144.802C553.142 141.904 554.432 141.418 554.432 144.143C554.432 144.936 554.764 145.584 555.169 145.584C555.574 145.584 555.906 144.546 555.906 143.278C555.906 141.615 556.191 141.083 556.93 141.368C557.963 141.767 558.853 139.108 558.853 135.621C558.853 134.733 559.248 133.608 559.732 133.122C560.412 132.436 560.859 132.779 561.712 134.643L562.814 137.05L563.065 134.823C563.203 133.599 563.838 131.16 564.476 129.405C565.532 126.495 565.721 126.331 566.611 127.55C567.544 128.826 567.613 128.819 568.118 127.402C568.41 126.586 569.13 124.749 569.72 123.321C570.647 121.072 570.863 120.916 571.325 122.156C571.78 123.377 572.263 122.976 574.591 119.443C579.447 112.074 580.419 112.117 578.322 119.61C577.694 121.855 576.738 125.362 576.199 127.402C575.66 129.443 574.492 133.784 573.603 137.05C572.715 140.315 571.562 144.656 571.042 146.697C570.521 148.738 568.691 155.417 566.973 161.539C565.255 167.661 562.899 176.177 561.736 180.462C560.574 184.748 559.325 188.922 558.961 189.739C558.597 190.555 557.568 194.061 556.674 197.531C555.78 201 554.613 205.174 554.082 206.807C553.551 208.439 552.216 212.781 551.117 216.454C550.017 220.128 548.655 224.564 548.091 226.313C546.84 230.189 546.789 232.15 547.921 232.855C549.398 233.774 551.38 230.322 553.647 222.878C558.11 208.228 561.485 196.34 563.583 187.883C565.033 182.044 571.172 157.706 572.195 153.747C573.718 147.849 575.887 138.661 576.837 134.08C577.345 131.632 578.206 128.793 578.75 127.773C579.295 126.753 579.687 124.749 579.62 123.321C579.554 121.892 580.162 119.388 580.97 117.755L582.441 114.787L582.034 118.089C581.811 119.906 581.263 121.834 580.818 122.375C580.373 122.915 580.267 123.599 580.583 123.895C580.899 124.191 581.307 124.01 581.49 123.493C581.94 122.225 583.996 120.199 584.409 120.616C584.592 120.8 584.093 122.402 583.301 124.176C582.508 125.951 581.63 128.484 581.35 129.806C581.071 131.128 580.536 132.4 580.162 132.633C579.243 133.205 579.304 135.698 580.282 137.541C581.079 139.038 581.092 139.038 582.636 137.368C584.535 135.315 585.127 136.472 583.905 139.848C583.142 141.959 580.219 153.311 580.219 154.165C580.219 154.343 580.634 154.489 581.14 154.489C582.2 154.489 582.344 159.995 581.393 164.136L580.796 166.734L583.012 164.272C585.512 161.494 585.766 161.653 586.48 166.46C586.911 169.36 587.21 169.839 588.394 169.528C589.623 169.203 589.797 169.58 589.797 172.583C589.797 174.468 590.072 176.01 590.409 176.01C591.079 176.01 592.399 173.583 593.09 171.081C593.332 170.207 594.181 169.319 594.978 169.11C595.987 168.844 596.431 168.086 596.439 166.618C596.454 163.727 597.36 162.489 598.997 163.122C600.237 163.602 600.304 163.307 599.846 159.382C599.373 155.329 599.422 155.146 600.853 155.604C602.246 156.049 602.322 155.863 601.877 153.06C601.482 150.58 601.608 150.036 602.577 150.036C603.491 150.036 603.66 149.543 603.326 147.857C602.94 145.919 603.064 145.724 604.449 146.089C605.559 146.381 606.005 146.155 606.005 145.299C606.005 144.639 605.646 144.1 605.207 144.1C604.768 144.1 604.561 143.682 604.747 143.172C604.933 142.662 605.457 142.327 605.913 142.43C607.209 142.72 606.9 141.634 604.914 138.923C603.676 137.233 603.315 136.148 603.797 135.563C604.541 134.66 603.197 130.759 602.137 130.748C601.834 130.745 601.585 129.971 601.585 129.03C601.585 128.089 600.756 126.188 599.743 124.805C598.73 123.422 597.901 121.687 597.901 120.95C597.901 120.214 597.404 119.61 596.796 119.61C596.188 119.61 595.691 119.221 595.691 118.745C595.691 117.883 594.605 116.542 591.454 113.515C590.542 112.638 589.797 111.538 589.797 111.069C589.797 109.59 593.052 110.261 594.477 112.032C595.551 113.368 596.06 113.547 596.871 112.868C597.681 112.191 597.901 112.264 597.901 113.212C597.901 114.347 598.255 114.532 600.775 114.718C601.342 114.76 602.065 115.46 602.381 116.275C602.699 117.095 602.978 117.29 603.007 116.714C603.042 116.005 603.506 116.192 604.46 117.301C605.468 118.471 605.972 118.66 606.253 117.971C606.5 117.362 606.827 117.622 607.147 118.683C607.424 119.601 607.944 120.352 608.302 120.352C609.319 120.352 612.031 123.341 612.244 124.697C612.356 125.416 612.972 125.819 613.741 125.677C614.758 125.489 614.955 125.793 614.628 127.049C614.287 128.366 614.471 128.593 615.633 128.288C616.672 128.014 617.057 128.294 617.057 129.327C617.057 130.261 617.573 130.742 618.574 130.742C619.408 130.742 619.944 130.993 619.765 131.298C619.587 131.604 619.736 132.644 620.097 133.609C620.622 135.009 620.964 135.189 621.788 134.501C623.31 133.228 623.752 134.449 623.915 140.385C623.992 143.241 624.161 145.579 624.289 145.581C624.416 145.582 625.163 145.238 625.947 144.816C627.184 144.148 627.371 144.299 627.371 145.955C627.371 147.632 627.549 147.766 628.845 147.068C630.058 146.413 630.329 146.507 630.377 147.599C630.411 148.376 630.588 148.54 630.806 147.996C631.011 147.485 631.813 147.068 632.59 147.068C633.367 147.068 634.002 146.591 634.002 146.007C634.002 145.425 634.502 144.445 635.112 143.83C636.396 142.537 636.611 140.347 635.815 136.679L635.251 134.081L636.837 135.495C637.709 136.273 638.46 136.607 638.505 136.237C638.67 134.874 638.261 131.833 637.816 131.113C637.563 130.705 637.316 130.037 637.265 129.629C637.215 129.22 637.123 128.455 637.061 127.927C637 127.399 635.412 125.313 633.533 123.289C630.825 120.374 630.405 119.604 631.507 119.578C633.296 119.537 624.338 110.923 619.593 108.122C615.318 105.599 608.203 104.12 601.839 104.434C599.065 104.571 597.625 104.505 598.638 104.287C599.651 104.069 601.004 103.42 601.644 102.844C602.285 102.268 603.031 102.02 603.302 102.293C603.573 102.566 603.795 102.066 603.795 101.182C603.795 99.3651 604.516 99.138 605.95 100.501C606.731 101.243 606.994 101.243 607.264 100.501C607.449 99.9914 608.061 99.5736 608.622 99.5736C609.277 99.5736 609.472 99.1246 609.167 98.3232C608.79 97.3339 609.433 97.4913 612.249 99.0764C614.206 100.178 615.952 100.934 616.129 100.755C616.306 100.577 615.096 99.1974 613.439 97.6894C610.57 95.0787 609.061 92.3367 611.669 94.4739C612.758 95.3652 612.852 95.3303 612.429 94.1934C611.757 92.3856 613.719 92.5014 615.583 94.3789C616.394 95.1952 617.216 95.8631 617.411 95.8631C617.606 95.8631 619.622 97.0601 621.892 98.5228C624.163 99.9855 626.149 101.052 626.307 100.893C626.465 100.734 625.584 99.3703 624.351 97.8623C621.644 94.5555 622.163 94.4553 627.003 97.3473C630.811 99.6226 632.747 100.239 631.203 98.6831C630.716 98.1933 630.318 97.377 630.318 96.8694C630.318 96.3611 629.162 94.675 627.748 93.1218C624.898 89.9901 625.602 88.8785 628.887 91.3244C630.047 92.1882 631.237 92.8947 631.53 92.8947C631.824 92.8947 632.75 93.524 633.587 94.2936C634.423 95.0631 635.936 95.947 636.949 96.2572C638.627 96.7722 638.575 96.6393 636.366 94.7663C631.97 91.0395 634.346 91.5263 641.738 95.8668C647.838 99.4482 651.147 101.105 651.496 100.753C651.917 100.329 648.625 95.9648 647.838 95.9039C646.966 95.8364 640.63 91.1664 640.96 90.8339C641.464 90.3256 645.79 91.4825 645.79 92.1252C645.79 92.4532 646.454 92.8962 647.265 93.1099C648.076 93.3237 648.554 93.1953 648.326 92.8257C647.78 91.9352 648.001 91.9634 651.776 93.2591L655 94.3663L652.966 92.8205C650.47 90.9244 644.261 87.7074 643.089 87.703C642.617 87.7015 642.113 87.3483 641.971 86.9186C641.628 85.8819 636.7 84.7717 632.345 84.7494C628.306 84.7287 627.76 83.6333 631.239 82.5313C633.201 81.9102 632.703 81.8389 628.477 82.1395C623.786 82.4727 623.448 82.4052 624.749 81.3922C626.13 80.3176 626.114 80.279 624.29 80.279C623.25 80.279 620.99 80.78 619.267 81.3922C615.42 82.7599 615.532 82.7621 616.082 81.3172C616.486 80.2575 616.269 80.2672 614.087 81.4041C609.819 83.6274 602.274 89.1226 597.86 93.2235C594.038 96.7729 592.615 97.4044 591.046 96.249C589.66 95.2279 589.634 95.2806 592.902 92.4443C594.874 90.7337 597.124 87.7 596.422 87.7C596.02 87.7 595.691 87.1991 595.691 86.5869C595.691 85.9746 596.036 85.4737 596.457 85.4737C597.692 85.4737 601.585 82.3102 601.585 81.3068C601.585 80.8007 602.459 79.6943 603.526 78.849C604.594 78.003 605.017 77.3106 604.467 77.3106C603.911 77.3106 604.215 76.783 605.154 76.1203C606.082 75.4658 606.684 74.5174 606.492 74.0128C606.299 73.5074 607.105 72.1783 608.284 71.0585C609.462 69.9379 610.426 68.5962 610.426 68.0752C610.426 67.555 611.255 66.502 612.268 65.7361C613.281 64.9695 614.11 63.9699 614.11 63.5143C614.11 63.0586 614.911 61.8149 615.89 60.7507C617.037 59.504 617.531 58.2773 617.278 57.3029C617.055 56.4421 617.242 55.7898 617.714 55.7898C618.32 55.7898 618.315 55.4225 617.693 54.4199C617.002 53.3052 617.162 52.6173 618.556 50.719C619.498 49.4367 620.113 48.2315 619.924 48.0408C619.734 47.8501 619.175 48.3465 618.681 49.1443Z" />
<g clip-path="url(#clip0_1425_337)">
<path d="M434.63 106.55L357.5 106.29C369.61 102.84 382.39 101 395.61 101C408.83 101 422.25 102.94 434.63 106.55Z" />
<path d="M452.6 113.2L339.49 112.81C341.53 111.9 343.57 111.05 345.66 110.25L446.46 110.59C448.54 111.41 450.57 112.28 452.6 113.2Z" />
<path d="M325.83 119.76L319.4 123.74C321.5 122.36 323.65 121.03 325.83 119.76Z" />
<path d="M466.22 120.24L325.83 119.76C327.6 118.73 329.4 117.73 331.23 116.78L460.83 117.22H460.85C462.67 118.19 464.45 119.2 466.22 120.24Z" />
<path d="M476.96 127.28L315.03 126.72C316.47 125.7 317.92 124.71 319.4 123.74L472.61 124.26H472.66C474.13 125.24 475.53 126.25 476.96 127.28Z" />
<path d="M485.9 134.31L306.05 133.69C307.26 132.67 308.42 131.74 309.66 130.7H309.72L482.24 131.3C483.48 132.28 484.7 133.28 485.9 134.31Z" />
<path d="M493.52 141.34L298.38 140.67C299.41 139.65 300.46 138.66 301.53 137.68L490.39 138.33C491.45 139.31 492.49 140.31 493.52 141.34Z" />
<path d="M500.13 148.36L291.72 147.64C292.63 146.63 293.54 145.63 294.47 144.65L497.41 145.35C498.33 146.34 499.24 147.34 500.13 148.36Z" />
<path d="M505.9 155.38L285.91 154.62C286.7 153.61 287.5 152.61 288.31 151.63L503.51 152.37C504.32 153.36 505.12 154.36 505.9 155.38Z" />
<path d="M510.95 162.4L280.81 161.61C281.5 160.6 282.2 159.6 282.92 158.61L508.87 159.39C509.57 160.38 510.27 161.39 510.95 162.4Z" />
<path d="M515.38 169.41L276.33 168.59C276.93 167.58 277.55 166.59 278.18 165.6L513.56 166.41C514.18 167.4 514.78 168.4 515.38 169.41Z" />
<path d="M519.25 176.42L272.41 175.58C272.93 174.57 273.47 173.57 274.03 172.58L517.65 173.42C518.2 174.41 518.73 175.41 519.25 176.42Z" />
<path d="M522.17 182.43L269.45 181.57C269.76 180.9 270.08 180.23 270.4 179.57L521.23 180.43C521.55 181.09 521.86 181.76 522.17 182.43Z" />
<path d="M524.73 188.44L266.84 187.56C267.12 186.89 267.39 186.22 267.67 185.56L523.92 186.44C524.19 187.1 524.47 187.77 524.73 188.44Z" />
<path d="M526.97 194.45L264.56 193.55C264.8 192.88 265.04 192.21 265.29 191.55L526.27 192.45C526.5 193.11 526.74 193.78 526.97 194.45Z" />
<path d="M528.91 200.46L262.59 199.54C262.79 198.87 263 198.21 263.22 197.55L528.29 198.46C528.5 199.12 528.71 199.79 528.91 200.46Z" />
<path d="M530.53 206.46L260.92 205.54C261.09 204.87 261.26 204.21 261.44 203.54L530.02 204.46C530.2 205.13 530.37 205.79 530.53 206.46Z" />
<path d="M531.88 212.47L259.53 211.53C259.67 210.86 259.81 210.2 259.96 209.53L531.47 210.47C531.61 211.14 531.75 211.8 531.88 212.47Z" />
<path d="M532.95 218.47L258.42 217.53C258.53 216.86 258.64 216.19 258.76 215.53L532.62 216.47C532.74 217.13 532.85 217.8 532.95 218.47Z" />
<path d="M533.75 224.47L257.58 223.53C257.65 222.86 257.74 222.19 257.83 221.53L533.51 222.47C533.6 223.13 533.68 223.8 533.75 224.47Z" />
<path d="M534.29 230.48L257 229.52C257.05 228.85 257.1 228.19 257.16 227.52L534.13 228.48C534.19 229.14 534.24 229.81 534.29 230.48Z" />
<path d="M446.46 110.59C442.6 109.08 438.65 107.73 434.63 106.55L446.46 110.59Z" />
<path d="M466.22 120.24C468.39 121.53 470.52 122.86 472.61 124.26H472.66L466.22 120.24Z" />
</g>
<path fill-rule="evenodd" clip-rule="evenodd" d="M284.198 213.026C271.293 228.101 259.189 230.883 259.189 231.36C259.189 231.837 211.12 230.274 187.928 230.3C148.784 230.3 145.257 230.459 138.229 232.34C123.64 236.261 104.429 241.216 69.8807 250.012C60.3953 252.422 62.9069 254.277 75.6788 254.277C78.8585 254.277 82.8931 254.568 84.6299 254.913L87.7828 255.549V311.318H85.5117C81.5037 311.318 0.970946 327.982 0.0357614 329.015C-0.258154 329.333 1.29158 329.333 3.5093 328.989C5.72703 328.645 23.4421 326.313 42.8672 323.796C62.2924 321.306 82.7328 318.604 88.2638 317.835C131.229 311.795 186.832 306.522 225.495 304.88C232.71 304.562 248.822 303.873 261.326 303.343C368.926 298.68 428.297 299.263 526.705 305.887C569.269 308.748 616.002 313.57 648.172 318.392C661.906 320.458 725.632 328.38 743.615 330.261C749.44 330.87 762.612 332.248 772.872 333.334C801.169 336.301 802.798 336.434 801.115 335.453C796.974 332.99 769.506 326.923 730.495 319.822C717.964 317.544 680.85 312.589 659.368 310.338C648.279 309.172 631.232 307.344 621.533 306.284C570.525 300.72 519.624 296.163 493.386 294.839C486.439 294.494 471.476 293.541 460.093 292.746C410.288 289.249 268.835 292.958 191.695 299.82C176.999 301.118 158.59 302.707 150.841 303.37C143.066 304.006 129.439 305.41 120.568 306.496C111.697 307.582 102.051 308.721 99.1386 309.039L93.8482 309.622V255.761L269.155 255.814C436.5 255.867 512.864 255.443 628.854 253.774L681.064 253.032V255.39C681.117 256.688 681.251 269.458 681.358 283.764L681.572 309.781H687.637L687.904 281.512L688.172 253.244H697.31C703.215 253.244 706.341 252.873 706.1 252.211C705.673 250.939 678.98 239.335 656.829 230.804L648.252 227.492L549.924 231.334C524.434 232.049 500.707 213.212 500.493 213" />
<path d="M117.495 287.951H104.884V264.451H117.495V287.951ZM107.422 285.46H114.984V266.968H107.422V285.46Z" />
<path d="M146.727 285.937H134.115V266.438H146.727V285.937ZM136.654 283.447H144.215V268.955H136.654V283.447Z" />
<path d="M176.946 285.937H165.35V266.438H176.946V285.937ZM167.861 283.447H174.408V268.955H167.861V283.447Z" />
<path d="M207.193 285.937H195.597V266.438H207.193V285.937ZM198.108 283.447H204.655V268.955H198.108V283.447Z" />
<path d="M242.49 286.944H227.874V262.464H242.49V286.944ZM230.386 284.454H239.951V264.954H230.386V284.454Z" />
<path d="M277.76 284.957H259.109V261.457H277.76V284.957ZM261.621 282.466H275.221V263.974H261.621V282.466Z" />
<path d="M317.064 284.957H301.433V261.457H317.064V284.957ZM303.971 282.466H314.552V263.974H303.971V282.466Z" />
<path d="M350.33 284.957H333.71V260.477H350.33V284.957ZM336.222 282.467H347.818V262.967H336.222V282.467Z" />
<path d="M392.681 286.944H374.03V259.47H392.681V286.944ZM376.542 284.454H390.142V261.961H376.542V284.454Z" />
<path d="M434.015 286.944H414.35V258.463H434.015V286.944ZM416.888 284.454H431.504V260.954H416.888V284.454Z" />
<path d="M473.32 286.944H456.7V261.457H473.32V286.944ZM459.212 284.453H470.808V263.974H459.212V284.453Z" />
<path d="M508.59 285.938H492.959V260.451H508.59V285.938ZM495.497 283.447H506.078V262.968H495.497V283.447Z" />
<path d="M544.875 286.944H527.24V261.457H544.875V286.944ZM529.752 284.453H542.364V263.974H529.752V284.453Z" />
<path d="M575.121 282.943H561.521V261.457H575.121V282.943ZM564.032 280.453H572.609V263.974H564.032V280.453Z" />
<path d="M603.365 282.943H590.753V261.457H603.365V282.943ZM593.291 280.453H600.853V263.974H593.291V280.453Z" />
<path d="M634.599 282.944H621.987V260.451H634.599V282.944ZM624.526 280.453H632.087V262.968H624.526V280.453Z" />
<path d="M665.861 282.943H653.249V262.464H665.861V282.943ZM655.787 280.453H663.349V264.954H655.787V280.453Z" />
<defs>
<clipPath id="clip0_1425_337">
<rect width="277.29" height="129.48"  transform="translate(257 101)"/>
</clipPath>
</defs>
</svg>
