<svg width="494" height="512" viewBox="0 0 494 512" fill="none" xmlns="http://www.w3.org/2000/svg">
<path d="M73.5741 474.372C73.1087 475.744 71.3448 476.185 70.3404 475.131C49.7127 454.136 34.9401 430.667 23.9649 404.723C9.14332 369.617 2.45525 332.722 0.691367 294.823C-1.83197 241.147 1.84285 188.059 23.6464 138.254C58.8507 57.7763 119.729 10.9108 208.266 2.1159C246.655 -1.70586 284.849 -0.848362 322.356 8.82851C393.009 27.0308 442.104 71.9609 467.827 138.572C502.664 228.849 501.635 320.767 464.544 410.774C456.729 429.736 443.084 446.297 431.986 463.837C430.81 465.675 429.144 467.218 427.209 469.129C426.18 470.134 424.489 469.717 424.024 468.37C405.405 415.87 370.054 381.033 318.264 360.577C317.186 360.136 315.937 360.773 315.643 361.9C302.463 411.974 289.528 461.192 276.593 510.384L271.154 510.042C267.945 486.082 264.98 462.074 261.036 438.212C259.199 427.163 261.747 419.005 269.855 411.778C273.114 408.863 275.833 405.36 279.238 401.416C279.949 400.583 279.851 399.333 279.018 398.623C269.88 391.053 261.036 383.703 251.604 375.888C250.894 375.3 249.84 375.276 249.105 375.888C240.041 383.385 231.172 390.71 221.765 398.451C220.908 399.162 220.81 400.436 221.545 401.269C226.812 407.246 231.858 412.685 236.44 418.491C238.399 420.99 240.629 424.591 240.286 427.384C236.954 455.018 233.23 482.628 228.086 510.409C227.718 512.442 224.803 512.565 224.288 510.556C211.182 461.437 198.051 412.244 184.699 362.292C184.405 361.189 183.205 360.552 182.127 360.944C127.299 381.327 92.1929 419.054 73.6476 474.347L73.5741 474.372ZM256.871 322.016C256.553 321.134 256.871 320.154 257.68 319.664C259.419 318.562 261.134 317.337 262.996 316.994C285.216 313.172 311.527 300.85 325.932 283.872C328.015 281.398 332.033 279.511 335.266 279.291C341.93 278.826 345.041 275.543 345.213 269.418C345.507 257.61 345.605 245.777 345.335 233.969C345.286 231.47 343.449 228.947 342.126 226.595C339.578 222.014 335.487 217.849 334.36 212.974C325.418 174.756 292.859 147.342 254.47 146.363C213.534 145.334 178.991 170.077 168.04 208.344C165.884 215.865 166.154 224.439 157.726 229.045C156.305 229.829 155.521 232.891 155.472 234.924C155.227 246.096 154.884 257.316 155.521 268.463C155.693 271.574 158.412 276.229 161.034 277.184C167.648 279.585 169.387 284.632 171.445 290.266C180.167 314.201 193.371 334.878 215.518 348.719C249.767 370.131 294.991 356.755 312.63 320.669C312.948 320.007 312.875 319.223 312.434 318.635C310.67 316.21 308.979 313.883 307.534 311.898C306.995 311.163 306.04 310.894 305.182 311.261C291.341 317.288 272.134 324.246 258.562 323.339C257.802 323.29 257.141 322.776 256.896 322.041L256.871 322.016ZM145.624 291.271C146.726 291.393 147.706 290.536 147.755 289.433C147.927 286.371 148.123 283.652 148.123 280.932C148.172 263.171 148.123 245.41 148.123 227.648C148.196 173.776 189.084 131.321 246.729 128.454C301.115 125.735 344.625 165.324 350.455 211.773C353.395 235.096 351.974 259.006 351.974 282.623C351.974 289.825 354.056 292.3 361.21 290.487C376.35 286.665 385.512 276.621 389.187 262.093C392.911 247.394 389.506 233.773 376.889 224.562C369.76 219.343 366.159 213.292 364.174 205.012C351.117 150.38 303.32 112.285 249.522 113.265C193.396 114.294 146.898 152.855 134.771 207.805C133.718 212.606 130.19 217.849 126.246 220.838C112.135 231.519 106.549 246.071 111.228 263.636C115.222 278.703 127.838 289.213 145.6 291.246L145.624 291.271Z" />
<path d="M249.816 332.844C246.803 333.163 243.74 333.138 240.776 332.599C239.061 332.306 237.322 331.791 235.974 330.787C232.937 328.484 229.605 324.197 229.678 320.865C229.752 317.508 233.231 312.511 236.366 311.335C241.291 309.497 247.244 309.742 252.682 310.134C259.15 310.6 263.731 313.638 263.658 321.33C263.584 329.17 258.341 331.13 252.29 332.501C251.531 332.673 250.747 332.771 249.865 332.869L249.816 332.844Z" />
</svg>
