<svg width="60" height="60" viewBox="0 0 60 60" fill="none" xmlns="http://www.w3.org/2000/svg">
<path d="M0 30C0 38.2833 3.35836 45.7846 8.78684 51.2132C14.2154 56.6416 21.7159 60 30 60C38.2841 60 45.7846 56.6416 51.2132 51.2132C56.6416 45.7846 60 38.2841 60 30C60 21.7159 56.6416 14.2154 51.2132 8.78684C45.7846 3.35836 38.2841 0 30 0C21.7159 0 14.2154 3.35836 8.78684 8.78684C3.35836 14.2154 0 21.7159 0 30ZM23.5126 20.7418C21.4195 17.111 24.3286 15.3142 26.4497 17.342L38.291 27.7413C40.182 29.6314 40.182 30.3694 38.291 32.2604L26.4497 42.6598C24.3184 44.673 21.4262 42.9179 23.5126 39.259L29.0125 30.0008L23.5126 20.7418Z" fill="white"/>
</svg>
