<svg width="123" height="121" viewBox="0 0 123 121" fill="none" xmlns="http://www.w3.org/2000/svg">
<path fill-rule="evenodd" clip-rule="evenodd" d="M91.0898 56.5303C99.8598 56.5303 107.82 60.0903 113.57 65.8403C119.32 71.6003 122.88 79.5503 122.88 88.3203C122.88 97.1003 119.32 105.05 113.57 110.8C107.81 116.55 99.8598 120.11 91.0898 120.11C82.3098 120.11 74.3598 116.55 68.6098 110.8C62.8598 105.04 59.2998 97.0903 59.2998 88.3203C59.2998 79.5503 62.8598 71.5903 68.6098 65.8403C74.3598 60.0903 82.3198 56.5303 91.0898 56.5303ZM97.3098 76.7803C98.7298 75.3403 101.05 75.3303 102.48 76.7703C103.91 78.2103 103.92 80.5403 102.49 81.9903L96.2498 88.3203L102.5 94.6603C103.91 96.0903 103.89 98.4103 102.46 99.8503C101.03 101.28 98.7198 101.28 97.3098 99.8403L91.0998 93.5503L84.8798 99.8603C83.4598 101.31 81.1398 101.31 79.7098 99.8703C78.2798 98.4303 78.2698 96.1003 79.6998 94.6503L85.9398 88.3203L79.6898 81.9803C78.2798 80.5503 78.2998 78.2303 79.7298 76.7903C81.1598 75.3603 83.4698 75.3603 84.8798 76.8003L91.0898 83.0903L97.3098 76.7803Z" fill="#ffffff"/>
<path d="M69.43 4.04C69.43 1.82 71.62 0 74.35 0C77.08 0 79.27 1.8 79.27 4.04V21.7C79.27 23.92 77.08 25.74 74.35 25.74C71.62 25.74 69.43 23.94 69.43 21.7V4.04ZM13.41 57.17C13.13 57.17 12.88 55.94 12.88 54.44C12.88 52.93 13.1 51.72 13.41 51.72H26.85C27.13 51.72 27.38 52.95 27.38 54.44C27.38 55.94 27.16 57.17 26.85 57.17H13.41ZM34.82 57.17C34.54 57.17 34.29 55.94 34.29 54.44C34.29 52.93 34.51 51.72 34.82 51.72H48.26C48.54 51.72 48.79 52.95 48.79 54.44C48.79 55.94 48.57 57.17 48.26 57.17H34.82ZM56.24 57.17C55.96 57.17 55.71 55.94 55.71 54.44C55.71 52.93 55.93 51.72 56.24 51.72H69.68C69.96 51.72 70.21 52.94 70.21 54.43C68.86 55.27 67.57 56.18 66.33 57.17H56.24ZM13.44 72.8C13.16 72.8 12.91 71.57 12.91 70.07C12.91 68.56 13.13 67.34 13.44 67.34H26.88C27.16 67.34 27.41 68.56 27.41 70.07C27.41 71.57 27.19 72.8 26.88 72.8H13.44ZM34.85 72.8C34.57 72.8 34.32 71.57 34.32 70.07C34.32 68.56 34.54 67.34 34.85 67.34H48.29C48.57 67.34 48.82 68.56 48.82 70.07C48.82 71.57 48.6 72.8 48.29 72.8H34.85ZM13.47 88.43C13.19 88.43 12.94 87.21 12.94 85.7C12.94 84.2 13.16 82.97 13.47 82.97H26.9C27.18 82.97 27.43 84.2 27.43 85.7C27.43 87.21 27.21 88.43 26.9 88.43H13.47ZM34.88 88.43C34.6 88.43 34.35 87.21 34.35 85.7C34.35 84.2 34.57 82.97 34.88 82.97H48.32C48.6 82.97 48.85 84.2 48.85 85.7C48.85 87.21 48.63 88.43 48.32 88.43H34.88ZM25.21 4.04C25.21 1.81 27.4 0 30.13 0C32.86 0 35.05 1.8 35.05 4.04V21.7C35.05 23.92 32.85 25.74 30.13 25.74C27.4 25.74 25.21 23.94 25.21 21.7V4.04ZM5.42 38.61H99.19V18.28C99.19 17.58 98.91 16.97 98.46 16.53C98.01 16.09 97.37 15.8 96.71 15.8H87.72C86.22 15.8 84.99 14.57 84.99 13.07C84.99 11.57 86.22 10.34 87.72 10.34H96.71C98.91 10.34 100.89 11.23 102.33 12.67C103.78 14.11 104.66 16.09 104.66 18.29V50.57C102.87 49.95 101.02 49.45 99.13 49.08V44.04H99.19H5.42V96.7C5.42 97.4 5.7 98 6.15 98.45C6.6 98.9 7.24 99.18 7.9 99.18H52.46C52.97 101.07 53.61 102.92 54.37 104.69H7.95C5.76 104.69 3.77 103.8 2.33 102.36C0.89 100.92 0 98.95 0 96.75V18.3C0 16.11 0.89 14.12 2.33 12.68C3.77 11.23 5.75 10.35 7.95 10.35H17.55C19.06 10.35 20.28 11.58 20.28 13.08C20.28 14.58 19.05 15.81 17.55 15.81H7.95C7.25 15.81 6.64 16.09 6.2 16.54C5.75 16.99 5.47 17.63 5.47 18.29V38.62H5.42V38.61ZM42.93 15.8C41.43 15.8 40.2 14.57 40.2 13.07C40.2 11.57 41.43 10.34 42.93 10.34H61.23C62.73 10.34 63.96 11.57 63.96 13.07C63.96 14.58 62.73 15.8 61.23 15.8H42.93Z" fill="white"/>
</svg>
