<svg width="123" height="116" viewBox="0 0 123 116" fill="none" xmlns="http://www.w3.org/2000/svg">
<path d="M37.16 55.0042C35.16 51.7842 31.36 47.4142 31.36 43.6542C31.4022 42.4295 31.8147 41.2463 32.5431 40.2609C33.2715 39.2754 34.2816 38.5339 35.44 38.1342C35.25 34.9442 35.12 31.7142 35.12 28.5142C35.12 26.6142 35.12 24.7042 35.23 22.8242C35.3326 21.8527 35.5473 20.8963 35.87 19.9742C37.3371 15.161 40.5461 11.0677 44.87 8.49422C46.4243 7.52569 48.0769 6.72455 49.8 6.10422C52.9 4.97422 51.4 0.10422 54.8 0.00421958C62.8 -0.19578 75.8 6.75422 80.92 12.2742C84.1515 15.6111 86.0111 20.0406 86.13 24.6842L85.81 38.6142C86.5623 38.7716 87.2628 39.1162 87.8466 39.6161C88.4304 40.116 88.8787 40.7551 89.15 41.4742C90.23 45.8642 85.68 51.3342 83.56 54.8342C81.56 58.0542 74.13 66.8342 74.12 66.9342C74.1676 67.5312 74.402 68.098 74.79 68.5542C75.5199 69.5477 76.3473 70.4656 77.26 71.2942C72.9313 75.8766 70.1186 81.6809 69.2043 87.9179C68.29 94.1549 69.3185 100.522 72.15 106.154H0C0 74.4242 34.1 84.5042 45.69 68.5542C46.26 67.7142 46.53 67.2642 46.52 66.8942C46.52 66.6942 37.93 56.1742 37.16 54.9542V55.0042Z" />
<path fill-rule="evenodd" clip-rule="evenodd" d="M99.56 69.0039C104.173 69.0039 108.683 70.3717 112.519 72.9343C116.356 75.497 119.346 79.1395 121.112 83.4013C122.879 87.6631 123.342 92.353 122.443 96.878C121.545 101.403 119.325 105.56 116.064 108.824C112.803 112.087 108.648 114.311 104.124 115.213C99.5994 116.116 94.9092 115.656 90.6458 113.894C86.3825 112.131 82.7375 109.144 80.1715 105.31C77.6056 101.476 76.234 96.9673 76.23 92.3539C76.2261 89.2881 76.8267 86.2516 77.9975 83.4182C79.1683 80.5848 80.8863 78.01 83.0532 75.8412C85.2201 73.6725 87.7934 71.9523 90.6258 70.779C93.4582 69.6058 96.4942 69.0026 99.56 69.0039ZM89.45 88.1139L89 87.6639C88.31 86.9539 88 86.3639 89 85.3839L92.32 82.1439C92.5093 81.9026 92.7447 81.7014 93.0125 81.552C93.2803 81.4027 93.5752 81.3081 93.88 81.2739C94.4739 81.3515 95.013 81.6606 95.38 82.1339L99.65 86.4039L104.33 81.7139C105.04 81.0239 105.64 80.7139 106.62 81.7139L109.86 85.0039C110.103 85.1905 110.305 85.4254 110.453 85.6939C110.601 85.9624 110.692 86.2586 110.72 86.5639C110.683 86.8583 110.587 87.1424 110.44 87.3998C110.292 87.6572 110.095 87.8829 109.86 88.0639L105.6 92.3239L109.86 96.5839C110.333 96.9509 110.642 97.49 110.72 98.0839C110.692 98.3892 110.601 98.6855 110.453 98.954C110.305 99.2224 110.103 99.4574 109.86 99.6439L106.62 103.004C105.62 104.004 105.04 103.694 104.33 103.004L99.65 98.3039L95.38 102.574C95.013 103.047 94.4739 103.356 93.88 103.434C93.5752 103.4 93.2803 103.305 93.0125 103.156C92.7447 103.006 92.5093 102.805 92.32 102.564L89 99.3239C88 98.3239 88.31 97.7539 89 97.0439L93.7 92.3539L89.45 88.1139Z" fill="#D8453E"/>
</svg>
