<svg width="123" height="116" viewbox="0 0 123 116" fill="none" xmlns="http://www.w3.org/2000/svg">
<path fill-rule="evenodd" clip-rule="evenodd" d="M116.56 3.69L112.72 57.45L95.03 42.45C75.53 51.17 65.07 66.44 64.52 86.22C46.57 59.24 57.06 35.82 76.98 20.25L64.96 3L116.56 3.69ZM28.3 0H42.86V19.67H32.67C28.5 19.67 24.71 21.38 21.95 24.14C19.2 26.89 17.49 30.69 17.49 34.86L17.46 80.86C17.49 85.02 19.21 88.81 21.96 91.57C24.72 94.33 28.52 96.05 32.67 96.05H90.69C94.84 96.05 98.64 94.33 101.4 91.57C104.16 88.81 105.88 85.02 105.88 80.86V73.9H122.89V85.23C122.89 93 119.69 102.27 114.57 107.39C109.45 112.51 102.36 115.71 94.59 115.71H28.3C20.53 115.71 13.44 112.51 8.32 107.39C3.19 102.26 0 95.18 0 87.41L0.03 28.31C0 20.52 3.19 13.43 8.31 8.31C13.43 3.19 20.51 0 28.3 0Z" />
</svg>
