<svg width="200" height="188" viewBox="0 0 200 188" fill="none" xmlns="http://www.w3.org/2000/svg">
<path d="M71.875 18.75H128.125C129.844 18.75 131.25 20.1562 131.25 21.875V37.5H68.75V21.875C68.75 20.1562 70.1562 18.75 71.875 18.75ZM50 21.875V37.5H25C11.2109 37.5 0 48.7109 0 62.5V100H75H125H200V62.5C200 48.7109 188.789 37.5 175 37.5H150V21.875C150 9.80469 140.195 0 128.125 0H71.875C59.8047 0 50 9.80469 50 21.875ZM200 112.5H125V125C125 131.914 119.414 137.5 112.5 137.5H87.5C80.5859 137.5 75 131.914 75 125V112.5H0V162.5C0 176.289 11.2109 187.5 25 187.5H175C188.789 187.5 200 176.289 200 162.5V112.5Z" />
</svg>
