<svg width="123" height="121" viewbox="0 0 123 121" fill="none" xmlns="http://www.w3.org/2000/svg">
<path d="M98.1339 2.04594e-06C102.208 -0.00165369 106.22 1.00167 109.814 2.92108C113.407 4.84048 116.472 7.6167 118.736 11.0037C121.001 14.3908 122.394 18.284 122.794 22.3385C123.194 26.393 122.588 30.4836 121.029 34.2477C119.47 38.0118 117.007 41.3334 113.857 43.9179C110.708 46.5024 106.97 48.2702 102.974 49.0646C98.9776 49.859 94.8474 49.6554 90.9489 48.472C87.0504 47.2885 83.504 45.1617 80.6239 42.28C80.4039 42.06 80.1939 41.84 79.9839 41.61L48.8439 54.61C49.5585 57.537 49.738 60.5691 49.3739 63.56L81.0239 78.31C85.402 74.1535 91.1525 71.7473 97.1861 71.5474C103.22 71.3475 109.117 73.3676 113.76 77.2251C118.404 81.0826 121.471 86.5095 122.381 92.4774C123.291 98.4452 121.98 104.54 118.697 109.605C115.414 114.671 110.386 118.357 104.567 119.964C98.7482 121.571 92.5419 120.988 87.1242 118.325C81.7065 115.662 77.4539 111.104 75.1722 105.515C72.8904 99.9257 72.7381 93.6938 74.7439 88L45.3639 74.26C42.5259 78.5063 38.4447 81.7715 33.6792 83.6085C28.9136 85.4455 23.6967 85.7644 18.7428 84.5217C13.789 83.2789 9.34039 80.5352 6.00625 76.6663C2.6721 72.7974 0.615425 67.9924 0.117851 62.9093C-0.379724 57.8262 0.706134 52.7136 3.22673 48.2716C5.74732 43.8296 9.57941 40.2753 14.1982 38.0955C18.8171 35.9157 23.9968 35.2169 29.0281 36.0949C34.0595 36.9729 38.6964 39.3847 42.3039 43C42.7439 43.44 43.1739 43.9 43.5739 44.37L74.3139 31.55C73.2652 27.8649 73.0856 23.9868 73.7893 20.2206C74.493 16.4543 76.0608 12.9027 78.3694 9.84492C80.678 6.78714 83.6645 4.30659 87.094 2.59831C90.5235 0.890042 94.3025 0.000625696 98.1339 2.04594e-06Z" />
</svg>
