<svg width="80" height="80" viewbox="0 0 80 80"  xmlns="http://www.w3.org/2000/svg">
<path d="M40 0C51.0417 0 61.0482 4.47917 68.2813 11.7188C75.5208 18.9583 80 28.9583 80 40C80 51.0417 75.5208 61.0482 68.2813 68.2813C61.0417 75.5208 51.0417 80 40 80C28.9583 80 18.9518 75.5208 11.7188 68.2813C4.47917 61.0482 0 51.0417 0 40C0 28.9583 4.47917 18.9518 11.7188 11.7188C18.9518 4.47917 28.9583 0 40 0ZM25.2148 43.3724C24.8568 43.0469 24.5703 42.6562 24.3685 42.2331C24.1667 41.8034 24.043 41.3281 24.0234 40.8594C24.0039 40.3906 24.069 39.9154 24.2318 39.4661C24.3815 39.0299 24.6289 38.6133 24.9609 38.2487C25.2865 37.8841 25.6771 37.6042 26.1003 37.4023C26.5365 37.2005 27.0052 37.0768 27.474 37.0573C27.9427 37.0312 28.418 37.1029 28.8672 37.2656C29.3034 37.4219 29.7201 37.6628 30.0781 37.9948L35.6445 43.0469L48.9193 29.069C49.2578 28.7174 49.6549 28.444 50.0846 28.2552C50.5208 28.0599 50.9961 27.9557 51.4714 27.9427C51.9401 27.9297 52.4219 28.0143 52.8646 28.1836L52.8906 28.1966C53.3073 28.3594 53.7109 28.6133 54.056 28.9388C54.4076 29.2773 54.681 29.6745 54.8763 30.1042C55.0716 30.5404 55.1758 31.0091 55.1888 31.4844C55.2018 31.9531 55.1172 32.4349 54.9479 32.8776L54.9284 32.9167C54.7591 33.3333 54.5117 33.7305 54.1927 34.069L38.112 50.7096C37.4479 51.3997 37.1745 51.6862 35.9701 51.7448H35.9505C35.4883 51.7578 35.026 51.6862 34.5898 51.53C34.1667 51.3737 33.7565 51.1328 33.4049 50.8073L25.2148 43.3724ZM64.056 15.944C57.8971 9.78516 49.3945 5.98307 40 5.98307C30.6055 5.98307 22.0964 9.79167 15.944 15.944C9.78516 22.0964 5.98307 30.6055 5.98307 40C5.98307 49.3945 9.79167 57.9036 15.944 64.056C22.0964 70.2148 30.6055 74.0169 40 74.0169C49.3945 74.0169 57.9036 70.2083 64.056 64.056C70.2083 57.9036 74.0169 49.3945 74.0169 40C74.0234 30.6055 70.2148 22.0964 64.056 15.944Z" />
</svg>
