<svg width="152" height="171" viewbox="0 0 152 171" fill="none" xmlns="http://www.w3.org/2000/svg">
<g clip-path="url(#clip0_742_473)">
<path d="M150.357 75.6885C150.357 84.0983 148.952 92.5081 143.331 100.918C127.874 127.549 89.9333 134.557 59.0187 116.336L66.0448 102.32L0 110.729L28.1042 171L35.1302 158.385C71.6656 179.41 119.443 166.795 140.521 130.352C150.357 112.131 153.168 93.9098 150.357 75.6885Z" fill="white"/>
<path d="M1.40547 93.9098C1.40547 85.5 2.81068 77.0902 8.43151 68.6803C23.8888 42.0492 61.8294 35.041 92.744 53.2623L85.718 67.2787L151.763 60.2705L123.659 0L115.227 12.6148C78.6919 -8.40984 30.9148 4.20492 9.83672 40.6475C1.40547 58.8689 -1.40495 77.0902 1.40547 93.9098Z" fill="white"/>
</g>
<defs>
<clipPath id="clip0_742_473">
<rect width="151.762" height="171" fill="white"/>
</clipPath>
</defs>
</svg>
