<svg width="210" height="185" viewbox="0 0 210 185"  xmlns="http://www.w3.org/2000/svg">
<g clip-path="url(#clip0_555_470)">
<path d="M6.71631 13.5212C4.93503 13.5212 3.22671 12.8089 1.96716 11.541C0.707609 10.2731 0 8.55351 0 6.76045C0 4.96739 0.707609 3.24777 1.96716 1.97988C3.22671 0.711998 4.93503 -0.000292316 6.71631 -0.000292316H24.1821H24.8486C30.5819 -0.108886 36.2343 1.37308 41.1865 4.28323C46.7367 7.85292 50.671 13.4752 52.1411 19.9379C52.688 22.3635 53.269 24.7891 53.8501 27.2147H203.369C204.25 27.2124 205.123 27.3852 205.938 27.7231C206.753 28.061 207.493 28.5573 208.117 29.1837C208.741 29.8102 209.236 30.5543 209.574 31.3736C209.912 32.1929 210.085 33.0712 210.085 33.9582C210.086 34.6705 209.976 35.3785 209.761 36.057L192.295 106.795C191.943 108.263 191.111 109.57 189.934 110.506C188.756 111.441 187.301 111.952 185.801 111.956H76.3232C78.7842 120.919 81.04 125.719 84.3555 128.024C88.2349 130.639 95.1392 130.828 106.572 130.639H106.692H183.887C185.668 130.639 187.376 131.351 188.636 132.619C189.895 133.887 190.603 135.606 190.603 137.399C190.603 139.192 189.895 140.912 188.636 142.18C187.376 143.448 185.668 144.16 183.887 144.16H106.743C92.6099 144.418 83.877 144.005 76.9043 139.274C69.9316 134.544 66.0352 126.286 62.2583 111.234L39.1699 23.4989C38.5228 20.3514 36.684 17.5811 34.043 15.7748C31.1575 14.1997 27.907 13.4277 24.6265 13.5384H6.71631V13.5212ZM164.062 151.97C167.307 151.97 170.479 152.939 173.177 154.753C175.875 156.568 177.978 159.147 179.22 162.165C180.462 165.183 180.787 168.503 180.154 171.707C179.52 174.91 177.958 177.853 175.663 180.163C173.369 182.472 170.446 184.045 167.263 184.682C164.081 185.32 160.782 184.993 157.784 183.743C154.786 182.493 152.224 180.376 150.421 177.66C148.618 174.944 147.656 171.751 147.656 168.485C147.656 164.105 149.385 159.904 152.462 156.807C155.538 153.71 159.711 151.97 164.062 151.97V151.97ZM92.1143 151.97C95.3591 151.97 98.5311 152.939 101.229 154.753C103.927 156.568 106.03 159.147 107.272 162.165C108.513 165.183 108.838 168.503 108.205 171.707C107.572 174.91 106.01 177.853 103.715 180.163C101.421 182.472 98.4975 184.045 95.315 184.682C92.1325 185.32 88.8337 184.993 85.8359 183.743C82.838 182.493 80.2757 180.376 78.473 177.66C76.6702 174.944 75.708 171.751 75.708 168.485C75.708 164.105 77.4365 159.904 80.5133 156.807C83.5901 153.71 87.7631 151.97 92.1143 151.97V151.97ZM133.301 40.719V65.3707H188.757L194.79 40.805L133.301 40.719ZM133.301 78.8062V98.4347H180.623L185.442 78.8062H133.301ZM119.817 98.4347V78.8062H67.7271C69.5158 85.3433 71.2248 91.8861 72.854 98.4347H119.817ZM119.817 65.2847V40.719H57.3193C59.4727 48.9076 61.7285 57.0961 64.0015 65.2847H119.817Z" />
<path fill-rule="evenodd" clip-rule="evenodd" d="M29.691 163.888H38.0904V171.311H29.691V163.888ZM38.0904 158.834H29.7032C28.873 148.64 27.115 146.43 27.115 136.26C27.115 132.512 30.1549 129.46 33.9151 129.46C37.6631 129.46 40.7152 132.5 40.7152 136.26C40.7152 146.43 38.9328 148.652 38.0904 158.834ZM54.23 125.041C51.8737 123.21 49.2733 121.671 46.4898 120.499C42.4732 118.815 38.0415 117.887 33.4023 117.887C30.5089 117.887 27.701 118.253 25.0151 118.937C10.6214 122.697 0 135.784 0 151.35C0 169.846 14.992 184.85 33.5 184.85C52.008 184.85 67 169.858 67 151.35C66.9756 140.68 61.9945 131.182 54.23 125.041Z" />
</g>
<defs>
<clipPath id="clip0_555_470">
<rect width="210" height="185" />
</clipPath>
</defs>
</svg>
