<svg width="80" height="80" viewbox="0 0 80 80" xmlns="http://www.w3.org/2000/svg">
<g clip-path="url(#clip0_791_498)">
<path d="M40 0V0.0130208C51.0482 0.0130208 61.0482 4.48568 68.2813 11.7188C75.5143 18.9518 79.987 28.9518 79.987 40H79.9935V40.0065H79.987C79.987 51.0547 75.5143 61.0547 68.2813 68.2878C61.0482 75.5208 51.0482 79.9935 40 79.9935V80.0065H39.9935V79.9935C28.9453 79.9935 18.9453 75.5208 11.7122 68.2878C4.48568 61.0482 0.0130208 51.0547 0.0130208 40H0V39.9935H0.0130208C0.0130208 28.9518 4.48568 18.9518 11.7188 11.7188C18.9518 4.48568 28.9518 0.0130208 40 0.0130208V0ZM17.6042 29.8828C16.8945 29.0104 17.0247 27.7279 17.8971 27.0182C18.7695 26.3086 20.0521 26.4388 20.7617 27.3112C20.8919 27.474 21.0742 27.6432 21.2826 27.819C22.3372 28.6849 23.9583 29.2643 25.6771 29.3555C27.3698 29.4466 29.1081 29.0495 30.4297 27.9818C30.6966 27.7669 30.957 27.5 31.2109 27.194C31.9271 26.3216 33.2096 26.1914 34.082 26.9076C34.9544 27.6237 35.0846 28.9063 34.3685 29.7786C33.9583 30.2799 33.4961 30.7292 32.9948 31.1393C30.8203 32.9036 28.0794 33.5612 25.4688 33.4245C22.8906 33.2878 20.3906 32.3633 18.6979 30.9766C18.3008 30.6576 17.9297 30.2865 17.6042 29.8828ZM22.9362 58.5091C22.3958 59.4987 21.1654 59.8568 20.1758 59.3229C19.1862 58.7826 18.8281 57.5521 19.362 56.5625C22.0313 51.6667 26.2109 48.1771 30.9766 46.1198C34.6289 44.5443 38.6263 43.8021 42.5391 43.9193C46.4844 44.0365 50.3646 45.013 53.75 46.862C57.6953 49.0104 60.9635 52.3307 62.9167 56.8359C63.3594 57.8646 62.8841 59.0625 61.8555 59.5052C60.8268 59.9479 59.6289 59.4727 59.1862 58.444C57.6237 54.8307 54.987 52.1615 51.8099 50.4297C48.9974 48.8932 45.7487 48.0794 42.4349 47.9818C39.0951 47.8841 35.6901 48.5091 32.5911 49.8503C28.6198 51.569 25.1432 54.4596 22.9362 58.5091ZM45.6315 29.8828C44.9219 29.0104 45.0521 27.7279 45.9245 27.0182C46.7969 26.3086 48.0794 26.4388 48.7891 27.3112C48.9193 27.474 49.1016 27.6432 49.3099 27.819C50.3646 28.6849 51.9857 29.2643 53.7044 29.3555C55.3971 29.4466 57.1354 29.0495 58.4505 27.9818C58.7174 27.7669 58.9779 27.5 59.2318 27.194C59.9479 26.3216 61.2305 26.1914 62.1029 26.9076C62.9753 27.6237 63.1055 28.9063 62.3893 29.7786C61.9792 30.2799 61.5169 30.7292 61.0156 31.1393C58.8411 32.9036 56.1003 33.5612 53.4896 33.4245C50.9115 33.2878 48.4115 32.3633 46.7188 30.9766C46.3281 30.6576 45.957 30.2865 45.6315 29.8828ZM40 5.09766V5.11068H39.9935L40 5.09766C30.3711 5.09766 21.6471 9.01042 15.3255 15.332C9.00391 21.6471 5.09766 30.3711 5.09766 40H5.11068V40.0065H5.09766C5.09766 49.6354 9.01042 58.3594 15.3255 64.6745C21.6471 70.9961 30.3711 74.9023 40 74.9089V74.8958H40.0065V74.9089C49.6354 74.9089 58.3594 70.9961 64.6745 64.6745C70.9961 58.3529 74.9023 49.6289 74.9023 40H74.8958V39.9935H74.9023C74.9023 30.3711 70.9896 21.6471 64.6745 15.3255C58.3529 9.01042 49.6289 5.09766 40 5.09766Z" />
</g>
<defs>
<clipPath id="clip0_791_498">
<rect width="80" height="80" />
</clipPath>
</defs>
</svg>
