<svg width="193" height="289" viewbox="0 0 193 289"  xmlns="http://www.w3.org/2000/svg">
<g clip-path="url(#clip0_792_565)">
<path d="M140.069 136.186C138.629 136.186 137.548 137.265 137.548 138.704C137.548 140.143 138.629 141.222 140.069 141.222C141.509 141.222 142.589 140.143 142.589 138.704C142.589 137.265 141.509 136.186 140.069 136.186Z" />
<path d="M55.4512 138.704C55.4512 137.265 54.0109 136.186 52.9307 136.186C51.4904 136.186 50.4102 137.265 50.4102 138.704C50.4102 140.143 51.4904 141.222 52.9307 141.222C54.0109 141.222 55.4512 140.143 55.4512 138.704Z" />
<path d="M50.0503 138.704C50.0503 137.265 51.1305 136.186 52.5708 136.186C54.0111 136.186 55.0913 137.265 55.0913 138.704C55.0913 140.143 54.0111 141.222 52.5708 141.222C51.4906 141.222 50.0503 140.143 50.0503 138.704Z" />
<path d="M140.069 141.222C138.629 141.222 137.548 140.143 137.548 138.704C137.548 137.265 138.629 136.186 140.069 136.186C141.509 136.186 142.589 137.265 142.589 138.704C142.589 140.143 141.509 141.222 140.069 141.222Z" />
<path d="M180.757 114.241C180.757 112.442 178.957 111.003 177.157 111.003H15.8433C14.0429 111.003 12.2425 112.442 12.2425 114.241L0 284.046C0 285.125 0.360075 286.204 1.08022 286.924C1.80037 287.643 2.8806 288.003 3.60075 288.003H189.399C190.479 288.003 191.2 287.643 191.92 286.924C192.64 286.204 193 285.125 193 284.046L180.757 114.241ZM14.0429 276.491H10.4422V272.893H14.0429V276.491ZM21.2444 276.491H17.6437V272.893H21.2444V276.491ZM28.4459 276.491H24.8452V272.893H28.4459V276.491ZM35.6474 276.491H32.0466V272.893H35.6474V276.491ZM42.8489 276.491H39.2481V272.893H42.8489V276.491ZM50.4104 276.491H46.8097V272.893H50.4104V276.491ZM57.6119 276.491H54.0112V272.893H57.6119V276.491ZM64.8134 276.491H61.2127V272.893H64.8134V276.491ZM72.0149 276.491H68.4142V272.893H72.0149V276.491ZM79.2164 276.491H75.6157V272.893H79.2164V276.491ZM86.4179 276.491H82.8172V272.893H86.4179V276.491ZM93.6194 276.491H90.0187V272.893H93.6194V276.491ZM100.821 276.491H97.2202V272.893H100.821V276.491ZM108.022 276.491H104.422V272.893H108.022V276.491ZM115.224 276.491H111.623V272.893H115.224V276.491ZM122.425 276.491H118.825V272.893H122.425V276.491ZM129.627 276.491H126.026V272.893H129.627V276.491ZM136.828 276.491H133.228V272.893H136.828V276.491ZM144.03 276.491H140.429V272.893H144.03V276.491ZM143.67 147.698V175.759C143.67 205.979 122.425 230.442 96.5 230.442C70.5746 230.442 49.3302 205.979 49.3302 175.759V147.698C45.7295 146.259 43.209 142.661 43.209 138.704C43.209 133.308 47.5299 128.991 52.931 128.991C58.3321 128.991 62.653 133.308 62.653 138.704C62.653 142.661 60.1325 146.259 56.5317 147.698V175.759C56.5317 202.021 74.5354 223.247 96.5 223.247C118.465 223.247 136.468 202.021 136.468 175.759V147.698C132.868 146.259 130.347 142.661 130.347 138.704C130.347 133.308 134.668 128.991 140.069 128.991C145.47 128.991 149.791 133.308 149.791 138.704C149.791 143.021 147.271 146.259 143.67 147.698ZM151.591 276.491H147.991V272.893H151.591V276.491ZM158.793 276.491H155.192V272.893H158.793V276.491ZM165.994 276.491H162.394V272.893H165.994V276.491ZM173.196 276.491H169.595V272.893H173.196V276.491ZM180.397 276.491H176.797V272.893H180.397V276.491Z" />
</g>
<g clip-path="url(#clip1_792_565)">
<path fill-rule="evenodd" clip-rule="evenodd" d="M71.8135 21.337L123.591 111.019L123.194 113.081L120.312 114.012C120.22 114.065 120.181 114.209 120.234 114.301L120.287 114.392L122.983 115.889L122.931 118.973L122.984 119.064C123.037 119.156 123.182 119.195 123.273 119.142L125.468 117.02L127.452 117.706L133.376 127.966C134.328 129.615 133.786 131.638 132.137 132.59L120.045 139.571C115.801 135.182 108.872 135.029 104.43 139.181C101.425 142.016 100.355 146.297 101.449 150.307L89.357 157.289C87.7081 158.241 85.6852 157.699 84.7332 156.05L78.1221 144.599L78.8408 143.94L81.7448 144.95C81.7977 145.042 81.8893 144.989 81.9809 144.936C82.0725 144.883 82.1113 144.739 82.0584 144.647L80.7994 141.832L82.5994 139.449C82.691 139.396 82.6381 139.305 82.5852 139.213C82.5323 139.121 82.3878 139.083 82.3878 139.083L79.3327 139.503L77.6157 136.952C77.5628 136.861 77.4183 136.822 77.3267 136.875C77.2351 136.928 77.2351 136.928 77.1964 137.072L76.6195 140.092L75.6892 140.385L23.1709 49.4208C22.2189 47.7719 22.761 45.749 24.4099 44.797L36.4102 37.8686C39.8649 41.7368 45.655 42.6688 50.1437 40.0772C54.6324 37.4857 56.7203 32.0053 55.0977 27.0793L67.1897 20.098C68.8386 19.146 70.8615 19.6881 71.8135 21.337ZM112.645 18.6492L137.903 125.23C138.09 125.977 137.988 126.646 137.742 127.277L112.831 84.1311L103.461 39.3412C102.953 37.1918 100.796 35.9944 98.7378 36.4496L98.6461 36.5025L86.93 39.4805L82.0642 31.0527C88.0518 32.115 93.8333 28.1664 94.8956 22.1789C95.0363 21.3648 95.1241 20.4591 95.0287 19.6592L108.422 16.2014C110.335 15.7075 112.204 16.8275 112.645 18.6492ZM98.0807 130.511L96.1892 132.947L97.4481 135.762C97.501 135.853 97.4623 135.998 97.2791 136.104C97.1875 136.157 97.1875 136.157 97.1346 136.065L94.2834 135.146L92.0887 137.268C91.9971 137.321 91.8526 137.282 91.7997 137.191L91.7468 137.099L91.7987 134.016L89.1024 132.519L89.0495 132.427C88.9966 132.336 88.9437 132.244 89.0353 132.191C89.0353 132.191 89.0353 132.191 89.1269 132.138L92.0092 131.207L92.5862 128.187C92.5862 128.187 92.6249 128.042 92.7165 127.99C92.8081 127.937 92.9526 127.975 93.0055 128.067L94.8141 130.565L97.8692 130.145C97.9608 130.092 98.0137 130.183 98.0666 130.275C98.1194 130.366 98.1723 130.458 98.0807 130.511ZM113.654 121.52L111.762 123.956L113.021 126.771C113.074 126.862 113.035 127.007 112.944 127.06C112.852 127.113 112.852 127.113 112.708 127.074L109.856 126.155L107.662 128.277C107.57 128.33 107.426 128.291 107.373 128.2L107.32 128.108L107.372 125.025L104.675 123.528L104.622 123.436C104.57 123.345 104.608 123.2 104.7 123.147L107.582 122.216L108.159 119.196C108.159 119.196 108.198 119.051 108.289 118.998C108.381 118.946 108.526 118.984 108.578 119.076L110.387 121.574L113.442 121.153C113.534 121.101 113.587 121.192 113.64 121.284C113.692 121.375 113.654 121.52 113.654 121.52ZM69.4313 43.232L107.405 109.005C108.516 110.929 107.805 113.293 105.973 114.351L88.476 124.453C86.5523 125.563 84.1875 124.852 83.1298 123.02L45.1558 57.2475C44.0451 55.3237 44.7562 52.959 46.5883 51.9012L64.085 41.7995C66.0087 40.6888 68.3206 41.3083 69.4313 43.232Z" />
</g>
<defs>
<clipPath id="clip0_792_565">
<rect width="193" height="177"  transform="translate(0 111.003)"/>
</clipPath>
<clipPath id="clip1_792_565">
<rect width="130" height="92.978" transform="translate(102) rotate(60)"/>
</clipPath>
</defs>
</svg>
