<svg width="250" height="194" viewbox="0 0 250 194"  xmlns="http://www.w3.org/2000/svg">
<g clip-path="url(#clip0_791_496)">
<path fill-rule="evenodd" clip-rule="evenodd" d="M15.127 0H230.708C239.023 0 245.811 6.78081 245.811 15.0885V95.8777C242.548 92.6955 238.967 89.8576 235.122 87.409V74.3986H10.7129V157.773C10.7129 161.266 13.5986 164.144 17.0898 164.144H137.368C138.638 167.866 140.234 171.437 142.119 174.828H15.127C6.81152 174.828 0 168.052 0 159.739V15.1129C0 6.78081 6.78711 0 15.127 0ZM38.125 141.729C34.6484 141.729 31.8311 138.914 31.8311 135.441C31.8311 131.972 34.6484 129.152 38.125 129.152H95.3906C98.8672 129.152 101.685 131.972 101.685 135.441C101.685 138.914 98.8672 141.729 95.3906 141.729H38.125ZM38.125 111.547C34.6484 111.547 31.8311 108.727 31.8311 105.259C31.8311 101.785 34.6484 98.9705 38.125 98.9705H55.2539C58.7305 98.9705 61.5479 101.785 61.5479 105.259C61.5479 108.727 58.7305 111.547 55.2539 111.547H38.125ZM74.3066 111.547C70.8301 111.547 68.0127 108.727 68.0127 105.259C68.0127 101.785 70.8301 98.9705 74.3066 98.9705H86.7822C90.2588 98.9705 93.0762 101.785 93.0762 105.259C93.0762 108.727 90.2588 111.547 86.7822 111.547H74.3066ZM106.875 111.547C103.398 111.547 100.581 108.727 100.581 105.259C100.581 101.785 103.398 98.9705 106.875 98.9705H119.287C122.759 98.9705 125.581 101.785 125.581 105.259C125.581 108.727 122.759 111.547 119.287 111.547H106.875ZM199.805 92.8434C227.52 92.8434 250 115.298 250 142.987C250 170.681 227.52 193.141 199.805 193.141C172.09 193.141 149.609 170.681 149.609 142.987C149.609 115.298 172.09 92.8434 199.805 92.8434V92.8434ZM214.893 120.728L222.09 127.908C223.56 129.387 223.56 131.772 222.09 133.24L212.329 142.992L222.09 152.744C222.796 153.452 223.192 154.41 223.192 155.41C223.192 156.409 222.796 157.368 222.09 158.076L214.893 165.261C213.418 166.725 211.035 166.725 209.561 165.257L199.805 155.505L190.044 165.261C188.564 166.725 186.182 166.725 184.712 165.257L177.52 158.066C176.06 156.598 176.055 154.222 177.52 152.749L187.285 142.992L177.52 133.236C176.055 131.767 176.06 129.391 177.52 127.918L184.712 120.733C186.182 119.264 188.564 119.264 190.044 120.728L199.805 130.479L209.561 120.733C210.268 120.028 211.226 119.631 212.226 119.63C213.225 119.63 214.184 120.024 214.893 120.728V120.728ZM10.7129 33.7333H235.098V17.074C235.098 13.586 232.212 10.7029 228.721 10.7029H17.0898C13.5986 10.7029 10.7129 13.586 10.7129 17.074V33.7333V33.7333Z" />
</g>
<defs>
<clipPath id="clip0_791_496">
<rect width="250" height="193.141" />
</clipPath>
</defs>
</svg>
