<svg width="201" height="206" viewbox="0 0 201 206" xmlns="http://www.w3.org/2000/svg">
<g clip-path="url(#clip0_747_464)">
<path fill-rule="evenodd" clip-rule="evenodd" d="M93.7246 0C128.799 22.1537 160.482 32.6353 187.678 30.1577C189.159 60.0098 186.725 86.0488 180.768 108.468C176.732 106.827 172.421 105.846 167.974 105.653C172.643 87.1227 174.524 65.7332 173.313 41.3311C150.291 43.4307 123.467 34.5579 93.7771 15.7988C68.083 35.6881 41.5736 41.5121 14.5476 40.1004C13.3488 85.5863 21.3687 119.835 36.8634 144.747C48.318 135.203 67.8247 136.643 77.0634 123.985C77.7294 123.008 78.0361 122.481 78.0281 122.051C78.024 121.825 68.0063 109.582 67.1063 108.154C64.7451 104.414 60.3255 99.3339 60.3255 94.9538C60.3255 92.4802 62.2831 89.2545 65.0882 88.5345C64.8702 84.8261 64.7209 81.0655 64.7209 77.337C64.7209 75.1369 64.7613 72.9086 64.842 70.7287C64.9631 69.3451 65.2214 68.7377 65.5887 67.4024C67.3152 61.8011 71.0757 57.0427 76.1351 54.057C77.9231 52.9309 79.8685 52.054 81.8624 51.3341C85.4788 50.0189 83.7271 44.3236 87.6987 44.2351C96.9778 43.9978 112.242 52.0822 118.188 58.5055C121.978 62.6804 124.141 67.3219 124.27 72.9529L123.895 89.1499C125.542 89.5521 127.39 90.8351 127.794 92.4802C129.065 97.5923 123.741 103.955 121.263 108.022C118.983 111.774 110.261 122.014 110.253 122.099C110.212 122.537 110.438 123.092 111.036 123.985C115.286 129.809 121.707 132.649 128.512 134.946C127.757 137.644 127.273 140.432 127.087 143.287C126.377 143.782 125.715 144.333 125.106 144.94L125.065 144.981C122.349 147.696 120.654 151.432 120.654 155.543V193.025C112.452 198.113 103.589 202.436 94.0919 206C33.3843 183.919 -2.52531 129.821 0.138545 28.7057C32.0604 30.3709 63.3809 23.4931 93.7246 0ZM136.375 151.046H137.941V146.24C137.941 138.211 141.117 130.891 146.235 125.57C151.397 120.209 158.521 116.882 166.367 116.882C174.213 116.882 181.345 120.209 186.499 125.57C191.621 130.891 194.798 138.207 194.798 146.24V151.046H196.364C198.915 151.046 201.001 153.129 201.001 155.671V201.375C201.001 203.921 198.915 206 196.364 206H136.375C133.82 206 131.737 203.921 131.737 201.375V155.671C131.733 153.129 133.82 151.046 136.375 151.046ZM162.69 180.6L157.863 193.206H174.867L170.395 180.427C173.237 178.971 175.178 176.023 175.178 172.621C175.178 167.77 171.235 163.844 166.363 163.844C161.5 163.844 157.556 167.77 157.556 172.621C157.556 176.16 159.659 179.209 162.69 180.6V180.6ZM146.719 151.046H186.011V146.24C186.011 140.528 183.779 135.356 180.187 131.623C176.631 127.927 171.739 125.63 166.367 125.63C160.995 125.63 156.099 127.927 152.547 131.623C148.951 135.356 146.719 140.528 146.719 146.24V151.046Z" />
</g>
<defs>
<clipPath id="clip0_747_464">
<rect width="201" height="206" />
</clipPath>
</defs>
</svg>
