<svg width="242" height="192" viewbox="0 0 242 192" xmlns="http://www.w3.org/2000/svg">
<path fill-rule="evenodd" clip-rule="evenodd" d="M157.914 0.773558C170.437 2.32926 182.528 6.34346 193.491 12.5852C204.455 18.8269 214.075 27.173 221.798 37.1431C254.336 78.9809 246.764 139.23 204.887 171.737C204.849 171.761 204.82 171.789 204.783 171.822C162.92 204.32 102.618 196.759 70.0901 154.936C70.0711 154.907 70.0475 154.879 70.0239 154.856C65.8168 149.44 62.198 143.592 59.2284 137.412C65.2601 137.237 71.2523 136.378 77.0901 134.853C78.996 138.193 81.1362 141.395 83.4946 144.434C110.294 178.815 159.909 184.978 194.313 158.199C228.723 131.429 234.886 81.8614 208.091 47.4845C189.053 23.0666 157.479 12.0263 127.352 19.2511C124.468 13.9559 120.999 8.99989 117.011 4.47568C118.173 4.09791 119.35 3.76264 120.537 3.4321C132.717 0.0652437 145.441 -0.831955 157.966 0.773558H157.914ZM0 60.9897V53.7177C1.87644 23.9874 26.5916 0.447733 56.8179 0.433567H56.8415C88.3109 0.428845 113.82 25.8998 113.839 57.3395C113.853 88.7793 88.3487 114.269 56.8793 114.283C26.6247 114.293 1.87644 90.7437 0 60.9897ZM66.4837 33.9652C68.5445 31.8733 69.8348 30.2017 72.373 32.813L80.6208 41.2514C83.3291 43.9241 83.1826 45.4871 80.635 47.9756L71.007 57.5945L80.5641 67.1473C82.658 69.2015 84.3312 70.4906 81.7221 73.0311L73.271 81.2617C70.5958 83.9674 69.0266 83.8352 66.5357 81.2759L56.9219 71.6758L47.3033 81.2759C44.8125 83.8352 43.2432 83.9674 40.5633 81.2617L32.1217 73.0311C29.5031 70.4906 31.1858 69.2015 33.2702 67.1473L42.832 57.5945L33.204 47.9756C30.6517 45.4871 30.5099 43.9241 33.2182 41.2514L41.466 32.813C43.9995 30.2017 45.2993 31.8733 47.3553 33.9652L56.9219 43.518L66.4837 33.9652ZM140.672 49.3498C141.258 44.6843 145.512 41.3789 150.167 41.9644H150.186C154.828 42.5877 158.094 46.8376 157.493 51.47L151.963 95.9002L182.714 119.77C186.425 122.651 187.11 127.987 184.227 131.708C182.845 133.486 180.814 134.644 178.579 134.928C176.343 135.221 174.084 134.607 172.311 133.219L137.892 106.487C136.705 105.63 135.761 104.477 135.156 103.144C134.516 101.712 134.278 100.134 134.466 98.5776L140.672 49.3734V49.3498Z" />
</svg>
