<svg width="55" height="55" viewbox="0 0 55 55" fill="none" xmlns="http://www.w3.org/2000/svg">
<g clip-path="url(#clip0_452_458)">
<path d="M53.2278 31.6393C55.5162 17.4026 45.8302 4.00643 31.5936 1.71801C17.357 -0.570408 3.96077 9.11554 1.67235 23.3522C-0.616063 37.5888 9.06988 50.985 23.3065 53.2734C37.5432 55.5618 50.9394 45.8759 53.2278 31.6393Z" fill="#222222" stroke="#FCFAFA" stroke-width="3" stroke-miterlimit="10"/>
<path d="M29.8779 25.1226V15.612C29.8779 14.2661 28.8012 13.1895 27.4554 13.1895C26.1095 13.1895 25.0328 14.2661 25.0328 15.612L25.1226 25.1226H15.612C14.2661 25.1226 13.1895 26.1992 13.1895 27.5451C13.1895 28.8909 14.2661 29.9676 15.612 29.9676H25.1226V39.4782C25.1226 40.824 26.1992 41.9007 27.5451 41.9007C28.1731 41.9007 28.8012 41.6315 29.2498 41.1829C29.6984 40.7343 29.9676 40.196 29.9676 39.4782V29.9676H39.4782C40.1063 29.9676 40.7343 29.6984 41.1829 29.2498C41.6315 28.8012 41.9007 28.1731 41.9007 27.5451C41.9007 26.1992 40.824 25.1226 39.4782 25.1226H29.8779Z" fill="#EEEEEE"/>
</g>
<defs>
<clipPath id="clip0_452_458">
<rect width="55" height="55" fill="white"/>
</clipPath>
</defs>
</svg>
