<svg width="25" height="25" viewbox="0 0 25 25" xmlns="http://www.w3.org/2000/svg">
<path fill-rule="evenodd" clip-rule="evenodd" d="M12.4964 8.01196e-06C15.3885 -0.000818682 18.1914 1.00124 20.4275 2.83542C22.6636 4.6696 24.1945 7.22241 24.7593 10.0588C25.3241 12.8953 24.8879 15.8398 23.525 18.3906C22.1621 20.9414 19.9568 22.9408 17.285 24.0479C14.6132 25.155 11.6402 25.3014 8.87252 24.4621C6.10487 23.6228 3.71389 21.8498 2.107 19.4452C0.500108 17.0405 -0.223247 14.1531 0.0601966 11.2749C0.34364 8.39674 1.61634 5.7059 3.66143 3.66092C4.82032 2.4988 6.19743 1.57713 7.71362 0.948869C9.22982 0.32061 10.8552 -0.00185329 12.4964 8.01196e-06ZM15.8767 7.78759L17.2048 9.11569C17.3557 9.26803 17.4403 9.47379 17.4403 9.68822C17.4403 9.90264 17.3557 10.1084 17.2048 10.2607L14.9675 12.498L17.2048 14.7352C17.3557 14.8875 17.4403 15.0933 17.4403 15.3077C17.4403 15.5222 17.3557 15.7279 17.2048 15.8802L15.8767 17.2083C15.7243 17.3593 15.5186 17.4439 15.3041 17.4439C15.0897 17.4439 14.884 17.3593 14.7316 17.2083L12.4944 14.9711L10.2572 17.2083C10.1048 17.3593 9.89907 17.4439 9.68464 17.4439C9.47022 17.4439 9.26446 17.3593 9.11212 17.2083L7.78402 15.8802C7.63312 15.7279 7.54846 15.5222 7.54846 15.3077C7.54846 15.0933 7.63312 14.8875 7.78402 14.7352L10.0212 12.498L7.78402 10.2607C7.63312 10.1084 7.54846 9.90264 7.54846 9.68822C7.54846 9.47379 7.63312 9.26803 7.78402 9.11569L9.11212 7.78759C9.26446 7.63669 9.47022 7.55203 9.68464 7.55203C9.89907 7.55203 10.1048 7.63669 10.2572 7.78759L12.4944 10.0248L14.7316 7.78759C14.884 7.63669 15.0897 7.55203 15.3041 7.55203C15.5186 7.55203 15.7243 7.63669 15.8767 7.78759Z" />
</svg>
