<svg width="120" height="123" viewbox="0 0 120 123" fill="none" xmlns="http://www.w3.org/2000/svg">
<path d="M108.68 122.88H11.24C8.26221 122.869 5.40939 121.682 3.30376 119.576C1.19814 117.471 0.0105409 114.618 0 111.64L0 22.55C0.0105409 19.5722 1.19814 16.7194 3.30376 14.6138C5.40939 12.5081 8.26221 11.3205 11.24 11.31H21.61V25.14C21.6192 26.9893 22.0437 28.8129 22.852 30.4762C23.6602 32.1395 24.8317 33.6 26.28 34.75C28.8704 36.847 32.1022 37.9912 35.435 37.9912C38.7678 37.9912 41.9996 36.847 44.59 34.75C46.0383 33.6 47.2098 32.1395 48.018 30.4762C48.8263 28.8129 49.2508 26.9893 49.26 25.14V11.31H70.2V25.14C70.2092 26.9893 70.6337 28.8129 71.442 30.4762C72.2502 32.1395 73.4218 33.6 74.87 34.75C77.4604 36.847 80.6922 37.9912 84.025 37.9912C87.3578 37.9912 90.5896 36.847 93.18 34.75C94.6283 33.6 95.7998 32.1395 96.608 30.4762C97.4163 28.8129 97.8408 26.9893 97.85 25.14V11.31H108.68C111.656 11.3258 114.506 12.515 116.61 14.6195C118.715 16.724 119.904 19.5738 119.92 22.55V111.64C119.912 114.619 118.725 117.473 116.619 119.579C114.513 121.685 111.659 122.872 108.68 122.88ZM83.58 56.77H99.68C100.215 56.7723 100.729 56.9819 101.113 57.3548C101.497 57.7277 101.722 58.235 101.74 58.77V72.17C101.722 72.705 101.497 73.2123 101.113 73.5852C100.729 73.9581 100.215 74.1677 99.68 74.17H83.58C83.0543 74.1549 82.5544 73.9393 82.1825 73.5675C81.8107 73.1956 81.5951 72.6957 81.58 72.17V58.82C81.5927 58.2936 81.8075 57.7922 82.1798 57.4198C82.5522 57.0475 83.0536 56.8327 83.58 56.82V56.77ZM52.07 56.77H68.18C68.7057 56.7851 69.2056 57.0007 69.5775 57.3725C69.9493 57.7444 70.1649 58.2443 70.18 58.77V72.17C70.1625 72.6949 69.9462 73.1935 69.5749 73.5649C69.2035 73.9362 68.7049 74.1525 68.18 74.17H52.07C51.5443 74.1549 51.0444 73.9393 50.6725 73.5675C50.3007 73.1956 50.0851 72.6957 50.07 72.17V58.82C50.0851 58.2943 50.3007 57.7944 50.6725 57.4225C51.0444 57.0507 51.5443 56.8351 52.07 56.82V56.77ZM20.23 56.77H36.34C36.8657 56.7851 37.3656 57.0007 37.7375 57.3725C38.1093 57.7444 38.3249 58.2443 38.34 58.77V72.17C38.3225 72.6949 38.1062 73.1935 37.7349 73.5649C37.3635 73.9362 36.8649 74.1525 36.34 74.17H20.23C19.6956 74.1676 19.1831 73.9577 18.8006 73.5845C18.4181 73.2114 18.1956 72.7042 18.18 72.17V58.82C18.1931 58.285 18.4148 57.7763 18.7978 57.4026C19.1809 57.0289 19.6949 56.8198 20.23 56.82V56.77ZM83.58 85.26H99.68C100.215 85.2623 100.729 85.4719 101.113 85.8448C101.497 86.2177 101.722 86.725 101.74 87.26V100.66C101.737 101.205 101.519 101.726 101.133 102.11C100.747 102.494 100.225 102.71 99.68 102.71H83.58C83.0458 102.694 82.5386 102.472 82.1655 102.089C81.7923 101.707 81.5824 101.194 81.58 100.66V87.31C81.5951 86.7843 81.8107 86.2844 82.1825 85.9125C82.5544 85.5407 83.0543 85.3251 83.58 85.31V85.26ZM52.07 85.26H68.18C68.7057 85.2751 69.2056 85.4907 69.5775 85.8625C69.9493 86.2344 70.1649 86.7343 70.18 87.26V100.66C70.1776 101.194 69.9677 101.707 69.5945 102.089C69.2214 102.472 68.7142 102.694 68.18 102.71H52.07C51.5358 102.694 51.0286 102.472 50.6555 102.089C50.2823 101.707 50.0724 101.194 50.07 100.66V87.31C50.0875 86.7851 50.3038 86.2865 50.6751 85.9151C51.0465 85.5438 51.5451 85.3275 52.07 85.31V85.26ZM20.23 85.26H36.34C36.8657 85.2751 37.3656 85.4907 37.7375 85.8625C38.1093 86.2344 38.3249 86.7343 38.34 87.26V100.66C38.3376 101.194 38.1277 101.707 37.7545 102.089C37.3814 102.472 36.8742 102.694 36.34 102.71H20.23C19.6871 102.707 19.1672 102.491 18.7833 102.107C18.3995 101.723 18.1826 101.203 18.18 100.66V87.31C18.1956 86.7758 18.4181 86.2686 18.8006 85.8955C19.1831 85.5223 19.6956 85.3124 20.23 85.31V85.26ZM78.6 4.45C78.6 2 81 0 84 0C87 0 89.43 2 89.43 4.45V25.14C89.43 27.6 87.01 29.59 84 29.59C80.99 29.59 78.58 27.59 78.58 25.14V4.45H78.6ZM30 4.45C30 2 32.44 0 35.44 0C38.44 0 40.86 2 40.86 4.45V25.14C40.86 27.6 38.44 29.59 35.44 29.59C32.44 29.59 30 27.6 30 25.14V4.45ZM3.6 43.86V110.44C3.60791 112.782 4.5418 115.026 6.19791 116.682C7.85402 118.338 10.0979 119.272 12.44 119.28H107.44C109.784 119.275 112.03 118.342 113.689 116.686C115.347 115.029 116.282 112.784 116.29 110.44V43.86H3.6Z" />
</svg>
