<svg width="512" height="472" viewbox="0 0 512 472" fill="none" xmlns="http://www.w3.org/2000/svg">
<path d="M120.895 215.38C113.119 202.996 98.536 186.182 98.536 171.675C98.536 163.481 104.994 152.796 114.246 150.417C113.511 138.153 113.029 125.694 113.029 113.37C113.029 106.073 113.167 98.7075 113.442 91.4795C113.848 86.9057 114.672 82.3787 115.905 77.9555C121.596 59.4121 133.998 43.6578 150.687 33.7725C156.595 30.0495 163 27.1445 169.569 24.7505C181.512 20.3945 175.724 0.280503 188.829 0.0165033C219.448 -0.777497 269.783 27.2435 289.418 48.5015C301.916 62.3215 309.054 80.2065 309.469 98.8405L308.224 152.46C313.67 153.789 319.752 158.04 321.1 163.484C325.286 180.407 307.727 201.47 299.565 214.929C292.03 227.355 263.26 267.546 263.233 267.826C263.096 269.276 263.839 271.124 265.817 274.084C274.088 285.452 284.569 293.388 296.155 299.547C301.304 290.457 307.658 282.105 315.045 274.717C335.924 253.839 364.769 240.923 396.625 240.923C428.481 240.923 457.329 253.839 478.207 274.717C499.085 295.595 512 324.442 512 356.298C512 388.154 499.085 417.001 478.207 437.879C457.329 458.758 428.481 471.673 396.625 471.673C364.769 471.673 335.924 458.758 315.045 437.879C309.264 432.098 304.111 425.723 299.672 418.859H0C0 296.667 109.111 335.485 153.744 274.086C155.948 270.843 156.956 269.096 156.931 267.672C156.918 266.91 123.857 220.095 120.895 215.38ZM345.658 336.665L343.595 334.624C339.329 330.225 337.32 326.545 343.503 320.549L359.3 305.142C362.529 301.886 365.323 300.36 368.382 300.459C371.409 300.557 374.078 302.23 377.139 305.358L396.197 324.395C402.959 317.631 409.752 310.89 416.485 304.099C420.804 299.9 424.435 297.933 430.604 304.282L446.567 320.622C449.884 323.907 451.48 326.707 451.488 329.728C451.497 332.803 449.886 335.462 446.813 338.471L428.553 356.751L447.787 376.005C450.781 378.977 452.378 381.593 452.471 384.547L452.462 384.904C452.439 387.839 450.911 390.537 447.789 393.631L432.38 409.427C426.39 415.607 422.712 413.604 418.314 409.345C411.283 402.257 404.202 395.218 397.139 388.164L378.633 406.651C375.711 409.586 373.11 411.121 370.102 411.112C367.083 411.104 364.282 409.509 360.996 406.195L344.655 390.23C338.309 384.062 340.276 380.428 344.47 376.112C351.27 369.37 358.017 362.581 364.782 355.806L345.658 336.665ZM312.004 306.788L312.008 306.79C302.913 322.279 298.601 339.1 298.601 356.783C298.777 410 342.041 454.326 396.625 454.326C450.766 454.326 494.653 410.438 494.653 356.298C494.653 302.159 450.766 258.271 396.625 258.271C361.964 258.271 331.504 276.259 314.075 303.41C313.362 304.521 312.671 305.648 312.004 306.788Z" />
</svg>
