<svg width="25" height="25" viewBox="0 0 25 25" fill="none" xmlns="http://www.w3.org/2000/svg">
<path d="M12.5 0C14.4389 0 16.2738 0.441726 17.9133 1.22961C17.2422 1.76053 16.6199 2.27022 16.0402 2.76079C14.9359 2.35941 13.7445 2.14067 12.5021 2.14067C9.64152 2.14067 7.05063 3.3002 5.17754 5.17542C3.30233 7.05063 2.1428 9.6394 2.1428 12.5C2.1428 15.3606 3.30233 17.9494 5.17754 19.8246C7.05275 21.6998 9.64152 22.8593 12.5021 22.8593C15.3627 22.8593 17.9536 21.6998 19.8267 19.8246C21.7019 17.9494 22.8615 15.3606 22.8615 12.5C22.8615 11.8204 22.7956 11.1536 22.6703 10.5101C23.2076 9.80929 23.7576 9.1106 24.3204 8.41828C24.7621 9.69674 25.0021 11.0708 25.0021 12.5C25.0021 15.951 23.6026 19.077 21.3409 21.3388C19.0792 23.6005 15.9531 25 12.5021 25C9.05114 25 5.92508 23.6005 3.66335 21.3388C1.39951 19.077 0 15.951 0 12.5C0 9.04901 1.39951 5.92295 3.66123 3.66123C5.92295 1.39951 9.04901 0 12.5 0ZM6.67686 10.4464L9.72647 10.406L9.9537 10.4655C10.5696 10.8202 11.1493 11.2258 11.6909 11.6845C12.0816 12.0158 12.4554 12.3768 12.8101 12.7676C13.9038 11.007 15.0697 9.39093 16.3014 7.90435C17.6499 6.27548 19.0813 4.7974 20.5849 3.44886L20.8822 3.33418H24.21L23.5389 4.0796C21.4768 6.37105 19.6058 8.73896 17.9154 11.1812C16.2249 13.6256 14.7129 16.1485 13.3686 18.7458L12.9502 19.5528L12.5658 18.7309C11.8565 17.2082 11.0071 15.8108 9.99405 14.5621C8.98106 13.3134 7.80241 12.2048 6.42839 11.2619L6.67686 10.4464Z" fill="white"/>
</svg>
