<svg width="25" height="25" viewBox="0 0 25 25" fill="none" xmlns="http://www.w3.org/2000/svg">
<path d="M16.6029 0.962399C16.6029 0.43135 17.1279 0 17.7769 0C18.426 0 18.9509 0.43135 18.9509 0.962399V5.17824C18.9509 5.70929 18.426 6.14064 17.7769 6.14064C17.1279 6.14064 16.6029 5.70929 16.6029 5.17824V0.962399ZM12.737 12.4725L13.9578 15.3028L17.0241 15.5774C17.0564 15.58 17.0878 15.5889 17.1166 15.6038C17.1454 15.6186 17.171 15.639 17.1918 15.6638C17.2127 15.6886 17.2283 15.7173 17.238 15.7483C17.2476 15.7792 17.251 15.8117 17.2479 15.844C17.2456 15.8756 17.237 15.9064 17.2227 15.9347C17.2084 15.963 17.1886 15.9882 17.1645 16.0088L14.8429 18.0435L15.5286 21.0446C15.5361 21.0761 15.5373 21.1089 15.532 21.1409C15.5267 21.1728 15.5151 21.2035 15.4979 21.2309C15.4807 21.2584 15.4581 21.2822 15.4316 21.3008C15.4051 21.3195 15.3751 21.3327 15.3435 21.3396C15.2776 21.3534 15.209 21.341 15.1522 21.305L12.5071 19.7302L9.86205 21.3132C9.80581 21.3461 9.73886 21.3556 9.67566 21.3397C9.61246 21.3237 9.55809 21.2835 9.52429 21.2277C9.4911 21.1728 9.48087 21.107 9.49581 21.0446L10.1734 18.0353L7.85383 16.0007C7.80889 15.9581 7.78147 15.9003 7.77696 15.8385C7.77244 15.7768 7.79115 15.7156 7.82941 15.667C7.87491 15.6181 7.93769 15.5889 8.00439 15.5856L11.0564 15.3129L12.2772 12.4786C12.2899 12.4488 12.3083 12.4218 12.3314 12.3991C12.3545 12.3764 12.3819 12.3585 12.4119 12.3464C12.442 12.3343 12.4741 12.3282 12.5065 12.3286C12.5389 12.3289 12.5709 12.3357 12.6007 12.3484C12.6304 12.3602 12.6573 12.3777 12.6801 12.4001C12.7028 12.4225 12.7208 12.4492 12.733 12.4786L12.737 12.4725ZM6.02466 0.962399C6.02466 0.43135 6.54961 0 7.19867 0C7.84773 0 8.37267 0.43135 8.37267 0.962399V5.17824C8.37267 5.70929 7.84773 6.14064 7.19867 6.14064C6.54961 6.14064 6.02466 5.70929 6.02466 5.17824V0.962399ZM1.30219 9.22113H23.6978V4.36844C23.6961 4.21071 23.6334 4.05977 23.5228 3.94726C23.4676 3.89179 23.402 3.84778 23.3297 3.81775C23.2574 3.78772 23.1799 3.77227 23.1017 3.77228H20.9571C20.8716 3.77228 20.7869 3.75544 20.7079 3.72272C20.629 3.69 20.5572 3.64204 20.4967 3.58158C20.4363 3.52112 20.3883 3.44934 20.3556 3.37035C20.3229 3.29135 20.306 3.20669 20.306 3.12118C20.306 3.03568 20.3229 2.95102 20.3556 2.87202C20.3883 2.79303 20.4363 2.72125 20.4967 2.66079C20.5572 2.60033 20.629 2.55237 20.7079 2.51965C20.7869 2.48693 20.8716 2.47009 20.9571 2.47009H23.1037C23.6067 2.4717 24.0886 2.67222 24.4442 3.02788C24.7999 3.38354 25.0004 3.86546 25.002 4.36844V23.1037C25.0004 23.6067 24.7999 24.0886 24.4442 24.4442C24.0886 24.7999 23.6067 25.0004 23.1037 25.002H1.89835C1.39502 25.0004 0.912794 24.7996 0.557076 24.4435C0.201357 24.0874 0.00107291 23.605 0 23.1017L0 4.36844C0.00160954 3.86546 0.20213 3.38354 0.557791 3.02788C0.913452 2.67222 1.39537 2.4717 1.89835 2.47009H4.19142C4.27692 2.47009 4.36159 2.48693 4.44058 2.51965C4.51958 2.55237 4.59136 2.60033 4.65181 2.66079C4.71227 2.72125 4.76023 2.79303 4.79295 2.87202C4.82568 2.95102 4.84252 3.03568 4.84252 3.12118C4.84252 3.20669 4.82568 3.29135 4.79295 3.37035C4.76023 3.44934 4.71227 3.52112 4.65181 3.58158C4.59136 3.64204 4.51958 3.69 4.44058 3.72272C4.36159 3.75544 4.27692 3.77228 4.19142 3.77228H1.89835C1.74062 3.774 1.58968 3.83671 1.47717 3.94726C1.4217 4.00248 1.37769 4.06811 1.34766 4.14039C1.31763 4.21267 1.30218 4.29017 1.30219 4.36844V9.22113ZM23.6978 10.5254H1.30219V23.1017C1.30391 23.2594 1.36662 23.4103 1.47717 23.5228C1.53239 23.5783 1.59802 23.6223 1.6703 23.6523C1.74258 23.6824 1.82008 23.6978 1.89835 23.6978H23.1017C23.2594 23.6961 23.4103 23.6334 23.5228 23.5228C23.5783 23.4676 23.6223 23.402 23.6523 23.3297C23.6824 23.2574 23.6978 23.1799 23.6978 23.1017V10.5254ZM10.269 3.77228C10.0963 3.77228 9.93069 3.70368 9.80859 3.58158C9.68649 3.45947 9.61789 3.29387 9.61789 3.12118C9.61789 2.9485 9.68649 2.7829 9.80859 2.66079C9.93069 2.53869 10.0963 2.47009 10.269 2.47009H14.6313C14.804 2.47009 14.9696 2.53869 15.0917 2.66079C15.2138 2.7829 15.2824 2.9485 15.2824 3.12118C15.2824 3.29387 15.2138 3.45947 15.0917 3.58158C14.9696 3.70368 14.804 3.77228 14.6313 3.77228H10.269Z" fill="white"/>
</svg>
