<svg width="9" height="17" viewbox="0 0 9 17" fill="none" xmlns="http://www.w3.org/2000/svg">
<path d="M1.45109 0.0408045C1.63777 0.0401907 1.82222 0.080032 1.99089 0.1574C2.15956 0.234768 2.30816 0.347697 2.42577 0.487889L8.46134 7.73789C8.64513 7.9541 8.74561 8.2253 8.74561 8.50518C8.74561 8.78506 8.64513 9.05626 8.46134 9.27247L2.21334 16.5225C2.00124 16.7692 1.69644 16.9244 1.36602 16.9539C1.03559 16.9833 0.706595 16.8847 0.451406 16.6796C0.196217 16.4745 0.0357385 16.1797 0.00527361 15.8602C-0.0251913 15.5407 0.0768528 15.2226 0.288958 14.9758L5.87467 8.49914L0.476399 2.02247C0.323594 1.84511 0.226528 1.62913 0.196689 1.40009C0.166849 1.17105 0.205482 0.938539 0.308019 0.730068C0.410556 0.521597 0.572704 0.345892 0.775277 0.223741C0.97785 0.10159 1.21237 0.0381077 1.45109 0.0408045Z" />
</svg>
