<svg width="123" height="99" viewBox="0 0 123 99" fill="none" xmlns="http://www.w3.org/2000/svg">
<path d="M37.2096 15.3814V15.5514H70.7396V42.0914H36.9496L36.9596 42.3514V51.9614C36.9596 52.0414 36.9596 52.1214 36.9496 52.2014C36.8596 54.2714 36.1796 55.7414 34.8896 56.5914C33.5996 57.4514 31.8996 57.5314 29.8096 56.8214C29.5796 56.7414 29.3796 56.6314 29.1996 56.4914C19.0996 48.5714 12.1396 40.6514 2.0396 32.7214L1.8996 32.6014C0.219597 31.0814 -0.240403 29.4914 0.109597 27.9014C0.419597 26.5014 1.3996 25.3014 2.7096 24.2714L27.4696 2.30138C28.6796 1.35138 29.9496 0.611376 31.1396 0.251376C32.2096 -0.0686242 33.2496 -0.0986242 34.2096 0.251376C35.2596 0.631376 36.0896 1.40138 36.6296 2.64138C37.0096 3.53138 37.2196 4.67138 37.2196 6.10138V15.1514C37.2196 15.2414 37.2196 15.3114 37.2096 15.3814ZM85.6696 82.7314V82.5614H52.1396V56.0314H85.9296L85.9196 55.7714V46.1614C85.9196 46.0814 85.9196 45.9914 85.9296 45.9214C86.0196 43.8514 86.6996 42.3814 87.9896 41.5314C89.2796 40.6714 90.9796 40.5914 93.0696 41.3014C93.2996 41.3814 93.4996 41.4914 93.6796 41.6314C103.78 49.5514 110.74 57.4814 120.83 65.4114L120.97 65.5314C122.65 67.0514 123.11 68.6414 122.76 70.2314C122.45 71.6314 121.47 72.8314 120.16 73.8614L95.4096 95.8214C94.1996 96.7714 92.9296 97.5114 91.7396 97.8714C90.6696 98.1914 89.6296 98.2214 88.6696 97.8714C87.6196 97.4914 86.7896 96.7214 86.2496 95.4814C85.8696 94.5914 85.6596 93.4514 85.6596 92.0214V82.9614C85.6596 82.8814 85.6596 82.8114 85.6696 82.7314Z" />
</svg>
