<svg width="123" height="123" viewbox="0 0 123 123" fill="none" xmlns="http://www.w3.org/2000/svg">
<path d="M64.3866 58.6037C70.8266 65.0437 75.6766 71.9037 78.3066 77.7937C81.1266 84.0937 81.4166 89.4437 78.5166 92.3437C77.1566 93.7037 75.2466 94.3637 72.9566 94.3837L22.1266 117.034C9.24663 123.404 2.90664 124.364 0.736636 120.944C-1.31336 117.714 1.11664 110.864 5.53664 101.134L28.6466 49.0737C28.8266 47.2037 29.4666 45.6437 30.6366 44.4737C33.5366 41.5737 38.8866 41.8637 45.1866 44.6837C51.0866 47.3137 57.9466 52.1537 64.3866 58.6037ZM115.847 88.9437C117.367 90.4637 117.367 92.9337 115.847 94.4537C114.327 95.9737 111.857 95.9737 110.337 94.4537C108.817 92.9337 108.817 90.4637 110.337 88.9437C111.857 87.4237 114.317 87.4237 115.847 88.9437ZM119.547 70.7837C120.627 70.5837 121.667 71.2937 121.867 72.3737C122.067 73.4537 121.357 74.4937 120.277 74.6937C114.987 75.6937 110.537 72.4537 105.937 69.1137C99.8866 64.7137 93.5366 60.0937 85.5066 68.3437C84.7466 69.1337 83.4866 69.1437 82.6966 68.3837C81.9066 67.6237 81.8966 66.3637 82.6566 65.5737C93.0866 54.8537 100.867 60.5037 108.267 65.8937C112.167 68.7237 115.937 71.4637 119.547 70.7837ZM120.457 11.4537C121.557 11.4537 122.437 12.3437 122.437 13.4337C122.437 14.5337 121.547 15.4137 120.457 15.4137C111.317 15.4337 108.917 22.7937 106.377 30.5737C103.427 39.6237 100.307 49.1637 87.9266 51.2837C86.7766 51.4837 85.5966 51.6737 84.2966 51.8537C83.0566 52.0237 81.8266 52.1637 80.5866 52.2437C79.4866 52.3137 78.5466 51.4837 78.4766 50.3837C78.4066 49.2837 79.2366 48.3437 80.3366 48.2737C81.4966 48.1937 82.6366 48.0737 83.7666 47.9137C84.8466 47.7637 86.0366 47.5737 87.2566 47.3637C97.2666 45.6537 100.007 37.2837 102.587 29.3537C105.597 20.1637 108.427 11.4837 120.457 11.4537ZM50.2366 1.62372C50.4366 0.543721 51.4766 -0.166279 52.5566 0.0337211C53.6366 0.233721 54.3466 1.27372 54.1466 2.35372C53.4966 5.78372 55.8766 9.44372 58.3266 13.2037C63.4166 21.0337 68.7666 29.2437 55.2966 39.9037C54.4366 40.5837 53.1866 40.4337 52.5066 39.5737C51.8266 38.7137 51.9766 37.4637 52.8366 36.7837C63.4666 28.3737 59.1366 21.7037 54.9966 15.3537C52.0966 10.9237 49.2866 6.61372 50.2366 1.62372ZM95.4166 7.52372L91.6166 15.0237L97.2266 20.6937L89.2766 19.6137L85.4466 26.7137L84.1866 18.8137L76.2566 17.4137L83.3766 13.7237L82.2166 5.47372L87.9766 11.3837L95.4166 7.52372ZM77.4366 31.8637C78.9566 33.3837 78.9566 35.8537 77.4366 37.3737C75.9166 38.8937 73.4466 38.8937 71.9266 37.3737C70.4066 35.8537 70.4066 33.3837 71.9266 31.8637C73.4466 30.3437 75.9166 30.3437 77.4366 31.8637ZM71.7466 5.19372C73.2666 6.71372 73.2666 9.18372 71.7466 10.7037C70.2266 12.2237 67.7566 12.2237 66.2366 10.7037C64.7166 9.18372 64.7166 6.71372 66.2366 5.19372C67.7566 3.67372 70.2266 3.67372 71.7466 5.19372ZM46.5866 24.4837C48.1066 26.0037 48.1066 28.4737 46.5866 29.9937C45.0666 31.5137 42.5966 31.5137 41.0766 29.9937C39.5566 28.4737 39.5566 26.0037 41.0766 24.4837C42.5966 22.9637 45.0566 22.9637 46.5866 24.4837ZM113.617 46.7137C115.137 48.2337 115.137 50.7037 113.617 52.2237C112.097 53.7437 109.627 53.7437 108.107 52.2237C106.587 50.7037 106.587 48.2337 108.107 46.7137C109.627 45.1937 112.097 45.1937 113.617 46.7137ZM101.377 76.6137L96.6466 79.7037L98.0066 84.8837L93.7466 81.5837L89.1366 84.4237L91.0566 79.4037L86.9166 75.9237L92.2966 76.1637L94.3966 70.9737L95.7566 76.3437L101.377 76.6137ZM32.3566 62.0537C36.3166 73.6737 45.0466 88.6837 57.5666 97.9837L67.5966 93.5037C66.4266 93.1437 65.2166 92.6837 63.9566 92.1237C58.0666 89.4937 51.2066 84.6437 44.7666 78.2037C39.4066 72.8437 35.1466 67.1937 32.3566 62.0537ZM43.1066 104.424C32.3866 95.0037 26.0166 84.7337 20.7166 74.2637L14.0666 89.2537C16.6266 94.5737 23.6466 103.554 30.3566 110.104L43.1066 104.424ZM16.9866 116.184C11.9866 111.874 9.69664 109.244 7.22664 104.624C3.84664 112.234 2.02664 117.444 3.23664 119.344C4.29664 121.004 8.41664 120.164 16.9866 116.184ZM31.5966 49.3337C31.6066 49.4037 31.6066 49.4837 31.5966 49.5637C31.4966 51.0537 31.7766 52.8237 32.4166 54.8037C32.7266 55.7537 33.1166 56.7637 33.5866 57.8137C36.0666 63.3737 40.7066 69.9037 46.8966 76.1037C53.0866 82.2937 59.6266 86.9337 65.1866 89.4137C66.3766 89.9437 67.5166 90.3837 68.5866 90.7037C70.0566 91.1437 71.4066 91.3937 72.6066 91.4137C72.6966 91.4137 72.7866 91.4237 72.8766 91.4337C74.3766 91.4237 75.5866 91.0337 76.3966 90.2237C78.3266 88.2937 77.8766 84.1437 75.5766 79.0037C73.0966 73.4437 68.4566 66.9137 62.2666 60.7137C56.0766 54.5237 49.5366 49.8837 43.9766 47.4037C38.8366 45.1037 34.6866 44.6537 32.7566 46.5837C32.0966 47.2537 31.7166 48.1837 31.5966 49.3337Z" />
</svg>
