<svg xmlns="http://www.w3.org/2000/svg" width="12.14" height="16.78" viewbox="0 0 12.14 16.78"><g id="Capa_2" data-name="Capa 2"><g id="Capa_1-2" data-name="Capa 1"><path d="M2.4,7.19V3.36A1.77,1.77,0,0,1,4.15,1.6H7.83A1.78,1.78,0,0,1,9.59,3.36V7.19h1.59V3.36A3.37,3.37,0,0,0,7.83,0H4.15A3.38,3.38,0,0,0,.8,3.36V7.19Z"/><path d="M11.34,6.55H.64A.69.69,0,0,0,0,7.19v9a.69.69,0,0,0,.64.64H11.5a.69.69,0,0,0,.64-.64V7.19A1.06,1.06,0,0,0,11.34,6.55Zm-4.79,5v1.92a.51.51,0,0,1-.48.48H5.91a.42.42,0,0,1-.48-.48V11.5a1.32,1.32,0,0,1-.64-1,1.28,1.28,0,0,1,2.56,0C7.19,10.86,7,11.34,6.55,11.5Z"/></g></g></svg>