<svg width="123" height="123" viewbox="0 0 123 123" fill="none" xmlns="http://www.w3.org/2000/svg">
<path fill-rule="evenodd" clip-rule="evenodd" d="M0.18 0H44.81V44.45H0.18V0ZM111.5 111.5H122.88V122.7H111.5V111.5ZM89.63 111.48H101.01V122.15H89.63H89.62H78.25V100.33H89.27V89.27H100.48V67.22H111.86V78.06H122.7V89.26H111.86V100.46H100.65H100.48H89.63V111.48ZM55.84 89.09H66.86V77.89H56.2V66.69H66.86V55.49H56.02V66.69H44.63V55.49H55.83V22.23H67.21V55.48H78.23V66.68H89.07V55.48H100.45V66.68H89.63V77.88H78.25V99.93H67.22V122.16H55.84V89.09ZM111.31 55.48H122.69V66.68H111.31V55.48ZM22.41 55.48H33.79V66.68H22.41V55.48ZM0.18 55.48H11.56V66.68H0.18V55.48ZM55.84 0H67.22V11.2H55.84V0ZM0 78.06H44.63V122.51H0V78.06ZM10.84 88.86H33.79V111.72H10.84V88.86ZM78.06 0H122.69V44.45H78.06V0ZM88.91 10.8H111.86V33.66H88.91V10.8ZM11.02 10.8H33.97V33.66H11.02V10.8Z" />
</svg>
