<svg width="400" height="400" viewBox="0 0 400 400" fill="none" xmlns="http://www.w3.org/2000/svg">
<g clip-path="url(#clip0_1222_707)">
<path d="M320.004 0H79.9959C35.8154 0 0 35.8154 0 79.9959V320.004C0 364.185 35.8154 400 79.9959 400H320.004C364.185 400 400 364.185 400 320.004V79.9959C400 35.8154 364.185 0 320.004 0Z" fill="#FBBC04"/>
<path d="M75.031 358.367C74.6892 359.374 73.3939 359.698 72.6562 358.925C57.5078 343.506 46.6592 326.271 38.5992 307.218C27.7146 281.437 22.8031 254.343 21.5077 226.511C19.6546 187.092 22.3533 148.106 38.3654 111.53C64.2185 52.4295 108.926 18.0126 173.946 11.5539C202.138 8.74726 230.186 9.37698 257.73 16.4834C309.616 29.8508 345.67 62.8463 364.561 111.764C390.144 178.061 389.388 245.563 362.15 311.662C356.411 325.587 346.39 337.749 338.24 350.631C337.376 351.98 336.153 353.113 334.731 354.517C333.976 355.254 332.734 354.949 332.393 353.959C318.719 315.404 292.758 289.821 254.725 274.799C253.934 274.475 253.016 274.942 252.8 275.77C243.121 312.544 233.622 348.688 224.123 384.814L220.129 384.562C217.772 366.967 215.595 349.335 212.698 331.812C211.349 323.698 213.22 317.707 219.175 312.4C221.568 310.259 223.565 307.686 226.066 304.79C226.587 304.178 226.515 303.26 225.904 302.739C219.193 297.179 212.698 291.782 205.772 286.043C205.25 285.611 204.476 285.593 203.937 286.043C197.28 291.548 190.767 296.927 183.859 302.613C183.229 303.134 183.157 304.07 183.697 304.682C187.565 309.071 191.271 313.065 194.635 317.329C196.075 319.164 197.712 321.809 197.46 323.86C195.013 344.154 192.279 364.43 188.5 384.832C188.231 386.325 186.09 386.415 185.712 384.94C176.087 348.868 166.443 312.742 156.638 276.058C156.422 275.248 155.541 274.781 154.749 275.068C114.485 290.037 88.7042 317.743 75.085 358.349L75.031 358.367ZM209.64 246.481C209.406 245.833 209.64 245.113 210.234 244.754C211.511 243.944 212.77 243.044 214.138 242.792C230.455 239.986 249.778 230.936 260.357 218.469C261.886 216.652 264.836 215.266 267.211 215.104C272.105 214.762 274.39 212.352 274.516 207.854C274.731 199.182 274.803 190.493 274.605 181.821C274.569 179.986 273.22 178.133 272.249 176.406C270.378 173.041 267.373 169.983 266.545 166.403C259.979 138.337 236.069 118.205 207.877 117.485C177.814 116.729 152.446 134.9 144.404 163.002C142.821 168.526 143.019 174.822 136.83 178.205C135.787 178.78 135.211 181.029 135.175 182.523C134.995 190.726 134.743 198.966 135.211 207.152C135.337 209.437 137.334 212.855 139.259 213.557C144.117 215.32 145.394 219.026 146.905 223.164C153.31 240.742 163.007 255.926 179.271 266.091C204.422 281.815 237.634 271.992 250.587 245.491C250.821 245.005 250.767 244.43 250.444 243.998C249.148 242.217 247.907 240.508 246.845 239.05C246.45 238.511 245.748 238.313 245.118 238.583C234.953 243.008 220.848 248.118 210.881 247.452C210.324 247.416 209.838 247.038 209.658 246.499L209.64 246.481ZM127.943 223.902C128.752 223.992 129.472 223.362 129.508 222.553C129.634 220.304 129.778 218.307 129.778 216.31C129.814 203.266 129.778 190.223 129.778 177.179C129.832 137.617 159.859 106.439 202.192 104.334C242.132 102.337 274.084 131.41 278.366 165.521C280.524 182.649 279.481 200.208 279.481 217.551C279.481 222.84 281.01 224.658 286.264 223.326C297.382 220.52 304.111 213.143 306.809 202.475C309.544 191.68 307.043 181.677 297.778 174.912C292.543 171.08 289.898 166.636 288.441 160.556C278.851 120.436 243.751 92.4595 204.243 93.1792C163.025 93.9348 128.878 122.253 119.973 162.607C119.199 166.133 116.608 169.983 113.712 172.178C103.349 180.022 99.247 190.708 102.683 203.608C105.616 214.672 114.881 222.391 127.925 223.884L127.943 223.902Z" fill="white" fill-opacity="0.05"/>
<path d="M204.458 254.432C202.245 254.666 199.997 254.648 197.82 254.252C196.56 254.037 195.283 253.659 194.293 252.921C192.063 251.23 189.616 248.082 189.67 245.635C189.724 243.17 192.278 239.5 194.581 238.636C198.197 237.287 202.569 237.467 206.563 237.755C211.313 238.097 214.677 240.327 214.623 245.977C214.569 251.734 210.719 253.173 206.275 254.18C205.718 254.306 205.142 254.378 204.494 254.45L204.458 254.432Z" fill="white" fill-opacity="0.05"/>
<path d="M137.71 181.778C134.076 175.479 127.134 166.91 127.134 159.516C127.216 157.116 127.969 154.8 129.296 152.869C130.622 150.939 132.459 149.485 134.566 148.698C134.221 142.438 133.985 136.1 133.985 129.82C133.985 126.103 133.985 122.367 134.185 118.669C134.409 116.781 134.824 114.925 135.42 113.133C138.07 103.683 143.903 95.6386 151.776 90.5777C154.591 88.7101 157.581 87.1691 160.698 85.9805C166.313 83.7895 163.66 74.1452 169.948 74.0082C184.486 73.617 208.255 87.252 217.541 98.0701C223.424 104.624 226.809 113.315 227.027 122.425L226.428 149.813C227.801 150.122 229.081 150.798 230.148 151.779C231.215 152.76 232.035 154.015 232.534 155.427C234.423 163.996 226.101 174.696 222.248 181.602C218.614 187.94 205.075 205.194 205.057 205.351C205.162 206.506 205.593 207.598 206.293 208.481C207.619 210.424 209.123 212.22 210.781 213.841C202.876 222.837 197.741 234.239 196.076 246.492C194.411 258.745 196.297 271.253 201.477 282.31H70C70 219.964 132.131 239.742 153.248 208.481C154.302 206.818 154.774 205.938 154.756 205.214C154.756 204.823 139.109 184.184 137.71 181.739V181.778Z" fill="white"/>
<path d="M332 258.5C332 295.227 304.242 325 270 325C235.758 325 208 295.227 208 258.5C208 221.773 235.758 192 270 192C304.242 192 332 221.773 332 258.5Z" fill="white"/>
<g filter="url(#filter0_d_1222_707)">
<mask id="path-6-outside-1_1222_707" maskUnits="userSpaceOnUse" x="215.419" y="211.531" width="111.169" height="87.8925" fill="black">
<rect fill="white" x="215.419" y="211.531" width="111.169" height="87.8925"/>
<path d="M244.067 262.259L256.75 281.924L254.148 283.602L229.52 276.566L237.656 289.182L242.986 288.015L243.287 290.606L234.513 296.264L233.42 294.57L234.723 290.346L224.479 274.463L219.931 274.783L219.661 272.173L224.986 268.739L248.958 275.554L241.095 263.362L235.784 264.559L235.514 261.949L244.288 256.29L245.381 257.985L244.067 262.259ZM280.864 266.415L261.743 278.746L260.651 277.052L262.051 272.979L251.144 256.067L247.142 257.234L246.872 254.624L265.206 242.8L267.033 240.851L272.009 248.565L270.774 250.304L263.482 247.168L256.191 251.87L261.459 260.038L265.059 257.717L265.082 252.904L266.777 251.811L272.454 260.615L271.132 262.882L266.531 260.066L262.961 262.368L268.561 271.051L275.61 266.505L275.896 257.582L278.008 257.205L283.393 265.555L280.864 266.415ZM308.059 220.818L313.429 243.957L309.22 248.856L297.081 239.464L300.541 252.269L296.302 257.187L274.802 241.452L270.851 241.901L270.551 239.31L280.353 232.989L281.446 234.683L280.343 237.622L296.685 249.744L293.103 236.418L288.326 232.73L284.636 233.054L284.336 230.463L294.925 223.634L296.018 225.328L294.202 229.155L309.683 241.404L305.261 222.922L299.037 223.766L298.767 221.156L308.509 214.873L309.613 216.518L308.059 220.818Z"/>
</mask>
<path d="M244.067 262.259L256.75 281.924L254.148 283.602L229.52 276.566L237.656 289.182L242.986 288.015L243.287 290.606L234.513 296.264L233.42 294.57L234.723 290.346L224.479 274.463L219.931 274.783L219.661 272.173L224.986 268.739L248.958 275.554L241.095 263.362L235.784 264.559L235.514 261.949L244.288 256.29L245.381 257.985L244.067 262.259ZM280.864 266.415L261.743 278.746L260.651 277.052L262.051 272.979L251.144 256.067L247.142 257.234L246.872 254.624L265.206 242.8L267.033 240.851L272.009 248.565L270.774 250.304L263.482 247.168L256.191 251.87L261.459 260.038L265.059 257.717L265.082 252.904L266.777 251.811L272.454 260.615L271.132 262.882L266.531 260.066L262.961 262.368L268.561 271.051L275.61 266.505L275.896 257.582L278.008 257.205L283.393 265.555L280.864 266.415ZM308.059 220.818L313.429 243.957L309.22 248.856L297.081 239.464L300.541 252.269L296.302 257.187L274.802 241.452L270.851 241.901L270.551 239.31L280.353 232.989L281.446 234.683L280.343 237.622L296.685 249.744L293.103 236.418L288.326 232.73L284.636 233.054L284.336 230.463L294.925 223.634L296.018 225.328L294.202 229.155L309.683 241.404L305.261 222.922L299.037 223.766L298.767 221.156L308.509 214.873L309.613 216.518L308.059 220.818Z" fill="white"/>
<path d="M244.067 262.259L243.111 261.965L242.975 262.41L243.227 262.8L244.067 262.259ZM256.75 281.924L257.292 282.764L258.132 282.222L257.59 281.382L256.75 281.924ZM254.148 283.602L253.873 284.563L254.309 284.688L254.69 284.442L254.148 283.602ZM229.52 276.566L229.795 275.605L227.239 274.875L228.68 277.108L229.52 276.566ZM237.656 289.182L236.816 289.724L237.192 290.308L237.87 290.159L237.656 289.182ZM242.986 288.015L243.98 287.9L243.853 286.802L242.773 287.038L242.986 288.015ZM243.287 290.606L243.829 291.447L244.352 291.109L244.28 290.491L243.287 290.606ZM234.513 296.264L233.672 296.806L234.214 297.647L235.055 297.105L234.513 296.264ZM233.42 294.57L232.465 294.276L232.327 294.721L232.58 295.112L233.42 294.57ZM234.723 290.346L235.678 290.641L235.816 290.196L235.563 289.804L234.723 290.346ZM224.479 274.463L225.32 273.921L224.999 273.424L224.409 273.465L224.479 274.463ZM219.931 274.783L218.936 274.886L219.036 275.848L220.001 275.78L219.931 274.783ZM219.661 272.173L219.119 271.332L218.603 271.665L218.666 272.275L219.661 272.173ZM224.986 268.739L225.259 267.777L224.824 267.653L224.444 267.898L224.986 268.739ZM248.958 275.554L248.684 276.516L251.236 277.241L249.798 275.012L248.958 275.554ZM241.095 263.362L241.935 262.82L241.556 262.232L240.875 262.386L241.095 263.362ZM235.784 264.559L234.789 264.662L234.905 265.782L236.004 265.535L235.784 264.559ZM235.514 261.949L234.972 261.108L234.456 261.441L234.52 262.051L235.514 261.949ZM244.288 256.29L245.128 255.748L244.586 254.908L243.746 255.45L244.288 256.29ZM245.381 257.985L246.336 258.278L246.473 257.834L246.221 257.443L245.381 257.985ZM243.227 262.8L255.909 282.466L257.59 281.382L244.908 261.717L243.227 262.8ZM256.208 281.083L253.606 282.761L254.69 284.442L257.292 282.764L256.208 281.083ZM254.422 282.64L229.795 275.605L229.245 277.528L253.873 284.563L254.422 282.64ZM228.68 277.108L236.816 289.724L238.497 288.64L230.36 276.024L228.68 277.108ZM237.87 290.159L243.2 288.992L242.773 287.038L237.442 288.206L237.87 290.159ZM241.993 288.13L242.293 290.721L244.28 290.491L243.98 287.9L241.993 288.13ZM242.745 289.766L233.971 295.424L235.055 297.105L243.829 291.447L242.745 289.766ZM235.353 295.722L234.261 294.028L232.58 295.112L233.672 296.806L235.353 295.722ZM234.376 294.865L235.678 290.641L233.767 290.051L232.465 294.276L234.376 294.865ZM235.563 289.804L225.32 273.921L223.639 275.005L233.882 290.888L235.563 289.804ZM224.409 273.465L219.861 273.785L220.001 275.78L224.55 275.46L224.409 273.465ZM220.926 274.68L220.656 272.07L218.666 272.275L218.936 274.886L220.926 274.68ZM220.203 273.013L225.528 269.579L224.444 267.898L219.119 271.332L220.203 273.013ZM224.712 269.7L248.684 276.516L249.231 274.592L225.259 267.777L224.712 269.7ZM249.798 275.012L241.935 262.82L240.254 263.904L248.117 276.096L249.798 275.012ZM240.875 262.386L235.564 263.584L236.004 265.535L241.315 264.337L240.875 262.386ZM236.779 264.456L236.509 261.846L234.52 262.051L234.789 264.662L236.779 264.456ZM236.056 262.789L244.83 257.131L243.746 255.45L234.972 261.108L236.056 262.789ZM243.448 256.832L244.54 258.527L246.221 257.443L245.128 255.748L243.448 256.832ZM244.425 257.691L243.111 261.965L245.023 262.552L246.336 258.278L244.425 257.691ZM280.864 266.415L280.542 265.468L280.425 265.508L280.322 265.575L280.864 266.415ZM261.743 278.746L260.903 279.288L261.445 280.128L262.285 279.586L261.743 278.746ZM260.651 277.052L259.705 276.727L259.547 277.186L259.81 277.594L260.651 277.052ZM262.051 272.979L262.996 273.304L263.154 272.845L262.891 272.437L262.051 272.979ZM251.144 256.067L251.984 255.525L251.58 254.898L250.864 255.107L251.144 256.067ZM247.142 257.234L246.147 257.337L246.271 258.53L247.422 258.194L247.142 257.234ZM246.872 254.624L246.33 253.783L245.814 254.116L245.877 254.727L246.872 254.624ZM265.206 242.8L265.748 243.64L265.852 243.574L265.936 243.484L265.206 242.8ZM267.033 240.851L267.874 240.309L267.179 239.232L266.304 240.167L267.033 240.851ZM272.009 248.565L272.824 249.144L273.216 248.592L272.849 248.024L272.009 248.565ZM270.774 250.304L270.379 251.223L271.121 251.542L271.589 250.883L270.774 250.304ZM263.482 247.168L263.877 246.249L263.388 246.038L262.94 246.327L263.482 247.168ZM256.191 251.87L255.649 251.029L254.808 251.571L255.35 252.412L256.191 251.87ZM261.459 260.038L260.618 260.58L261.16 261.421L262.001 260.879L261.459 260.038ZM265.059 257.717L265.601 258.557L266.056 258.263L266.059 257.721L265.059 257.717ZM265.082 252.904L264.54 252.063L264.085 252.357L264.082 252.899L265.082 252.904ZM266.777 251.811L267.617 251.269L267.075 250.429L266.235 250.971L266.777 251.811ZM272.454 260.615L273.318 261.119L273.627 260.589L273.295 260.073L272.454 260.615ZM271.132 262.882L270.61 263.735L271.481 264.268L271.995 263.386L271.132 262.882ZM266.531 260.066L267.053 259.213L266.517 258.885L265.989 259.225L266.531 260.066ZM262.961 262.368L262.419 261.528L261.579 262.07L262.121 262.91L262.961 262.368ZM268.561 271.051L267.72 271.593L268.262 272.433L269.103 271.891L268.561 271.051ZM275.61 266.505L276.152 267.345L276.593 267.061L276.61 266.537L275.61 266.505ZM275.896 257.582L275.72 256.597L274.922 256.74L274.896 257.55L275.896 257.582ZM278.008 257.205L278.849 256.663L278.488 256.103L277.833 256.22L278.008 257.205ZM283.393 265.555L283.715 266.501L284.928 266.089L284.234 265.013L283.393 265.555ZM280.322 265.575L261.201 277.906L262.285 279.586L281.406 267.255L280.322 265.575ZM262.584 278.204L261.491 276.51L259.81 277.594L260.903 279.288L262.584 278.204ZM261.596 277.377L262.996 273.304L261.105 272.654L259.705 276.727L261.596 277.377ZM262.891 272.437L251.984 255.525L250.304 256.609L261.21 273.521L262.891 272.437ZM250.864 255.107L246.862 256.274L247.422 258.194L251.424 257.027L250.864 255.107ZM248.137 257.131L247.867 254.521L245.877 254.727L246.147 257.337L248.137 257.131ZM247.414 255.464L265.748 243.64L264.664 241.96L246.33 253.783L247.414 255.464ZM265.936 243.484L267.763 241.535L266.304 240.167L264.476 242.116L265.936 243.484ZM266.193 241.393L271.168 249.107L272.849 248.024L267.874 240.309L266.193 241.393ZM271.193 247.986L269.959 249.725L271.589 250.883L272.824 249.144L271.193 247.986ZM271.169 249.386L263.877 246.249L263.087 248.086L270.379 251.223L271.169 249.386ZM262.94 246.327L255.649 251.029L256.733 252.71L264.024 248.008L262.94 246.327ZM255.35 252.412L260.618 260.58L262.299 259.496L257.031 251.328L255.35 252.412ZM262.001 260.879L265.601 258.557L264.517 256.876L260.917 259.198L262.001 260.879ZM266.059 257.721L266.082 252.909L264.082 252.899L264.059 257.712L266.059 257.721ZM265.624 253.744L267.319 252.652L266.235 250.971L264.54 252.063L265.624 253.744ZM265.936 252.353L271.614 261.157L273.295 260.073L267.617 251.269L265.936 252.353ZM271.591 260.111L270.268 262.378L271.995 263.386L273.318 261.119L271.591 260.111ZM271.654 262.029L267.053 259.213L266.009 260.919L270.61 263.735L271.654 262.029ZM265.989 259.225L262.419 261.528L263.503 263.208L267.073 260.906L265.989 259.225ZM262.121 262.91L267.72 271.593L269.401 270.509L263.802 261.826L262.121 262.91ZM269.103 271.891L276.152 267.345L275.068 265.664L268.019 270.211L269.103 271.891ZM276.61 266.537L276.895 257.614L274.896 257.55L274.611 266.473L276.61 266.537ZM276.071 258.566L278.184 258.189L277.833 256.22L275.72 256.597L276.071 258.566ZM277.168 257.747L282.553 266.097L284.234 265.013L278.849 256.663L277.168 257.747ZM283.071 264.608L280.542 265.468L281.186 267.362L283.715 266.501L283.071 264.608ZM308.059 220.818L307.119 220.478L307.018 220.756L307.085 221.044L308.059 220.818ZM313.429 243.957L314.188 244.609L314.518 244.224L314.403 243.731L313.429 243.957ZM309.22 248.856L308.609 249.647L309.36 250.228L309.979 249.507L309.22 248.856ZM297.081 239.464L297.693 238.673L295.339 236.853L296.115 239.725L297.081 239.464ZM300.541 252.269L301.298 252.922L301.645 252.52L301.506 252.008L300.541 252.269ZM296.302 257.187L295.711 257.994L296.457 258.539L297.059 257.84L296.302 257.187ZM274.802 241.452L275.393 240.645L275.078 240.414L274.689 240.458L274.802 241.452ZM270.851 241.901L269.858 242.016L269.973 243.007L270.964 242.895L270.851 241.901ZM270.551 239.31L270.009 238.47L269.486 238.807L269.558 239.425L270.551 239.31ZM280.353 232.989L281.194 232.447L280.652 231.606L279.811 232.148L280.353 232.989ZM281.446 234.683L282.382 235.034L282.559 234.563L282.286 234.141L281.446 234.683ZM280.343 237.622L279.407 237.27L279.142 237.976L279.747 238.425L280.343 237.622ZM296.685 249.744L296.089 250.547L298.396 252.258L297.651 249.484L296.685 249.744ZM293.103 236.418L294.069 236.158L293.981 235.833L293.714 235.626L293.103 236.418ZM288.326 232.73L288.937 231.939L288.628 231.7L288.239 231.734L288.326 232.73ZM284.636 233.054L283.643 233.169L283.755 234.135L284.724 234.05L284.636 233.054ZM284.336 230.463L283.794 229.623L283.271 229.96L283.343 230.578L284.336 230.463ZM294.925 223.634L295.766 223.092L295.224 222.252L294.383 222.794L294.925 223.634ZM296.018 225.328L296.921 225.757L297.16 225.254L296.858 224.786L296.018 225.328ZM294.202 229.155L293.299 228.726L292.957 229.445L293.582 229.939L294.202 229.155ZM309.683 241.404L309.063 242.188L311.328 243.98L310.656 241.171L309.683 241.404ZM305.261 222.922L306.234 222.69L306.023 221.81L305.127 221.932L305.261 222.922ZM299.037 223.766L298.043 223.869L298.149 224.896L299.172 224.757L299.037 223.766ZM298.767 221.156L298.225 220.316L297.71 220.648L297.773 221.259L298.767 221.156ZM308.509 214.873L309.34 214.316L308.793 213.501L307.967 214.033L308.509 214.873ZM309.613 216.518L310.553 216.858L310.725 216.381L310.443 215.961L309.613 216.518ZM307.085 221.044L312.455 244.183L314.403 243.731L309.033 220.592L307.085 221.044ZM312.671 243.305L308.462 248.204L309.979 249.507L314.188 244.609L312.671 243.305ZM309.832 248.065L297.693 238.673L296.469 240.255L308.609 249.647L309.832 248.065ZM296.115 239.725L299.575 252.53L301.506 252.008L298.046 239.203L296.115 239.725ZM299.783 251.616L295.544 256.534L297.059 257.84L301.298 252.922L299.783 251.616ZM296.893 256.38L275.393 240.645L274.212 242.259L295.711 257.994L296.893 256.38ZM274.689 240.458L270.738 240.908L270.964 242.895L274.915 242.446L274.689 240.458ZM271.844 241.786L271.544 239.195L269.558 239.425L269.858 242.016L271.844 241.786ZM271.093 240.151L280.895 233.829L279.811 232.148L270.009 238.47L271.093 240.151ZM279.513 233.531L280.606 235.225L282.286 234.141L281.194 232.447L279.513 233.531ZM280.51 234.331L279.407 237.27L281.279 237.973L282.382 235.034L280.51 234.331ZM279.747 238.425L296.089 250.547L297.281 248.94L280.939 236.819L279.747 238.425ZM297.651 249.484L294.069 236.158L292.137 236.678L295.719 250.003L297.651 249.484ZM293.714 235.626L288.937 231.939L287.715 233.522L292.492 237.21L293.714 235.626ZM288.239 231.734L284.549 232.058L284.724 234.05L288.413 233.727L288.239 231.734ZM285.63 232.939L285.33 230.348L283.343 230.578L283.643 233.169L285.63 232.939ZM284.878 231.303L295.467 224.474L294.383 222.794L283.794 229.623L284.878 231.303ZM294.085 224.176L295.177 225.87L296.858 224.786L295.766 223.092L294.085 224.176ZM295.114 224.9L293.299 228.726L295.106 229.584L296.921 225.757L295.114 224.9ZM293.582 229.939L309.063 242.188L310.304 240.619L294.823 228.371L293.582 229.939ZM310.656 241.171L306.234 222.69L304.289 223.155L308.711 241.636L310.656 241.171ZM305.127 221.932L298.903 222.776L299.172 224.757L305.396 223.913L305.127 221.932ZM300.032 223.664L299.762 221.053L297.773 221.259L298.043 223.869L300.032 223.664ZM299.309 221.996L309.051 215.714L307.967 214.033L298.225 220.316L299.309 221.996ZM307.679 215.431L308.782 217.075L310.443 215.961L309.34 214.316L307.679 215.431ZM308.672 216.178L307.119 220.478L309 221.158L310.553 216.858L308.672 216.178Z" fill="black" mask="url(#path-6-outside-1_1222_707)"/>
</g>
</g>
<defs>
<filter id="filter0_d_1222_707" x="214.603" y="213.501" width="103.914" height="92.146" filterUnits="userSpaceOnUse" color-interpolation-filters="sRGB">
<feFlood flood-opacity="0" result="BackgroundImageFix"/>
<feColorMatrix in="SourceAlpha" type="matrix" values="0 0 0 0 0 0 0 0 0 0 0 0 0 0 0 0 0 0 127 0" result="hardAlpha"/>
<feOffset dy="4"/>
<feGaussianBlur stdDeviation="2"/>
<feComposite in2="hardAlpha" operator="out"/>
<feColorMatrix type="matrix" values="0 0 0 0 0 0 0 0 0 0 0 0 0 0 0 0 0 0 0.25 0"/>
<feBlend mode="normal" in2="BackgroundImageFix" result="effect1_dropShadow_1222_707"/>
<feBlend mode="normal" in="SourceGraphic" in2="effect1_dropShadow_1222_707" result="shape"/>
</filter>
<clipPath id="clip0_1222_707">
<rect width="400" height="400" fill="white"/>
</clipPath>
</defs>
</svg>
