<svg width="400" height="400" viewBox="0 0 400 400" fill="none" xmlns="http://www.w3.org/2000/svg">
<g clip-path="url(#clip0_1222_718)">
<path d="M320.004 0H79.9959C35.8154 0 0 35.8154 0 79.9959V320.004C0 364.185 35.8154 400 79.9959 400H320.004C364.185 400 400 364.185 400 320.004V79.9959C400 35.8154 364.185 0 320.004 0Z" fill="#DB2E2E"/>
<path d="M75.031 358.367C74.6892 359.374 73.3939 359.698 72.6562 358.925C57.5078 343.506 46.6592 326.271 38.5992 307.218C27.7146 281.437 22.8031 254.343 21.5077 226.511C19.6546 187.092 22.3533 148.106 38.3654 111.53C64.2185 52.4295 108.926 18.0126 173.946 11.5539C202.138 8.74726 230.186 9.37698 257.73 16.4834C309.616 29.8508 345.67 62.8463 364.561 111.764C390.144 178.061 389.388 245.563 362.15 311.662C356.411 325.587 346.39 337.749 338.24 350.631C337.376 351.98 336.153 353.113 334.731 354.517C333.976 355.254 332.734 354.949 332.393 353.959C318.719 315.404 292.758 289.821 254.725 274.799C253.934 274.475 253.016 274.942 252.8 275.77C243.121 312.544 233.622 348.688 224.123 384.814L220.129 384.562C217.772 366.967 215.595 349.335 212.698 331.812C211.349 323.698 213.22 317.707 219.175 312.4C221.568 310.259 223.565 307.686 226.066 304.79C226.587 304.178 226.515 303.26 225.904 302.739C219.193 297.179 212.698 291.782 205.772 286.043C205.25 285.611 204.476 285.593 203.937 286.043C197.28 291.548 190.767 296.927 183.859 302.613C183.229 303.134 183.157 304.07 183.697 304.682C187.565 309.071 191.271 313.065 194.635 317.329C196.075 319.164 197.712 321.809 197.46 323.86C195.013 344.154 192.279 364.43 188.5 384.832C188.231 386.325 186.09 386.415 185.712 384.94C176.087 348.868 166.443 312.742 156.638 276.058C156.422 275.248 155.541 274.781 154.749 275.068C114.485 290.037 88.7042 317.743 75.085 358.349L75.031 358.367ZM209.64 246.481C209.406 245.833 209.64 245.113 210.234 244.754C211.511 243.944 212.77 243.044 214.138 242.792C230.455 239.986 249.778 230.936 260.357 218.469C261.886 216.652 264.836 215.266 267.211 215.104C272.105 214.762 274.39 212.352 274.516 207.854C274.731 199.182 274.803 190.493 274.605 181.821C274.569 179.986 273.22 178.133 272.249 176.406C270.378 173.041 267.373 169.983 266.545 166.403C259.979 138.337 236.069 118.205 207.877 117.485C177.814 116.729 152.446 134.9 144.404 163.002C142.821 168.526 143.019 174.822 136.83 178.205C135.787 178.78 135.211 181.029 135.175 182.523C134.995 190.726 134.743 198.966 135.211 207.152C135.337 209.437 137.334 212.855 139.259 213.557C144.117 215.32 145.394 219.026 146.905 223.164C153.31 240.742 163.007 255.926 179.271 266.091C204.422 281.815 237.634 271.992 250.587 245.491C250.821 245.005 250.767 244.43 250.444 243.998C249.148 242.217 247.907 240.508 246.845 239.05C246.45 238.511 245.748 238.313 245.118 238.583C234.953 243.008 220.848 248.118 210.881 247.452C210.324 247.416 209.838 247.038 209.658 246.499L209.64 246.481ZM127.943 223.902C128.752 223.992 129.472 223.362 129.508 222.553C129.634 220.304 129.778 218.307 129.778 216.31C129.814 203.266 129.778 190.223 129.778 177.179C129.832 137.617 159.859 106.439 202.192 104.334C242.132 102.337 274.084 131.41 278.366 165.521C280.524 182.649 279.481 200.208 279.481 217.551C279.481 222.84 281.01 224.658 286.264 223.326C297.382 220.52 304.111 213.143 306.809 202.475C309.544 191.68 307.043 181.677 297.778 174.912C292.543 171.08 289.898 166.636 288.441 160.556C278.851 120.436 243.751 92.4595 204.243 93.1792C163.025 93.9348 128.878 122.253 119.973 162.607C119.199 166.133 116.608 169.983 113.712 172.178C103.349 180.022 99.247 190.708 102.683 203.608C105.616 214.672 114.881 222.391 127.925 223.884L127.943 223.902Z" fill="white" fill-opacity="0.05"/>
<path d="M204.458 254.432C202.245 254.666 199.997 254.648 197.82 254.252C196.56 254.037 195.283 253.659 194.293 252.921C192.063 251.23 189.616 248.082 189.67 245.635C189.724 243.17 192.278 239.5 194.581 238.636C198.197 237.287 202.569 237.467 206.563 237.755C211.313 238.097 214.677 240.327 214.623 245.977C214.569 251.734 210.719 253.173 206.275 254.18C205.718 254.306 205.142 254.378 204.494 254.45L204.458 254.432Z" fill="white" fill-opacity="0.05"/>
<path d="M137.71 181.778C134.076 175.479 127.134 166.91 127.134 159.516C127.216 157.116 127.969 154.8 129.296 152.869C130.622 150.939 132.459 149.485 134.566 148.698C134.221 142.438 133.985 136.1 133.985 129.82C133.985 126.103 133.985 122.367 134.185 118.669C134.409 116.781 134.824 114.925 135.42 113.133C138.07 103.683 143.903 95.6386 151.776 90.5777C154.591 88.7101 157.581 87.1691 160.698 85.9805C166.313 83.7895 163.66 74.1452 169.948 74.0082C184.486 73.617 208.255 87.252 217.541 98.0701C223.424 104.624 226.809 113.315 227.027 122.425L226.428 149.813C227.801 150.122 229.081 150.798 230.148 151.779C231.215 152.76 232.035 154.015 232.534 155.427C234.423 163.996 226.101 174.696 222.248 181.602C218.614 187.94 205.075 205.194 205.057 205.351C205.162 206.506 205.593 207.598 206.293 208.481C207.619 210.424 209.123 212.22 210.781 213.841C202.876 222.837 197.741 234.239 196.076 246.492C194.411 258.745 196.297 271.253 201.477 282.31H70C70 219.964 132.131 239.742 153.248 208.481C154.302 206.818 154.774 205.938 154.756 205.214C154.756 204.823 139.109 184.184 137.71 181.739V181.778Z" fill="white"/>
<path d="M270.967 192.454C285.318 192.452 299.226 197.808 310.32 207.609C321.414 217.409 329.008 231.048 331.808 246.2C334.608 261.353 332.44 277.082 325.674 290.706C318.908 304.331 307.963 315.009 294.704 320.919C281.444 326.83 266.691 327.609 252.958 323.122C239.225 318.636 227.362 309.162 219.391 296.315C211.42 283.467 207.834 268.042 209.243 252.668C210.653 237.293 216.972 222.921 227.122 211.999C232.876 205.795 239.711 200.875 247.234 197.521C254.758 194.167 262.823 192.445 270.967 192.454ZM306.419 238.436L251.788 297.217C254.247 298.68 256.844 299.854 259.535 300.721C266.499 302.954 273.894 303.122 280.939 301.205C287.984 299.289 294.418 295.36 299.56 289.834C305.693 283.204 309.674 274.621 310.91 265.36C312.146 256.099 310.571 246.656 306.419 238.436ZM235.676 280.017L290.28 221.207C284.368 217.696 277.719 215.872 270.967 215.908C264.704 215.933 258.532 217.527 252.94 220.564C247.349 223.601 242.491 227.998 238.751 233.406C235.011 238.815 232.492 245.086 231.393 251.724C230.295 258.361 230.647 265.183 232.421 271.649C233.221 274.557 234.313 277.363 235.676 280.017Z" fill="white"/>
</g>
<defs>
<clipPath id="clip0_1222_718">
<rect width="400" height="400" fill="white"/>
</clipPath>
</defs>
</svg>
